<?xml version="1.0" standalone="no"?>
<!DOCTYPE svg PUBLIC "-//W3C//DTD SVG 20010904//EN"
 "http://www.w3.org/TR/2001/REC-SVG-20010904/DTD/svg10.dtd">
<svg version="1.0" xmlns="http://www.w3.org/2000/svg"
 width="260.000000pt" height="260.000000pt" viewBox="0 0 260.000000 260.000000"
 preserveAspectRatio="xMidYMid meet">
<metadata>
Created by potrace 1.11, written by Peter Selinger 2001-2013
</metadata>
<g transform="translate(0.000000,260.000000) scale(0.100000,-0.100000)"
fill="#000000" stroke="none">
<path d="M1206 2378 c-112 -21 -225 -92 -296 -186 l-39 -53 -70 -3 c-178 -8
-325 -150 -362 -349 -25 -137 25 -300 122 -397 27 -28 54 -50 58 -50 4 0 11
82 14 183 6 173 8 186 38 261 36 94 85 174 125 205 l29 23 7 -72 c7 -85 28
-146 75 -217 89 -135 279 -222 458 -210 54 4 78 1 105 -13 86 -44 180 -63 310
-63 179 1 269 26 351 100 43 39 47 49 22 57 -10 4 -42 22 -72 40 l-54 34 44
19 44 20 -57 13 c-32 7 -58 16 -58 19 0 3 32 33 70 65 38 32 67 62 65 66 -2 4
-29 10 -60 14 -87 10 -234 73 -235 100 0 4 -22 54 -49 111 -40 81 -61 112
-107 154 -127 116 -301 163 -478 129z"/>
<path d="M840 1118 c-45 -31 -55 -70 -31 -123 38 -85 151 -97 303 -33 l48 20
65 -26 c165 -66 276 -35 292 81 6 46 -17 79 -62 89 -29 7 -29 6 -13 -12 9 -10
18 -28 20 -39 6 -37 -44 -30 -135 19 -94 51 -113 55 -150 26 -25 -20 -25 -20
-50 0 -36 28 -53 25 -132 -21 -39 -23 -87 -44 -107 -46 -33 -5 -38 -3 -38 14
0 11 9 32 21 47 25 32 13 33 -31 4z"/>
<path d="M1653 439 c-8 -8 -166 -10 -572 -7 l-561 4 0 -123 0 -123 650 0 650
0 0 130 0 130 -78 0 c-44 0 -83 -5 -89 -11z"/>
</g>
</svg>
