<svg xmlns="http://www.w3.org/2000/svg" width="190" height="172" viewBox="0 0 190 172"><defs><style>.cls-1{fill:#e8c4e4;stroke:#fff;stroke-miterlimit:10;stroke-width:4px;}.cls-2{fill:#f9e8f9;}.cls-3{fill:#a89891;}.cls-4{fill:#b2a7a3;}.cls-5{fill:#e0d9d7;}.cls-6{fill:#e5d873;}.cls-7{fill:#eadfa0;}</style></defs><title>aeg</title><g id="Overskrift"><ellipse class="cls-1" cx="95" cy="86" rx="92" ry="84"/><path class="cls-2" d="M38.92,78.45c5.17-1,2.26-16.48,18-29.32C74.7,34.59,99.28,37.42,102,31.13c2.5-5.75-14.8-15.56-35.11-11.21C51.36,23.25,39.16,33.79,33.42,42.78,21.58,61.3,33.07,79.63,38.92,78.45Z"/><ellipse class="cls-3" cx="71.27" cy="85.36" rx="17.2" ry="23.31" transform="translate(-14.38 14.45) rotate(-10.52)"/><ellipse class="cls-3" cx="97.16" cy="83.45" rx="22.93" ry="12.51" transform="translate(-13.6 19.14) rotate(-10.52)"/><path class="cls-4" d="M60.88,74.31c.63,0,.72-2.12,3.17-4.35,3-2.75,6.7-2.94,6.62-3.57-.1-.79-5.83-1.9-9,.65S60,74.25,60.88,74.31Z"/><path class="cls-4" d="M104.16,75.55c0,.51,2.63.15,5.48,1.68,3.5,1.89,3.85,4.8,4.64,4.6,1-.23,2.15-5.06-1.12-7.09S104.2,74.82,104.16,75.55Z"/><path class="cls-4" d="M120.2,97.67c.12.84,3.11.74,3.24,1.72.14,1.17-4,2.53-3.82,3s6.1-1.51,7.26-.19c.71.81-.88,2.22-3.19,6.37-2.16,3.87-1.76,4.41-2.69,5.13-4.39,3.37-24.15-.13-25.95-10.22-1.58-8.87,11.8-16.79,20.55-18.85,3.52-.83,7.72-1,8-.32.31,1-6.8,3.28-6.43,4.66,0,0,.14.48,6.05,1.19,0,0,6.19.93,6.26,2.31C129.54,94.22,120,96.17,120.2,97.67Z"/><path class="cls-4" d="M131.8,81.64c.07-.29,8.84-2,14.92,1.86,6.31,4,7.56,12.51,3.12,16.77-3.19,3-9.14,3.75-9.66,3s5.57-4.4,4.81-5.52c-.49-.72-3.12.56-4.44-.33-2.45-1.67,2.59-8.86,1.16-9.47-.9-.39-3.52,2.2-4,1.9s2.88-2.75,2.19-3.88c-.83-1.38-6.94.29-7.46-.93-.28-.67,1.4-1.59,1-2.49C133.1,81.78,131.77,81.75,131.8,81.64Z"/><path class="cls-5" d="M168.82,108.31c1.09,1.51-2.87,6.7-8.62,8.54-4.2,1.35-6.33-.06-9.86,1.83-2.84,1.53-2.2,2.84-5,4.4a15.41,15.41,0,0,1-11.48,1c-3.44-1.13-2.7-2.68-6.68-4.55-4.63-2.18-9.3-1.8-9.28-2.9,0-.78,2.38-1,3.81-3a11,11,0,0,0,1-2.5,16.58,16.58,0,0,1,2.2-3.88c3-3.63,11.2-5.35,15.29-4a9.6,9.6,0,0,0,3,.59,11,11,0,0,0,4.22-.78c3.15-1.16,11.93-3.53,14.3-1.5,1.63,1.4-.85,4,1,5.59S168,107.16,168.82,108.31Z"/><ellipse class="cls-6" cx="150.9" cy="109.9" rx="9.31" ry="5.12" transform="translate(-17.53 29.39) rotate(-10.52)"/><path class="cls-7" d="M146.07,111.38c.31,0-.07-1.28,1-2.5s2.68-1.4,2.61-1.64-3-.62-4.22.78S145.66,111.44,146.07,111.38Z"/></g></svg>
