<svg xmlns="http://www.w3.org/2000/svg" width="190" height="172.01" viewBox="0 0 190 172.01"><defs><style>.cls-1{fill:#f4eca2;stroke:#fff;stroke-miterlimit:10;stroke-width:4px;}.cls-2{fill:#f7f2da;}.cls-3{fill:#473fa4;}.cls-4{fill:#695fbf;}.cls-5{fill:#f7f7f9;}</style></defs><title>blaabaer</title><g id="Overskrift"><ellipse class="cls-1" cx="95" cy="86.01" rx="84" ry="92" transform="translate(6.63 178.81) rotate(-88.56)"/><path class="cls-2" d="M39.13,77.05c5.19-.91,2.67-16.42,18.7-28.86C76,34.1,100.5,37.55,103.39,31.33,106,25.64,89,15.4,68.57,19.24c-15.62,2.94-28.08,13.17-34,22C22.23,59.47,33.25,78.08,39.13,77.05Z"/><ellipse class="cls-3" cx="76.79" cy="100.34" rx="28.18" ry="26.62"/><ellipse class="cls-4" cx="76.12" cy="94.01" rx="25.25" ry="20.28"/><path class="cls-3" d="M65.9,69a31.53,31.53,0,0,1,6.41,11.34c.37,1.15,2.3,1,2.21-.3L73.7,67.89a1.13,1.13,0,0,0-2.25,0,23.19,23.19,0,0,0,1.41,9.76c.34.92,2,1.22,2.17,0L77,65.71H74.78a21.34,21.34,0,0,1,.61,8.85A1.14,1.14,0,0,0,77,75.83a5.29,5.29,0,0,0,2.49-3.69l-2.21-.29L77.41,80h2.25a16.3,16.3,0,0,1,2-9.31l-1.54.4c1.4,1,.06,3.64-.61,4.64-1.35,2.05-2.78,4.05-2.31,6.63L78.61,81a8.93,8.93,0,0,1-5.25-5.27c-.51-1.34-2.69-.76-2.17.6A11.37,11.37,0,0,0,78,83.13c.88.3,1.53-.61,1.38-1.38a5.16,5.16,0,0,1,1.18-3.55A17.13,17.13,0,0,0,82.42,75c.77-2,.82-4.55-1.14-5.89a1.13,1.13,0,0,0-1.54.4A18.4,18.4,0,0,0,77.41,80c.11,1.42,2.27,1.47,2.25,0l-.09-8.13c0-1.22-2-1.59-2.21-.3a3.15,3.15,0,0,1-1.46,2.34l1.66,1.27a24.13,24.13,0,0,0-.61-10c-.28-1-2-1.15-2.17,0L72.86,77.06H75a21.55,21.55,0,0,1-1.33-9.17H71.45L72.27,80l2.21-.3a34.35,34.35,0,0,0-7-12.33c-1-1.08-2.56.51-1.59,1.59Z"/><path class="cls-5" d="M70.48,79.23a2.09,2.09,0,0,0,.74,2.27c1,.84,2.32.58,3.5.88,1.84.46,3.8,3,5.62,1,1.57-1.66,1.65-5.15,4.8-4.11a18.94,18.94,0,0,1,8,5.43c.13.14.34-.07.21-.22a20.12,20.12,0,0,0-6.2-4.71c-1.65-.8-3.67-1.74-5,0-1.14,1.5-1.7,4.87-4.29,3.82-1.13-.46-2-1.34-3.22-1.59-1.46-.29-4.6-.28-3.84-2.74.06-.18-.23-.26-.29-.08Z"/><path class="cls-5" d="M70.29,79.09c-2-.6-3.83,1-5.24,2.26a24.93,24.93,0,0,0-4.53,4.82c-.11.17.15.32.26.16a22.78,22.78,0,0,1,4.11-4.44c1.41-1.24,3.26-3.12,5.32-2.51a.15.15,0,0,0,.08-.29Z"/><ellipse class="cls-3" cx="131.14" cy="98.27" rx="27.97" ry="30.7"/><ellipse class="cls-4" cx="131.81" cy="90.96" rx="25.06" ry="23.39"/><path class="cls-3" d="M140.2,60.62a40.59,40.59,0,0,0-6.77,13.92l2.21.3.81-14H134.2a28.72,28.72,0,0,1-1.31,10.62h2.17l-1.91-13.77c-.15-1.13-1.92-1-2.17,0a31,31,0,0,0-.64,11.19l1.69-1a4,4,0,0,1-1.45-2.8c-.18-1.29-2.19-.93-2.21.3l-.09,9.38a1.13,1.13,0,0,0,2.25,0,23.66,23.66,0,0,0-2.31-12,1.14,1.14,0,0,0-1.76-.23c-1.89,1.51-1.58,4.48-.89,6.5.88,2.55,3.43,4.92,3,7.78-.11.74.5,1.74,1.39,1.38a12.18,12.18,0,0,0,6.77-7.77c.46-1.38-1.72-2-2.17-.6-.86,2.58-2.59,5.16-5.2,6.2l1.38,1.39c.45-2.91-1-5.21-2.36-7.64-.81-1.43-1.9-4.38-.31-5.65L126.28,64a21.36,21.36,0,0,1,2,10.83h2.25l.09-9.38-2.21.29a6,6,0,0,0,2.48,4.15,1.14,1.14,0,0,0,1.7-1,29.25,29.25,0,0,1,.56-10.59H131l1.91,13.77c.16,1.18,1.86,1,2.17,0a30.48,30.48,0,0,0,1.39-11.22,1.13,1.13,0,0,0-2.25,0l-.81,14a1.13,1.13,0,0,0,2.21.3,38.94,38.94,0,0,1,6.54-13.39c.88-1.14-1.07-2.27-1.94-1.13Z"/><path class="cls-5" d="M137.12,74A2.38,2.38,0,0,1,136,76.68a8.66,8.66,0,0,1-2.49.48c-1.23.24-2,1.09-3.07,1.7-2.78,1.63-3.44-2.41-4.46-4.08-1.22-2-3-1.27-4.8-.32A20.51,20.51,0,0,0,114.73,80c-.11.15.1.37.21.21a19.86,19.86,0,0,1,7.45-6.06c1.18-.53,2.34-.65,3.13.45a7.61,7.61,0,0,1,.67,1.26,12.4,12.4,0,0,0,1.43,2.84c1.58,1.93,3.3-.09,4.85-.91,1.26-.67,2.9-.22,4-1.16a2.62,2.62,0,0,0,.9-2.74.15.15,0,0,0-.29.08Z"/><path class="cls-5" d="M137.67,74.07c2.13-.74,4,1.62,5.34,3a25.53,25.53,0,0,1,4,5.07c.09.17.35,0,.26-.15a27,27,0,0,0-4.41-5.47c-1.32-1.35-3.18-3.42-5.3-2.69-.18.06-.1.35.08.29Z"/><ellipse class="cls-3" cx="100.36" cy="118.48" rx="16.46" ry="12.48"/><ellipse class="cls-4" cx="99.96" cy="115.5" rx="14.74" ry="9.51"/><path class="cls-3" d="M93.66,104.2a13.87,13.87,0,0,1,3.63,5,1.13,1.13,0,0,0,1.23.8,1.11,1.11,0,0,0,1-1.1L99,103.26a1.13,1.13,0,1,0-2.25,0,9.86,9.86,0,0,0,1,5,1.14,1.14,0,0,0,2.06-.27l1.12-5.6H98.73a7.57,7.57,0,0,1,.36,3.83,1.14,1.14,0,0,0,1.65,1.27,3.1,3.1,0,0,0,1.67-2.09l-2.21-.3,0,3.82h2.25a5.85,5.85,0,0,1,1.12-4.07l-1.54.41c.11.07.12.06,0,0,.09.09.09.09,0,0,.1.15,0,.19,0,0,0,.13,0,.12,0,0a1.09,1.09,0,0,1,0,.18c0,.22.06-.15,0,.09a2.85,2.85,0,0,1-.11.39c.07-.18,0,.06-.06.11a3.21,3.21,0,0,1-.19.31c0,.07,0,.06,0,0l-.17.19c-.9,1.08-1.84,2.2-1.49,3.71l1.38-1.39a4.94,4.94,0,0,1-1.66-.81,4,4,0,0,1-1.19-1.51,1.12,1.12,0,0,0-1.94,1.13,6.58,6.58,0,0,0,4.19,3.36,1.14,1.14,0,0,0,1.39-1.38c0-.14,0-.16,0-.06,0-.13,0-.15,0,0a1.42,1.42,0,0,1,.07-.22c0,.08,0,.06,0-.07a4.52,4.52,0,0,1,.49-.72A7.61,7.61,0,0,0,104,107c.59-1.26.56-2.89-.81-3.64a1.16,1.16,0,0,0-1.54.41,7.89,7.89,0,0,0-1.42,5.2,1.16,1.16,0,0,0,1.13,1.12,1.13,1.13,0,0,0,1.12-1.12l0-3.82a1.13,1.13,0,0,0-2.21-.29.77.77,0,0,1-.19.44c.09-.1-.25.21-.14.13l-.31.17,1.65,1.27a9.77,9.77,0,0,0-.35-5,1.17,1.17,0,0,0-1.09-.82,1.13,1.13,0,0,0-1.08.82l-1.12,5.6,2.06-.27a7.38,7.38,0,0,1-.65-3.87H96.77l.48,5.69,2.21-.3a16.17,16.17,0,0,0-4.21-6.05,1.13,1.13,0,0,0-1.59,1.6Z"/><path class="cls-5" d="M96.61,108.56c-.46,1.24,1.34,1.44,2.12,1.52,1.16.11,2.51,1.46,3.65.59s1.05-2.44,2.84-2a11.43,11.43,0,0,1,4.62,2.52c.15.13.36-.08.22-.21a12.08,12.08,0,0,0-3.39-2.12c-1-.4-2.3-1-3.19-.14s-1,2.31-2.48,1.84a12,12,0,0,0-1.9-.76c-.6-.09-2.62,0-2.2-1.18.07-.18-.22-.26-.29-.08Z"/><path class="cls-5" d="M96.58,108.43a3.93,3.93,0,0,0-3.07,1,13.06,13.06,0,0,0-2.69,2.28c-.12.15.09.36.22.21a11.88,11.88,0,0,1,2.46-2.12c.86-.61,1.88-1.39,3-1.13a.15.15,0,0,0,.08-.29Z"/></g></svg>
