<svg xmlns="http://www.w3.org/2000/svg" width="190" height="180" viewBox="0 0 190 180"><defs><style>.cls-1{fill:#cce5a5;stroke:#fff;stroke-miterlimit:10;stroke-width:4px;}.cls-2{fill:#dbeac1;}.cls-3{fill:#3d3936;}.cls-4{fill:#75583d;}.cls-5{fill:#c17b36;}.cls-6{fill:#efcc3c;}.cls-7{fill:#e2d6a8;}.cls-8{fill:#f4d471;}.cls-9{fill:#e28723;}.cls-10{fill:#5b5755;}</style></defs><title>bombe</title><g id="Overskrift"><ellipse class="cls-1" cx="95" cy="90" rx="92" ry="84"/><path class="cls-2" d="M30.25,90c5.16-1,2.25-16.48,18-29.32C66,46.18,90.6,49,93.34,42.72,95.83,37,78.53,27.16,58.23,31.51,42.68,34.84,30.49,45.38,24.74,54.37,12.9,72.89,24.39,91.22,30.25,90Z"/><path class="cls-3" d="M128.21,106.89c0,13.16-13.08,37.11-37.11,37.11a37.11,37.11,0,1,1,0-74.21c.42,0,1.27,0,2.44,0,5.87.3,7.2,2.32,9.57,1.94,4.8-.77,5-9.81,9-10,1.14,0,2.76,1.31,6,4,2.43,2,3.64,3,4,4,1.26,3.32-2.13,5.59-2,10,.09,3.43,2.21,5.31,4,8C124.2,87.84,128.24,93.94,128.21,106.89Z"/><path class="cls-4" d="M120.05,64.22c1.22-1.9,3.57-3.45,5.66-2.4,1.13.56,1.53,1.82,2.18,2.85a4.71,4.71,0,0,0,3.87,2.46,1.5,1.5,0,0,0,0-3c-1.12,0-1.74-1.86-2.26-2.7a6,6,0,0,0-3.86-2.78c-3.39-.67-6.39,1.28-8.18,4.05-1,1.63,1.55,3.14,2.59,1.52Z"/><path class="cls-5" d="M134.55,61.67A12.38,12.38,0,0,1,132.23,64a.39.39,0,0,0-.14.52.37.37,0,0,0,.51.13,13,13,0,0,0,2.6-2.58.37.37,0,0,0-.13-.51.39.39,0,0,0-.52.13Z"/><path class="cls-5" d="M130.33,67.2l.56,3.21a.38.38,0,0,0,.46.26.39.39,0,0,0,.27-.46L131.06,67a.38.38,0,0,0-.73.2Z"/><path class="cls-5" d="M133.59,67.11h1.25a.38.38,0,0,0,0-.75h-1.25a.38.38,0,0,0-.37.38.37.37,0,0,0,.37.37Z"/><path class="cls-6" d="M133.86,65.42H136a.39.39,0,0,0,.38-.38.38.38,0,0,0-.38-.37h-2.14a.38.38,0,0,0-.38.37.39.39,0,0,0,.38.38Z"/><path class="cls-6" d="M132.78,65.85a3.1,3.1,0,0,1,0,.43s0,0,0,0v.06s0,.06,0,.08a1.42,1.42,0,0,1-.05.22l-.06.21,0,.08,0,0s0,0,0,0a2.42,2.42,0,0,1-.21.39.37.37,0,0,0,.13.51.4.4,0,0,0,.52-.13,3.39,3.39,0,0,0,.51-1.88.38.38,0,1,0-.75,0Z"/><path class="cls-6" d="M131.28,62.09a4.08,4.08,0,0,0,.14,1.9.38.38,0,0,0,.73-.2,2.85,2.85,0,0,1-.11-.39,1.7,1.7,0,0,1,0-.22c0-.1,0,.08,0,0s0-.08,0-.11,0-.27,0-.41,0-.13,0-.2a.31.31,0,0,0,0-.1s0,0,0,0v-.06a.37.37,0,0,0,0-.29.34.34,0,0,0-.22-.17.37.37,0,0,0-.46.26Z"/><path class="cls-7" d="M131.26,67.56a1.42,1.42,0,0,1,.58,0,1.91,1.91,0,0,1,.59.23,5.23,5.23,0,0,1,1.06.87.38.38,0,0,0,.54-.53,5.79,5.79,0,0,0-1.29-1,2.35,2.35,0,0,0-1.68-.24.37.37,0,0,0,.2.72Z"/><path class="cls-7" d="M132.11,64.77a5.74,5.74,0,0,0-.77,1.42.38.38,0,0,0,0,.29.37.37,0,0,0,.68-.09.36.36,0,0,0,0-.09.32.32,0,0,0,0-.09c0,.05,0,.06,0,0l0,0a.36.36,0,0,0,0-.09l.17-.33a6,6,0,0,1,.41-.62.42.42,0,0,0,0-.29.44.44,0,0,0-.17-.23.37.37,0,0,0-.29,0,.44.44,0,0,0-.23.17Z"/><path class="cls-7" d="M128.68,69h1.07a.38.38,0,1,0,0-.75h-1.07a.38.38,0,0,0,0,.75Z"/><path class="cls-7" d="M134.41,64.44l.13,0-.1,0a.67.67,0,0,1,.2,0h-.1a.47.47,0,0,1,.17,0l-.09,0a.51.51,0,0,1,.16.09l-.08-.06.06,0a.44.44,0,0,0,.27.11.36.36,0,0,0,.26-.11.35.35,0,0,0,.11-.27.36.36,0,0,0-.11-.26,1.16,1.16,0,0,0-.5-.28,1.07,1.07,0,0,0-.58,0,.43.43,0,0,0-.22.18.37.37,0,0,0,.13.51.42.42,0,0,0,.29,0Z"/><path class="cls-8" d="M128.55,67v4.38a.38.38,0,0,0,.75,0V67a.38.38,0,0,0-.75,0Z"/><path class="cls-8" d="M131.24,69.06l0,0c.06,0-.08,0,0,0l.1,0c-.07,0-.08,0-.05,0h.13c.05,0-.09,0,0,0l.12,0s.07,0,0,0,0,0,0,0l.11.07c.05,0,0,0,0,0l0,0,.08.09h0s0,0,0,0a.94.94,0,0,1,.12.22l0,0v0s0,0,0,0,0,.09.05.12l.09.25a.37.37,0,0,0,.46.26.38.38,0,0,0,.26-.46,2.35,2.35,0,0,0-.63-1.13,1.12,1.12,0,0,0-1.32-.16.37.37,0,1,0,.38.64Z"/><path class="cls-8" d="M135.15,63.38a4.83,4.83,0,0,1,0-.85c0-.07,0-.13,0-.2s0-.12,0-.08,0-.07,0-.08a2.71,2.71,0,0,1,.09-.41.39.39,0,0,0-.26-.47.38.38,0,0,0-.46.27,5.31,5.31,0,0,0-.14,1.82.38.38,0,1,0,.75,0Z"/><path class="cls-8" d="M133.85,66.68a1.06,1.06,0,0,1,.06.19.09.09,0,0,0,0,0v0a.37.37,0,0,1,0,.11v.08s0,.08,0,.08,0-.05,0,0v0a.29.29,0,0,1,0,.09l0,.08a.14.14,0,0,1,0,.06s0-.06,0,0l-.08.16s-.07.1,0,0l0,0-.06.06s-.09.08,0,0l-.06,0-.07,0-.08,0c.09,0,0,0-.05,0l-.17,0s0,0,0,0h-.29c.05,0,.06,0,0,0l-.16,0-.07,0-.06,0-.16-.11a.39.39,0,0,0-.52.13.4.4,0,0,0,.14.52,1.67,1.67,0,0,0,2,0,1.7,1.7,0,0,0,.55-1.85.38.38,0,0,0-.73.2Z"/><path class="cls-8" d="M131.32,66.2h-.27a.22.22,0,0,0-.14,0,.26.26,0,0,0-.13.08.24.24,0,0,0-.07.12.23.23,0,0,0,0,.14l0,.1a.56.56,0,0,0,.09.17l.08.06a.41.41,0,0,0,.19,0h.27a.23.23,0,0,0,.14,0,.24.24,0,0,0,.12-.07.42.42,0,0,0,.08-.12.4.4,0,0,0,0-.15v-.1a.34.34,0,0,0-.1-.16l-.08-.06a.29.29,0,0,0-.18,0Z"/><path class="cls-9" d="M130.15,66a2.09,2.09,0,0,1,.43.11l.06,0s.08,0,0,0,0,0,0,0l.06,0,.2.11.18.12s0,0,0,0l0,0,.09.08.15.16.08.09s0,0,0,0l.05.06a.37.37,0,0,0,.51.13.37.37,0,0,0,.13-.51,2.72,2.72,0,0,0-1.78-1.13.42.42,0,0,0-.29,0,.44.44,0,0,0-.17.23.38.38,0,0,0,.26.46Z"/><path class="cls-9" d="M134.29,65.53l.16,0,.06,0c.05,0-.06,0,0,0a1.82,1.82,0,0,1,.27.15l.06,0s0,0,0,0l0,0,.11.1.11.12.05,0s0,0,0,0l0,0a1.83,1.83,0,0,1,.16.26l0,.07h0a.58.58,0,0,1,.05.14s0,.1,0,.15,0,.05,0,.08,0-.05,0,0a1.71,1.71,0,0,1,0,.32.38.38,0,1,0,.75,0,2.3,2.3,0,0,0-1.69-2.3.37.37,0,0,0-.46.26.39.39,0,0,0,.26.47Z"/><path class="cls-9" d="M129.89,69.36c0,.6,0,1.21,0,1.81a1.21,1.21,0,0,0,.19.66.61.61,0,0,0,.72.28.39.39,0,0,0,.26-.46.37.37,0,0,0-.46-.26c-.1,0,0,0,.06,0s.06,0,0,0,0,0,0,0,0,0,0,0,0,0,0,0,0,0,0,0a.14.14,0,0,1,0-.06l0-.12c0,.09,0,0,0,0s0-.22,0-.33l0-1.49a.38.38,0,0,0-.38-.37.38.38,0,0,0-.37.37Z"/><path class="cls-10" d="M71.47,89.71c-.94-.83,4.21-13.49,13.58-14.35,6.83-.63,13.1,5.24,12.58,6.57-.45,1.13-5.6-1.75-12.69-.23C76.32,83.56,72.21,90.36,71.47,89.71Z"/></g></svg>
