<svg xmlns="http://www.w3.org/2000/svg" width="190" height="180" viewBox="0 0 190 180"><defs><style>.cls-1{fill:#f4eca2;stroke:#fff;stroke-miterlimit:10;stroke-width:4px;}.cls-2{fill:#f7f2da;}.cls-3{fill:#456b2f;}.cls-4{fill:#4d7732;}.cls-5{fill:#87c443;}.cls-6{fill:#518038;}.cls-7{fill:#5e9140;}.cls-8{fill:#6ba048;}</style></defs><title>brokoli</title><g id="Overskrift"><ellipse class="cls-1" cx="95" cy="90" rx="92" ry="84"/><path class="cls-2" d="M38.92,82.45c5.17-1,2.26-16.48,18-29.32C74.7,38.59,99.28,41.42,102,35.13c2.5-5.75-14.8-15.56-35.11-11.21C51.36,27.25,39.16,37.79,33.42,46.78,21.58,65.3,33.07,83.63,38.92,82.45Z"/><path class="cls-3" d="M140.49,71.67c-2.26.4-4.52-2.47-4.93-2.18s1.79,3,2.47,4.36c3.55,7-8.66,26.62-26.54,27.21-18.52.62-32.31-19.57-29-29.39,1.74-5.17,10.05-13,7.41-16.33a3.8,3.8,0,0,1-1.24-2.18c-.12-1.73,1.7-3.6,3.7-4.35,4.26-1.6,9.26,1.91,9.88,1.08s-4-2.91-3.71-5.44c.35-3.2,8.35-6.49,12.35-4.35,3.47,1.85,3.59,7.64,3.7,7.62s-2.16-6.34,0-7.62c1-.61,2.11.44,4.93,0,2.31-.36,2.36-1.18,3.71-1.09,2.47.16,2.42,2.91,6.17,4.35,1.3.5,3.7,1.09,3.7,1.09-2.15-.94,4.71,1.59,6.17,3.27a5.77,5.77,0,0,1,1.23,5.44c-1.17,3.53-6.46,4.76-6.17,5.44s7-2.22,9.88,0,.42,8.2-1.24,10.89C142,71,141.3,71.52,140.49,71.67Z"/><path class="cls-4" d="M134.22,69.4c-1.69.33-3.36-2-3.67-1.74s1.33,2.42,1.83,3.49C135,76.77,125.94,92.54,112.65,93c-13.77.49-24-15.73-21.56-23.62,1.29-4.14,7.47-10.41,5.5-13.11a3.22,3.22,0,0,1-.92-1.75c-.08-1.39,1.27-2.9,2.76-3.5,3.16-1.29,6.88,1.54,7.34.87s-3-2.34-2.75-4.37c.25-2.57,6.2-5.21,9.17-3.5,2.59,1.49,2.68,6.14,2.76,6.12s-1.6-5.09,0-6.12c.75-.49,1.57.35,3.67,0,1.71-.29,1.75-.95,2.75-.87,1.84.13,1.8,2.34,4.59,3.49a26.34,26.34,0,0,0,2.75.88c-1.6-.75,3.5,1.28,4.59,2.62a5,5,0,0,1,.92,4.38c-.88,2.83-4.81,3.82-4.59,4.37s5.21-1.79,7.34,0,.32,6.59-.92,8.75C135.37,68.85,134.81,69.29,134.22,69.4Z"/><path class="cls-5" d="M85,134.41c-5.39,2.07-13.7-3.16-13.86-9.2-.12-4.54,4.45-7.65,5-8L90.06,97.63a149.81,149.81,0,0,1-7.56-13.8C79.7,78,79.38,76.34,80,74.64c1.66-4.71,9.62-7.81,13.86-5.75,2.08,1,3.07,3.74,5,9.2,2.29,6.33,1.81,7.93,3.78,9.19,1.45.94,2.64.67,11.34,0,8.06-.62,9-.54,10.08,0,4.61,2.27,6.57,9.89,3.78,12.65-1.65,1.62-4.14.78-10.08,1.15a53.53,53.53,0,0,0-12.6,2.3L90.06,127.51C89.9,128.28,88.85,132.94,85,134.41Z"/><path class="cls-6" d="M103.92,66a4.24,4.24,0,0,1-3.78,2.87c-1.9.06-2.82-1.56-3.78-1.15s-.15,2.38-1.26,4.6c-1,1.93-3.28,3.77-5,3.45-2.4-.43-3-4.73-3.78-4.6-1,.17,1.49,7.48-1.89,10.35-2.79,2.37-9.16,1.38-10.71-1.15s2.77-6.69,1.26-8c-.92-.83-2.62.68-5,0-3.19-.9-4.5-4.74-5-6.32-.28-.85-2.15-6,0-7.47,1.83-1.22,5.13,1.2,6.3,0,.83-.85-.6-2.29,0-4.6a6.59,6.59,0,0,1,2.52-3.45c3.2-2.38,8.65-2.24,10.71,0,1.6,1.74.75,4.31,1.89,4.6s1.68-1.81,3.78-2.3c2.65-.62,6.28,1.58,6.3,3.45,0,1.67-2.86,2.58-2.52,3.45s3.34-.2,6.3,1.15C102.07,61.73,104.45,63.86,103.92,66Z"/><path class="cls-6" d="M148.67,109.55a4.58,4.58,0,0,1-4.77-1.1c-1.17-1.37-.28-3-1.2-3.47s-2.2,1.29-4.82,1.77c-2.28.42-5.27-.21-6-1.7-1-2,2.42-5,1.86-5.49-.74-.64-5.75,5.5-10.29,4.68-3.74-.67-6.61-5.95-5.27-8.58s7.57-1.88,7.88-3.79c.2-1.18-2.14-1.54-3-3.73-1.08-2.88,1.56-6.1,2.65-7.43.58-.71,4.09-5.13,6.63-4.39,2.15.63,1.94,4.49,3.7,4.65,1.24.12,1.67-1.78,4.08-2.7a7.79,7.79,0,0,1,4.54-.16c4,1,7.07,5.07,6.29,7.91-.61,2.2-3.39,3.08-3,4.09s2.58.18,4.26,1.44c2.11,1.6,2.28,5.57.64,6.68-1.48,1-4-.59-4.54.16s2.13,2.36,2.68,5.33C151.39,105.67,150.9,108.67,148.67,109.55Z"/><path class="cls-7" d="M97.56,66.18a3.37,3.37,0,0,1-3,2.23c-1.52,0-2.25-1.2-3-.89s-.12,1.85-1,3.57c-.76,1.5-2.61,2.92-4,2.67-1.91-.33-2.41-3.66-3-3.56-.8.13,1.19,5.8-1.51,8-2.22,1.84-7.29,1.08-8.53-.89s2.21-5.19,1-6.24c-.74-.65-2.09.53-4,0-2.54-.7-3.58-3.68-4-4.91-.23-.65-1.71-4.68,0-5.79,1.45-1,4.08.93,5,0,.66-.66-.48-1.77,0-3.57a5.11,5.11,0,0,1,2-2.67c2.55-1.85,6.89-1.75,8.53,0,1.28,1.35.6,3.34,1.51,3.56s1.34-1.4,3-1.78c2.11-.48,5,1.23,5,2.68,0,1.29-2.28,2-2,2.67s2.66-.15,5,.89C96.09,62.86,98,64.51,97.56,66.18Z"/><path class="cls-7" d="M146.38,106.46a3.75,3.75,0,0,1-3.8-1c-1-1.15-.33-2.44-1.07-2.85s-1.69,1-3.73,1.28c-1.78.27-4.16-.33-4.81-1.56-.88-1.68,1.71-4,1.26-4.39-.61-.55-4.33,4.26-7.93,3.46-3-.66-5.44-5-4.48-7.12s5.89-1.29,6.06-2.83c.11-.94-1.75-1.31-2.47-3.11-1-2.37,1-4.9,1.8-5.94.43-.56,3-4,5-3.35,1.72.58,1.71,3.7,3.1,3.89,1,.13,1.24-1.39,3.11-2.06a6,6,0,0,1,3.57,0c3.18.91,5.76,4.34,5.25,6.61-.39,1.77-2.54,2.39-2.18,3.23s2,.22,3.41,1.3c1.73,1.36,2,4.59.76,5.44s-3.15-.61-3.57,0,1.78,2,2.32,4.41C148.38,103.4,148.11,105.82,146.38,106.46Z"/><path class="cls-8" d="M73,59.84c-.3-.18,1.35-5.53,4.58-5.49,2.79,0,4.67,4,4.25,4.4s-2.25-2.15-4.77-1.87S73.22,60,73,59.84Z"/><path class="cls-8" d="M137,83.34c.07-.32,6.11-.92,7.28,1.82,1,2.37-2.35,5.46-2.88,5.24s1.35-2.7.12-4.74S136.94,83.58,137,83.34Z"/></g></svg>
