<svg xmlns="http://www.w3.org/2000/svg" width="560" height="150" viewBox="0 0 560 150"><defs><style>.cls-1{fill:none;stroke:#fff;stroke-miterlimit:10;stroke-width:4px;}.cls-2{fill:#ff7bac;}.cls-3{fill:#fff;}.cls-4{fill:#f2b6cd;}</style></defs><title>energibar_fuld</title><g id="Overskrift"><rect class="cls-1" x="145.66" y="48.81" width="412" height="52" rx="12"/><rect class="cls-2" x="151.86" y="51.81" width="403.08" height="47" rx="12"/><ellipse class="cls-2" cx="82.08" cy="75.01" rx="80.25" ry="72.25"/><path class="cls-3" d="M160.83,75a66.29,66.29,0,0,1-14.5,40.93,78.83,78.83,0,0,1-37.16,25.52,87.53,87.53,0,0,1-48.65,1.61A80.25,80.25,0,0,1,21.3,120,67.09,67.09,0,0,1,3.56,80.47,65.71,65.71,0,0,1,14.74,38.32,76.87,76.87,0,0,1,49.49,10.57,87.35,87.35,0,0,1,97.77,5.65,81.76,81.76,0,0,1,139,26.09a68.68,68.68,0,0,1,20.94,38A64.27,64.27,0,0,1,160.83,75a1.5,1.5,0,0,0,3,0,69.64,69.64,0,0,0-15.07-42.68A81.71,81.71,0,0,0,110.14,5.71,90.45,90.45,0,0,0,59.73,4.05,83.16,83.16,0,0,0,19,28.14,70.43,70.43,0,0,0,.57,69.38a68.46,68.46,0,0,0,11.57,43.83,80.48,80.48,0,0,0,36.23,29,90,90,0,0,0,50,5.08,84.56,84.56,0,0,0,42.7-21.23c11.19-10.51,19.2-24.46,21.77-39.66a70,70,0,0,0,1-11.38A1.5,1.5,0,0,0,160.83,75Z"/><path class="cls-4" d="M38.18,40.25c2.73.06,3.16-7,14.58-13.76,16.58-9.86,40.79-10,40.65-11.58-.17-1.85-34.74-5-50.95,5.1C29.75,28,34.58,40.17,38.18,40.25Z"/></g></svg>
