<svg xmlns="http://www.w3.org/2000/svg" width="570" height="150" viewBox="0 0 570 150"><defs><style>.cls-1{fill:none;stroke:#fff;stroke-miterlimit:10;stroke-width:4px;}.cls-2{fill:#ff7bac;}.cls-3{fill:#fff;}.cls-4{fill:#f2b6cd;}</style></defs><title>energibar_halvtom</title><g id="Overskrift"><rect class="cls-1" x="152.12" y="48.98" width="412" height="52" rx="12"/><rect class="cls-2" x="157.12" y="50.98" width="104" height="47" rx="12"/><ellipse class="cls-2" cx="85.63" cy="75.01" rx="80.25" ry="72.25"/><path class="cls-3" d="M164.38,75a66.41,66.41,0,0,1-14.5,40.93,78.87,78.87,0,0,1-37.16,25.52,87.53,87.53,0,0,1-48.65,1.61A80.27,80.27,0,0,1,24.84,120,67.09,67.09,0,0,1,7.1,80.47,65.71,65.71,0,0,1,18.28,38.32,76.87,76.87,0,0,1,53,10.57a87.35,87.35,0,0,1,48.28-4.92,81.76,81.76,0,0,1,41.2,20.44,68.68,68.68,0,0,1,20.94,38A64.28,64.28,0,0,1,164.38,75a1.5,1.5,0,0,0,3,0A69.65,69.65,0,0,0,152.3,32.33,81.71,81.71,0,0,0,113.68,5.71,90.45,90.45,0,0,0,63.27,4.05,83.16,83.16,0,0,0,22.5,28.14,70.35,70.35,0,0,0,4.12,69.38a68.34,68.34,0,0,0,11.57,43.83,80.4,80.4,0,0,0,36.22,29,90,90,0,0,0,50,5.08,84.56,84.56,0,0,0,42.7-21.23c11.19-10.51,19.2-24.46,21.77-39.66a68.93,68.93,0,0,0,1-11.38A1.5,1.5,0,0,0,164.38,75Z"/><path class="cls-4" d="M41.72,40.25c2.73.06,3.16-7,14.59-13.76,16.57-9.86,40.78-10,40.64-11.58-.16-1.85-34.74-5-50.94,5.1C33.29,28,38.12,40.17,41.72,40.25Z"/></g></svg>
