<svg xmlns="http://www.w3.org/2000/svg" width="140" height="140" viewBox="0 0 140 140"><defs><style>.cls-1{fill:#c2f2c3;}.cls-2{fill:#fff;}.cls-3{fill:#dff4df;stroke:#fff;stroke-miterlimit:10;}.cls-4{fill:#f9f9f9;}</style></defs><title>hjaelp_knap</title><g id="Taleboble_og_knap" data-name="Taleboble og knap"><circle class="cls-1" cx="70" cy="70.01" r="64"/><path class="cls-2" d="M132.5,70a62.49,62.49,0,0,1-79.6,60.13A62.51,62.51,0,0,1,16.54,37.61,62.53,62.53,0,0,1,131.77,60.36,63.59,63.59,0,0,1,132.5,70a1.5,1.5,0,0,0,3,0A65.5,65.5,0,1,0,43,129.68a65.49,65.49,0,0,0,74.39-14.41,65.49,65.49,0,0,0,17.36-35.16A68.41,68.41,0,0,0,135.5,70,1.5,1.5,0,0,0,132.5,70Z"/><path class="cls-3" d="M35,39.22c2.19.06,2.52-6.16,11.64-12.19C59.84,18.3,79.14,18.15,79,16.77c-.13-1.63-27.7-4.44-40.63,4.52C28.26,28.32,32.12,39.15,35,39.22Z"/><path class="cls-4" d="M64.84,83.81l-.23-2c-.7-4.23,1.4-8.84,7.22-13.53C77.08,64.1,80,61.05,80,57.53c0-4-3.73-6.65-11.07-6.73a28.25,28.25,0,0,0-11.77,2.43l-2.8-4.93C58.2,46.42,64.84,45.17,71,45.17c13.4,0,19.46,5.55,19.46,11.5,0,5.32-4.43,9.15-10,13.61-5.13,4.07-7,7.51-6.65,11.5l.12,2Zm-2.56,11c0-2.89,2.91-4.93,7-4.93s6.87,2,6.87,4.93c0,2.74-2.67,4.85-7,4.85C65.07,99.61,62.28,97.5,62.28,94.76Z"/></g></svg>
