<svg xmlns="http://www.w3.org/2000/svg" width="880" height="460" viewBox="0 0 880 460"><defs><style>.cls-1,.cls-2{fill:#ff7bac;}.cls-1{stroke:#fff;stroke-miterlimit:10;stroke-width:3px;}.cls-3{fill:#fff;}</style></defs><title>hjaelp</title><g id="Taleboble_og_knap" data-name="Taleboble og knap"><path class="cls-1" d="M656,49.53H111.39c-25.55,0-46.45,37.58-46.45,83.52V283.5c0,4,.17,7.95.48,11.81.26-1,.53-2,.77-3,1.48-6,7.41-6.11,8.87,0,2.32,9.74,4.3,19.54,7,28.11a11.29,11.29,0,0,1,2.16,6.09c3.1,7.75,7.16,14,13.25,17.45,5.93,3.38,3.85,19.42-1.7,18.2a28.55,28.55,0,0,0,15.61,4.9H656c25.55,0,46.45-37.59,46.45-83.53V133.05C702.44,87.11,681.54,49.53,656,49.53Z"/><path class="cls-1" d="M69.94,275.31c11.29-4.34,53.94,42.82,41.12,74.14-14.77,36.11-92.37,24.64-94.57,14.26C15.11,357.2,44,354.09,59,326.64,72.72,301.45,62.56,278.14,69.94,275.31Z"/><path class="cls-2" d="M101.2,293.05a36,36,0,0,1-2.11,18c-.66,1.69,1.82,2.44,2.74,1.15a73.3,73.3,0,0,1,11.85-13l-2.35-1.82L95.82,326.88a1.5,1.5,0,0,0,2.35,1.81l11.45-9.15-2.5-1.46-1.23,3.49c-.4,1.15.81,2.07,1.85,1.85a9.16,9.16,0,0,0,4.44-2.37L109.62,320c.11,1.72-2.24,2.8-3.21,4-1.23,1.49-1.92,3.47-.8,5.23s3.64.12,2.59-1.51c-.82-1.3,1.71-2.87,2.48-3.6a5.23,5.23,0,0,0,1.94-4.09,1.52,1.52,0,0,0-2.56-1.06,6.32,6.32,0,0,1-3.12,1.6l1.85,1.84,1.22-3.5c.55-1.56-1.46-2.29-2.51-1.45l-11.45,9.15,2.36,1.82,15.51-29.46a1.51,1.51,0,0,0-2.36-1.82,76.38,76.38,0,0,0-12.32,13.58l2.74,1.15a39,39,0,0,0,2.12-19.59,1.53,1.53,0,0,0-1.85-1.05,1.55,1.55,0,0,0-1,1.85Z"/><path class="cls-2" d="M88.91,298.78,93.52,264c.29-2.21-1.94-4.16-3.9-4.42s-4.55,1-4.94,3.22l-6.35,36.54c-.4,2.31.61,5,3.14,5.53,2.19.5,5.1-.66,5.54-3.14a40.14,40.14,0,0,1,1.17-5c.23-.74.48-1.48.75-2.21.06-.14.48-1.23.32-.84s.31-.69.37-.82a38.61,38.61,0,0,1,2.31-4.3c.45-.73.92-1.43,1.41-2.13l.63-.85c.19-.25.17-.23,0,.07l.53-.66-7.52-4.38-7.21,27.07,8.67,2.39a41.7,41.7,0,0,1,1.14-4.07c.22-.66.47-1.32.73-2s-.09.16.13-.28.29-.65.44-1a38.79,38.79,0,0,1,1.92-3.53c.37-.6.75-1.19,1.15-1.76l.62-.86c.54-.77-.31.37.33-.43l-5.46.7c.34.19.68.39,1,.6.14.09,1.14.82.8.55s.45.39.58.51c.38.35.74.71,1.1,1.08s.52.57.77.87c.08.1.6.73.26.3s.08.12.12.17c.52.74,1,1.51,1.49,2.3s.83,1.49,1.2,2.26c.17.35.32.72.5,1.07s0-.11-.07-.17l.36.91c.75,1.93,1.37,3.92,2,5.9a117.27,117.27,0,0,0,3.73,11.62c.84,2,1.74,4.06,2.65,6.08.39.87.77,1.74,1.15,2.62.21.48,0,0,0-.06l.24.6c.22.54.43,1.08.63,1.63.36,1,.7,2,1,3,.13.47.24.95.34,1.43.06.27.11.54.16.81,0,.09.12.94.07.42s0,.16,0,.22c0,.27,0,.54,0,.81,0,.54,0,1.09,0,1.63,0,.2,0,.4,0,.61-.05.7.23-1-.05.22-.13.55-.26,1.09-.43,1.63l8.84,1.19q.94-9.27,1.15-18.6c.12-5.84,1.27-15.05-6-17.1a7,7,0,0,0-8.67,5.13,31.83,31.83,0,0,0-.54,9,51.34,51.34,0,0,0,4.14,17.86l.45,1c.1.21.19.42.28.62-.13-.31-.13-.32,0,0s.23.71.34,1.06l.1.43c-.06-.47-.08-.44-.06.11l0-.19c0-.31,0-.25-.09.19q.28-.62.06-.18c-.09.18-.19.35-.29.52a19.31,19.31,0,0,1-1.19,1.66l-.41.52c-.28.36-.57.71-.86,1.06-.48.58-1,1.16-1.47,1.73-1.1,1.25-2.24,2.46-3.41,3.65a4.5,4.5,0,0,0,6.36,6.36c1.81-1.83,3.54-3.74,5.17-5.73,1.82-2.22,4-4.56,4.77-7.38,1-3.34-.38-6.36-1.71-9.35-.3-.69.21.53-.07-.17-.11-.28-.23-.56-.33-.85-.24-.63-.47-1.27-.69-1.91-.42-1.29-.79-2.6-1.1-3.92s-.49-2.37-.68-3.56c0-.12-.11-.88,0-.15,0-.3-.07-.6-.1-.9q-.12-1.12-.18-2.25c-.06-1.21-.07-2.42,0-3.62,0-.61.05-1.21.09-1.81,0-.3,0-.6.07-.9.1-1.46,0,.88,0-.37,0-.39.38-.47-.1,0a3.55,3.55,0,0,1-.67.61c-.92.58-1.9.36-1,.37a2.63,2.63,0,0,1-1-.24c.64.2.11.12-.09-.09-.61-.65-.26-.3-.09-.06-.4-.56-.09-.33,0,0s.12,1.12.09.34c.1,2.64.08,5.29,0,7.94q-.18,9.57-1.16,19.09c-.22,2.22,1.89,4.15,3.9,4.42a4.51,4.51,0,0,0,4.94-3.22c2.76-9-1.79-17.53-5.31-25.55-.08-.19-.59-1.4-.31-.73-.19-.47-.38-.93-.57-1.41-.41-1.08-.79-2.17-1.14-3.28-.69-2.13-1.28-4.3-1.91-6.45a59.44,59.44,0,0,0-4.66-12.11,26.18,26.18,0,0,0-9.73-10.29c-1.58-.89-4.22-.85-5.46.7a44.09,44.09,0,0,0-8.76,17.85,4.5,4.5,0,1,0,8.67,2.39l7.22-27.06A4.57,4.57,0,0,0,93.54,278c-1.65-.88-4.16-.87-5.45.7a44.64,44.64,0,0,0-9.76,20.67L87,301.76l6.35-36.54L84.52,264l-4.61,34.75c-.31,2.34,2.29,4.6,4.5,4.5,2.7-.12,4.17-2,4.5-4.5Z"/><path d="M80.25,265.62A183,183,0,0,1,80,284.06l2.79-.76a31.33,31.33,0,0,1-5.54-13.06c-.25-1.42-2.66-1.44-2.89,0a72.74,72.74,0,0,0-1,10.72c0,1.63,2,1.85,2.8.76l1.13-1.47a1.5,1.5,0,0,0-.54-2.05,1.53,1.53,0,0,0-2,.53l-1.13,1.48,2.79.75a67.29,67.29,0,0,1,.84-9.92H74.34a33.25,33.25,0,0,0,5.84,13.77,1.52,1.52,0,0,0,2.8-.75,183,183,0,0,0,.27-18.44c-.07-1.92-3.07-1.93-3,0Z"/><path class="cls-2" d="M79.73,268.51v15.23a1.5,1.5,0,0,0,3,0,218.48,218.48,0,0,0-2.17-38.59,1.52,1.52,0,0,0-1.85-1.05c-3.62,1.13-2.86,6.13-2.89,9l-.14,14.05c0,3.86-.42,7.88.22,11.71.5,3,1.93,5.75,5,6.71a1.52,1.52,0,0,0,1.9-1.45,93.57,93.57,0,0,0,.41-18.1c-.12-1.62-2.5-2.13-2.94-.4a34.53,34.53,0,0,0-1,10.81l2.95-.4a4,4,0,0,0-1.91-2.57,1.52,1.52,0,0,0-2,.54,31,31,0,0,0-2.74,9l2.51-.66a13.32,13.32,0,0,1-3.62-8.58,1.5,1.5,0,0,0-3,0l-.5,6.77,2.8-.76a26.22,26.22,0,0,1-2.89-7.55c-.37-1.72-2.86-1.23-3,.39a124.16,124.16,0,0,0,1.58,26.89c.32,1.9,3.21,1.1,2.89-.79a121.31,121.31,0,0,1-1.47-26.1l-2.94.4A29,29,0,0,0,71,281.33a1.51,1.51,0,0,0,2.79-.76l.5-6.77h-3a16.49,16.49,0,0,0,4.5,10.7,1.51,1.51,0,0,0,2.51-.66,28.15,28.15,0,0,1,2.43-8.29l-2.06.53a1,1,0,0,1,.54.78c.39,1.61,3.05,1.31,2.94-.4a31.83,31.83,0,0,1,.92-10l-2.95-.4a93.57,93.57,0,0,1-.41,18.1l1.9-1.44c-2.17-.69-2.75-3.35-3-5.35a91,91,0,0,1,0-10.18l.11-11.34.06-5.67c0-.67-.23-2.9.66-3.17L77.66,246a214.16,214.16,0,0,1,2.06,37.79h3V268.51a1.5,1.5,0,0,0-3,0Z"/><path class="cls-2" d="M68.51,277.52a1.5,1.5,0,0,0,0-3,1.5,1.5,0,0,0,0,3Z"/><path class="cls-2" d="M68.51,276.94a1.5,1.5,0,0,0,0-3,1.5,1.5,0,0,0,0,3Z"/><path class="cls-2" d="M75.68,262.15l0,11.89,3-.4a25.22,25.22,0,0,0-4.24-8.48,1.52,1.52,0,0,0-2.74.36c-1.11,3.74-3.57,14.41,3,14.79a1.51,1.51,0,0,0,1.44-1.11,52.64,52.64,0,0,0,.8-13.32,1.5,1.5,0,0,0-3,0l-.54,9,3-.4a13.84,13.84,0,0,1,1.57-8.9l-2.05.54c1.34.6,1.77,1.92,2.08,3.27a50.73,50.73,0,0,1,.89,6.14,82,82,0,0,1,.28,12.92h3l.05-24.78c0-2-2.84-1.9-3,0A58.08,58.08,0,0,0,80.35,281c.36,1.67,2.94,1.27,2.94-.4V263.46h-3l.09,20.9c0,1.63,2.63,2.1,3,.39a37.18,37.18,0,0,0,.54-9.82,1.5,1.5,0,0,0-3,0l-.65,9.76c-.13,1.92,2.87,1.92,3,0l.65-9.76h-3a34.61,34.61,0,0,1-.43,9l2.94.4-.09-20.9a1.5,1.5,0,0,0-3,0v17.11l2.95-.4a55.68,55.68,0,0,1-1.06-16.54h-3l-.05,24.78a1.5,1.5,0,0,0,3,0,82.92,82.92,0,0,0-.5-14.86c-.42-3.36-.61-8.43-4.23-10.06a1.54,1.54,0,0,0-2.06.53,17.22,17.22,0,0,0-1.87,11.22c.29,1.74,2.85,1.19,2.94-.4l.54-9H74a49.67,49.67,0,0,1-.69,12.53l1.45-1.1c-1.38-.08-1.36-2.8-1.34-3.72a29,29,0,0,1,1.22-7.28l-2.74.36a23.09,23.09,0,0,1,3.93,7.77,1.51,1.51,0,0,0,3-.4l0-11.89a1.5,1.5,0,0,0-3,0Z"/><path class="cls-2" d="M69.27,269.86a20.57,20.57,0,0,0-2.64,8.1c-.35,3.19.34,6.31.78,9.45A94.46,94.46,0,0,1,68,307c-.13,1.93,2.87,1.92,3,0a95.18,95.18,0,0,0-.48-18.56c-.37-3-1.09-6-1-9a17.11,17.11,0,0,1,2.33-8.1,1.5,1.5,0,0,0-2.59-1.51Z"/><path class="cls-2" d="M67.22,275.28a9.74,9.74,0,0,1,0,1.08c0,.18,0,.36,0,.54l0,.32s0,.37,0,.13,0,.1,0,.12,0,.18,0,.26-.07.36-.11.53a10.51,10.51,0,0,1-.33,1.09h2.89c-.06-.22-.13-.44-.17-.67s-.05-.26-.08-.39c-.06-.32,0,.31,0,0a9.86,9.86,0,0,1,0-1.44l0-.34c0-.31,0,.34,0-.05a5.47,5.47,0,0,1,.14-.68q.09-.33.21-.66a.78.78,0,0,0,0-.14c.06-.15.05-.12,0,.08,0-.09.12-.27.16-.36a1.5,1.5,0,0,0-2.59-1.51,9.54,9.54,0,0,0-.6,7,1.53,1.53,0,0,0,1.45,1.1,1.56,1.56,0,0,0,1.44-1.1,11.88,11.88,0,0,0,.65-4.87,1.5,1.5,0,0,0-3,0Z"/><path class="cls-2" d="M67.08,274.92,66.41,281h3l-.1-2.06c-.09-1.92-3-1.95-3,0,.09,6.91,1.24,13.77,1.12,20.69,0,1.93,3,1.93,3,0,.12-6.92-1-13.78-1.12-20.69h-3l.1,2.06a1.5,1.5,0,0,0,3,0l.67-6.07c.21-1.92-2.79-1.91-3,0Z"/><path class="cls-2" d="M105.43,306.49l2.85,6.12,1.7-2.2c.36.15,0,0,0,0l-.29-.15a5.18,5.18,0,0,1-.57-.31,9.65,9.65,0,0,1-1.08-.72,1.49,1.49,0,0,0-1.15-.15,1.56,1.56,0,0,0-.9.69,1.52,1.52,0,0,0-.15,1.16,1.78,1.78,0,0,0,.69.89,12,12,0,0,0,2.69,1.5,1.45,1.45,0,0,0,.8,0,1.52,1.52,0,0,0,.89-2.2L108,305a1.51,1.51,0,0,0-2.06-.54,1.54,1.54,0,0,0-.53,2.05Z"/><path class="cls-2" d="M69,302.46a1.5,1.5,0,0,0,0-3,1.5,1.5,0,0,0,0,3Z"/><path class="cls-2" d="M69,303.72a1.5,1.5,0,0,0,0-3,1.5,1.5,0,0,0,0,3Z"/><path class="cls-2" d="M67.53,299.81a7.11,7.11,0,0,0-.07,1.9c.07.66.19,1.31.3,2,0,.14,0,.27.07.41s0,.15,0-.05a.88.88,0,0,1,0,.17,5.63,5.63,0,0,1,0,.82,11.58,11.58,0,0,0,.1,2,1.52,1.52,0,0,0,1.85,1.05,1.56,1.56,0,0,0,1-1.85c0-.17,0-.16,0,0a1.09,1.09,0,0,1,0-.18,3.08,3.08,0,0,1,0-.43c0-.24,0-.48,0-.73a10.67,10.67,0,0,0-.19-1.86c0-.25-.08-.5-.13-.75L70.5,302s-.06-.49,0-.26,0-.22,0-.26,0-.23,0-.35v-.34c0-.09.07-.6,0-.18a1.61,1.61,0,0,0-.15-1.16,1.57,1.57,0,0,0-.89-.69,1.53,1.53,0,0,0-1.85,1.05Z"/><path class="cls-2" d="M70.85,306.4a8.35,8.35,0,0,0-.21-2.54c-.07-.37-.15-.73-.2-1.11,0,.29,0-.28,0-.34a5.81,5.81,0,0,1,0-.59h-3a41.83,41.83,0,0,0,0,4.19l.11,4.33a1.5,1.5,0,0,0,3,0L70.47,306a41.83,41.83,0,0,1,0-4.19,1.5,1.5,0,0,0-1.5-1.5,1.54,1.54,0,0,0-1.5,1.5,9.88,9.88,0,0,0,.26,2.54c0,.18.07.35.1.52s.09.63.06.34a5.17,5.17,0,0,1,0,1.18,1.5,1.5,0,0,0,1.5,1.5,1.55,1.55,0,0,0,1.5-1.5Z"/><path class="cls-3" d="M105,101.59v5.74h8.77v-5.74a2.66,2.66,0,0,1,.55-1.84,1.85,1.85,0,0,1,1.46-.62,1.92,1.92,0,0,1,1.48.61,2.61,2.61,0,0,1,.57,1.85v15.79a2.61,2.61,0,0,1-.58,1.86,1.92,1.92,0,0,1-1.47.62,1.86,1.86,0,0,1-1.47-.63,2.74,2.74,0,0,1-.54-1.85v-6.74H105v6.74a2.65,2.65,0,0,1-.57,1.86,1.94,1.94,0,0,1-1.48.62,1.83,1.83,0,0,1-1.46-.63,2.69,2.69,0,0,1-.55-1.85V101.59a2.71,2.71,0,0,1,.54-1.84,1.83,1.83,0,0,1,1.47-.62,1.94,1.94,0,0,1,1.49.61A2.66,2.66,0,0,1,105,101.59Z"/><path class="cls-3" d="M135.39,102.6h-9.15v4.92h8.42a2,2,0,0,1,1.39.42,1.41,1.41,0,0,1,.46,1.1,1.48,1.48,0,0,1-.45,1.12,2,2,0,0,1-1.4.43h-8.42v5.7h9.46a2.08,2.08,0,0,1,1.44.44,1.52,1.52,0,0,1,.49,1.19,1.48,1.48,0,0,1-.49,1.15,2,2,0,0,1-1.44.44h-11a2.12,2.12,0,0,1-2.49-2.48V102a3.45,3.45,0,0,1,.26-1.43,1.6,1.6,0,0,1,.81-.81,3.58,3.58,0,0,1,1.42-.25h10.72a2.13,2.13,0,0,1,1.44.43,1.61,1.61,0,0,1,0,2.27A2.08,2.08,0,0,1,135.39,102.6Z"/><path class="cls-3" d="M152.5,101.59v10.5a21.8,21.8,0,0,1-.11,2.33,7.71,7.71,0,0,1-.53,1.94,5.27,5.27,0,0,1-2.25,2.57,7.42,7.42,0,0,1-3.83.93,7.93,7.93,0,0,1-3.4-.65,4.9,4.9,0,0,1-2.19-2.07,7.52,7.52,0,0,1-.72-1.77,7.26,7.26,0,0,1-.27-1.9,1.93,1.93,0,0,1,.53-1.46,1.9,1.9,0,0,1,1.37-.51,1.55,1.55,0,0,1,1.22.47,3.33,3.33,0,0,1,.63,1.45,13.51,13.51,0,0,0,.46,1.68,2.59,2.59,0,0,0,.78,1.08,2.4,2.4,0,0,0,1.56.45q2.69,0,2.69-3.95V101.59a2.71,2.71,0,0,1,.54-1.84,1.83,1.83,0,0,1,1.47-.62,1.89,1.89,0,0,1,1.5.62A2.66,2.66,0,0,1,152.5,101.59Z"/><path class="cls-3" d="M157.41,119.88a2.34,2.34,0,0,1-1.56-.55,1.94,1.94,0,0,1-.65-1.55,1.87,1.87,0,0,1,.64-1.45,2.18,2.18,0,0,1,1.52-.59,2.11,2.11,0,0,1,1.19.36,2.31,2.31,0,0,1,.83,1,4.28,4.28,0,0,1,.3,1.7,5.76,5.76,0,0,1-.57,2.54,5.63,5.63,0,0,1-1.4,1.87,2.5,2.5,0,0,1-1.5.69.9.9,0,0,1-.69-.28.89.89,0,0,1-.27-.65,1,1,0,0,1,.56-.9A2.57,2.57,0,0,0,157.41,119.88Z"/><path class="cls-3" d="M182.55,101.59v10.5a19.45,19.45,0,0,1-.11,2.33,7.31,7.31,0,0,1-.53,1.94,5.22,5.22,0,0,1-2.25,2.57,7.42,7.42,0,0,1-3.83.93,7.93,7.93,0,0,1-3.4-.65,4.9,4.9,0,0,1-2.19-2.07,7.11,7.11,0,0,1-.71-1.77,6.89,6.89,0,0,1-.28-1.9,1.8,1.8,0,0,1,1.9-2,1.54,1.54,0,0,1,1.22.47,3.33,3.33,0,0,1,.63,1.45,13.51,13.51,0,0,0,.46,1.68,2.59,2.59,0,0,0,.78,1.08,2.42,2.42,0,0,0,1.56.45c1.8,0,2.69-1.32,2.69-3.95V101.59a2.71,2.71,0,0,1,.54-1.84,1.83,1.83,0,0,1,1.47-.62,1.89,1.89,0,0,1,1.5.62A2.66,2.66,0,0,1,182.55,101.59Z"/><path class="cls-3" d="M200.16,102.6H191v4.92h8.42a2,2,0,0,1,1.39.42,1.44,1.44,0,0,1,.45,1.1,1.48,1.48,0,0,1-.45,1.12,2,2,0,0,1-1.39.43H191v5.7h9.46a2.08,2.08,0,0,1,1.44.44,1.55,1.55,0,0,1,.49,1.19,1.51,1.51,0,0,1-.49,1.15,2,2,0,0,1-1.44.44h-11A2.11,2.11,0,0,1,187,117V102a3.29,3.29,0,0,1,.26-1.43,1.6,1.6,0,0,1,.81-.81,3.56,3.56,0,0,1,1.41-.25h10.72a2.15,2.15,0,0,1,1.45.43,1.61,1.61,0,0,1,0,2.27A2.09,2.09,0,0,1,200.16,102.6Z"/><path class="cls-3" d="M223.94,111.37v3.84a4,4,0,0,1-.15,1.22,2,2,0,0,1-.55.83,5.68,5.68,0,0,1-1,.71,16.52,16.52,0,0,1-3.5,1.44,14.11,14.11,0,0,1-3.66.45,12,12,0,0,1-4.21-.71,8.92,8.92,0,0,1-3.24-2.07,9.07,9.07,0,0,1-2.06-3.28,12.25,12.25,0,0,1-.72-4.31,12.48,12.48,0,0,1,.7-4.28,8.75,8.75,0,0,1,2.05-3.29,9,9,0,0,1,3.3-2.07,12.57,12.57,0,0,1,4.4-.72,10.91,10.91,0,0,1,3.58.54,7.85,7.85,0,0,1,2.53,1.36,6.1,6.1,0,0,1,1.46,1.74,3.48,3.48,0,0,1,.49,1.62,1.77,1.77,0,0,1-.56,1.31,1.92,1.92,0,0,1-1.36.54,1.74,1.74,0,0,1-.84-.21,1.78,1.78,0,0,1-.68-.57,17.3,17.3,0,0,0-1.27-1.78,4.17,4.17,0,0,0-1.4-1,5.42,5.42,0,0,0-2.25-.41,6.13,6.13,0,0,0-2.52.49,5.13,5.13,0,0,0-1.89,1.4,6.32,6.32,0,0,0-1.21,2.27,10.18,10.18,0,0,0-.41,3,8.13,8.13,0,0,0,1.62,5.43,5.6,5.6,0,0,0,4.52,1.9,9.06,9.06,0,0,0,2.64-.37,12.66,12.66,0,0,0,2.51-1V112h-3.14a3.43,3.43,0,0,1-1.72-.35,1.22,1.22,0,0,1-.58-1.16,1.46,1.46,0,0,1,.48-1.11,1.93,1.93,0,0,1,1.32-.43h4.61a6,6,0,0,1,1.44.15,1.6,1.6,0,0,1,1,.67A2.72,2.72,0,0,1,223.94,111.37Z"/><path class="cls-3" d="M238.9,101.59v5.74h8.76v-5.74a2.66,2.66,0,0,1,.55-1.84,1.85,1.85,0,0,1,1.46-.62,1.9,1.9,0,0,1,1.48.61,2.61,2.61,0,0,1,.57,1.85v15.79a2.65,2.65,0,0,1-.57,1.86,2,2,0,0,1-1.48.62,1.83,1.83,0,0,1-1.46-.63,2.69,2.69,0,0,1-.55-1.85v-6.74H238.9v6.74a2.66,2.66,0,0,1-.58,1.86,1.92,1.92,0,0,1-1.47.62,1.85,1.85,0,0,1-1.47-.63,2.74,2.74,0,0,1-.54-1.85V101.59a2.71,2.71,0,0,1,.54-1.84,1.83,1.83,0,0,1,1.47-.62,1.92,1.92,0,0,1,1.48.61A2.61,2.61,0,0,1,238.9,101.59Z"/><path class="cls-3" d="M269.29,102.6h-9.15v4.92h8.42a2,2,0,0,1,1.39.42,1.41,1.41,0,0,1,.46,1.1,1.48,1.48,0,0,1-.45,1.12,2,2,0,0,1-1.4.43h-8.42v5.7h9.46a2.13,2.13,0,0,1,1.45.44,1.54,1.54,0,0,1,.48,1.19,1.5,1.5,0,0,1-.48,1.15,2.08,2.08,0,0,1-1.45.44h-11a2.63,2.63,0,0,1-1.91-.58,2.66,2.66,0,0,1-.58-1.9V102a3.45,3.45,0,0,1,.26-1.43,1.64,1.64,0,0,1,.81-.81,3.61,3.61,0,0,1,1.42-.25h10.72a2.1,2.1,0,0,1,1.44.43,1.61,1.61,0,0,1,0,2.27A2,2,0,0,1,269.29,102.6Z"/><path class="cls-3" d="M277.27,99.47h5.29a14.62,14.62,0,0,1,3.55.38,6.58,6.58,0,0,1,2.67,1.44c2.09,1.79,3.14,4.5,3.14,8.15a15.89,15.89,0,0,1-.32,3.29,9.64,9.64,0,0,1-1,2.69,8.45,8.45,0,0,1-1.68,2.14,7.15,7.15,0,0,1-1.76,1.16,8.21,8.21,0,0,1-2.06.62,15.58,15.58,0,0,1-2.48.17h-5.29a3.35,3.35,0,0,1-1.67-.33,1.52,1.52,0,0,1-.73-.94,5.77,5.77,0,0,1-.18-1.58V102a2.14,2.14,0,0,1,2.49-2.49Zm1.58,3.21v13.61h3.07c.68,0,1.2,0,1.59-.06a4.51,4.51,0,0,0,1.19-.27,3.19,3.19,0,0,0,1.06-.62q2-1.71,2-5.93a8.67,8.67,0,0,0-.9-4.44,4,4,0,0,0-2.2-1.88,10.89,10.89,0,0,0-3.17-.41Z"/><path class="cls-3" d="M298,99.47h5.29a14.47,14.47,0,0,1,3.54.38,6.55,6.55,0,0,1,2.68,1.44c2.09,1.79,3.13,4.5,3.13,8.15a15.92,15.92,0,0,1-.31,3.29,10,10,0,0,1-1,2.69,8.45,8.45,0,0,1-1.68,2.14,7,7,0,0,1-1.77,1.16,8.09,8.09,0,0,1-2.06.62,15.5,15.5,0,0,1-2.48.17h-5.29a3.37,3.37,0,0,1-1.67-.33,1.59,1.59,0,0,1-.73-.94,6.24,6.24,0,0,1-.17-1.58V102A2.14,2.14,0,0,1,298,99.47Zm1.57,3.21v13.61h3.08c.67,0,1.2,0,1.58-.06a4.43,4.43,0,0,0,1.19-.27,3.23,3.23,0,0,0,1.07-.62q2-1.71,2-5.93a8.67,8.67,0,0,0-.9-4.44,4,4,0,0,0-2.21-1.88,10.8,10.8,0,0,0-3.17-.41Z"/><path class="cls-3" d="M329.42,102.6h-9.15v4.92h8.42a2,2,0,0,1,1.39.42,1.41,1.41,0,0,1,.46,1.1,1.48,1.48,0,0,1-.45,1.12,2,2,0,0,1-1.4.43h-8.42v5.7h9.46a2.08,2.08,0,0,1,1.44.44,1.52,1.52,0,0,1,.49,1.19,1.48,1.48,0,0,1-.49,1.15,2,2,0,0,1-1.44.44h-11a2.12,2.12,0,0,1-2.49-2.48V102a3.45,3.45,0,0,1,.26-1.43,1.6,1.6,0,0,1,.81-.81,3.58,3.58,0,0,1,1.42-.25h10.72a2.12,2.12,0,0,1,1.44.43,1.61,1.61,0,0,1,0,2.27A2.07,2.07,0,0,1,329.42,102.6Z"/><path class="cls-3" d="M340.34,110.94h-1.42v6.44a2.68,2.68,0,0,1-.56,1.87,2.09,2.09,0,0,1-3,0,2.83,2.83,0,0,1-.53-1.85V102a2.56,2.56,0,0,1,.59-1.9,2.6,2.6,0,0,1,1.9-.59H344a19.52,19.52,0,0,1,2.34.12,5.84,5.84,0,0,1,1.75.47,5,5,0,0,1,2.77,2.85,5.71,5.71,0,0,1,.37,2.07,5,5,0,0,1-1.26,3.58,7.17,7.17,0,0,1-3.84,1.9,7.6,7.6,0,0,1,2.07,1.7,17.54,17.54,0,0,1,1.75,2.38,18,18,0,0,1,1.21,2.29,4.39,4.39,0,0,1,.43,1.4,1.53,1.53,0,0,1-.25.79,1.78,1.78,0,0,1-.69.61,2.22,2.22,0,0,1-1,.23,2,2,0,0,1-1.14-.32,3,3,0,0,1-.8-.82c-.23-.33-.53-.81-.91-1.45l-1.63-2.7a14.37,14.37,0,0,0-1.57-2.27,3.8,3.8,0,0,0-1.4-1.07A4.82,4.82,0,0,0,340.34,110.94Zm2.33-8.42h-3.75V108h3.64a10.18,10.18,0,0,0,2.46-.25,2.94,2.94,0,0,0,1.52-.86,2.51,2.51,0,0,0,.53-1.68,2.55,2.55,0,0,0-1.6-2.42A8.5,8.5,0,0,0,342.67,102.52Z"/><path class="cls-3" d="M367.48,110.94h-1.42v6.44a2.68,2.68,0,0,1-.56,1.87,1.9,1.9,0,0,1-1.47.61,1.87,1.87,0,0,1-1.5-.63,2.83,2.83,0,0,1-.53-1.85V102a2.56,2.56,0,0,1,.59-1.9,2.6,2.6,0,0,1,1.9-.59h6.6a19.52,19.52,0,0,1,2.34.12,5.92,5.92,0,0,1,1.75.47,5.09,5.09,0,0,1,1.67,1.13,5.27,5.27,0,0,1,1.1,1.72,5.71,5.71,0,0,1,.37,2.07,5,5,0,0,1-1.26,3.58,7.21,7.21,0,0,1-3.84,1.9,7.6,7.6,0,0,1,2.07,1.7,17.54,17.54,0,0,1,1.75,2.38,18,18,0,0,1,1.21,2.29,4.68,4.68,0,0,1,.43,1.4,1.45,1.45,0,0,1-.26.79,1.65,1.65,0,0,1-.69.61,2.15,2.15,0,0,1-1,.23,2,2,0,0,1-1.15-.32,3.29,3.29,0,0,1-.8-.82c-.22-.33-.52-.81-.91-1.45l-1.62-2.7a15.07,15.07,0,0,0-1.57-2.27,3.88,3.88,0,0,0-1.4-1.07A4.82,4.82,0,0,0,367.48,110.94Zm2.32-8.42h-3.74V108h3.63a10.21,10.21,0,0,0,2.47-.25,2.94,2.94,0,0,0,1.52-.86,2.51,2.51,0,0,0,.53-1.68,2.55,2.55,0,0,0-1.6-2.42A8.53,8.53,0,0,0,369.8,102.52Z"/><path class="cls-3" d="M391,99.13a10.72,10.72,0,0,1,5.35,1.26,8.31,8.31,0,0,1,3.39,3.6,12.33,12.33,0,0,1,1.15,5.48,13.35,13.35,0,0,1-.63,4.22,9.13,9.13,0,0,1-1.89,3.3,8.23,8.23,0,0,1-3.09,2.13,12.16,12.16,0,0,1-8.41,0,8.4,8.4,0,0,1-3.1-2.14,9.1,9.1,0,0,1-1.88-3.32,13.59,13.59,0,0,1-.64-4.2,12.78,12.78,0,0,1,.67-4.24,9.06,9.06,0,0,1,1.92-3.28,8.38,8.38,0,0,1,3.06-2.07A11,11,0,0,1,391,99.13Zm5.77,10.31a9.5,9.5,0,0,0-.71-3.82,5.35,5.35,0,0,0-2-2.44,5.94,5.94,0,0,0-5.28-.37,4.84,4.84,0,0,0-1.77,1.34,6.37,6.37,0,0,0-1.18,2.23,10.06,10.06,0,0,0-.43,3.06,10.26,10.26,0,0,0,.43,3.09,6.33,6.33,0,0,0,1.22,2.29,5.11,5.11,0,0,0,1.8,1.36,5.7,5.7,0,0,0,5.1-.33,5.41,5.41,0,0,0,2.08-2.41A9.35,9.35,0,0,0,396.75,109.44Z"/><path class="cls-3" d="M419.57,113.5a5.87,5.87,0,0,1-.94,3.27,6.22,6.22,0,0,1-2.74,2.27,10.37,10.37,0,0,1-4.28.82,9.67,9.67,0,0,1-4.89-1.12,6.55,6.55,0,0,1-2.22-2.16,4.9,4.9,0,0,1-.86-2.62,1.74,1.74,0,0,1,.51-1.26,1.77,1.77,0,0,1,1.31-.53,1.57,1.57,0,0,1,1.09.41,3.36,3.36,0,0,1,.76,1.22,8.19,8.19,0,0,0,.82,1.6,3.45,3.45,0,0,0,1.25,1.06,4.62,4.62,0,0,0,2.12.42,4.81,4.81,0,0,0,2.94-.84,2.54,2.54,0,0,0,1.12-2.1,2.22,2.22,0,0,0-.6-1.62,3.78,3.78,0,0,0-1.58-.95c-.64-.22-1.5-.45-2.57-.7a19.23,19.23,0,0,1-3.62-1.18,5.84,5.84,0,0,1-2.31-1.85,4.79,4.79,0,0,1-.85-2.9,5,5,0,0,1,.9-2.94,5.66,5.66,0,0,1,2.61-2,10.71,10.71,0,0,1,4-.69,9.81,9.81,0,0,1,3.19.46A6.83,6.83,0,0,1,417,100.8a5.06,5.06,0,0,1,1.29,1.6,3.57,3.57,0,0,1,.41,1.62,1.93,1.93,0,0,1-.51,1.31,1.63,1.63,0,0,1-1.28.58,1.5,1.5,0,0,1-1.06-.35,4.59,4.59,0,0,1-.78-1.14,5.27,5.27,0,0,0-1.31-1.77,3.89,3.89,0,0,0-2.47-.64,4.26,4.26,0,0,0-2.53.7,2,2,0,0,0-1,1.66,1.7,1.7,0,0,0,.33,1,2.75,2.75,0,0,0,.91.75,5.84,5.84,0,0,0,1.16.49c.39.12,1,.29,1.94.52,1.13.26,2.15.56,3.07.87a9.47,9.47,0,0,1,2.34,1.17,4.73,4.73,0,0,1,1.5,1.73A5.51,5.51,0,0,1,419.57,113.5Z"/><path class="cls-3" d="M435.84,117.25l-1-2.52h-8.15l-1,2.57a9.51,9.51,0,0,1-1,2,1.52,1.52,0,0,1-1.3.53,1.91,1.91,0,0,1-1.35-.56,1.74,1.74,0,0,1-.59-1.28,2.55,2.55,0,0,1,.14-.84c.09-.29.24-.7.45-1.22l5.12-13c.15-.37.33-.82.53-1.34a6.64,6.64,0,0,1,.66-1.31,2.83,2.83,0,0,1,.91-.84,3.27,3.27,0,0,1,2.82,0,2.83,2.83,0,0,1,.92.83,6,6,0,0,1,.58,1.09c.16.38.37.9.61,1.55l5.24,12.93a6.43,6.43,0,0,1,.61,2.15,1.78,1.78,0,0,1-.58,1.28,1.93,1.93,0,0,1-1.4.58,1.87,1.87,0,0,1-.82-.17,1.64,1.64,0,0,1-.57-.47,4.11,4.11,0,0,1-.5-.9Zm-8-5.57h6l-3-8.27Z"/><path class="cls-3" d="M105.55,147.48h-4.32a2.14,2.14,0,0,1-1.49-.46,1.5,1.5,0,0,1-.52-1.18,1.54,1.54,0,0,1,.5-1.19,2.17,2.17,0,0,1,1.51-.46h4.32a2.18,2.18,0,0,1,1.52.46,1.53,1.53,0,0,1,.49,1.19,1.51,1.51,0,0,1-.49,1.18A2.14,2.14,0,0,1,105.55,147.48Z"/><path class="cls-3" d="M126.05,132.73A10.62,10.62,0,0,1,131.4,134a8.15,8.15,0,0,1,3.38,3.59,12.19,12.19,0,0,1,1.15,5.48,13.35,13.35,0,0,1-.63,4.22,9.11,9.11,0,0,1-1.88,3.3,8.23,8.23,0,0,1-3.09,2.13,12.16,12.16,0,0,1-8.41,0,8.4,8.4,0,0,1-3.1-2.14,9.1,9.1,0,0,1-1.88-3.32,13.29,13.29,0,0,1-.64-4.2,13,13,0,0,1,.66-4.24,9.35,9.35,0,0,1,1.92-3.28,8.34,8.34,0,0,1,3.07-2.07A11,11,0,0,1,126.05,132.73ZM131.82,143a9.5,9.5,0,0,0-.71-3.82,5.41,5.41,0,0,0-2-2.44,5.59,5.59,0,0,0-3-.82,5.42,5.42,0,0,0-2.25.46,4.93,4.93,0,0,0-1.78,1.33,6.36,6.36,0,0,0-1.17,2.23,10.06,10.06,0,0,0-.43,3.06,10.26,10.26,0,0,0,.43,3.09,6.32,6.32,0,0,0,1.21,2.29,5.12,5.12,0,0,0,1.81,1.36,5.39,5.39,0,0,0,7.18-2.74A9.35,9.35,0,0,0,131.82,143Z"/><path class="cls-3" d="M157.71,145v3.84a4,4,0,0,1-.15,1.22,1.92,1.92,0,0,1-.55.83,5.13,5.13,0,0,1-1,.71,16.21,16.21,0,0,1-3.5,1.44,14.19,14.19,0,0,1-3.67.45,12,12,0,0,1-4.21-.71,8.92,8.92,0,0,1-3.24-2.07,9.12,9.12,0,0,1-2.06-3.28,12.22,12.22,0,0,1-.71-4.31,12.77,12.77,0,0,1,.69-4.28,8.87,8.87,0,0,1,2.05-3.29,9.09,9.09,0,0,1,3.3-2.07,12.57,12.57,0,0,1,4.4-.72,10.91,10.91,0,0,1,3.58.54,7.85,7.85,0,0,1,2.53,1.36,6.14,6.14,0,0,1,1.47,1.74,3.61,3.61,0,0,1,.49,1.62,1.74,1.74,0,0,1-.57,1.31,1.9,1.9,0,0,1-1.36.54,1.8,1.8,0,0,1-.84-.21,1.78,1.78,0,0,1-.68-.57,15.88,15.88,0,0,0-1.27-1.78,4.08,4.08,0,0,0-1.4-1,5.42,5.42,0,0,0-2.25-.41,6.13,6.13,0,0,0-2.52.49,5.3,5.3,0,0,0-1.89,1.4,6.46,6.46,0,0,0-1.2,2.27,9.85,9.85,0,0,0-.42,3,8.11,8.11,0,0,0,1.62,5.43,5.61,5.61,0,0,0,4.52,1.9,9.13,9.13,0,0,0,2.65-.37,12.59,12.59,0,0,0,2.5-1.05v-3.25h-3.14a3.43,3.43,0,0,1-1.72-.35,1.24,1.24,0,0,1-.58-1.16A1.4,1.4,0,0,1,149,143a1.85,1.85,0,0,1,1.32-.44H155a5.89,5.89,0,0,1,1.44.15,1.6,1.6,0,0,1,.95.67A2.72,2.72,0,0,1,157.71,145Z"/><path class="cls-3" d="M171.55,135.4l4.54,13.44,4.55-13.54c.24-.71.41-1.2.53-1.48a2,2,0,0,1,.59-.75,1.68,1.68,0,0,1,1.12-.34,1.93,1.93,0,0,1,1,.26,1.9,1.9,0,0,1,.69.69,1.72,1.72,0,0,1,.26.87,2.6,2.6,0,0,1-.09.65,5.31,5.31,0,0,1-.2.68l-.25.69-4.85,13.1c-.17.5-.35,1-.52,1.43a5.75,5.75,0,0,1-.6,1.19,2.63,2.63,0,0,1-2.3,1.17,2.83,2.83,0,0,1-1.39-.32,2.75,2.75,0,0,1-.91-.85,6.12,6.12,0,0,1-.61-1.2c-.17-.44-.35-.92-.52-1.42l-4.77-13c-.08-.24-.17-.47-.25-.7a4.82,4.82,0,0,1-.22-.73,3.18,3.18,0,0,1-.09-.67,1.78,1.78,0,0,1,.56-1.28,1.88,1.88,0,0,1,1.41-.57,1.64,1.64,0,0,1,1.47.64A8.65,8.65,0,0,1,171.55,135.4Z"/><path class="cls-3" d="M201.05,136.2h-9.14v4.92h8.42a2,2,0,0,1,1.39.42,1.44,1.44,0,0,1,.45,1.1,1.48,1.48,0,0,1-.45,1.12,2,2,0,0,1-1.39.43h-8.42v5.7h9.46a2.1,2.1,0,0,1,1.44.44,1.54,1.54,0,0,1,.48,1.19,1.49,1.49,0,0,1-.48,1.15,2.05,2.05,0,0,1-1.44.45h-11a2.59,2.59,0,0,1-1.9-.59,2.62,2.62,0,0,1-.58-1.9V135.56a3.29,3.29,0,0,1,.26-1.43,1.54,1.54,0,0,1,.81-.8,3.38,3.38,0,0,1,1.41-.26h10.72a2.1,2.1,0,0,1,1.44.43,1.58,1.58,0,0,1,0,2.27A2,2,0,0,1,201.05,136.2Z"/><path class="cls-3" d="M210.5,135.19v14.59h8.23a2.16,2.16,0,0,1,1.51.48,1.63,1.63,0,0,1,0,2.4,2.26,2.26,0,0,1-1.52.46h-9.8a2.13,2.13,0,0,1-2.49-2.49V135.19a2.66,2.66,0,0,1,.55-1.84,1.88,1.88,0,0,1,1.46-.62,1.92,1.92,0,0,1,1.48.61A2.61,2.61,0,0,1,210.5,135.19Z"/><path class="cls-3" d="M227.52,135.19v7l8-8.31a6.48,6.48,0,0,1,1-.89,1.83,1.83,0,0,1,1.07-.29,2,2,0,0,1,1.42.51,1.66,1.66,0,0,1,.54,1.25,2.51,2.51,0,0,1-.92,1.77l-4.93,4.67,5.68,8.15a11.31,11.31,0,0,1,.91,1.49,2.85,2.85,0,0,1,.3,1.23A1.53,1.53,0,0,1,240,153a2,2,0,0,1-1.43.5,2.37,2.37,0,0,1-1.38-.37,3.08,3.08,0,0,1-.9-1c-.25-.4-.47-.76-.66-1.09l-4.8-7.39-3.32,3.19V151a2.67,2.67,0,0,1-.57,1.87,2,2,0,0,1-1.48.61,1.92,1.92,0,0,1-1-.28,2,2,0,0,1-.74-.73,2.71,2.71,0,0,1-.23-.89c0-.34,0-.83,0-1.47v-14.9a2.71,2.71,0,0,1,.54-1.84,1.86,1.86,0,0,1,1.47-.62,1.9,1.9,0,0,1,1.48.61A2.61,2.61,0,0,1,227.52,135.19Z"/><path class="cls-3" d="M251.91,132.73a10.62,10.62,0,0,1,5.35,1.27,8.23,8.23,0,0,1,3.39,3.59,12.33,12.33,0,0,1,1.15,5.48,13.35,13.35,0,0,1-.63,4.22,9.13,9.13,0,0,1-1.89,3.3,8.23,8.23,0,0,1-3.09,2.13,12.16,12.16,0,0,1-8.41,0,8.4,8.4,0,0,1-3.1-2.14,9.1,9.1,0,0,1-1.88-3.32,13.59,13.59,0,0,1-.64-4.2,12.78,12.78,0,0,1,.67-4.24,9.06,9.06,0,0,1,1.92-3.28,8.38,8.38,0,0,1,3.06-2.07A11,11,0,0,1,251.91,132.73ZM257.68,143a9.5,9.5,0,0,0-.71-3.82,5.35,5.35,0,0,0-2-2.44,5.59,5.59,0,0,0-3-.82,5.42,5.42,0,0,0-2.25.46,4.81,4.81,0,0,0-1.77,1.33,6.37,6.37,0,0,0-1.18,2.23,10.06,10.06,0,0,0-.43,3.06,10.26,10.26,0,0,0,.43,3.09,6.33,6.33,0,0,0,1.22,2.29,5,5,0,0,0,1.8,1.36,5.7,5.7,0,0,0,5.1-.33,5.41,5.41,0,0,0,2.08-2.41A9.35,9.35,0,0,0,257.68,143Z"/><path class="cls-3" d="M272,150.09l-3.22-12.77v13.84a2.51,2.51,0,0,1-.51,1.72,1.71,1.71,0,0,1-1.36.58,1.73,1.73,0,0,1-1.34-.57,2.49,2.49,0,0,1-.52-1.73V135.3a2,2,0,0,1,.69-1.77,3.21,3.21,0,0,1,1.84-.46h1.26a4.76,4.76,0,0,1,1.65.21,1.33,1.33,0,0,1,.75.74,10.42,10.42,0,0,1,.57,1.73l2.91,11,2.91-11a11.72,11.72,0,0,1,.56-1.73,1.35,1.35,0,0,1,.76-.74,4.69,4.69,0,0,1,1.65-.21h1.25a3.25,3.25,0,0,1,1.85.46,2,2,0,0,1,.68,1.77v15.86a2.51,2.51,0,0,1-.51,1.72,1.73,1.73,0,0,1-1.37.58,1.7,1.7,0,0,1-1.33-.58,2.46,2.46,0,0,1-.52-1.72V137.32l-3.21,12.77q-.32,1.24-.51,1.83a2.56,2.56,0,0,1-.74,1.06,2.1,2.1,0,0,1-1.47.48,2.14,2.14,0,0,1-2-1.1,4.36,4.36,0,0,1-.43-1.06C272.25,150.92,272.15,150.51,272,150.09Z"/><path class="cls-3" d="M295.36,150.09l-3.21-12.77v13.84a2.51,2.51,0,0,1-.51,1.72,1.87,1.87,0,0,1-2.7,0,2.49,2.49,0,0,1-.52-1.73V135.3a2,2,0,0,1,.68-1.77,3.21,3.21,0,0,1,1.84-.46h1.26a4.69,4.69,0,0,1,1.65.21,1.38,1.38,0,0,1,.76.74,11.72,11.72,0,0,1,.56,1.73l2.91,11,2.91-11a11.72,11.72,0,0,1,.56-1.73,1.38,1.38,0,0,1,.76-.74,4.69,4.69,0,0,1,1.65-.21h1.26a3.21,3.21,0,0,1,1.84.46,2,2,0,0,1,.69,1.77v15.86a2.51,2.51,0,0,1-.51,1.72,1.75,1.75,0,0,1-1.38.58,1.7,1.7,0,0,1-1.33-.58,2.51,2.51,0,0,1-.51-1.72V137.32l-3.22,12.77q-.32,1.24-.51,1.83a2.54,2.54,0,0,1-.73,1.06,2.14,2.14,0,0,1-1.48.48,2.28,2.28,0,0,1-1.2-.31,2.24,2.24,0,0,1-.77-.79,4.8,4.8,0,0,1-.43-1.06Z"/><path class="cls-3" d="M325.12,136.2H316v4.92h8.42a2,2,0,0,1,1.39.42,1.57,1.57,0,0,1,0,2.22,2,2,0,0,1-1.39.43H316v5.7h9.46a2.08,2.08,0,0,1,1.44.44,1.55,1.55,0,0,1,.49,1.19,1.49,1.49,0,0,1-.49,1.15,2,2,0,0,1-1.44.45h-11a2.13,2.13,0,0,1-2.49-2.49V135.56a3.29,3.29,0,0,1,.26-1.43,1.54,1.54,0,0,1,.81-.8,3.4,3.4,0,0,1,1.42-.26h10.71a2.15,2.15,0,0,1,1.45.43,1.61,1.61,0,0,1,0,2.27A2.09,2.09,0,0,1,325.12,136.2Z"/><path class="cls-3" d="M335.88,135.16,343.69,147V135.05a2.64,2.64,0,0,1,.5-1.74,1.67,1.67,0,0,1,1.35-.58,1.73,1.73,0,0,1,1.38.58,2.64,2.64,0,0,1,.5,1.74v15.77c0,1.76-.73,2.64-2.18,2.64a3,3,0,0,1-1-.16,2.62,2.62,0,0,1-.82-.5,5.06,5.06,0,0,1-.71-.8c-.22-.3-.44-.62-.66-.94l-7.61-11.67v11.74a2.53,2.53,0,0,1-.53,1.74,1.79,1.79,0,0,1-1.37.59,1.72,1.72,0,0,1-1.38-.6,2.52,2.52,0,0,1-.52-1.73V135.67a4.32,4.32,0,0,1,.22-1.55,2.18,2.18,0,0,1,.86-1,2.33,2.33,0,0,1,1.3-.39,2.2,2.2,0,0,1,.93.18,2.38,2.38,0,0,1,.69.48,5.61,5.61,0,0,1,.6.78C335.45,134.49,335.67,134.82,335.88,135.16Z"/><path class="cls-3" d="M364.88,136.42h-4.43V151a2.66,2.66,0,0,1-.56,1.87,2,2,0,0,1-2.92,0,2.7,2.7,0,0,1-.56-1.86V136.42H352a2.23,2.23,0,0,1-1.55-.46,1.71,1.71,0,0,1,0-2.44,2.29,2.29,0,0,1,1.53-.45h12.9a2.28,2.28,0,0,1,1.57.47,1.56,1.56,0,0,1,.51,1.21,1.52,1.52,0,0,1-.52,1.21A2.29,2.29,0,0,1,364.88,136.42Z"/><path class="cls-3" d="M369.53,151V135.19a2.66,2.66,0,0,1,.56-1.84,1.87,1.87,0,0,1,1.45-.62,1.9,1.9,0,0,1,1.48.61,2.61,2.61,0,0,1,.57,1.85V151a2.65,2.65,0,0,1-.57,1.86,1.91,1.91,0,0,1-1.48.62,1.86,1.86,0,0,1-1.44-.63A2.64,2.64,0,0,1,369.53,151Z"/><path class="cls-3" d="M382.11,135.19v14.59h8.23a2.16,2.16,0,0,1,1.51.48,1.63,1.63,0,0,1,0,2.4,2.28,2.28,0,0,1-1.52.46h-9.8a2.13,2.13,0,0,1-2.49-2.49V135.19a2.66,2.66,0,0,1,.55-1.84,1.88,1.88,0,0,1,1.46-.62,1.92,1.92,0,0,1,1.48.61A2.61,2.61,0,0,1,382.11,135.19Z"/><path class="cls-3" d="M410.6,153.12h-6.12a2.53,2.53,0,0,1-1.9-.6,2.67,2.67,0,0,1-.56-1.89V135.56a2.63,2.63,0,0,1,.58-1.91,2.59,2.59,0,0,1,1.88-.58H411a15,15,0,0,1,2.49.18,5.53,5.53,0,0,1,1.89.68A4.94,4.94,0,0,1,416.6,135a4.6,4.6,0,0,1,.84,1.43,4.86,4.86,0,0,1,.28,1.66,4.61,4.61,0,0,1-3,4.41c2.63.83,3.95,2.47,3.95,4.89a5.55,5.55,0,0,1-.86,3,5.19,5.19,0,0,1-2.33,2,8.7,8.7,0,0,1-2.1.54A22.44,22.44,0,0,1,410.6,153.12Zm-4.52-17v5.18h3.71a7.54,7.54,0,0,0,2.35-.28,2.26,2.26,0,0,0,1.26-1.1,2.44,2.44,0,0,0,.35-1.28,2,2,0,0,0-1.08-2,8.35,8.35,0,0,0-3.3-.5Zm4.22,8.09h-4.22v5.86h4.36q4.11,0,4.11-3a2.41,2.41,0,0,0-1.06-2.2A6,6,0,0,0,410.3,144.21Z"/><path class="cls-3" d="M433.94,150.85l-1-2.52h-8.15l-.95,2.57a9.51,9.51,0,0,1-1,2,1.54,1.54,0,0,1-1.3.53,1.91,1.91,0,0,1-1.35-.56,1.71,1.71,0,0,1-.59-1.28,2.55,2.55,0,0,1,.14-.84c.09-.29.24-.7.45-1.22l5.12-13c.15-.37.33-.82.53-1.34a6.64,6.64,0,0,1,.66-1.31,2.73,2.73,0,0,1,.91-.84,3.27,3.27,0,0,1,2.82,0,2.83,2.83,0,0,1,.92.83,6,6,0,0,1,.58,1.09c.16.38.37.9.61,1.55l5.24,12.93a6.49,6.49,0,0,1,.61,2.15,1.78,1.78,0,0,1-.58,1.28,1.93,1.93,0,0,1-1.4.58,1.87,1.87,0,0,1-.82-.17,1.64,1.64,0,0,1-.57-.47,4,4,0,0,1-.5-.9Zm-8-5.57h6l-3-8.27Z"/><path class="cls-3" d="M458.86,145v3.84a4,4,0,0,1-.15,1.22,1.92,1.92,0,0,1-.55.83,5.13,5.13,0,0,1-1,.71,16,16,0,0,1-3.5,1.44,14.19,14.19,0,0,1-3.67.45,12,12,0,0,1-4.21-.71,8.81,8.81,0,0,1-5.3-5.35,12.45,12.45,0,0,1-.71-4.31,12.77,12.77,0,0,1,.69-4.28,8.87,8.87,0,0,1,2.05-3.29,9.17,9.17,0,0,1,3.3-2.07,12.57,12.57,0,0,1,4.4-.72,10.91,10.91,0,0,1,3.58.54,7.74,7.74,0,0,1,2.53,1.36,6.14,6.14,0,0,1,1.47,1.74,3.61,3.61,0,0,1,.49,1.62,1.74,1.74,0,0,1-.57,1.31,1.9,1.9,0,0,1-1.36.54,1.8,1.8,0,0,1-.84-.21,1.86,1.86,0,0,1-.68-.57,15.88,15.88,0,0,0-1.27-1.78,4,4,0,0,0-1.4-1,5.42,5.42,0,0,0-2.25-.41,6.13,6.13,0,0,0-2.52.49,5.3,5.3,0,0,0-1.89,1.4,6.46,6.46,0,0,0-1.2,2.27,9.85,9.85,0,0,0-.42,3,8.11,8.11,0,0,0,1.62,5.43,5.61,5.61,0,0,0,4.52,1.9,9.13,9.13,0,0,0,2.65-.37,12.59,12.59,0,0,0,2.5-1.05v-3.25H452a3.43,3.43,0,0,1-1.72-.35,1.24,1.24,0,0,1-.58-1.16,1.4,1.4,0,0,1,.49-1.1,1.85,1.85,0,0,1,1.32-.44h4.6a5.89,5.89,0,0,1,1.44.15,1.6,1.6,0,0,1,.95.67A2.72,2.72,0,0,1,458.86,145Z"/><path class="cls-3" d="M475.94,136.2h-9.15v4.92h8.42a2,2,0,0,1,1.39.42,1.41,1.41,0,0,1,.46,1.1,1.48,1.48,0,0,1-.45,1.12,2,2,0,0,1-1.4.43h-8.42v5.7h9.46a2.08,2.08,0,0,1,1.44.44,1.52,1.52,0,0,1,.49,1.19,1.46,1.46,0,0,1-.49,1.15,2,2,0,0,1-1.44.45h-11a2.63,2.63,0,0,1-1.91-.59,2.66,2.66,0,0,1-.58-1.9V135.56a3.45,3.45,0,0,1,.26-1.43,1.58,1.58,0,0,1,.81-.8,3.43,3.43,0,0,1,1.42-.26h10.72a2.1,2.1,0,0,1,1.44.43,1.61,1.61,0,0,1,0,2.27A2,2,0,0,1,475.94,136.2Z"/><path class="cls-3" d="M483.92,133.07h5.29a14.1,14.1,0,0,1,3.55.39,6.54,6.54,0,0,1,2.68,1.43c2.08,1.79,3.13,4.5,3.13,8.15a15.89,15.89,0,0,1-.32,3.29,9.64,9.64,0,0,1-1,2.69,8.45,8.45,0,0,1-1.68,2.14,7.15,7.15,0,0,1-1.76,1.16,8.21,8.21,0,0,1-2.06.62,15.51,15.51,0,0,1-2.48.18H484a3.34,3.34,0,0,1-1.67-.34,1.52,1.52,0,0,1-.73-.94,5.77,5.77,0,0,1-.17-1.58v-14.7a2.13,2.13,0,0,1,2.48-2.49Zm1.58,3.22v13.6h3.07q1,0,1.59-.06a4.51,4.51,0,0,0,1.19-.27,3.17,3.17,0,0,0,1.06-.61q2-1.72,2-5.94a8.67,8.67,0,0,0-.9-4.44,4,4,0,0,0-2.2-1.88,10.92,10.92,0,0,0-3.17-.4Z"/><path class="cls-3" d="M505.54,151v-6.36l-4.9-7.58a17.19,17.19,0,0,1-.91-1.6,2.6,2.6,0,0,1-.26-1,1.57,1.57,0,0,1,.54-1.2,1.86,1.86,0,0,1,1.33-.51,1.65,1.65,0,0,1,1.27.47,15.94,15.94,0,0,1,1.29,1.88l3.74,6.09,3.79-6.09.58-.94a4.66,4.66,0,0,1,.51-.72,2,2,0,0,1,.62-.51,1.93,1.93,0,0,1,2.11.32,1.58,1.58,0,0,1,.52,1.15,2.44,2.44,0,0,1-.26,1.07,16.77,16.77,0,0,1-.89,1.48l-5,7.69V151a2.65,2.65,0,0,1-.57,1.86,2,2,0,0,1-1.47.62,1.91,1.91,0,0,1-1.46-.61A2.66,2.66,0,0,1,505.54,151Z"/><path class="cls-3" d="M533.1,147.1a5.87,5.87,0,0,1-.94,3.27,6.22,6.22,0,0,1-2.74,2.27,10.37,10.37,0,0,1-4.28.82,9.69,9.69,0,0,1-4.89-1.12,6.55,6.55,0,0,1-2.22-2.16,4.87,4.87,0,0,1-.86-2.62,1.71,1.71,0,0,1,.52-1.26,1.73,1.73,0,0,1,1.3-.53,1.57,1.57,0,0,1,1.09.41,3.36,3.36,0,0,1,.76,1.22,8.19,8.19,0,0,0,.82,1.6,3.4,3.4,0,0,0,1.26,1.06,4.55,4.55,0,0,0,2.11.42,4.81,4.81,0,0,0,2.94-.84,2.54,2.54,0,0,0,1.13-2.1,2.23,2.23,0,0,0-.61-1.62,3.89,3.89,0,0,0-1.58-.95c-.64-.22-1.5-.45-2.57-.7a19.23,19.23,0,0,1-3.62-1.18,5.84,5.84,0,0,1-2.31-1.85,4.79,4.79,0,0,1-.85-2.9,5,5,0,0,1,.9-2.94,5.66,5.66,0,0,1,2.61-2,10.71,10.71,0,0,1,4-.69,9.81,9.81,0,0,1,3.19.46,6.66,6.66,0,0,1,2.24,1.22,5.1,5.1,0,0,1,1.3,1.59,3.7,3.7,0,0,1,.41,1.62,1.94,1.94,0,0,1-.52,1.31,1.62,1.62,0,0,1-1.27.58,1.47,1.47,0,0,1-1.07-.35,4.59,4.59,0,0,1-.78-1.14,5.17,5.17,0,0,0-1.31-1.77,3.88,3.88,0,0,0-2.46-.63,4.27,4.27,0,0,0-2.54.69,2,2,0,0,0-1,1.66,1.76,1.76,0,0,0,.32,1,2.75,2.75,0,0,0,.91.75,6.1,6.1,0,0,0,1.16.49c.39.12,1,.29,1.94.52,1.13.26,2.15.56,3.07.87a9.47,9.47,0,0,1,2.34,1.17,4.73,4.73,0,0,1,1.5,1.73A5.51,5.51,0,0,1,533.1,147.1Z"/><path class="cls-3" d="M549.56,136.42h-4.43V151a2.71,2.71,0,0,1-.56,1.87,2,2,0,0,1-2.92,0,2.7,2.7,0,0,1-.56-1.86V136.42h-4.43a2.23,2.23,0,0,1-1.55-.46,1.71,1.71,0,0,1,0-2.44,2.29,2.29,0,0,1,1.53-.45h12.9a2.3,2.3,0,0,1,1.57.47,1.56,1.56,0,0,1,.51,1.21,1.52,1.52,0,0,1-.52,1.21A2.29,2.29,0,0,1,549.56,136.42Z"/><path class="cls-3" d="M567.25,136.2h-9.14v4.92h8.42a2,2,0,0,1,1.39.42,1.44,1.44,0,0,1,.45,1.1,1.48,1.48,0,0,1-.45,1.12,2,2,0,0,1-1.39.43h-8.42v5.7h9.46a2.1,2.1,0,0,1,1.44.44,1.55,1.55,0,0,1,.49,1.19,1.49,1.49,0,0,1-.49,1.15,2.05,2.05,0,0,1-1.44.45h-11a2.13,2.13,0,0,1-2.48-2.49V135.56a3.29,3.29,0,0,1,.26-1.43,1.54,1.54,0,0,1,.81-.8,3.38,3.38,0,0,1,1.41-.26h10.72a2.1,2.1,0,0,1,1.44.43,1.58,1.58,0,0,1,0,2.27A2,2,0,0,1,567.25,136.2Z"/><path class="cls-3" d="M578,135.16,585.82,147V135.05a2.64,2.64,0,0,1,.5-1.74,1.67,1.67,0,0,1,1.35-.58,1.73,1.73,0,0,1,1.38.58,2.64,2.64,0,0,1,.5,1.74v15.77q0,2.64-2.19,2.64a3,3,0,0,1-1-.16,2.52,2.52,0,0,1-.82-.5,4.61,4.61,0,0,1-.71-.8c-.22-.3-.44-.62-.66-.94l-7.61-11.67v11.74a2.48,2.48,0,0,1-.54,1.74,1.76,1.76,0,0,1-1.36.59,1.72,1.72,0,0,1-1.38-.6,2.52,2.52,0,0,1-.52-1.73V135.67a4.32,4.32,0,0,1,.22-1.55,2.12,2.12,0,0,1,.86-1,2.33,2.33,0,0,1,1.3-.39,2.2,2.2,0,0,1,.93.18,2.38,2.38,0,0,1,.69.48,5.61,5.61,0,0,1,.6.78Z"/><path class="cls-3" d="M595.51,153.46a2.15,2.15,0,0,1-1.46-.55,1.92,1.92,0,0,1-.61-1.53,2,2,0,0,1,.58-1.44,2,2,0,0,1,1.45-.6,2,2,0,0,1,1.47.6,1.9,1.9,0,0,1,.61,1.44,1.93,1.93,0,0,1-.61,1.52A2,2,0,0,1,595.51,153.46Z"/><path class="cls-3" d="M105,168.79v5.74h8.77v-5.74a2.66,2.66,0,0,1,.55-1.84,1.88,1.88,0,0,1,1.46-.62,1.92,1.92,0,0,1,1.48.61,2.61,2.61,0,0,1,.57,1.85v15.79a2.61,2.61,0,0,1-.58,1.86,1.92,1.92,0,0,1-1.47.62,1.86,1.86,0,0,1-1.47-.63,2.74,2.74,0,0,1-.54-1.85v-6.74H105v6.74a2.65,2.65,0,0,1-.57,1.86,1.94,1.94,0,0,1-1.48.62,1.83,1.83,0,0,1-1.46-.63,2.69,2.69,0,0,1-.55-1.85V168.79a2.71,2.71,0,0,1,.54-1.84,1.86,1.86,0,0,1,1.47-.62,1.94,1.94,0,0,1,1.49.61A2.66,2.66,0,0,1,105,168.79Z"/><path class="cls-3" d="M133.83,168.79v10.5a19.22,19.22,0,0,1-.12,2.33,7.68,7.68,0,0,1-.52,1.94,5.24,5.24,0,0,1-2.26,2.57,7.39,7.39,0,0,1-3.83.93,7.93,7.93,0,0,1-3.4-.65,5,5,0,0,1-2.19-2.07,7.52,7.52,0,0,1-.71-1.77,7.26,7.26,0,0,1-.27-1.9,1.8,1.8,0,0,1,1.9-2,1.53,1.53,0,0,1,1.21.47,3.22,3.22,0,0,1,.63,1.45,13.28,13.28,0,0,0,.47,1.68,2.43,2.43,0,0,0,.78,1.08,2.37,2.37,0,0,0,1.55.45q2.7,0,2.7-4V168.79a2.71,2.71,0,0,1,.54-1.84,1.86,1.86,0,0,1,1.47-.62,1.9,1.9,0,0,1,1.49.62A2.66,2.66,0,0,1,133.83,168.79Z"/><path class="cls-3" d="M148.68,181.9h-7.21l-1.23,2.83a5.9,5.9,0,0,1-1,1.71,2,2,0,0,1-1.49.62,1.8,1.8,0,0,1-1.28-.45,1.36,1.36,0,0,1-.48-1,3.44,3.44,0,0,1,.06-.7,2.55,2.55,0,0,1,.14-.46l.33-.72,6.72-14.58c.38-.82.65-1.35.81-1.62a1.65,1.65,0,0,1,.69-.61,3.33,3.33,0,0,1,1.35-.21h14.51a2.11,2.11,0,0,1,1.43.43,1.49,1.49,0,0,1,.47,1.13,1.36,1.36,0,0,1-.46,1.09,2.17,2.17,0,0,1-1.44.4h-8v5h7.28a2,2,0,0,1,1.39.43,1.57,1.57,0,0,1,0,2.23,2,2,0,0,1-1.38.41h-7.28v5.88h8.27a2.35,2.35,0,0,1,1.47.38,1.31,1.31,0,0,1,.48,1.09,1.44,1.44,0,0,1-.48,1.15,2.22,2.22,0,0,1-1.47.42h-9.75a2.54,2.54,0,0,1-1.85-.56,2.43,2.43,0,0,1-.58-1.81Zm-5.88-3.22h5.88v-9.1h-2Z"/><path class="cls-3" d="M169.94,168.79v14.59h8.23a2.17,2.17,0,0,1,1.51.48,1.55,1.55,0,0,1,.52,1.2,1.53,1.53,0,0,1-.52,1.2,2.23,2.23,0,0,1-1.51.45h-9.81a2.59,2.59,0,0,1-1.9-.58,2.62,2.62,0,0,1-.59-1.9V168.79a2.66,2.66,0,0,1,.56-1.84,1.86,1.86,0,0,1,1.45-.62,1.94,1.94,0,0,1,1.49.61A2.61,2.61,0,0,1,169.94,168.79Z"/><path class="cls-3" d="M190.65,178.91h-3.72v5.67a2.68,2.68,0,0,1-.57,1.85,1.89,1.89,0,0,1-1.45.63,1.87,1.87,0,0,1-1.48-.63,2.64,2.64,0,0,1-.56-1.82V169.16a2.52,2.52,0,0,1,.61-1.91,2.78,2.78,0,0,1,2-.58h5.21a13.45,13.45,0,0,1,3.55.36,5.33,5.33,0,0,1,2.13,1.13,5.13,5.13,0,0,1,1.36,1.94,6.87,6.87,0,0,1,.46,2.59,5.69,5.69,0,0,1-1.88,4.64A8.6,8.6,0,0,1,190.65,178.91Zm-1-9.19h-2.73v6.13h2.73a7.82,7.82,0,0,0,2.4-.31,2.75,2.75,0,0,0,1.47-1,2.9,2.9,0,0,0,.51-1.79,3,3,0,0,0-.78-2.16C192.68,170,191.48,169.72,189.66,169.72Z"/><path class="cls-3" d="M215.31,183.69l-3.21-12.77v13.84a2.51,2.51,0,0,1-.51,1.72,1.87,1.87,0,0,1-2.7,0,2.47,2.47,0,0,1-.52-1.73V168.9a2,2,0,0,1,.68-1.77,3.33,3.33,0,0,1,1.85-.46h1.25a4.69,4.69,0,0,1,1.65.21,1.35,1.35,0,0,1,.76.74,11.72,11.72,0,0,1,.56,1.73l2.91,11,2.91-11a10.42,10.42,0,0,1,.57-1.73,1.33,1.33,0,0,1,.75-.74,4.73,4.73,0,0,1,1.65-.21h1.26a3.35,3.35,0,0,1,1.85.46,2,2,0,0,1,.68,1.77v15.86a2.51,2.51,0,0,1-.51,1.72,1.75,1.75,0,0,1-1.38.58,1.67,1.67,0,0,1-1.32-.58,2.46,2.46,0,0,1-.52-1.72V170.92l-3.22,12.77q-.31,1.25-.51,1.83a2.54,2.54,0,0,1-.73,1.06,2.14,2.14,0,0,1-1.48.48,2.28,2.28,0,0,1-1.2-.31,2.32,2.32,0,0,1-.77-.79,4.8,4.8,0,0,1-.43-1.06Z"/><path class="cls-3" d="M232,184.58V168.79a2.66,2.66,0,0,1,.56-1.84,1.89,1.89,0,0,1,1.45-.62,1.94,1.94,0,0,1,1.49.61,2.66,2.66,0,0,1,.56,1.85v15.79a2.7,2.7,0,0,1-.56,1.86,2,2,0,0,1-1.49.62,1.86,1.86,0,0,1-1.44-.63A2.64,2.64,0,0,1,232,184.58Z"/><path class="cls-3" d="M258.94,178.57v3.84a4,4,0,0,1-.15,1.22,2,2,0,0,1-.55.83,5.22,5.22,0,0,1-1,.71,16.52,16.52,0,0,1-3.5,1.44,14.11,14.11,0,0,1-3.66.45,12,12,0,0,1-4.21-.71,8.81,8.81,0,0,1-5.3-5.35,12.25,12.25,0,0,1-.72-4.31,12.48,12.48,0,0,1,.7-4.28,8.75,8.75,0,0,1,2.05-3.29,9,9,0,0,1,3.3-2.07,12.57,12.57,0,0,1,4.4-.72,10.91,10.91,0,0,1,3.58.54,7.85,7.85,0,0,1,2.53,1.36,6.1,6.1,0,0,1,1.46,1.74,3.48,3.48,0,0,1,.49,1.62,1.77,1.77,0,0,1-.56,1.31,1.92,1.92,0,0,1-1.36.54,1.74,1.74,0,0,1-.84-.21,1.78,1.78,0,0,1-.68-.57,17.3,17.3,0,0,0-1.27-1.78,4.17,4.17,0,0,0-1.4-1,5.42,5.42,0,0,0-2.25-.41,6.13,6.13,0,0,0-2.52.49,5.13,5.13,0,0,0-1.89,1.4,6.32,6.32,0,0,0-1.21,2.27,10.18,10.18,0,0,0-.41,3,8.11,8.11,0,0,0,1.62,5.43,5.6,5.6,0,0,0,4.52,1.9,9.06,9.06,0,0,0,2.64-.37,12.66,12.66,0,0,0,2.51-1v-3.25h-3.14a3.43,3.43,0,0,1-1.72-.35,1.22,1.22,0,0,1-.58-1.16,1.46,1.46,0,0,1,.48-1.11,1.93,1.93,0,0,1,1.32-.43h4.61a6,6,0,0,1,1.44.15,1.6,1.6,0,0,1,.95.67A2.72,2.72,0,0,1,258.94,178.57Z"/><path class="cls-3" d="M276.58,183.69l-3.22-12.77v13.84a2.51,2.51,0,0,1-.51,1.72,1.87,1.87,0,0,1-2.7,0,2.47,2.47,0,0,1-.52-1.73V168.9a2,2,0,0,1,.68-1.77,3.33,3.33,0,0,1,1.85-.46h1.26a4.76,4.76,0,0,1,1.65.21,1.33,1.33,0,0,1,.75.74,10.62,10.62,0,0,1,.56,1.73l2.92,11,2.91-11a11.72,11.72,0,0,1,.56-1.73,1.35,1.35,0,0,1,.76-.74,4.69,4.69,0,0,1,1.65-.21h1.25a3.33,3.33,0,0,1,1.85.46,2,2,0,0,1,.68,1.77v15.86a2.51,2.51,0,0,1-.51,1.72,1.73,1.73,0,0,1-1.37.58,1.7,1.7,0,0,1-1.33-.58,2.46,2.46,0,0,1-.52-1.72V170.92L282,183.69c-.21.83-.38,1.44-.52,1.83a2.45,2.45,0,0,1-.73,1.06,2.1,2.1,0,0,1-1.47.48,2.14,2.14,0,0,1-2-1.1,4.36,4.36,0,0,1-.43-1.06C276.79,184.52,276.69,184.11,276.58,183.69Z"/><path class="cls-3" d="M306.34,169.8h-9.15v4.92h8.42a2,2,0,0,1,1.39.42,1.41,1.41,0,0,1,.46,1.1,1.48,1.48,0,0,1-.45,1.12,2,2,0,0,1-1.4.43h-8.42v5.7h9.46a2.13,2.13,0,0,1,1.45.44,1.54,1.54,0,0,1,.48,1.19,1.5,1.5,0,0,1-.48,1.15,2.08,2.08,0,0,1-1.45.44h-11a2.63,2.63,0,0,1-1.91-.58,2.66,2.66,0,0,1-.58-1.9V169.16a3.45,3.45,0,0,1,.26-1.43,1.66,1.66,0,0,1,.82-.81,3.53,3.53,0,0,1,1.41-.25h10.72a2.1,2.1,0,0,1,1.44.43,1.61,1.61,0,0,1,0,2.27A2,2,0,0,1,306.34,169.8Z"/><path class="cls-3" d="M314.32,166.67h5.29a14.62,14.62,0,0,1,3.55.38,6.68,6.68,0,0,1,2.68,1.44c2.08,1.79,3.13,4.5,3.13,8.15a15.89,15.89,0,0,1-.32,3.29,9.64,9.64,0,0,1-1,2.69,8.45,8.45,0,0,1-1.68,2.14,7.15,7.15,0,0,1-1.76,1.16,8.21,8.21,0,0,1-2.06.62,15.58,15.58,0,0,1-2.48.17h-5.29a3.35,3.35,0,0,1-1.67-.33,1.52,1.52,0,0,1-.73-.94,5.82,5.82,0,0,1-.17-1.58v-14.7a2.13,2.13,0,0,1,2.48-2.49Zm1.58,3.21v13.61H319q1,0,1.59-.06a4.51,4.51,0,0,0,1.19-.27,3.19,3.19,0,0,0,1.06-.62q2-1.71,2-5.93a8.79,8.79,0,0,0-.89-4.44,4,4,0,0,0-2.21-1.88,10.85,10.85,0,0,0-3.17-.41Z"/><path class="cls-3" d="M352.36,184.45l-1-2.52h-8.15l-.95,2.57a9.51,9.51,0,0,1-1,2,1.54,1.54,0,0,1-1.3.53,1.91,1.91,0,0,1-1.35-.56,1.71,1.71,0,0,1-.59-1.28,2.55,2.55,0,0,1,.14-.84c.09-.29.24-.7.45-1.22l5.12-13c.15-.37.33-.82.53-1.34a6.64,6.64,0,0,1,.66-1.31,2.73,2.73,0,0,1,.91-.84,3.27,3.27,0,0,1,2.82,0,2.83,2.83,0,0,1,.92.83,6,6,0,0,1,.58,1.09c.16.38.37.9.61,1.55l5.24,12.93a6.49,6.49,0,0,1,.61,2.15,1.78,1.78,0,0,1-.58,1.28,1.93,1.93,0,0,1-1.4.58,1.87,1.87,0,0,1-.82-.17,1.64,1.64,0,0,1-.57-.47,3.74,3.74,0,0,1-.5-.9Zm-8-5.57h6l-3-8.27Z"/><path class="cls-3" d="M370.23,170H365.8v14.56a2.71,2.71,0,0,1-.56,1.87,2,2,0,0,1-2.92,0,2.65,2.65,0,0,1-.57-1.86V170h-4.43a2.2,2.2,0,0,1-1.54-.46,1.69,1.69,0,0,1,0-2.44,2.28,2.28,0,0,1,1.52-.45h12.91a2.26,2.26,0,0,1,1.56.47,1.67,1.67,0,0,1,0,2.42A2.29,2.29,0,0,1,370.23,170Z"/><path class="cls-3" d="M396.94,180.7A5.94,5.94,0,0,1,396,184a6.33,6.33,0,0,1-2.74,2.27,10.41,10.41,0,0,1-4.28.82,9.73,9.73,0,0,1-4.9-1.12,6.55,6.55,0,0,1-2.22-2.16,4.88,4.88,0,0,1-.85-2.62,1.78,1.78,0,0,1,1.81-1.79,1.57,1.57,0,0,1,1.09.41,3.23,3.23,0,0,1,.76,1.22,7.67,7.67,0,0,0,.83,1.6,3.29,3.29,0,0,0,1.25,1.06,4.56,4.56,0,0,0,2.12.42,4.78,4.78,0,0,0,2.93-.84,2.55,2.55,0,0,0,1.13-2.1,2.23,2.23,0,0,0-.61-1.62,3.92,3.92,0,0,0-1.57-1c-.65-.22-1.51-.45-2.58-.7a19.23,19.23,0,0,1-3.62-1.18,5.84,5.84,0,0,1-2.31-1.85,4.79,4.79,0,0,1-.85-2.9,5,5,0,0,1,.9-2.94,5.66,5.66,0,0,1,2.61-2,10.71,10.71,0,0,1,4-.69,9.77,9.77,0,0,1,3.19.46,6.73,6.73,0,0,1,2.24,1.21,5.24,5.24,0,0,1,1.3,1.6,3.7,3.7,0,0,1,.41,1.62,1.93,1.93,0,0,1-.51,1.31,1.64,1.64,0,0,1-1.28.58,1.43,1.43,0,0,1-1.06-.35,4.58,4.58,0,0,1-.79-1.14,5.14,5.14,0,0,0-1.31-1.77,3.86,3.86,0,0,0-2.46-.64,4.27,4.27,0,0,0-2.54.7,2,2,0,0,0-1,1.66,1.7,1.7,0,0,0,.33,1,2.71,2.71,0,0,0,.9.75,6.1,6.1,0,0,0,1.16.49c.39.12,1,.29,1.94.52a31.35,31.35,0,0,1,3.07.87,9.13,9.13,0,0,1,2.34,1.17,4.73,4.73,0,0,1,1.5,1.73A5.51,5.51,0,0,1,396.94,180.7Z"/><path class="cls-3" d="M413.21,184.45l-.95-2.52h-8.15l-1,2.57a8.61,8.61,0,0,1-1,2,1.51,1.51,0,0,1-1.3.53,1.91,1.91,0,0,1-1.35-.56,1.74,1.74,0,0,1-.59-1.28,2.84,2.84,0,0,1,.14-.84c.09-.29.24-.7.45-1.22l5.13-13,.52-1.34a7.23,7.23,0,0,1,.66-1.31,2.76,2.76,0,0,1,.92-.84,2.81,2.81,0,0,1,1.4-.32,2.88,2.88,0,0,1,1.41.32,2.73,2.73,0,0,1,.92.83,6,6,0,0,1,.59,1.09c.16.38.36.9.6,1.55l5.24,12.93a6.57,6.57,0,0,1,.62,2.15,1.82,1.82,0,0,1-.58,1.28,2,2,0,0,1-1.41.58,1.87,1.87,0,0,1-.82-.17,1.73,1.73,0,0,1-.57-.47,4.11,4.11,0,0,1-.5-.9Zm-8-5.57h6l-3-8.27Z"/><path class="cls-3" d="M427.29,183.69l-3.21-12.77v13.84a2.51,2.51,0,0,1-.51,1.72,1.87,1.87,0,0,1-2.7,0,2.47,2.47,0,0,1-.52-1.73V168.9a2,2,0,0,1,.68-1.77,3.33,3.33,0,0,1,1.85-.46h1.26a4.66,4.66,0,0,1,1.64.21,1.32,1.32,0,0,1,.76.74,10.62,10.62,0,0,1,.56,1.73l2.92,11,2.91-11a10.62,10.62,0,0,1,.56-1.73,1.32,1.32,0,0,1,.76-.74,4.66,4.66,0,0,1,1.64-.21h1.26a3.33,3.33,0,0,1,1.85.46,2,2,0,0,1,.68,1.77v15.86a2.51,2.51,0,0,1-.51,1.72,1.73,1.73,0,0,1-1.38.58,1.68,1.68,0,0,1-1.32-.58,2.46,2.46,0,0,1-.52-1.72V170.92l-3.21,12.77c-.21.83-.38,1.44-.52,1.83a2.45,2.45,0,0,1-.73,1.06,2.12,2.12,0,0,1-1.47.48,2.29,2.29,0,0,1-1.21-.31,2.21,2.21,0,0,1-.76-.79,4,4,0,0,1-.43-1.06C427.51,184.52,427.4,184.11,427.29,183.69Z"/><path class="cls-3" d="M447.83,168.79v14.59h8.23a2.16,2.16,0,0,1,1.51.48,1.56,1.56,0,0,1,.53,1.2,1.53,1.53,0,0,1-.52,1.2,2.26,2.26,0,0,1-1.52.45h-9.8a2.12,2.12,0,0,1-2.49-2.48V168.79a2.66,2.66,0,0,1,.55-1.84,1.88,1.88,0,0,1,1.46-.62,1.92,1.92,0,0,1,1.48.61A2.61,2.61,0,0,1,447.83,168.79Z"/><path class="cls-3" d="M474,169.8h-9.15v4.92h8.43a2,2,0,0,1,1.38.42,1.41,1.41,0,0,1,.46,1.1,1.48,1.48,0,0,1-.45,1.12,2,2,0,0,1-1.39.43h-8.43v5.7h9.46a2.13,2.13,0,0,1,1.45.44,1.54,1.54,0,0,1,.48,1.19,1.5,1.5,0,0,1-.48,1.15,2.08,2.08,0,0,1-1.45.44h-11a2.63,2.63,0,0,1-1.91-.58,2.66,2.66,0,0,1-.58-1.9V169.16a3.45,3.45,0,0,1,.26-1.43,1.62,1.62,0,0,1,.82-.81,3.53,3.53,0,0,1,1.41-.25H474a2.1,2.1,0,0,1,1.44.43,1.61,1.61,0,0,1,0,2.27A2,2,0,0,1,474,169.8Z"/><path class="cls-3" d="M489,166.67h5.3a14.59,14.59,0,0,1,3.54.38,6.68,6.68,0,0,1,2.68,1.44c2.08,1.79,3.13,4.5,3.13,8.15a15.89,15.89,0,0,1-.32,3.29,9.64,9.64,0,0,1-1,2.69,8.45,8.45,0,0,1-1.68,2.14,7.15,7.15,0,0,1-1.76,1.16,8.21,8.21,0,0,1-2.06.62,15.5,15.5,0,0,1-2.48.17H489a3.35,3.35,0,0,1-1.67-.33,1.52,1.52,0,0,1-.73-.94,5.82,5.82,0,0,1-.17-1.58v-14.7a2.13,2.13,0,0,1,2.48-2.49Zm1.58,3.21v13.61h3.07q1,0,1.59-.06a4.51,4.51,0,0,0,1.19-.27,3.19,3.19,0,0,0,1.06-.62q2-1.71,2-5.93a8.79,8.79,0,0,0-.89-4.44,4,4,0,0,0-2.21-1.88,10.89,10.89,0,0,0-3.17-.41Z"/><path class="cls-3" d="M520.37,169.8h-9.14v4.92h8.42a2,2,0,0,1,1.38.42,1.41,1.41,0,0,1,.46,1.1,1.48,1.48,0,0,1-.45,1.12,2,2,0,0,1-1.39.43h-8.42v5.7h9.46a2.1,2.1,0,0,1,1.44.44,1.54,1.54,0,0,1,.48,1.19,1.5,1.5,0,0,1-.48,1.15,2.05,2.05,0,0,1-1.44.44h-11a2.59,2.59,0,0,1-1.9-.58,2.62,2.62,0,0,1-.58-1.9V169.16a3.29,3.29,0,0,1,.26-1.43,1.6,1.6,0,0,1,.81-.81,3.56,3.56,0,0,1,1.41-.25h10.72a2.1,2.1,0,0,1,1.44.43,1.58,1.58,0,0,1,0,2.27A2,2,0,0,1,520.37,169.8Z"/><path class="cls-3" d="M538.3,178.14h-1.43v6.44a2.68,2.68,0,0,1-.56,1.88,1.9,1.9,0,0,1-1.46.6,1.84,1.84,0,0,1-1.5-.63,2.78,2.78,0,0,1-.54-1.85V169.16a2.14,2.14,0,0,1,2.49-2.49h6.61a19.22,19.22,0,0,1,2.33.12,5.84,5.84,0,0,1,1.75.47,5,5,0,0,1,1.67,1.13,5.11,5.11,0,0,1,1.1,1.72,5.72,5.72,0,0,1,.38,2.07,5,5,0,0,1-1.27,3.58,7.17,7.17,0,0,1-3.83,1.9,7.42,7.42,0,0,1,2.06,1.7,16.34,16.34,0,0,1,1.76,2.39,17.09,17.09,0,0,1,1.2,2.28,4.39,4.39,0,0,1,.43,1.4,1.44,1.44,0,0,1-.25.79,1.78,1.78,0,0,1-.69.61,2.18,2.18,0,0,1-1,.23,2,2,0,0,1-1.15-.32,3.12,3.12,0,0,1-.8-.82c-.22-.33-.53-.81-.91-1.45l-1.63-2.7a14.42,14.42,0,0,0-1.56-2.27,3.88,3.88,0,0,0-1.4-1.07A4.86,4.86,0,0,0,538.3,178.14Zm2.32-8.42h-3.75v5.51h3.64A10.07,10.07,0,0,0,543,175a2.93,2.93,0,0,0,1.53-.86,2.5,2.5,0,0,0,.52-1.68,2.63,2.63,0,0,0-.42-1.47,2.59,2.59,0,0,0-1.18-.95A8.42,8.42,0,0,0,540.62,169.72Z"/><path class="cls-3" d="M553.14,184.58V168.79a2.66,2.66,0,0,1,.56-1.84,1.89,1.89,0,0,1,1.45-.62,1.94,1.94,0,0,1,1.49.61,2.61,2.61,0,0,1,.56,1.85v15.79a2.65,2.65,0,0,1-.56,1.86,2,2,0,0,1-1.49.62,1.86,1.86,0,0,1-1.44-.63A2.64,2.64,0,0,1,553.14,184.58Z"/><path class="cls-3" d="M580.05,178.57v3.84a4,4,0,0,1-.15,1.22,2,2,0,0,1-.55.83,5.22,5.22,0,0,1-1,.71,16.31,16.31,0,0,1-3.5,1.44,14.11,14.11,0,0,1-3.66.45,12,12,0,0,1-4.21-.71,8.81,8.81,0,0,1-5.3-5.35,12.25,12.25,0,0,1-.72-4.31,12.72,12.72,0,0,1,.7-4.28,8.87,8.87,0,0,1,2-3.29,9,9,0,0,1,3.3-2.07,12.57,12.57,0,0,1,4.4-.72,10.91,10.91,0,0,1,3.58.54,7.85,7.85,0,0,1,2.53,1.36,6.1,6.1,0,0,1,1.46,1.74,3.51,3.51,0,0,1,.5,1.62,1.74,1.74,0,0,1-.57,1.31,1.92,1.92,0,0,1-1.36.54,2,2,0,0,1-1.52-.78,17.3,17.3,0,0,0-1.27-1.78,4.17,4.17,0,0,0-1.4-1,5.42,5.42,0,0,0-2.25-.41,6.13,6.13,0,0,0-2.52.49,5.13,5.13,0,0,0-1.89,1.4,6.32,6.32,0,0,0-1.21,2.27,10.18,10.18,0,0,0-.41,3,8.11,8.11,0,0,0,1.62,5.43,5.6,5.6,0,0,0,4.52,1.9,9.06,9.06,0,0,0,2.64-.37,12.66,12.66,0,0,0,2.51-1v-3.25h-3.14a3.43,3.43,0,0,1-1.72-.35,1.22,1.22,0,0,1-.58-1.16,1.46,1.46,0,0,1,.48-1.11,1.93,1.93,0,0,1,1.32-.43h4.61a5.89,5.89,0,0,1,1.44.15,1.6,1.6,0,0,1,1,.67A2.72,2.72,0,0,1,580.05,178.57Z"/><path class="cls-3" d="M596.94,170h-4.43v14.56a2.67,2.67,0,0,1-.57,1.87,2,2,0,0,1-2.91,0,2.65,2.65,0,0,1-.57-1.86V170H584a2.24,2.24,0,0,1-1.55-.46,1.55,1.55,0,0,1-.5-1.21,1.53,1.53,0,0,1,.52-1.23,2.31,2.31,0,0,1,1.53-.45h12.91a2.26,2.26,0,0,1,1.56.47,1.56,1.56,0,0,1,.51,1.21,1.5,1.5,0,0,1-.52,1.21A2.24,2.24,0,0,1,596.94,170Z"/><path class="cls-3" d="M601.58,184.58V168.79a2.66,2.66,0,0,1,.56-1.84,1.89,1.89,0,0,1,1.45-.62,1.94,1.94,0,0,1,1.49.61,2.66,2.66,0,0,1,.56,1.85v15.79a2.7,2.7,0,0,1-.56,1.86,2,2,0,0,1-1.49.62,1.86,1.86,0,0,1-1.44-.63A2.64,2.64,0,0,1,601.58,184.58Z"/><path class="cls-3" d="M628.49,178.57v3.84a4,4,0,0,1-.15,1.22,2,2,0,0,1-.56.83,4.86,4.86,0,0,1-1,.71,16.52,16.52,0,0,1-3.5,1.44,14.11,14.11,0,0,1-3.66.45,12,12,0,0,1-4.21-.71,8.81,8.81,0,0,1-5.3-5.35,12.25,12.25,0,0,1-.72-4.31,12.72,12.72,0,0,1,.7-4.28,8.87,8.87,0,0,1,2.05-3.29,9,9,0,0,1,3.3-2.07,12.57,12.57,0,0,1,4.4-.72,10.91,10.91,0,0,1,3.58.54,7.85,7.85,0,0,1,2.53,1.36,6.1,6.1,0,0,1,1.46,1.74,3.48,3.48,0,0,1,.49,1.62,1.73,1.73,0,0,1-.56,1.31,1.92,1.92,0,0,1-1.36.54,1.74,1.74,0,0,1-.84-.21,1.78,1.78,0,0,1-.68-.57,17.3,17.3,0,0,0-1.27-1.78,4.17,4.17,0,0,0-1.4-1,5.42,5.42,0,0,0-2.25-.41A6.13,6.13,0,0,0,617,170a5.13,5.13,0,0,0-1.89,1.4,6.32,6.32,0,0,0-1.21,2.27,10.18,10.18,0,0,0-.41,3A8.11,8.11,0,0,0,615.1,182a5.6,5.6,0,0,0,4.52,1.9,9.06,9.06,0,0,0,2.64-.37,12.66,12.66,0,0,0,2.51-1v-3.25h-3.14a3.43,3.43,0,0,1-1.72-.35,1.22,1.22,0,0,1-.58-1.16,1.46,1.46,0,0,1,.48-1.11,1.93,1.93,0,0,1,1.32-.43h4.61a6,6,0,0,1,1.44.15,1.6,1.6,0,0,1,1,.67A2.72,2.72,0,0,1,628.49,178.57Z"/><path class="cls-3" d="M645.57,169.8h-9.15v4.92h8.42a2,2,0,0,1,1.39.42,1.45,1.45,0,0,1,.46,1.1,1.48,1.48,0,0,1-.45,1.12,2,2,0,0,1-1.4.43h-8.42v5.7h9.46a2.08,2.08,0,0,1,1.44.44,1.52,1.52,0,0,1,.49,1.19,1.48,1.48,0,0,1-.49,1.15,2,2,0,0,1-1.44.44h-11a2.12,2.12,0,0,1-2.49-2.48V169.16a3.29,3.29,0,0,1,.26-1.43,1.6,1.6,0,0,1,.81-.81,3.58,3.58,0,0,1,1.42-.25h10.72a2.13,2.13,0,0,1,1.44.43,1.61,1.61,0,0,1,0,2.27A2.08,2.08,0,0,1,645.57,169.8Z"/><path class="cls-3" d="M101.07,218.18V202.39a2.71,2.71,0,0,1,.56-1.85,1.87,1.87,0,0,1,1.45-.61,1.9,1.9,0,0,1,1.48.61,2.61,2.61,0,0,1,.57,1.85v15.79a2.65,2.65,0,0,1-.57,1.86,1.91,1.91,0,0,1-1.48.62,1.86,1.86,0,0,1-1.44-.63A2.64,2.64,0,0,1,101.07,218.18Z"/><path class="cls-3" d="M115,202.36l7.81,11.82V202.25a2.58,2.58,0,0,1,.5-1.74,1.66,1.66,0,0,1,1.34-.58,1.71,1.71,0,0,1,1.38.58,2.58,2.58,0,0,1,.51,1.74V218q0,2.64-2.19,2.64a3,3,0,0,1-1-.16,2.52,2.52,0,0,1-.82-.5,4.61,4.61,0,0,1-.71-.8c-.22-.3-.44-.62-.66-.94l-7.61-11.67v11.74a2.48,2.48,0,0,1-.54,1.74,1.76,1.76,0,0,1-1.37.59,1.75,1.75,0,0,1-1.38-.6,2.57,2.57,0,0,1-.52-1.73V202.87a4.56,4.56,0,0,1,.22-1.55,2.24,2.24,0,0,1,.86-1,2.36,2.36,0,0,1,1.3-.39,2.12,2.12,0,0,1,1.62.66,4.4,4.4,0,0,1,.6.78C114.53,201.68,114.74,202,115,202.36Z"/><path class="cls-3" d="M149.25,212.17V216a4,4,0,0,1-.15,1.22,2,2,0,0,1-.55.83,5.68,5.68,0,0,1-1,.71,16.52,16.52,0,0,1-3.5,1.44,14.11,14.11,0,0,1-3.66.45,12,12,0,0,1-4.21-.71,8.92,8.92,0,0,1-3.24-2.07,9.07,9.07,0,0,1-2.06-3.28,12.25,12.25,0,0,1-.72-4.31,12.72,12.72,0,0,1,.7-4.28,8.75,8.75,0,0,1,2.05-3.29,9,9,0,0,1,3.3-2.07,12.57,12.57,0,0,1,4.4-.72,10.91,10.91,0,0,1,3.58.54,7.85,7.85,0,0,1,2.53,1.36,6.1,6.1,0,0,1,1.46,1.74,3.48,3.48,0,0,1,.49,1.62,1.77,1.77,0,0,1-.56,1.31,1.9,1.9,0,0,1-1.36.54,1.74,1.74,0,0,1-.84-.21,1.78,1.78,0,0,1-.68-.57,17.3,17.3,0,0,0-1.27-1.78,4.17,4.17,0,0,0-1.4-1,5.42,5.42,0,0,0-2.25-.41,6.13,6.13,0,0,0-2.52.49,5.13,5.13,0,0,0-1.89,1.4,6.32,6.32,0,0,0-1.21,2.27,10.18,10.18,0,0,0-.41,3,8.13,8.13,0,0,0,1.62,5.43,5.6,5.6,0,0,0,4.52,1.9,9,9,0,0,0,2.64-.37,12.66,12.66,0,0,0,2.51-1v-3.25h-3.14a3.43,3.43,0,0,1-1.72-.35,1.22,1.22,0,0,1-.58-1.16,1.46,1.46,0,0,1,.48-1.11,1.93,1.93,0,0,1,1.32-.43h4.61a6,6,0,0,1,1.44.15,1.6,1.6,0,0,1,.95.67A2.72,2.72,0,0,1,149.25,212.17Z"/><path class="cls-3" d="M158.57,211.74h-1.42v6.44a2.68,2.68,0,0,1-.56,1.87,2.09,2.09,0,0,1-3,0,2.83,2.83,0,0,1-.53-1.85V202.76a2.14,2.14,0,0,1,2.49-2.49h6.6a19.52,19.52,0,0,1,2.34.12,5.84,5.84,0,0,1,1.75.47,5,5,0,0,1,1.67,1.13,5.11,5.11,0,0,1,1.1,1.72,5.72,5.72,0,0,1,.38,2.07,5,5,0,0,1-1.27,3.58,7.17,7.17,0,0,1-3.83,1.9,7.57,7.57,0,0,1,2.06,1.7,17.62,17.62,0,0,1,1.76,2.38,19.13,19.13,0,0,1,1.2,2.29,4.39,4.39,0,0,1,.43,1.4,1.44,1.44,0,0,1-.25.79,1.78,1.78,0,0,1-.69.61,2.18,2.18,0,0,1-1,.23,1.93,1.93,0,0,1-1.15-.33,2.94,2.94,0,0,1-.8-.81c-.23-.33-.53-.81-.91-1.45l-1.63-2.7a14.42,14.42,0,0,0-1.56-2.27,3.83,3.83,0,0,0-1.41-1.07A4.82,4.82,0,0,0,158.57,211.74Zm2.33-8.42h-3.75v5.51h3.64a10.18,10.18,0,0,0,2.46-.25,2.94,2.94,0,0,0,1.52-.86,2.51,2.51,0,0,0,.53-1.68,2.52,2.52,0,0,0-1.6-2.42A8.46,8.46,0,0,0,160.9,203.32Z"/><path class="cls-3" d="M186.46,203.4h-9.14v4.92h8.42a2,2,0,0,1,1.39.42,1.57,1.57,0,0,1,0,2.22,2,2,0,0,1-1.39.43h-8.42v5.7h9.46a2.08,2.08,0,0,1,1.44.44,1.54,1.54,0,0,1,.49,1.18,1.52,1.52,0,0,1-.49,1.16,2,2,0,0,1-1.44.44h-11a2.12,2.12,0,0,1-2.49-2.48V202.76a3.29,3.29,0,0,1,.26-1.43,1.6,1.6,0,0,1,.81-.81,3.58,3.58,0,0,1,1.42-.25h10.71a2.15,2.15,0,0,1,1.45.43,1.61,1.61,0,0,1,0,2.27A2.09,2.09,0,0,1,186.46,203.4Z"/><path class="cls-3" d="M194.45,200.27h5.29a14.47,14.47,0,0,1,3.54.38,6.55,6.55,0,0,1,2.68,1.44c2.09,1.79,3.13,4.5,3.13,8.15a15.92,15.92,0,0,1-.31,3.29,10,10,0,0,1-1,2.69,8.28,8.28,0,0,1-1.69,2.14,6.8,6.8,0,0,1-1.76,1.16,8.09,8.09,0,0,1-2.06.62,15.5,15.5,0,0,1-2.48.17h-5.29a3.37,3.37,0,0,1-1.67-.33,1.59,1.59,0,0,1-.73-.94,6.24,6.24,0,0,1-.17-1.58v-14.7a2.14,2.14,0,0,1,2.49-2.49Zm1.57,3.21v13.61h3.08c.67,0,1.2,0,1.58-.06a4.43,4.43,0,0,0,1.19-.27,3.23,3.23,0,0,0,1.07-.62q2-1.71,2-5.93a8.67,8.67,0,0,0-.9-4.44,4,4,0,0,0-2.21-1.88,10.8,10.8,0,0,0-3.17-.41Z"/><path class="cls-3" d="M212.82,218.18V202.39a2.71,2.71,0,0,1,.56-1.85,1.88,1.88,0,0,1,1.45-.61,1.94,1.94,0,0,1,1.49.61,2.66,2.66,0,0,1,.56,1.85v15.79a2.7,2.7,0,0,1-.56,1.86,2,2,0,0,1-1.49.62,1.86,1.86,0,0,1-1.44-.63A2.64,2.64,0,0,1,212.82,218.18Z"/><path class="cls-3" d="M234.63,203.4h-9.15v4.92h8.43a2,2,0,0,1,1.38.42,1.41,1.41,0,0,1,.46,1.1,1.48,1.48,0,0,1-.45,1.12,2,2,0,0,1-1.39.43h-8.43v5.7h9.46a2.13,2.13,0,0,1,1.45.44,1.54,1.54,0,0,1,.48,1.18,1.51,1.51,0,0,1-.48,1.16,2.08,2.08,0,0,1-1.45.44h-11a2.63,2.63,0,0,1-1.91-.58,2.68,2.68,0,0,1-.58-1.9V202.76a3.45,3.45,0,0,1,.26-1.43,1.66,1.66,0,0,1,.82-.81,3.56,3.56,0,0,1,1.41-.25h10.72a2.1,2.1,0,0,1,1.44.43,1.61,1.61,0,0,1,0,2.27A2,2,0,0,1,234.63,203.4Z"/><path class="cls-3" d="M245.39,202.36l7.81,11.82V202.25a2.58,2.58,0,0,1,.5-1.74,1.66,1.66,0,0,1,1.34-.58,1.71,1.71,0,0,1,1.38.58,2.58,2.58,0,0,1,.51,1.74V218q0,2.64-2.19,2.64a3,3,0,0,1-1-.16,2.52,2.52,0,0,1-.82-.5,4.23,4.23,0,0,1-.71-.8c-.22-.3-.44-.62-.66-.94L244,206.59v11.74a2.48,2.48,0,0,1-.53,1.74,1.76,1.76,0,0,1-1.37.59,1.75,1.75,0,0,1-1.38-.6,2.57,2.57,0,0,1-.52-1.73V202.87a4.56,4.56,0,0,1,.22-1.55,2.24,2.24,0,0,1,.86-1,2.36,2.36,0,0,1,1.3-.39,2.12,2.12,0,0,1,1.62.66,4.4,4.4,0,0,1,.6.78C245,201.68,245.17,202,245.39,202.36Z"/><path class="cls-3" d="M276.6,214.3a5.94,5.94,0,0,1-.93,3.27,6.33,6.33,0,0,1-2.74,2.27,10.41,10.41,0,0,1-4.28.82,9.73,9.73,0,0,1-4.9-1.12,6.55,6.55,0,0,1-2.22-2.16,4.88,4.88,0,0,1-.85-2.62,1.78,1.78,0,0,1,1.81-1.79,1.57,1.57,0,0,1,1.09.41,3.23,3.23,0,0,1,.76,1.22,7.67,7.67,0,0,0,.83,1.6,3.29,3.29,0,0,0,1.25,1.06,4.56,4.56,0,0,0,2.12.42,4.72,4.72,0,0,0,2.93-.85,2.52,2.52,0,0,0,1.13-2.09,2.23,2.23,0,0,0-.61-1.62,3.81,3.81,0,0,0-1.57-1,25.94,25.94,0,0,0-2.58-.7,19.23,19.23,0,0,1-3.62-1.18,5.93,5.93,0,0,1-2.31-1.85,4.79,4.79,0,0,1-.85-2.9,5,5,0,0,1,.9-2.94,5.66,5.66,0,0,1,2.61-2,10.71,10.71,0,0,1,4-.69,9.77,9.77,0,0,1,3.19.46A6.73,6.73,0,0,1,274,201.6a5.24,5.24,0,0,1,1.3,1.6,3.7,3.7,0,0,1,.41,1.62,1.93,1.93,0,0,1-.51,1.31,1.64,1.64,0,0,1-1.28.58,1.47,1.47,0,0,1-1.06-.35,4.58,4.58,0,0,1-.79-1.14,5,5,0,0,0-1.31-1.77,3.86,3.86,0,0,0-2.46-.64,4.27,4.27,0,0,0-2.54.69,2,2,0,0,0-1,1.67,1.7,1.7,0,0,0,.33,1,2.71,2.71,0,0,0,.9.75,6.1,6.1,0,0,0,1.16.49c.39.12,1,.29,1.94.52a31.35,31.35,0,0,1,3.07.87,9.13,9.13,0,0,1,2.34,1.17,4.73,4.73,0,0,1,1.5,1.73A5.51,5.51,0,0,1,276.6,214.3Z"/><path class="cls-3" d="M293.26,203.4h-9.15v4.92h8.42a2,2,0,0,1,1.39.42,1.45,1.45,0,0,1,.46,1.1,1.48,1.48,0,0,1-.45,1.12,2,2,0,0,1-1.4.43h-8.42v5.7h9.46a2.08,2.08,0,0,1,1.44.44,1.51,1.51,0,0,1,.49,1.18,1.48,1.48,0,0,1-.49,1.16,2,2,0,0,1-1.44.44h-11a2.12,2.12,0,0,1-2.49-2.48V202.76a3.29,3.29,0,0,1,.26-1.43,1.6,1.6,0,0,1,.81-.81,3.58,3.58,0,0,1,1.42-.25h10.72a2.13,2.13,0,0,1,1.44.43,1.61,1.61,0,0,1,0,2.27A2.08,2.08,0,0,1,293.26,203.4Z"/><path class="cls-3" d="M304.18,211.74h-1.42v6.44a2.68,2.68,0,0,1-.56,1.87,1.9,1.9,0,0,1-1.47.61,1.87,1.87,0,0,1-1.5-.63,2.78,2.78,0,0,1-.53-1.85V202.76a2.6,2.6,0,0,1,.58-1.9,2.65,2.65,0,0,1,1.91-.59h6.6a19.52,19.52,0,0,1,2.34.12,5.92,5.92,0,0,1,1.75.47,5,5,0,0,1,1.66,1.13,5.14,5.14,0,0,1,1.11,1.72,5.71,5.71,0,0,1,.37,2.07,5,5,0,0,1-1.26,3.58,7.24,7.24,0,0,1-3.84,1.9A7.6,7.6,0,0,1,312,213a17.54,17.54,0,0,1,1.75,2.38,18,18,0,0,1,1.21,2.29,4.68,4.68,0,0,1,.43,1.4,1.45,1.45,0,0,1-.26.79,1.78,1.78,0,0,1-.69.61,2.18,2.18,0,0,1-1,.23,2,2,0,0,1-1.15-.33,3.08,3.08,0,0,1-.8-.81c-.22-.33-.52-.81-.91-1.45l-1.62-2.7a15.07,15.07,0,0,0-1.57-2.27A3.88,3.88,0,0,0,306,212,4.82,4.82,0,0,0,304.18,211.74Zm2.32-8.42h-3.74v5.51h3.63a10.21,10.21,0,0,0,2.47-.25,2.94,2.94,0,0,0,1.52-.86,2.51,2.51,0,0,0,.53-1.68,2.64,2.64,0,0,0-.43-1.47,2.57,2.57,0,0,0-1.17-.95A8.53,8.53,0,0,0,306.5,203.32Z"/><path class="cls-3" d="M338.88,203.62h-4.43v14.56a2.71,2.71,0,0,1-.56,1.87,2,2,0,0,1-2.92,0,2.65,2.65,0,0,1-.57-1.86V203.62H326a2.2,2.2,0,0,1-1.54-.46,1.69,1.69,0,0,1,0-2.44,2.28,2.28,0,0,1,1.52-.45h12.91a2.26,2.26,0,0,1,1.56.47,1.67,1.67,0,0,1,0,2.42A2.29,2.29,0,0,1,338.88,203.62Z"/><path class="cls-3" d="M343.53,218.18V202.39a2.66,2.66,0,0,1,.56-1.85,1.85,1.85,0,0,1,1.45-.61,1.92,1.92,0,0,1,1.48.61,2.61,2.61,0,0,1,.57,1.85v15.79A2.65,2.65,0,0,1,347,220a1.92,1.92,0,0,1-1.48.62,1.86,1.86,0,0,1-1.45-.63A2.69,2.69,0,0,1,343.53,218.18Z"/><path class="cls-3" d="M356.11,202.39V217h8.23a2.17,2.17,0,0,1,1.51.48,1.55,1.55,0,0,1,.52,1.2,1.53,1.53,0,0,1-.52,1.2,2.23,2.23,0,0,1-1.51.45h-9.81a2.59,2.59,0,0,1-1.9-.58,2.64,2.64,0,0,1-.59-1.9V202.39a2.71,2.71,0,0,1,.56-1.85,1.85,1.85,0,0,1,1.45-.61,1.94,1.94,0,0,1,1.49.61A2.61,2.61,0,0,1,356.11,202.39Z"/><path class="cls-3" d="M388.86,218l-.95-2.51h-8.15l-1,2.57a8.61,8.61,0,0,1-1,2,1.51,1.51,0,0,1-1.3.53,1.91,1.91,0,0,1-1.35-.56,1.74,1.74,0,0,1-.59-1.28,2.84,2.84,0,0,1,.14-.84c.09-.29.24-.7.45-1.22l5.13-13,.52-1.34a7.23,7.23,0,0,1,.66-1.31,2.76,2.76,0,0,1,.92-.84,2.81,2.81,0,0,1,1.4-.32,2.86,2.86,0,0,1,1.41.32,2.73,2.73,0,0,1,.92.83,6,6,0,0,1,.59,1.09c.16.38.36.9.61,1.55l5.23,12.93a6.51,6.51,0,0,1,.62,2.15,1.82,1.82,0,0,1-.58,1.28,2,2,0,0,1-1.41.58,1.9,1.9,0,0,1-.82-.17,1.73,1.73,0,0,1-.57-.47,4.11,4.11,0,0,1-.5-.9C389.14,218.71,389,218.36,388.86,218Zm-8-5.56h6l-3-8.27Z"/><path class="cls-3" d="M406.73,203.62H402.3v14.56a2.71,2.71,0,0,1-.56,1.87,2,2,0,0,1-2.92,0,2.65,2.65,0,0,1-.56-1.86V203.62h-4.43a2.23,2.23,0,0,1-1.55-.46,1.71,1.71,0,0,1,0-2.44,2.29,2.29,0,0,1,1.53-.45h12.9a2.28,2.28,0,0,1,1.57.47,1.56,1.56,0,0,1,.51,1.21,1.5,1.5,0,0,1-.52,1.21A2.29,2.29,0,0,1,406.73,203.62Z"/><path class="cls-3" d="M426.78,220.31h-6.13a2.5,2.5,0,0,1-1.89-.59,2.67,2.67,0,0,1-.57-1.89V202.76a2.11,2.11,0,0,1,2.46-2.49h6.49a15,15,0,0,1,2.49.18,5.53,5.53,0,0,1,1.89.68,5.16,5.16,0,0,1,1.26,1.08,4.78,4.78,0,0,1,.83,1.43,4.87,4.87,0,0,1,.29,1.66,4.61,4.61,0,0,1-3,4.41c2.63.83,3.95,2.47,3.95,4.89a5.55,5.55,0,0,1-.86,3,5.16,5.16,0,0,1-2.32,2,8.91,8.91,0,0,1-2.11.54A22.43,22.43,0,0,1,426.78,220.31Zm-4.53-17v5.18H426a7.18,7.18,0,0,0,2.34-.29,2.23,2.23,0,0,0,1.27-1.09,2.43,2.43,0,0,0,.34-1.28,2,2,0,0,0-1.08-2,8.31,8.31,0,0,0-3.3-.5Zm4.22,8.09h-4.22v5.86h4.36c2.74,0,4.12-1,4.12-3a2.42,2.42,0,0,0-1.07-2.2A5.93,5.93,0,0,0,426.47,211.41Z"/><path class="cls-3" d="M450.11,218l-.95-2.51H441l-1,2.57a8.61,8.61,0,0,1-1,2,1.51,1.51,0,0,1-1.3.53,1.91,1.91,0,0,1-1.35-.56,1.74,1.74,0,0,1-.59-1.28A2.84,2.84,0,0,1,436,218c.09-.29.24-.7.45-1.22l5.13-13,.52-1.34a7.23,7.23,0,0,1,.66-1.31,2.76,2.76,0,0,1,.92-.84,2.81,2.81,0,0,1,1.4-.32,2.86,2.86,0,0,1,1.41.32,2.73,2.73,0,0,1,.92.83,6,6,0,0,1,.59,1.09c.16.38.36.9.61,1.55l5.23,12.93a6.51,6.51,0,0,1,.62,2.15,1.82,1.82,0,0,1-.58,1.28,2,2,0,0,1-1.41.58,1.9,1.9,0,0,1-.82-.17,1.84,1.84,0,0,1-.57-.47,4.58,4.58,0,0,1-.5-.9C450.39,218.71,450.24,218.36,450.11,218Zm-8-5.56h6l-3-8.27Z"/><path class="cls-3" d="M475,212.17V216a4,4,0,0,1-.15,1.22,2,2,0,0,1-.56.83,5.58,5.58,0,0,1-1,.71,16.52,16.52,0,0,1-3.5,1.44,14.11,14.11,0,0,1-3.66.45,12,12,0,0,1-4.21-.71,8.92,8.92,0,0,1-3.24-2.07,9.07,9.07,0,0,1-2.06-3.28,12.25,12.25,0,0,1-.72-4.31,12.48,12.48,0,0,1,.7-4.28,8.75,8.75,0,0,1,2.05-3.29,9,9,0,0,1,3.29-2.07,12.63,12.63,0,0,1,4.41-.72,11,11,0,0,1,3.58.54,7.85,7.85,0,0,1,2.53,1.36,6.27,6.27,0,0,1,1.46,1.74,3.48,3.48,0,0,1,.49,1.62,1.74,1.74,0,0,1-.57,1.31,1.89,1.89,0,0,1-1.36.54,1.8,1.8,0,0,1-.84-.21,1.75,1.75,0,0,1-.67-.57,17.11,17.11,0,0,0-1.28-1.78,4,4,0,0,0-1.4-1,5.42,5.42,0,0,0-2.25-.41,6.08,6.08,0,0,0-2.51.49,5.25,5.25,0,0,0-1.9,1.4,6.46,6.46,0,0,0-1.2,2.27,9.85,9.85,0,0,0-.41,3,8.13,8.13,0,0,0,1.61,5.43,5.61,5.61,0,0,0,4.52,1.9,9.13,9.13,0,0,0,2.65-.37,12.92,12.92,0,0,0,2.51-1v-3.25h-3.15a3.41,3.41,0,0,1-1.71-.35,1.22,1.22,0,0,1-.58-1.16,1.46,1.46,0,0,1,.48-1.11,1.91,1.91,0,0,1,1.32-.43h4.61a5.86,5.86,0,0,1,1.43.15,1.6,1.6,0,0,1,.95.67A2.64,2.64,0,0,1,475,212.17Z"/><path class="cls-3" d="M492.11,203.4H483v4.92h8.42a2,2,0,0,1,1.39.42,1.44,1.44,0,0,1,.45,1.1,1.48,1.48,0,0,1-.45,1.12,2,2,0,0,1-1.39.43H483v5.7h9.46a2.1,2.1,0,0,1,1.44.44,1.54,1.54,0,0,1,.49,1.18,1.52,1.52,0,0,1-.49,1.16,2.05,2.05,0,0,1-1.44.44h-11a2.59,2.59,0,0,1-1.9-.58,2.64,2.64,0,0,1-.58-1.9V202.76a3.29,3.29,0,0,1,.26-1.43,1.6,1.6,0,0,1,.81-.81,3.56,3.56,0,0,1,1.41-.25h10.72a2.1,2.1,0,0,1,1.44.43,1.58,1.58,0,0,1,0,2.27A2,2,0,0,1,492.11,203.4Z"/><path class="cls-3" d="M507.1,200.27h5.29a14.59,14.59,0,0,1,3.54.38,6.61,6.61,0,0,1,2.68,1.44c2.08,1.79,3.13,4.5,3.13,8.15a16.65,16.65,0,0,1-.31,3.29,10,10,0,0,1-1,2.69,8,8,0,0,1-1.68,2.14,7,7,0,0,1-1.76,1.16,8.09,8.09,0,0,1-2.06.62,15.5,15.5,0,0,1-2.48.17h-5.29a3.35,3.35,0,0,1-1.67-.33,1.55,1.55,0,0,1-.73-.94,6.24,6.24,0,0,1-.17-1.58v-14.7a2.56,2.56,0,0,1,.59-1.9A2.6,2.6,0,0,1,507.1,200.27Zm1.57,3.21v13.61h3.08c.67,0,1.2,0,1.58-.06a4.51,4.51,0,0,0,1.19-.27,3.23,3.23,0,0,0,1.07-.62q2-1.71,2-5.93a8.68,8.68,0,0,0-.89-4.44,4,4,0,0,0-2.21-1.88,10.8,10.8,0,0,0-3.17-.41Z"/><path class="cls-3" d="M538.52,203.4h-9.15v4.92h8.42a2,2,0,0,1,1.39.42,1.45,1.45,0,0,1,.46,1.1,1.48,1.48,0,0,1-.45,1.12,2,2,0,0,1-1.4.43h-8.42v5.7h9.46a2.08,2.08,0,0,1,1.44.44,1.51,1.51,0,0,1,.49,1.18,1.48,1.48,0,0,1-.49,1.16,2,2,0,0,1-1.44.44h-11a2.12,2.12,0,0,1-2.49-2.48V202.76a3.29,3.29,0,0,1,.26-1.43,1.6,1.6,0,0,1,.81-.81,3.58,3.58,0,0,1,1.42-.25h10.72a2.13,2.13,0,0,1,1.44.43,1.61,1.61,0,0,1,0,2.27A2.08,2.08,0,0,1,538.52,203.4Z"/><path class="cls-3" d="M549.28,202.36l7.8,11.82V202.25a2.64,2.64,0,0,1,.5-1.74,1.67,1.67,0,0,1,1.35-.58,1.73,1.73,0,0,1,1.38.58,2.64,2.64,0,0,1,.5,1.74V218c0,1.76-.73,2.64-2.18,2.64a3,3,0,0,1-1-.16,2.62,2.62,0,0,1-.82-.5,5.06,5.06,0,0,1-.71-.8c-.22-.3-.44-.62-.66-.94l-7.61-11.67v11.74a2.53,2.53,0,0,1-.53,1.74,1.79,1.79,0,0,1-1.37.59,1.72,1.72,0,0,1-1.38-.6,2.52,2.52,0,0,1-.52-1.73V202.87a4.32,4.32,0,0,1,.22-1.55,2.18,2.18,0,0,1,.86-1,2.33,2.33,0,0,1,1.3-.39,2.2,2.2,0,0,1,.93.18,2.38,2.38,0,0,1,.69.48,5.61,5.61,0,0,1,.6.78Z"/><path class="cls-3" d="M580.82,220.31h-6.13a2.52,2.52,0,0,1-1.89-.59,2.67,2.67,0,0,1-.57-1.89V202.76a2.11,2.11,0,0,1,2.46-2.49h6.5a14.91,14.91,0,0,1,2.48.18,5.53,5.53,0,0,1,1.89.68,5.16,5.16,0,0,1,1.26,1.08,4.78,4.78,0,0,1,.83,1.43,4.87,4.87,0,0,1,.29,1.66,4.61,4.61,0,0,1-3,4.41c2.63.83,4,2.47,4,4.89a5.47,5.47,0,0,1-.86,3,5.16,5.16,0,0,1-2.32,2,8.79,8.79,0,0,1-2.11.54A22.43,22.43,0,0,1,580.82,220.31Zm-4.53-17v5.18H580a7.18,7.18,0,0,0,2.34-.29,2.2,2.2,0,0,0,1.27-1.09,2.43,2.43,0,0,0,.34-1.28,2,2,0,0,0-1.08-2,8.29,8.29,0,0,0-3.29-.5Zm4.23,8.09h-4.23v5.86h4.36c2.74,0,4.12-1,4.12-3a2.42,2.42,0,0,0-1.07-2.2A5.91,5.91,0,0,0,580.52,211.41Z"/><path class="cls-3" d="M605.6,203.4h-9.14v4.92h8.42a2,2,0,0,1,1.39.42,1.44,1.44,0,0,1,.45,1.1,1.48,1.48,0,0,1-.45,1.12,2,2,0,0,1-1.39.43h-8.42v5.7h9.46a2.1,2.1,0,0,1,1.44.44,1.54,1.54,0,0,1,.49,1.18,1.52,1.52,0,0,1-.49,1.16,2.05,2.05,0,0,1-1.44.44h-11a2.59,2.59,0,0,1-1.9-.58,2.64,2.64,0,0,1-.58-1.9V202.76a3.29,3.29,0,0,1,.26-1.43,1.6,1.6,0,0,1,.81-.81,3.56,3.56,0,0,1,1.41-.25H605.6a2.1,2.1,0,0,1,1.44.43,1.58,1.58,0,0,1,0,2.27A2,2,0,0,1,605.6,203.4Z"/><path class="cls-3" d="M613.59,200.27h5.29a14.53,14.53,0,0,1,3.54.38,6.61,6.61,0,0,1,2.68,1.44c2.09,1.79,3.13,4.5,3.13,8.15a16.65,16.65,0,0,1-.31,3.29,10,10,0,0,1-1,2.69,8,8,0,0,1-1.68,2.14,7,7,0,0,1-1.76,1.16,8.09,8.09,0,0,1-2.06.62,15.5,15.5,0,0,1-2.48.17h-5.29A3.35,3.35,0,0,1,612,220a1.55,1.55,0,0,1-.73-.94,6.24,6.24,0,0,1-.17-1.58v-14.7a2.56,2.56,0,0,1,.59-1.9A2.6,2.6,0,0,1,613.59,200.27Zm1.57,3.21v13.61h3.08c.67,0,1.2,0,1.58-.06a4.51,4.51,0,0,0,1.19-.27,3.23,3.23,0,0,0,1.07-.62c1.36-1.14,2-3.12,2-5.93a8.68,8.68,0,0,0-.89-4.44,4,4,0,0,0-2.21-1.88,10.8,10.8,0,0,0-3.17-.41Z"/><path class="cls-3" d="M647,214.3a5.87,5.87,0,0,1-.94,3.27,6.27,6.27,0,0,1-2.74,2.27,10.37,10.37,0,0,1-4.28.82,9.67,9.67,0,0,1-4.89-1.12,6.67,6.67,0,0,1-2.23-2.16,5,5,0,0,1-.85-2.62,1.78,1.78,0,0,1,1.82-1.79,1.57,1.57,0,0,1,1.09.41,3.5,3.5,0,0,1,.76,1.22,8.19,8.19,0,0,0,.82,1.6,3.37,3.37,0,0,0,1.25,1.06,4.62,4.62,0,0,0,2.12.42,4.7,4.7,0,0,0,2.93-.85,2.49,2.49,0,0,0,1.13-2.09,2.19,2.19,0,0,0-.61-1.62,3.74,3.74,0,0,0-1.57-1,24.9,24.9,0,0,0-2.57-.7,19,19,0,0,1-3.62-1.18,5.93,5.93,0,0,1-2.31-1.85,4.79,4.79,0,0,1-.86-2.9,4.91,4.91,0,0,1,.91-2.94,5.66,5.66,0,0,1,2.61-2,10.71,10.71,0,0,1,4-.69,9.81,9.81,0,0,1,3.19.46,6.67,6.67,0,0,1,2.23,1.21,5,5,0,0,1,1.3,1.6,3.57,3.57,0,0,1,.41,1.62,1.93,1.93,0,0,1-.51,1.31,1.63,1.63,0,0,1-1.28.58,1.49,1.49,0,0,1-1.06-.35,4.59,4.59,0,0,1-.78-1.14,5.19,5.19,0,0,0-1.32-1.77,3.86,3.86,0,0,0-2.46-.64,4.23,4.23,0,0,0-2.53.69,2,2,0,0,0-1,1.67,1.7,1.7,0,0,0,.33,1,2.82,2.82,0,0,0,.9.75,6.19,6.19,0,0,0,1.17.49c.39.12,1,.29,1.94.52,1.13.26,2.15.56,3.07.87A9.22,9.22,0,0,1,645,210a4.66,4.66,0,0,1,1.51,1.73A5.51,5.51,0,0,1,647,214.3Z"/><path class="cls-3" d="M663.49,203.62h-4.43v14.56a2.71,2.71,0,0,1-.56,1.87,2,2,0,0,1-2.92,0,2.65,2.65,0,0,1-.57-1.86V203.62h-4.43a2.2,2.2,0,0,1-1.54-.46,1.69,1.69,0,0,1,0-2.44,2.28,2.28,0,0,1,1.52-.45h12.91a2.26,2.26,0,0,1,1.56.47,1.67,1.67,0,0,1,0,2.42A2.29,2.29,0,0,1,663.49,203.62Z"/><path class="cls-3" d="M681.18,203.4H672v4.92h8.43a2,2,0,0,1,1.38.42,1.41,1.41,0,0,1,.46,1.1,1.48,1.48,0,0,1-.45,1.12,2,2,0,0,1-1.39.43H672v5.7h9.47a2.12,2.12,0,0,1,1.44.44,1.54,1.54,0,0,1,.48,1.18,1.51,1.51,0,0,1-.48,1.16,2.07,2.07,0,0,1-1.44.44h-11a2.63,2.63,0,0,1-1.91-.58,2.68,2.68,0,0,1-.58-1.9V202.76a3.45,3.45,0,0,1,.26-1.43,1.66,1.66,0,0,1,.82-.81,3.56,3.56,0,0,1,1.41-.25h10.72a2.1,2.1,0,0,1,1.44.43,1.58,1.58,0,0,1,0,2.27A2,2,0,0,1,681.18,203.4Z"/><path class="cls-3" d="M105,236v7l8-8.31a7,7,0,0,1,1-.89,1.84,1.84,0,0,1,1.08-.29,2,2,0,0,1,1.41.51,1.66,1.66,0,0,1,.54,1.25,2.51,2.51,0,0,1-.92,1.77l-4.93,4.67,5.69,8.15a10.15,10.15,0,0,1,.9,1.49,2.85,2.85,0,0,1,.3,1.23,1.53,1.53,0,0,1-.53,1.16,2,2,0,0,1-1.43.5,2.37,2.37,0,0,1-1.38-.37,3.2,3.2,0,0,1-.9-1l-.66-1.09-4.79-7.39L105,247.64v4.14a2.67,2.67,0,0,1-.57,1.87,2,2,0,0,1-1.48.61,1.94,1.94,0,0,1-1-.28,2,2,0,0,1-.73-.73,2.49,2.49,0,0,1-.24-.89c0-.34,0-.83,0-1.47V236a2.71,2.71,0,0,1,.54-1.84,1.86,1.86,0,0,1,1.47-.62,1.94,1.94,0,0,1,1.49.61A2.66,2.66,0,0,1,105,236Z"/><path class="cls-3" d="M134.46,251.65l-1-2.52h-8.15l-1,2.57a9.13,9.13,0,0,1-1,2,1.54,1.54,0,0,1-1.3.53,2,2,0,0,1-1.36-.56,1.73,1.73,0,0,1-.58-1.28,2.82,2.82,0,0,1,.13-.84c.09-.29.24-.7.45-1.22l5.13-13c.15-.37.32-.82.53-1.34a6.65,6.65,0,0,1,.65-1.31,2.63,2.63,0,0,1,2.32-1.16,2.9,2.9,0,0,1,1.42.32,2.8,2.8,0,0,1,.91.83,5.46,5.46,0,0,1,.59,1.09c.16.38.36.9.61,1.55l5.24,12.93a6.49,6.49,0,0,1,.61,2.15,1.78,1.78,0,0,1-.58,1.28,1.93,1.93,0,0,1-1.4.58,1.87,1.87,0,0,1-.82-.17,1.77,1.77,0,0,1-.58-.47,4.9,4.9,0,0,1-.5-.9C134.74,252.31,134.58,252,134.46,251.65Zm-8-5.57h6l-3-8.27Z"/><path class="cls-3" d="M159.38,245.77v3.84a4,4,0,0,1-.15,1.22,2,2,0,0,1-.55.83,5.22,5.22,0,0,1-1,.71,16.31,16.31,0,0,1-3.5,1.44,14.11,14.11,0,0,1-3.66.45,12,12,0,0,1-4.21-.71,8.92,8.92,0,0,1-3.24-2.07A9.12,9.12,0,0,1,141,248.2a12.21,12.21,0,0,1-.72-4.31,12.72,12.72,0,0,1,.7-4.28,8.87,8.87,0,0,1,2.05-3.29,9,9,0,0,1,3.3-2.07,12.57,12.57,0,0,1,4.4-.72,10.91,10.91,0,0,1,3.58.54,7.85,7.85,0,0,1,2.53,1.36,6.1,6.1,0,0,1,1.46,1.74,3.51,3.51,0,0,1,.5,1.62,1.74,1.74,0,0,1-.57,1.31,1.9,1.9,0,0,1-1.36.54,1.8,1.8,0,0,1-.84-.21,1.78,1.78,0,0,1-.68-.57,17.3,17.3,0,0,0-1.27-1.78,4.08,4.08,0,0,0-1.4-1,5.42,5.42,0,0,0-2.25-.41,6.13,6.13,0,0,0-2.52.49,5.13,5.13,0,0,0-1.89,1.4,6.15,6.15,0,0,0-1.2,2.27,9.85,9.85,0,0,0-.42,3,8.11,8.11,0,0,0,1.62,5.43,5.6,5.6,0,0,0,4.52,1.9,9,9,0,0,0,2.64-.37,12.66,12.66,0,0,0,2.51-1.05v-3.25h-3.14a3.43,3.43,0,0,1-1.72-.35,1.22,1.22,0,0,1-.58-1.16,1.4,1.4,0,0,1,.49-1.1,1.85,1.85,0,0,1,1.32-.44h4.6a5.89,5.89,0,0,1,1.44.15,1.6,1.6,0,0,1,1,.67A2.72,2.72,0,0,1,159.38,245.77Z"/><path class="cls-3" d="M176.46,237h-9.15v4.92h8.42a2,2,0,0,1,1.39.42,1.41,1.41,0,0,1,.46,1.1,1.48,1.48,0,0,1-.45,1.12,2,2,0,0,1-1.4.43h-8.42v5.7h9.46a2.08,2.08,0,0,1,1.44.44,1.52,1.52,0,0,1,.49,1.19,1.48,1.48,0,0,1-.49,1.15,2,2,0,0,1-1.44.45h-11a2.13,2.13,0,0,1-2.49-2.49V236.36a3.45,3.45,0,0,1,.26-1.43,1.6,1.6,0,0,1,.81-.81,3.58,3.58,0,0,1,1.42-.25h10.72a2.13,2.13,0,0,1,1.44.43,1.61,1.61,0,0,1,0,2.27A2.08,2.08,0,0,1,176.46,237Z"/><path class="cls-3" d="M184.19,254.28a2.3,2.3,0,0,1-1.55-.55,1.92,1.92,0,0,1-.66-1.55,1.87,1.87,0,0,1,.64-1.45,2.2,2.2,0,0,1,1.52-.59,2.08,2.08,0,0,1,1.19.36,2.24,2.24,0,0,1,.83,1,4.29,4.29,0,0,1,.3,1.71,5.75,5.75,0,0,1-.57,2.53,5.5,5.5,0,0,1-1.4,1.87,2.45,2.45,0,0,1-1.5.69.9.9,0,0,1-.69-.28.89.89,0,0,1-.27-.64,1,1,0,0,1,.57-.91A2.57,2.57,0,0,0,184.19,254.28Z"/><path class="cls-3" d="M212.92,247.9a5.87,5.87,0,0,1-.94,3.27,6.27,6.27,0,0,1-2.74,2.27,10.37,10.37,0,0,1-4.28.82,9.67,9.67,0,0,1-4.89-1.12,6.55,6.55,0,0,1-2.22-2.16,4.9,4.9,0,0,1-.86-2.62,1.74,1.74,0,0,1,.51-1.26,1.77,1.77,0,0,1,1.31-.53,1.57,1.57,0,0,1,1.09.41,3.36,3.36,0,0,1,.76,1.22,8.19,8.19,0,0,0,.82,1.6,3.45,3.45,0,0,0,1.25,1.06,4.62,4.62,0,0,0,2.12.42,4.81,4.81,0,0,0,2.94-.84,2.53,2.53,0,0,0,1.12-2.1,2.22,2.22,0,0,0-.6-1.62,3.89,3.89,0,0,0-1.58-.95c-.64-.22-1.5-.45-2.57-.7a19.23,19.23,0,0,1-3.62-1.18,5.84,5.84,0,0,1-2.31-1.85,4.79,4.79,0,0,1-.86-2.9,5,5,0,0,1,.91-2.94,5.66,5.66,0,0,1,2.61-2,10.71,10.71,0,0,1,4-.69,9.81,9.81,0,0,1,3.19.46,6.66,6.66,0,0,1,2.24,1.22,4.92,4.92,0,0,1,1.29,1.59,3.57,3.57,0,0,1,.41,1.62,1.93,1.93,0,0,1-.51,1.31,1.63,1.63,0,0,1-1.28.58,1.46,1.46,0,0,1-1.06-.35,4.59,4.59,0,0,1-.78-1.14,5.17,5.17,0,0,0-1.31-1.77,3.91,3.91,0,0,0-2.47-.63,4.26,4.26,0,0,0-2.53.69,2,2,0,0,0-1,1.66,1.7,1.7,0,0,0,.33,1,2.82,2.82,0,0,0,.9.75,6.19,6.19,0,0,0,1.17.49c.39.12,1,.29,1.94.52a29.48,29.48,0,0,1,3.07.87,9.47,9.47,0,0,1,2.34,1.17,4.73,4.73,0,0,1,1.5,1.73A5.51,5.51,0,0,1,212.92,247.9Z"/><path class="cls-3" d="M225.18,233.53a10.76,10.76,0,0,1,5.36,1.26,8.28,8.28,0,0,1,3.38,3.6,12.19,12.19,0,0,1,1.15,5.48,13.35,13.35,0,0,1-.63,4.22,9.13,9.13,0,0,1-1.89,3.3,8.23,8.23,0,0,1-3.09,2.13,12.16,12.16,0,0,1-8.41,0,8.4,8.4,0,0,1-3.1-2.14,9.1,9.1,0,0,1-1.88-3.32,13.59,13.59,0,0,1-.63-4.2,13,13,0,0,1,.66-4.24,9.06,9.06,0,0,1,1.92-3.28,8.38,8.38,0,0,1,3.06-2.07A11,11,0,0,1,225.18,233.53ZM231,243.84a9.34,9.34,0,0,0-.71-3.82,5.35,5.35,0,0,0-2-2.44,5.94,5.94,0,0,0-5.28-.37,4.92,4.92,0,0,0-1.77,1.34,6.37,6.37,0,0,0-1.18,2.23,10.06,10.06,0,0,0-.43,3.06,10.26,10.26,0,0,0,.43,3.09,6.33,6.33,0,0,0,1.22,2.29,5,5,0,0,0,1.8,1.36,5.7,5.7,0,0,0,5.1-.33,5.35,5.35,0,0,0,2.08-2.41A9.35,9.35,0,0,0,231,243.84Z"/><path class="cls-3" d="M245.31,250.89l-3.21-12.77V252a2.51,2.51,0,0,1-.52,1.72,1.71,1.71,0,0,1-1.36.58,1.75,1.75,0,0,1-1.34-.57,2.54,2.54,0,0,1-.52-1.73V236.1a2,2,0,0,1,.69-1.77,3.21,3.21,0,0,1,1.84-.46h1.26a4.69,4.69,0,0,1,1.65.21,1.38,1.38,0,0,1,.76.74,11.72,11.72,0,0,1,.56,1.73l2.91,11,2.91-11a11.72,11.72,0,0,1,.56-1.73,1.38,1.38,0,0,1,.76-.74,4.69,4.69,0,0,1,1.65-.21h1.26a3.21,3.21,0,0,1,1.84.46,2,2,0,0,1,.68,1.77V252a2.51,2.51,0,0,1-.51,1.72,1.73,1.73,0,0,1-1.37.58,1.7,1.7,0,0,1-1.33-.58A2.51,2.51,0,0,1,254,252V238.12l-3.21,12.77q-.31,1.25-.51,1.83a2.54,2.54,0,0,1-.73,1.06,2.14,2.14,0,0,1-1.48.48,2.17,2.17,0,0,1-2-1.1,4.36,4.36,0,0,1-.43-1.06Z"/><path class="cls-3" d="M273,236v7l8-8.31a7,7,0,0,1,1-.89,1.83,1.83,0,0,1,1.07-.29,2,2,0,0,1,1.42.51,1.66,1.66,0,0,1,.54,1.25,2.51,2.51,0,0,1-.92,1.77l-4.93,4.67,5.69,8.15a10.15,10.15,0,0,1,.9,1.49,2.85,2.85,0,0,1,.3,1.23,1.53,1.53,0,0,1-.53,1.16,2,2,0,0,1-1.43.5,2.37,2.37,0,0,1-1.38-.37,3.2,3.2,0,0,1-.9-1c-.25-.4-.46-.76-.66-1.09l-4.79-7.39L273,247.64v4.14a2.67,2.67,0,0,1-.57,1.87,2,2,0,0,1-1.48.61,1.94,1.94,0,0,1-1-.28,1.9,1.9,0,0,1-.73-.73,2.49,2.49,0,0,1-.24-.89c0-.34,0-.83,0-1.47V236a2.71,2.71,0,0,1,.54-1.84,1.86,1.86,0,0,1,1.47-.62,1.94,1.94,0,0,1,1.49.61A2.66,2.66,0,0,1,273,236Z"/><path class="cls-3" d="M302.42,251.65l-1-2.52h-8.15l-1,2.57a9.13,9.13,0,0,1-1,2,1.54,1.54,0,0,1-1.3.53,2,2,0,0,1-1.36-.56,1.73,1.73,0,0,1-.58-1.28,2.82,2.82,0,0,1,.13-.84c.09-.29.24-.7.45-1.22l5.13-13c.15-.37.32-.82.53-1.34a6.65,6.65,0,0,1,.65-1.31,2.63,2.63,0,0,1,2.32-1.16,2.9,2.9,0,0,1,1.42.32,2.8,2.8,0,0,1,.91.83,6,6,0,0,1,.59,1.09c.16.38.36.9.61,1.55l5.23,12.93a6.57,6.57,0,0,1,.62,2.15,1.78,1.78,0,0,1-.58,1.28,2,2,0,0,1-1.4.58,1.84,1.84,0,0,1-.82-.17,1.77,1.77,0,0,1-.58-.47,4.9,4.9,0,0,1-.5-.9C302.7,252.31,302.54,252,302.42,251.65Zm-8-5.57h6l-3-8.27Z"/><path class="cls-3" d="M315,236l7.81,11.82V235.85a2.58,2.58,0,0,1,.5-1.74,1.66,1.66,0,0,1,1.34-.58,1.71,1.71,0,0,1,1.38.58,2.58,2.58,0,0,1,.51,1.74v15.77q0,2.64-2.19,2.64a3,3,0,0,1-1-.16,2.52,2.52,0,0,1-.82-.5,4.61,4.61,0,0,1-.71-.8c-.22-.3-.44-.62-.66-.94l-7.61-11.67v11.74a2.48,2.48,0,0,1-.54,1.74,1.89,1.89,0,0,1-2.75,0,2.57,2.57,0,0,1-.52-1.73V236.47a4.56,4.56,0,0,1,.22-1.55,2.24,2.24,0,0,1,.86-1,2.38,2.38,0,0,1,1.3-.39,2.12,2.12,0,0,1,1.62.66,4.93,4.93,0,0,1,.61.78Z"/><path class="cls-3" d="M341,236.2l4.54,13.44,4.55-13.54c.24-.71.42-1.2.54-1.48a1.86,1.86,0,0,1,.58-.75,1.7,1.7,0,0,1,1.12-.34,1.95,1.95,0,0,1,1.67.95,1.8,1.8,0,0,1,.25.87,3.11,3.11,0,0,1-.08.65c-.06.23-.13.46-.21.68s-.16.45-.24.69l-4.86,13.1c-.17.5-.34,1-.52,1.43a5.75,5.75,0,0,1-.6,1.19,2.63,2.63,0,0,1-2.3,1.17,2.79,2.79,0,0,1-1.38-.32,2.69,2.69,0,0,1-.92-.85,6.12,6.12,0,0,1-.61-1.2c-.17-.44-.35-.92-.52-1.42l-4.77-13c-.08-.24-.17-.47-.25-.7a4.82,4.82,0,0,1-.22-.73,3.18,3.18,0,0,1-.09-.67,1.82,1.82,0,0,1,.56-1.28,1.88,1.88,0,0,1,1.41-.57,1.64,1.64,0,0,1,1.47.64A8.25,8.25,0,0,1,341,236.2Z"/><path class="cls-3" d="M357.43,251.78V236a2.66,2.66,0,0,1,.56-1.84,1.87,1.87,0,0,1,1.45-.62,1.9,1.9,0,0,1,1.48.61,2.61,2.61,0,0,1,.57,1.85v15.79a2.65,2.65,0,0,1-.57,1.86,1.91,1.91,0,0,1-1.48.62,1.86,1.86,0,0,1-1.44-.63A2.64,2.64,0,0,1,357.43,251.78Z"/><path class="cls-3" d="M371.32,236l7.81,11.82V235.85a2.58,2.58,0,0,1,.5-1.74,1.66,1.66,0,0,1,1.34-.58,1.74,1.74,0,0,1,1.39.58,2.64,2.64,0,0,1,.5,1.74v15.77q0,2.64-2.19,2.64a3,3,0,0,1-1-.16,2.52,2.52,0,0,1-.82-.5,4.61,4.61,0,0,1-.71-.8c-.22-.3-.44-.62-.66-.94l-7.61-11.67v11.74a2.48,2.48,0,0,1-.54,1.74,1.76,1.76,0,0,1-1.36.59,1.72,1.72,0,0,1-1.38-.6,2.52,2.52,0,0,1-.52-1.73V236.47a4.59,4.59,0,0,1,.21-1.55,2.2,2.2,0,0,1,.87-1,2.32,2.32,0,0,1,1.29-.39,2.12,2.12,0,0,1,1.62.66,4.93,4.93,0,0,1,.61.78Z"/><path class="cls-3" d="M389.82,233.87h5.29a14.47,14.47,0,0,1,3.54.38,6.55,6.55,0,0,1,2.68,1.44c2.09,1.79,3.13,4.5,3.13,8.15a15.92,15.92,0,0,1-.31,3.29,10,10,0,0,1-1,2.69A8.45,8.45,0,0,1,401.5,252a7,7,0,0,1-1.77,1.16,8.09,8.09,0,0,1-2.06.62,15.42,15.42,0,0,1-2.48.18H389.9a3.36,3.36,0,0,1-1.67-.34,1.59,1.59,0,0,1-.73-.94,6.19,6.19,0,0,1-.17-1.58v-14.7a2.14,2.14,0,0,1,2.49-2.49Zm1.57,3.21v13.61h3.08c.67,0,1.2,0,1.58-.06a4.43,4.43,0,0,0,1.19-.27,3.4,3.4,0,0,0,1.07-.61q2-1.73,2-5.94a8.67,8.67,0,0,0-.9-4.44,3.93,3.93,0,0,0-2.21-1.88,10.8,10.8,0,0,0-3.17-.41Z"/><path class="cls-3" d="M421.24,237h-9.15v4.92h8.42a2,2,0,0,1,1.39.42,1.41,1.41,0,0,1,.46,1.1,1.48,1.48,0,0,1-.45,1.12,2,2,0,0,1-1.4.43h-8.42v5.7h9.46a2.08,2.08,0,0,1,1.44.44,1.52,1.52,0,0,1,.49,1.19,1.48,1.48,0,0,1-.49,1.15,2,2,0,0,1-1.44.45h-11a2.13,2.13,0,0,1-2.49-2.49V236.36a3.45,3.45,0,0,1,.26-1.43,1.64,1.64,0,0,1,.81-.81,3.58,3.58,0,0,1,1.42-.25h10.72a2.12,2.12,0,0,1,1.44.43,1.61,1.61,0,0,1,0,2.27A2.07,2.07,0,0,1,421.24,237Z"/><path class="cls-3" d="M436.22,233.87h5.29a14.47,14.47,0,0,1,3.54.38,6.55,6.55,0,0,1,2.68,1.44c2.09,1.79,3.13,4.5,3.13,8.15a15.92,15.92,0,0,1-.31,3.29,9.64,9.64,0,0,1-1,2.69A8.45,8.45,0,0,1,447.9,252a7,7,0,0,1-1.77,1.16,8,8,0,0,1-2.05.62,15.51,15.51,0,0,1-2.48.18h-5.3a3.32,3.32,0,0,1-1.66-.34,1.57,1.57,0,0,1-.74-.94,6.19,6.19,0,0,1-.17-1.58v-14.7a2.14,2.14,0,0,1,2.49-2.49Zm1.57,3.21v13.61h3.08q1,0,1.59-.06a4.51,4.51,0,0,0,1.19-.27,3.35,3.35,0,0,0,1.06-.61q2-1.73,2-5.94a8.79,8.79,0,0,0-.89-4.44,4,4,0,0,0-2.21-1.88,10.92,10.92,0,0,0-3.18-.41Z"/><path class="cls-3" d="M463.25,233.53a10.72,10.72,0,0,1,5.35,1.26,8.31,8.31,0,0,1,3.39,3.6,12.33,12.33,0,0,1,1.15,5.48,13.35,13.35,0,0,1-.63,4.22,9.13,9.13,0,0,1-1.89,3.3,8.23,8.23,0,0,1-3.09,2.13,12.16,12.16,0,0,1-8.41,0,8.4,8.4,0,0,1-3.1-2.14,9.1,9.1,0,0,1-1.88-3.32,13.29,13.29,0,0,1-.64-4.2,12.78,12.78,0,0,1,.67-4.24,9.06,9.06,0,0,1,1.92-3.28,8.38,8.38,0,0,1,3.06-2.07A11,11,0,0,1,463.25,233.53ZM469,243.84a9.5,9.5,0,0,0-.71-3.82,5.35,5.35,0,0,0-2-2.44,5.94,5.94,0,0,0-5.28-.37,5,5,0,0,0-1.78,1.34,6.53,6.53,0,0,0-1.17,2.23,10.06,10.06,0,0,0-.43,3.06,10.26,10.26,0,0,0,.43,3.09,6.33,6.33,0,0,0,1.22,2.29,5,5,0,0,0,1.8,1.36,5.7,5.7,0,0,0,5.1-.33,5.41,5.41,0,0,0,2.08-2.41A9.35,9.35,0,0,0,469,243.84Z"/><path class="cls-3" d="M483.38,250.89l-3.22-12.77V252a2.51,2.51,0,0,1-.51,1.72,1.71,1.71,0,0,1-1.36.58,1.73,1.73,0,0,1-1.34-.57,2.49,2.49,0,0,1-.52-1.73V236.1a2,2,0,0,1,.68-1.77,3.27,3.27,0,0,1,1.85-.46h1.26a4.66,4.66,0,0,1,1.64.21,1.32,1.32,0,0,1,.76.74,11.47,11.47,0,0,1,.57,1.73l2.91,11,2.91-11a11.72,11.72,0,0,1,.56-1.73,1.35,1.35,0,0,1,.76-.74,4.69,4.69,0,0,1,1.65-.21h1.25a3.25,3.25,0,0,1,1.85.46,2,2,0,0,1,.68,1.77V252a2.51,2.51,0,0,1-.51,1.72,1.73,1.73,0,0,1-1.37.58,1.7,1.7,0,0,1-1.33-.58A2.46,2.46,0,0,1,492,252V238.12l-3.21,12.77c-.21.83-.38,1.44-.52,1.83a2.45,2.45,0,0,1-.73,1.06,2.1,2.1,0,0,1-1.47.48,2.14,2.14,0,0,1-2-1.1,4,4,0,0,1-.43-1.06C483.59,251.72,483.49,251.31,483.38,250.89Z"/><path class="cls-3" d="M506.7,250.89l-3.21-12.77V252a2.46,2.46,0,0,1-.52,1.72,1.86,1.86,0,0,1-2.69,0,2.49,2.49,0,0,1-.52-1.73V236.1a2,2,0,0,1,.68-1.77,3.21,3.21,0,0,1,1.84-.46h1.26a4.69,4.69,0,0,1,1.65.21,1.38,1.38,0,0,1,.76.74,11.72,11.72,0,0,1,.56,1.73l2.91,11,2.91-11a11.72,11.72,0,0,1,.56-1.73,1.38,1.38,0,0,1,.76-.74,4.69,4.69,0,0,1,1.65-.21h1.26a3.21,3.21,0,0,1,1.84.46,2,2,0,0,1,.69,1.77V252a2.46,2.46,0,0,1-.52,1.72,1.86,1.86,0,0,1-2.7,0,2.51,2.51,0,0,1-.51-1.72V238.12l-3.22,12.77q-.31,1.25-.51,1.83a2.54,2.54,0,0,1-.73,1.06,2.14,2.14,0,0,1-1.48.48,2.28,2.28,0,0,1-1.2-.31,2.24,2.24,0,0,1-.77-.79,4.8,4.8,0,0,1-.43-1.06Z"/><path class="cls-3" d="M536.46,237h-9.14v4.92h8.42a2,2,0,0,1,1.39.42,1.57,1.57,0,0,1,0,2.22,2,2,0,0,1-1.39.43h-8.42v5.7h9.46a2.08,2.08,0,0,1,1.44.44,1.55,1.55,0,0,1,.49,1.19,1.51,1.51,0,0,1-.49,1.15,2,2,0,0,1-1.44.45h-11a2.13,2.13,0,0,1-2.49-2.49V236.36a3.29,3.29,0,0,1,.26-1.43,1.6,1.6,0,0,1,.81-.81,3.58,3.58,0,0,1,1.42-.25h10.71a2.15,2.15,0,0,1,1.45.43,1.61,1.61,0,0,1,0,2.27A2.09,2.09,0,0,1,536.46,237Z"/><path class="cls-3" d="M547.39,245.34H546v6.44a2.72,2.72,0,0,1-.56,1.88,1.94,1.94,0,0,1-1.47.6,1.84,1.84,0,0,1-1.5-.63,2.78,2.78,0,0,1-.53-1.85V236.36a2.13,2.13,0,0,1,2.48-2.49H551a19.52,19.52,0,0,1,2.34.12,5.92,5.92,0,0,1,1.75.47,5,5,0,0,1,1.66,1.13,5,5,0,0,1,1.1,1.72,5.51,5.51,0,0,1,.38,2.07A5,5,0,0,1,557,243a7.17,7.17,0,0,1-3.83,1.9,7.42,7.42,0,0,1,2.06,1.7A16.34,16.34,0,0,1,557,249a16,16,0,0,1,1.2,2.28,4.58,4.58,0,0,1,.44,1.4,1.45,1.45,0,0,1-.26.79,1.78,1.78,0,0,1-.69.61,2.18,2.18,0,0,1-1,.23,2,2,0,0,1-1.15-.32,3.29,3.29,0,0,1-.8-.82c-.22-.33-.52-.81-.91-1.45l-1.62-2.7a15.07,15.07,0,0,0-1.57-2.27,3.88,3.88,0,0,0-1.4-1.07A4.86,4.86,0,0,0,547.39,245.34Zm2.32-8.42H546v5.51h3.63a10.07,10.07,0,0,0,2.46-.25,2.93,2.93,0,0,0,1.53-.86,2.5,2.5,0,0,0,.52-1.68,2.63,2.63,0,0,0-.42-1.47,2.57,2.57,0,0,0-1.17-.95A8.53,8.53,0,0,0,549.71,236.92Z"/><path class="cls-3" d="M567.36,236l7.81,11.82V235.85a2.64,2.64,0,0,1,.5-1.74,1.67,1.67,0,0,1,1.35-.58,1.73,1.73,0,0,1,1.38.58,2.64,2.64,0,0,1,.5,1.74v15.77q0,2.64-2.19,2.64a3,3,0,0,1-1-.16,2.52,2.52,0,0,1-.82-.5,4.61,4.61,0,0,1-.71-.8c-.22-.3-.44-.62-.66-.94l-7.61-11.67v11.74a2.48,2.48,0,0,1-.54,1.74,1.76,1.76,0,0,1-1.36.59,1.72,1.72,0,0,1-1.38-.6,2.52,2.52,0,0,1-.52-1.73V236.47a4.32,4.32,0,0,1,.22-1.55,2.12,2.12,0,0,1,.86-1,2.33,2.33,0,0,1,1.3-.39,2.12,2.12,0,0,1,1.61.66,4.93,4.93,0,0,1,.61.78Z"/><path class="cls-3" d="M596.55,237h-9.14v4.92h8.42a2,2,0,0,1,1.38.42,1.41,1.41,0,0,1,.46,1.1,1.48,1.48,0,0,1-.45,1.12,2,2,0,0,1-1.39.43h-8.42v5.7h9.46a2.1,2.1,0,0,1,1.44.44,1.54,1.54,0,0,1,.48,1.19,1.5,1.5,0,0,1-.48,1.15,2.05,2.05,0,0,1-1.44.45h-11a2.59,2.59,0,0,1-1.9-.59,2.62,2.62,0,0,1-.58-1.9V236.36a3.29,3.29,0,0,1,.26-1.43,1.6,1.6,0,0,1,.81-.81,3.56,3.56,0,0,1,1.41-.25h10.72a2.1,2.1,0,0,1,1.44.43,1.58,1.58,0,0,1,0,2.27A2,2,0,0,1,596.55,237Z"/><path class="cls-3" d="M617.25,247.9a5.87,5.87,0,0,1-.94,3.27,6.22,6.22,0,0,1-2.74,2.27,10.37,10.37,0,0,1-4.28.82,9.72,9.72,0,0,1-4.89-1.12,6.55,6.55,0,0,1-2.22-2.16,4.9,4.9,0,0,1-.86-2.62,1.71,1.71,0,0,1,.52-1.26,1.73,1.73,0,0,1,1.3-.53,1.57,1.57,0,0,1,1.09.41,3.23,3.23,0,0,1,.76,1.22,8.19,8.19,0,0,0,.82,1.6,3.4,3.4,0,0,0,1.26,1.06,4.56,4.56,0,0,0,2.12.42,4.8,4.8,0,0,0,2.93-.84,2.54,2.54,0,0,0,1.13-2.1,2.23,2.23,0,0,0-.61-1.62,3.89,3.89,0,0,0-1.58-.95c-.64-.22-1.5-.45-2.57-.7a19.23,19.23,0,0,1-3.62-1.18,5.84,5.84,0,0,1-2.31-1.85,4.79,4.79,0,0,1-.85-2.9,5,5,0,0,1,.9-2.94,5.66,5.66,0,0,1,2.61-2,10.71,10.71,0,0,1,4-.69,9.81,9.81,0,0,1,3.19.46,6.66,6.66,0,0,1,2.24,1.22,5.1,5.1,0,0,1,1.3,1.59,3.7,3.7,0,0,1,.41,1.62,1.94,1.94,0,0,1-.52,1.31,1.61,1.61,0,0,1-1.27.58,1.43,1.43,0,0,1-1.06-.35,4.32,4.32,0,0,1-.79-1.14,5.17,5.17,0,0,0-1.31-1.77,3.86,3.86,0,0,0-2.46-.63,4.27,4.27,0,0,0-2.54.69,2,2,0,0,0-1,1.66,1.76,1.76,0,0,0,.32,1,2.75,2.75,0,0,0,.91.75,6.1,6.1,0,0,0,1.16.49c.39.12,1,.29,1.94.52a29.48,29.48,0,0,1,3.07.87,9.47,9.47,0,0,1,2.34,1.17,4.73,4.73,0,0,1,1.5,1.73A5.51,5.51,0,0,1,617.25,247.9Z"/><path class="cls-3" d="M113.73,285.25l-1-2.52h-8.15l-1,2.57a9.51,9.51,0,0,1-1,2,1.52,1.52,0,0,1-1.3.53,1.91,1.91,0,0,1-1.35-.56,1.74,1.74,0,0,1-.59-1.28,2.84,2.84,0,0,1,.14-.84c.09-.29.24-.7.45-1.22l5.13-13,.52-1.34a7.23,7.23,0,0,1,.66-1.31,2.83,2.83,0,0,1,.91-.84,3.27,3.27,0,0,1,2.82,0,2.83,2.83,0,0,1,.92.83,6,6,0,0,1,.58,1.09c.16.38.37.9.61,1.55l5.24,12.93a6.43,6.43,0,0,1,.61,2.15,1.78,1.78,0,0,1-.58,1.28,1.92,1.92,0,0,1-1.4.58,1.87,1.87,0,0,1-.82-.17,1.64,1.64,0,0,1-.57-.47,4.11,4.11,0,0,1-.5-.9Zm-8-5.57h6l-3-8.27Z"/><path class="cls-3" d="M126.34,269.56l7.8,11.82V269.45a2.64,2.64,0,0,1,.5-1.74,1.67,1.67,0,0,1,1.35-.58,1.73,1.73,0,0,1,1.38.58,2.58,2.58,0,0,1,.5,1.74v15.77c0,1.76-.72,2.64-2.18,2.64a3,3,0,0,1-1-.16,2.62,2.62,0,0,1-.82-.5,5.06,5.06,0,0,1-.71-.8c-.22-.3-.44-.62-.65-.94l-7.62-11.67v11.74a2.53,2.53,0,0,1-.53,1.74,1.78,1.78,0,0,1-1.37.59,1.73,1.73,0,0,1-1.38-.6,2.52,2.52,0,0,1-.52-1.73V270.07a4.32,4.32,0,0,1,.22-1.55,2.18,2.18,0,0,1,.86-1,2.33,2.33,0,0,1,1.3-.39,2.2,2.2,0,0,1,.93.18,2.38,2.38,0,0,1,.69.48,5.61,5.61,0,0,1,.6.78Z"/><path class="cls-3" d="M155.53,270.6h-9.15v4.92h8.42a2,2,0,0,1,1.39.42,1.57,1.57,0,0,1,0,2.22,2,2,0,0,1-1.39.43h-8.42v5.7h9.46a2.08,2.08,0,0,1,1.44.44,1.52,1.52,0,0,1,.49,1.19,1.48,1.48,0,0,1-.49,1.15,2,2,0,0,1-1.44.44h-11a2.12,2.12,0,0,1-2.49-2.48V270a3.29,3.29,0,0,1,.26-1.43,1.6,1.6,0,0,1,.81-.81,3.58,3.58,0,0,1,1.42-.25h10.72a2.13,2.13,0,0,1,1.44.43,1.61,1.61,0,0,1,0,2.27A2.08,2.08,0,0,1,155.53,270.6Z"/><path class="cls-3" d="M166.45,278.94H165v6.44a2.68,2.68,0,0,1-.56,1.87,1.9,1.9,0,0,1-1.47.61,1.87,1.87,0,0,1-1.5-.63,2.78,2.78,0,0,1-.53-1.85V270a2.6,2.6,0,0,1,.58-1.9,2.64,2.64,0,0,1,1.9-.59h6.61a19.52,19.52,0,0,1,2.34.12,5.92,5.92,0,0,1,1.75.47,5,5,0,0,1,2.76,2.85,5.51,5.51,0,0,1,.38,2.07,5,5,0,0,1-1.26,3.58,7.24,7.24,0,0,1-3.84,1.9,7.6,7.6,0,0,1,2.07,1.7,17.54,17.54,0,0,1,1.75,2.38,18,18,0,0,1,1.21,2.29,4.68,4.68,0,0,1,.43,1.4,1.45,1.45,0,0,1-.26.79,1.78,1.78,0,0,1-.69.61,2.18,2.18,0,0,1-1,.23,2,2,0,0,1-1.15-.32,3.29,3.29,0,0,1-.8-.82c-.22-.33-.52-.81-.91-1.45l-1.62-2.7a15.07,15.07,0,0,0-1.57-2.27,3.88,3.88,0,0,0-1.4-1.07A4.82,4.82,0,0,0,166.45,278.94Zm2.32-8.42H165V276h3.63a10.07,10.07,0,0,0,2.46-.25,2.93,2.93,0,0,0,1.53-.86,2.51,2.51,0,0,0,.53-1.68,2.64,2.64,0,0,0-.43-1.47,2.57,2.57,0,0,0-1.17-.95A8.53,8.53,0,0,0,168.77,270.52Z"/><path class="cls-3" d="M185.22,269.59v7l8-8.31a7.07,7.07,0,0,1,1-.89,1.81,1.81,0,0,1,1.07-.29,2,2,0,0,1,1.42.51,1.66,1.66,0,0,1,.54,1.25,2.51,2.51,0,0,1-.92,1.77l-4.93,4.67,5.68,8.15a12,12,0,0,1,.91,1.48,2.93,2.93,0,0,1,.3,1.24,1.53,1.53,0,0,1-.53,1.16,2,2,0,0,1-1.43.5,2.37,2.37,0,0,1-1.38-.37,3,3,0,0,1-.9-1c-.25-.4-.47-.77-.66-1.09l-4.8-7.39-3.32,3.19v4.14a2.67,2.67,0,0,1-.57,1.87,2,2,0,0,1-1.48.61,1.92,1.92,0,0,1-1-.28,1.88,1.88,0,0,1-.74-.74,2.58,2.58,0,0,1-.23-.88c0-.34,0-.83,0-1.47v-14.9a2.71,2.71,0,0,1,.54-1.84,1.83,1.83,0,0,1,1.47-.62,1.9,1.9,0,0,1,1.48.61A2.61,2.61,0,0,1,185.22,269.59Z"/><path class="cls-3" d="M215.07,270.6h-9.15v4.92h8.42a2,2,0,0,1,1.39.42,1.45,1.45,0,0,1,.46,1.1,1.48,1.48,0,0,1-.45,1.12,2,2,0,0,1-1.4.43h-8.42v5.7h9.46a2.08,2.08,0,0,1,1.44.44,1.52,1.52,0,0,1,.49,1.19,1.48,1.48,0,0,1-.49,1.15,2,2,0,0,1-1.44.44h-11a2.12,2.12,0,0,1-2.49-2.48V270a3.29,3.29,0,0,1,.26-1.43,1.6,1.6,0,0,1,.81-.81,3.58,3.58,0,0,1,1.42-.25h10.72a2.13,2.13,0,0,1,1.44.43,1.61,1.61,0,0,1,0,2.27A2.08,2.08,0,0,1,215.07,270.6Z"/><path class="cls-3" d="M225.83,269.56l7.8,11.82V269.45a2.64,2.64,0,0,1,.5-1.74,1.67,1.67,0,0,1,1.35-.58,1.73,1.73,0,0,1,1.38.58,2.58,2.58,0,0,1,.5,1.74v15.77c0,1.76-.72,2.64-2.18,2.64a3,3,0,0,1-1-.16,2.62,2.62,0,0,1-.82-.5,5.06,5.06,0,0,1-.71-.8c-.22-.3-.44-.62-.65-.94l-7.62-11.67v11.74a2.53,2.53,0,0,1-.53,1.74,1.78,1.78,0,0,1-1.37.59,1.73,1.73,0,0,1-1.38-.6,2.52,2.52,0,0,1-.52-1.73V270.07a4.32,4.32,0,0,1,.22-1.55,2.18,2.18,0,0,1,.86-1,2.33,2.33,0,0,1,1.3-.39,2.17,2.17,0,0,1,.93.18,2.38,2.38,0,0,1,.69.48,4.93,4.93,0,0,1,.6.78C225.4,268.88,225.61,269.22,225.83,269.56Z"/><path class="cls-3" d="M244.32,267.47h5.29a14.62,14.62,0,0,1,3.55.38,6.68,6.68,0,0,1,2.68,1.44c2.08,1.79,3.13,4.5,3.13,8.15a15.89,15.89,0,0,1-.32,3.29,9.64,9.64,0,0,1-1,2.69,8.45,8.45,0,0,1-1.68,2.14,7.15,7.15,0,0,1-1.76,1.16,8.21,8.21,0,0,1-2.06.62,15.58,15.58,0,0,1-2.48.17h-5.29a3.35,3.35,0,0,1-1.67-.33,1.52,1.52,0,0,1-.73-.94,5.82,5.82,0,0,1-.17-1.58V270a2.6,2.6,0,0,1,.58-1.9A2.64,2.64,0,0,1,244.32,267.47Zm1.58,3.21v13.61H249q1,0,1.59-.06a4.51,4.51,0,0,0,1.19-.27,3.19,3.19,0,0,0,1.06-.62q2-1.71,2-5.93A8.79,8.79,0,0,0,254,273a4,4,0,0,0-2.21-1.88,10.85,10.85,0,0,0-3.17-.41Z"/><path class="cls-3" d="M275.74,270.6H266.6v4.92H275a2,2,0,0,1,1.38.42,1.41,1.41,0,0,1,.46,1.1,1.48,1.48,0,0,1-.45,1.12,2,2,0,0,1-1.39.43H266.6v5.7h9.46a2.1,2.1,0,0,1,1.44.44,1.54,1.54,0,0,1,.48,1.19,1.5,1.5,0,0,1-.48,1.15,2.05,2.05,0,0,1-1.44.44H265a2.59,2.59,0,0,1-1.9-.58,2.62,2.62,0,0,1-.59-1.9V270a3.45,3.45,0,0,1,.26-1.43,1.66,1.66,0,0,1,.82-.81,3.56,3.56,0,0,1,1.41-.25h10.72a2.1,2.1,0,0,1,1.44.43,1.58,1.58,0,0,1,0,2.27A2,2,0,0,1,275.74,270.6Z"/><path class="cls-3" d="M285.19,269.59v14.59h8.23a2.16,2.16,0,0,1,1.51.48,1.63,1.63,0,0,1,0,2.4,2.28,2.28,0,0,1-1.52.45h-9.8a2.12,2.12,0,0,1-2.49-2.48V269.59a2.66,2.66,0,0,1,.55-1.84,1.85,1.85,0,0,1,1.46-.62,1.92,1.92,0,0,1,1.48.61A2.61,2.61,0,0,1,285.19,269.59Z"/><path class="cls-3" d="M312.29,281.5a6,6,0,0,1-.94,3.27,6.27,6.27,0,0,1-2.74,2.27,10.37,10.37,0,0,1-4.28.82,9.67,9.67,0,0,1-4.89-1.12,6.49,6.49,0,0,1-2.23-2.16,4.88,4.88,0,0,1-.85-2.62,1.78,1.78,0,0,1,1.82-1.79,1.53,1.53,0,0,1,1.08.41,3.23,3.23,0,0,1,.76,1.22,8.18,8.18,0,0,0,.83,1.6,3.37,3.37,0,0,0,1.25,1.06,4.62,4.62,0,0,0,2.12.42,4.78,4.78,0,0,0,2.93-.84,2.55,2.55,0,0,0,1.13-2.1,2.19,2.19,0,0,0-.61-1.62,3.74,3.74,0,0,0-1.57-.95c-.64-.22-1.5-.45-2.58-.7a19.11,19.11,0,0,1-3.61-1.18,5.84,5.84,0,0,1-2.31-1.85,4.79,4.79,0,0,1-.86-2.9,5,5,0,0,1,.9-2.94,5.74,5.74,0,0,1,2.62-2,10.63,10.63,0,0,1,4-.69,9.81,9.81,0,0,1,3.19.46,6.77,6.77,0,0,1,2.23,1.21,5.1,5.1,0,0,1,1.3,1.6,3.57,3.57,0,0,1,.41,1.62,1.93,1.93,0,0,1-.51,1.31,1.63,1.63,0,0,1-1.28.58,1.49,1.49,0,0,1-1.06-.35,4.59,4.59,0,0,1-.78-1.14,5.29,5.29,0,0,0-1.32-1.77A3.86,3.86,0,0,0,304,270a4.24,4.24,0,0,0-2.53.7,2,2,0,0,0-1,1.66,1.7,1.7,0,0,0,.33,1,2.82,2.82,0,0,0,.9.75,6.1,6.1,0,0,0,1.16.49c.4.12,1,.29,1.95.52a31.11,31.11,0,0,1,3.06.87,9.13,9.13,0,0,1,2.34,1.17,4.66,4.66,0,0,1,1.51,1.73A5.51,5.51,0,0,1,312.29,281.5Z"/><path class="cls-3" d="M328.94,270.6h-9.15v4.92h8.42a2,2,0,0,1,1.39.42,1.41,1.41,0,0,1,.46,1.1,1.48,1.48,0,0,1-.45,1.12,2,2,0,0,1-1.4.43h-8.42v5.7h9.46a2.13,2.13,0,0,1,1.45.44,1.54,1.54,0,0,1,.48,1.19,1.5,1.5,0,0,1-.48,1.15,2.08,2.08,0,0,1-1.45.44h-11a2.63,2.63,0,0,1-1.91-.58,2.66,2.66,0,0,1-.58-1.9V270a3.45,3.45,0,0,1,.26-1.43,1.62,1.62,0,0,1,.82-.81,3.53,3.53,0,0,1,1.41-.25h10.72a2.1,2.1,0,0,1,1.44.43,1.61,1.61,0,0,1,0,2.27A2,2,0,0,1,328.94,270.6Z"/><path class="cls-3" d="M336.62,287.86a2.15,2.15,0,0,1-1.46-.55,2,2,0,0,1-.62-1.53,2,2,0,0,1,.59-1.44,2,2,0,0,1,1.45-.6,2,2,0,0,1,1.47.6,1.9,1.9,0,0,1,.61,1.44,1.93,1.93,0,0,1-.61,1.52A2,2,0,0,1,336.62,287.86Z"/><path class="cls-3" d="M105,303.19v5.74h8.77v-5.74a2.66,2.66,0,0,1,.55-1.84,1.88,1.88,0,0,1,1.46-.62,1.92,1.92,0,0,1,1.48.61,2.61,2.61,0,0,1,.57,1.85V319a2.61,2.61,0,0,1-.58,1.86,1.92,1.92,0,0,1-1.47.62,1.86,1.86,0,0,1-1.47-.63,2.74,2.74,0,0,1-.54-1.85v-6.74H105V319a2.65,2.65,0,0,1-.57,1.86,1.94,1.94,0,0,1-1.48.62,1.83,1.83,0,0,1-1.46-.63,2.69,2.69,0,0,1-.55-1.85V303.19a2.71,2.71,0,0,1,.54-1.84,1.86,1.86,0,0,1,1.47-.62,1.94,1.94,0,0,1,1.49.61A2.66,2.66,0,0,1,105,303.19Z"/><path class="cls-3" d="M135.39,304.2h-9.15v4.92h8.42a2,2,0,0,1,1.39.42,1.41,1.41,0,0,1,.46,1.1,1.48,1.48,0,0,1-.45,1.12,2,2,0,0,1-1.4.43h-8.42v5.7h9.46a2.08,2.08,0,0,1,1.44.44,1.52,1.52,0,0,1,.49,1.19,1.46,1.46,0,0,1-.49,1.15,2,2,0,0,1-1.44.45h-11a2.13,2.13,0,0,1-2.49-2.49V303.56a3.45,3.45,0,0,1,.26-1.43,1.54,1.54,0,0,1,.81-.8,3.4,3.4,0,0,1,1.42-.26h10.72a2.13,2.13,0,0,1,1.44.43,1.61,1.61,0,0,1,0,2.27A2.08,2.08,0,0,1,135.39,304.2Z"/><path class="cls-3" d="M144.83,303.19v14.59h8.23a2.16,2.16,0,0,1,1.51.48,1.63,1.63,0,0,1,0,2.4,2.24,2.24,0,0,1-1.52.46h-9.8a2.63,2.63,0,0,1-1.91-.59,2.66,2.66,0,0,1-.58-1.9V303.19a2.66,2.66,0,0,1,.56-1.84,1.86,1.86,0,0,1,1.45-.62,1.94,1.94,0,0,1,1.49.61A2.66,2.66,0,0,1,144.83,303.19Z"/><path class="cls-3" d="M160.28,301.07h5.29a14,14,0,0,1,3.54.39,6.41,6.41,0,0,1,2.68,1.43c2.09,1.79,3.14,4.5,3.14,8.15a15.89,15.89,0,0,1-.32,3.29,9.64,9.64,0,0,1-1,2.69,8.45,8.45,0,0,1-1.68,2.14,7,7,0,0,1-1.77,1.16,8,8,0,0,1-2.05.62,15.51,15.51,0,0,1-2.48.18h-5.3a3.32,3.32,0,0,1-1.66-.34,1.52,1.52,0,0,1-.73-.94,5.72,5.72,0,0,1-.18-1.58v-14.7a2.14,2.14,0,0,1,2.49-2.49Zm1.58,3.22v13.6h3.07c.68,0,1.2,0,1.59-.06a4.51,4.51,0,0,0,1.19-.27,3.17,3.17,0,0,0,1.06-.61q2-1.72,2-5.94a8.67,8.67,0,0,0-.9-4.44,4,4,0,0,0-2.2-1.88,10.94,10.94,0,0,0-3.18-.4Z"/><path class="cls-3" d="M194.31,300.73a10.62,10.62,0,0,1,5.35,1.27,8.23,8.23,0,0,1,3.39,3.59,12.33,12.33,0,0,1,1.15,5.48,13.35,13.35,0,0,1-.63,4.22,9.13,9.13,0,0,1-1.89,3.3,8.23,8.23,0,0,1-3.09,2.13,12.16,12.16,0,0,1-8.41,0,8.4,8.4,0,0,1-3.1-2.14,9.1,9.1,0,0,1-1.88-3.32,13.59,13.59,0,0,1-.64-4.2,12.78,12.78,0,0,1,.67-4.24,9.06,9.06,0,0,1,1.92-3.28,8.38,8.38,0,0,1,3.06-2.07A11,11,0,0,1,194.31,300.73ZM200.08,311a9.5,9.5,0,0,0-.71-3.82,5.35,5.35,0,0,0-2-2.44,5.59,5.59,0,0,0-3-.82,5.42,5.42,0,0,0-2.25.46,4.81,4.81,0,0,0-1.77,1.33,6.37,6.37,0,0,0-1.18,2.23,10.06,10.06,0,0,0-.43,3.06,10.26,10.26,0,0,0,.43,3.09,6.33,6.33,0,0,0,1.22,2.29,5,5,0,0,0,1.8,1.36,5.7,5.7,0,0,0,5.1-.33,5.41,5.41,0,0,0,2.08-2.41A9.35,9.35,0,0,0,200.08,311Z"/><path class="cls-3" d="M226,313v3.84a4,4,0,0,1-.15,1.22,2,2,0,0,1-.56.83,5.13,5.13,0,0,1-1,.71,16,16,0,0,1-3.5,1.44,14.11,14.11,0,0,1-3.66.45,12.05,12.05,0,0,1-4.22-.71,8.76,8.76,0,0,1-5.29-5.35,12.21,12.21,0,0,1-.72-4.31,12.52,12.52,0,0,1,.7-4.28,8.62,8.62,0,0,1,2-3.29,9,9,0,0,1,3.29-2.07,12.61,12.61,0,0,1,4.4-.72,11,11,0,0,1,3.59.54,7.85,7.85,0,0,1,2.53,1.36,6.27,6.27,0,0,1,1.46,1.74,3.48,3.48,0,0,1,.49,1.62,1.74,1.74,0,0,1-.57,1.31,1.89,1.89,0,0,1-1.36.54,1.8,1.8,0,0,1-.84-.21,1.75,1.75,0,0,1-.67-.57,17.11,17.11,0,0,0-1.28-1.78,4,4,0,0,0-1.4-1,5.42,5.42,0,0,0-2.25-.41,6.08,6.08,0,0,0-2.51.49,5.25,5.25,0,0,0-1.9,1.4,6.46,6.46,0,0,0-1.2,2.27,9.85,9.85,0,0,0-.42,3,8.11,8.11,0,0,0,1.62,5.43,5.61,5.61,0,0,0,4.52,1.9,9.13,9.13,0,0,0,2.65-.37,12.92,12.92,0,0,0,2.51-1.05v-3.25h-3.15a3.39,3.39,0,0,1-1.71-.35,1.22,1.22,0,0,1-.58-1.16,1.43,1.43,0,0,1,.48-1.1,1.85,1.85,0,0,1,1.32-.44h4.61a5.86,5.86,0,0,1,1.43.15,1.57,1.57,0,0,1,1,.67A2.64,2.64,0,0,1,226,313Z"/><path class="cls-3" d="M240.82,303.19v14.59h8.23a2.2,2.2,0,0,1,1.52.48,1.55,1.55,0,0,1,.52,1.2,1.53,1.53,0,0,1-.52,1.2,2.24,2.24,0,0,1-1.52.46h-9.8a2.63,2.63,0,0,1-1.91-.59,2.66,2.66,0,0,1-.58-1.9V303.19a2.66,2.66,0,0,1,.56-1.84,1.86,1.86,0,0,1,1.45-.62,1.94,1.94,0,0,1,1.49.61A2.66,2.66,0,0,1,240.82,303.19Z"/><path class="cls-3" d="M254.7,319v-6.36L249.81,305a15.13,15.13,0,0,1-.91-1.6,2.46,2.46,0,0,1-.27-1,1.57,1.57,0,0,1,.54-1.2,1.86,1.86,0,0,1,1.33-.51,1.65,1.65,0,0,1,1.27.47,13.77,13.77,0,0,1,1.29,1.88l3.75,6.09,3.78-6.09.58-.94a4.66,4.66,0,0,1,.51-.72,2.11,2.11,0,0,1,.62-.51,1.8,1.8,0,0,1,.84-.18,1.75,1.75,0,0,1,1.27.5,1.54,1.54,0,0,1,.52,1.15,2.44,2.44,0,0,1-.26,1.07,14.6,14.6,0,0,1-.89,1.48l-5,7.69V319a2.65,2.65,0,0,1-.57,1.86,1.93,1.93,0,0,1-1.47.62,1.91,1.91,0,0,1-1.46-.61A2.71,2.71,0,0,1,254.7,319Z"/><path class="cls-3" d="M271.82,303.19v7l8-8.31a6.48,6.48,0,0,1,1-.89,1.79,1.79,0,0,1,1.07-.29,2,2,0,0,1,1.41.51,1.66,1.66,0,0,1,.54,1.25,2.49,2.49,0,0,1-.91,1.77l-4.94,4.67,5.69,8.15a10.15,10.15,0,0,1,.9,1.49,2.85,2.85,0,0,1,.3,1.23,1.52,1.52,0,0,1-.52,1.16,2,2,0,0,1-1.43.5,2.32,2.32,0,0,1-1.38-.37,3,3,0,0,1-.9-1c-.25-.4-.47-.76-.66-1.09l-4.8-7.39-3.32,3.19V319a2.62,2.62,0,0,1-.58,1.87,1.94,1.94,0,0,1-1.47.61,2.08,2.08,0,0,1-1.74-1,2.48,2.48,0,0,1-.23-.89c0-.34,0-.83,0-1.47v-14.9a2.71,2.71,0,0,1,.54-1.84,1.86,1.86,0,0,1,1.47-.62,1.92,1.92,0,0,1,1.48.61A2.61,2.61,0,0,1,271.82,303.19Z"/><path class="cls-3" d="M292.54,303.19v7l8-8.31a6.49,6.49,0,0,1,1-.89,1.84,1.84,0,0,1,1.08-.29,2,2,0,0,1,1.41.51,1.66,1.66,0,0,1,.54,1.25,2.49,2.49,0,0,1-.91,1.77l-4.94,4.67,5.69,8.15a10.15,10.15,0,0,1,.9,1.49,2.85,2.85,0,0,1,.3,1.23A1.53,1.53,0,0,1,305,321a2,2,0,0,1-1.42.5,2.38,2.38,0,0,1-1.39-.37,3.2,3.2,0,0,1-.9-1c-.24-.4-.46-.76-.65-1.09l-4.8-7.39-3.33,3.19V319a2.67,2.67,0,0,1-.57,1.87,2,2,0,0,1-1.48.61,1.88,1.88,0,0,1-1-.28,1.92,1.92,0,0,1-.74-.73,2.29,2.29,0,0,1-.23-.89c0-.34,0-.83,0-1.47v-14.9a2.71,2.71,0,0,1,.54-1.84,1.86,1.86,0,0,1,1.47-.62,1.94,1.94,0,0,1,1.49.61A2.61,2.61,0,0,1,292.54,303.19Z"/><path class="cls-3" d="M322.39,304.2h-9.15v4.92h8.43a2,2,0,0,1,1.38.42,1.41,1.41,0,0,1,.46,1.1,1.48,1.48,0,0,1-.45,1.12,2,2,0,0,1-1.39.43h-8.43v5.7h9.46a2.13,2.13,0,0,1,1.45.44,1.54,1.54,0,0,1,.48,1.19,1.49,1.49,0,0,1-.48,1.15,2.08,2.08,0,0,1-1.45.45h-11a2.63,2.63,0,0,1-1.91-.59,2.66,2.66,0,0,1-.58-1.9V303.56a3.45,3.45,0,0,1,.26-1.43,1.6,1.6,0,0,1,.82-.8,3.38,3.38,0,0,1,1.41-.26h10.72a2.1,2.1,0,0,1,1.44.43,1.61,1.61,0,0,1,0,2.27A2,2,0,0,1,322.39,304.2Z"/><path class="cls-3" d="M328.83,312.43l-.44-6.55c-.08-1.27-.12-2.19-.12-2.74a2.51,2.51,0,0,1,.59-1.77,2,2,0,0,1,1.57-.64,1.57,1.57,0,0,1,1.57.81,5.46,5.46,0,0,1,.4,2.35,16.28,16.28,0,0,1-.1,1.83l-.59,6.74a5.24,5.24,0,0,1-.41,1.85,1.06,1.06,0,0,1-1,.64,1,1,0,0,1-1-.62A6.24,6.24,0,0,1,328.83,312.43Zm1.52,9a2.16,2.16,0,0,1-1.46-.54,1.9,1.9,0,0,1-.62-1.51,2,2,0,0,1,.59-1.44,2,2,0,0,1,1.46-.6,2,2,0,0,1,1.47.6,1.94,1.94,0,0,1,.61,1.44,1.89,1.89,0,0,1-.62,1.5A2.07,2.07,0,0,1,330.35,321.43Z"/><path class="cls-3" d="M630.33,71.39c5.06,4.29,9.94,8.83,14.8,13.37s9.73,9.32,14.25,14.33c1.3,1.43,3.41-.69,2.12-2.12-4.52-5-9.32-9.74-14.25-14.33s-9.73-9.08-14.8-13.38c-1.47-1.24-3.6.87-2.12,2.13Z"/><path class="cls-3" d="M632.5,99.09l29.56-28.21c1.4-1.34-.73-3.46-2.12-2.13L630.38,97c-1.4,1.33.72,3.45,2.12,2.12Z"/></g></svg>
