<svg xmlns="http://www.w3.org/2000/svg" width="140" height="140" viewBox="0 0 140 140"><defs><style>.cls-1,.cls-3{fill:#c2f2c3;}.cls-2{fill:#fff;}.cls-3,.cls-4{stroke:#fff;stroke-miterlimit:10;}.cls-4{fill:#dff4df;}</style></defs><title>indstillinger_knap</title><g id="Taleboble_og_knap" data-name="Taleboble og knap"><circle class="cls-1" cx="70" cy="70.01" r="64"/><path class="cls-2" d="M132.5,70a62.49,62.49,0,0,1-79.6,60.13A62.51,62.51,0,0,1,16.54,37.61,62.53,62.53,0,0,1,131.77,60.36,63.59,63.59,0,0,1,132.5,70a1.5,1.5,0,0,0,3,0A65.5,65.5,0,1,0,43,129.68a65.49,65.49,0,0,0,74.39-14.41,65.49,65.49,0,0,0,17.36-35.16A68.41,68.41,0,0,0,135.5,70,1.5,1.5,0,0,0,132.5,70Z"/><path class="cls-2" d="M42.05,52l8.55-8,9.06,4.28,5-2.14,3-9.64H78.79l2.51,8,6,4.29,9.06-5.36,7.55,7-5,8,3,7,9.56,2.68V78.83L101.94,81l-2.52,5.9L104,96l-8,7.5-8.05-4.28-6,2.14q-2,5.08-4,10.18l-10.06-1.07q-1.77-4.29-3.53-8.57l-6-2.68-9.06,4.28-7-7,4.53-9.11-3-5.89h0L34.5,78.83V68.65l9.56-3.75,2.52-6.43Z"/><ellipse class="cls-3" cx="72.75" cy="74.21" rx="15.1" ry="14.8"/><path class="cls-4" d="M35,39.22c2.19.06,2.52-6.16,11.64-12.19C59.84,18.3,79.14,18.15,79,16.77c-.13-1.63-27.7-4.44-40.63,4.52C28.26,28.32,32.12,39.15,35,39.22Z"/></g></svg>
