<svg xmlns="http://www.w3.org/2000/svg" width="350" height="270" viewBox="0 0 350 270"><defs><style>.cls-1{fill:#c2f2c3;}.cls-2{fill:#fff;}.cls-3{fill:#dff4df;stroke:#fff;stroke-miterlimit:10;}</style></defs><title>lyd_knap</title><g id="Taleboble_og_knap" data-name="Taleboble og knap"><circle class="cls-1" cx="157.74" cy="69.5" r="64"/><path class="cls-2" d="M220.24,69.5a62.12,62.12,0,1,1-.73-9.65,63,63,0,0,1,.73,9.65,1.5,1.5,0,0,0,3,0,65.51,65.51,0,1,0-92.54,59.67,66.24,66.24,0,0,0,40.17,4.51A65.53,65.53,0,0,0,222.45,79.6a68.3,68.3,0,0,0,.79-10.1A1.5,1.5,0,0,0,220.24,69.5Z"/><path class="cls-3" d="M122.72,38.71c2.18.06,2.52-6.16,11.63-12.19,13.22-8.73,32.53-8.88,32.42-10.25-.13-1.64-27.71-4.45-40.63,4.51C116,27.81,119.85,38.64,122.72,38.71Z"/><path class="cls-2" d="M138.79,64.17l-11.55-.85V82h11.55l14.45,12.73v-45Z"/><path class="cls-2" d="M162.24,59.09c0,1,.76,1.29,2.24,3.46a17.51,17.51,0,0,1,2.25,4.33,16.1,16.1,0,0,1,.75,5.2,18.21,18.21,0,0,1-.75,6.06,15,15,0,0,1-1.5,3.47c-1.62,2.73-3,3-3,4.33,0,1,.77,1.09,2.24,3.46,1.18,1.9,1.1,2.47,1.5,2.6,1.78.6,8.13-8.44,8.25-19,.13-11-6.44-20.53-8.25-19.92-.41.13-.3.71-1.5,2.59C163.07,57.86,162.27,58.07,162.24,59.09Z"/><path class="cls-2" d="M174.22,43.59c-.15-.73.19-1.27,1.39-3.73,1.47-3,1.56-3.49,2.08-3.73,1.3-.63,2.89,1.21,3.46,1.86,11,12.74,11.09,33.57,11.09,33.57a73.81,73.81,0,0,1-2.78,18.65,35.74,35.74,0,0,1-3.46,8.4,57.85,57.85,0,0,1-3.46,4.66c-2.49,3.19-3.26,3.87-4.16,3.73s-1.52-1-2.08-1.86c-.3-.44-1.77-2.6-1.39-4.67.21-1.12.85-1.6,2.08-2.8a39.55,39.55,0,0,0,4.85-5.59c1.38-2,1.87-3.94,2.77-7.46A46.05,46.05,0,0,0,186,72.5a49.87,49.87,0,0,0-.69-7.46A39.89,39.89,0,0,0,181.15,52c-2-3.68-3-5.51-4.85-6.53C175.49,45,174.44,44.65,174.22,43.59Z"/></g></svg>
