<svg xmlns="http://www.w3.org/2000/svg" width="190" height="180" viewBox="0 0 190 180"><defs><style>.cls-1{fill:#e8c4e4;stroke:#fff;stroke-width:4px;}.cls-1,.cls-3{stroke-miterlimit:10;}.cls-2{fill:#f9e8f9;}.cls-3,.cls-5{fill:#fff;}.cls-3{stroke:#c6bdbd;}.cls-4{fill:#cce5e2;}</style></defs><title>maelk</title><g id="Overskrift"><ellipse class="cls-1" cx="95" cy="90" rx="92" ry="84"/><path class="cls-2" d="M38.92,82.45c5.17-1,2.26-16.48,18-29.32C74.7,38.59,99.28,41.42,102,35.13c2.5-5.75-14.8-15.56-35.11-11.21C51.36,27.25,39.16,37.79,33.42,46.78,21.58,65.3,33.07,83.63,38.92,82.45Z"/><path class="cls-3" d="M102.75,92.39,72.09,75.07"/><polygon class="cls-3" points="103.12 92.76 103.12 152.48 129.73 135.52 129.73 77.28 103.12 92.76"/><polyline class="cls-3" points="129.73 77.28 111.25 69.91 103.12 92.02 91.67 85.58 72.8 74.95"/><path class="cls-3" d="M103.12,152.48l-31-19.91V75.07A99.54,99.54,0,0,1,80.21,67c4.28-3.79,7.18-5.69,7.39-8.85,0-.1,0-.06,0-4.42V50l23.65,11.8v8.11L87.6,58.11"/><path class="cls-4" d="M102.75,130.73l-31-18.06V92.76l31,17.33Z"/><path class="cls-4" d="M130,95.36,102.77,111l0,19.67L130,115.75Z"/><line class="cls-3" x1="103.02" y1="92.77" x2="72.8" y2="74.95"/><path class="cls-5" d="M99.55,74.82a9.74,9.74,0,0,0-6.3-6.59,1.49,1.49,0,0,0-1.46.38A4.38,4.38,0,0,0,91,73.72a9.25,9.25,0,0,0,3.92,3.64,1.52,1.52,0,0,0,2.21-1.69c-.65-3-3.91-4.76-6.78-4.71a1.51,1.51,0,0,0-1.45,1.89,2.67,2.67,0,0,0,3.45,1.51,3.72,3.72,0,0,0,2.24-3.27,8.31,8.31,0,0,0-2.51-7c-1.38-1.36-3.5.76-2.12,2.12A6.47,6.47,0,0,1,91.26,68c.12.24,0,0,.1.26a6.6,6.6,0,0,1,.2.63,3.31,3.31,0,0,1,.13.81,5.37,5.37,0,0,1,0,1.06c0-.2-.08.33-.09.39s-.17.43-.06.2c0,.05-.26.34-.11.19s.09,0-.07.06c.16-.07.16-.07,0,0,.16,0,.19,0,.07,0s-.09,0,.07,0c-.16-.05-.16,0,0,0a.82.82,0,0,1,.34.49L90.37,74a3.8,3.8,0,0,1,1.4.17l.38.13c.27.09-.28-.15.16.07a6.8,6.8,0,0,1,.7.38,4.29,4.29,0,0,1,.8.74c-.09-.12.11.17.13.2l.17.31c.07.14,0-.15,0,.1s.08.27.1.4l2.21-1.69a15.57,15.57,0,0,1-1.53-1,5.37,5.37,0,0,1-1.1-1.16,2.37,2.37,0,0,1-.19-.35c.08.18,0-.07,0-.14a2.22,2.22,0,0,1-.09-.37c0,.28,0-.18,0-.2,0-.26,0,0,0-.12a1.4,1.4,0,0,1,.1-.35c-.1.23.1-.17.11-.18-.12.18.17-.17.18-.18l-1.46.39A7.77,7.77,0,0,1,95.23,73a5.56,5.56,0,0,1,1.43,2.63,1.5,1.5,0,0,0,2.89-.79Z"/><path class="cls-5" d="M89.08,64.94a17.09,17.09,0,0,1,1.54.94,9.46,9.46,0,0,1,1.08.86,10.58,10.58,0,0,1,2,2.33,26.21,26.21,0,0,0,2,3.18,16.83,16.83,0,0,0,3,2.54,1.51,1.51,0,0,0,2.05-.54,1.53,1.53,0,0,0-.54-2c-.51-.38-.86-.64-1.35-1-.21-.19-.42-.38-.62-.59l-.29-.3-.13-.15c-.74-.93-1.17-2.09-1.86-3.06a15.87,15.87,0,0,0-5.37-4.7,1.5,1.5,0,0,0-1.52,2.59Z"/><path class="cls-5" d="M100.75,71.75c.06.43,0,.07,0,0s0-.21,0-.32,0-.38,0-.58a3.81,3.81,0,0,0-.18-1.42,5.83,5.83,0,0,0-.72-1.23c-.07-.09-.16-.35-.25-.41.09.22.11.26,0,.11l0-.08-.09-.24a3,3,0,0,0-1.12-1.45,4.74,4.74,0,0,0-.72-.34l-.13,0c-.12,0-.12,0,0,0s.13.05,0,0l-.08,0c-.1-.07-.1-.06,0,0s.12.1,0,0-.11-.1-.16-.16a3.45,3.45,0,0,0-.28-.26,2.5,2.5,0,0,0-1.66-.68,1.51,1.51,0,0,0-1.5,1.5,1.54,1.54,0,0,0,1.5,1.5c.12,0,.11,0,0,0a.44.44,0,0,1-.24-.07c-.26-.11,0,0,0,0-.23-.07-.24-.21-.11-.07l.14.13a3.54,3.54,0,0,0,.86.68,5.46,5.46,0,0,0,.7.3c.25.11-.22-.11-.06,0a.78.78,0,0,0,.2.11l-.17-.12c.09.09.09.09,0,0s0,.07,0,.07-.13-.32,0-.07c0,.07,0,.14.07.2a4.61,4.61,0,0,0,.58,1.1,3.69,3.69,0,0,1,.29.4s.07.16.1.17c-.07-.19-.09-.23,0-.12l0,.1c.07.27,0,.06,0,0a1.07,1.07,0,0,0,0,.25,4.71,4.71,0,0,1,0,.53,6.48,6.48,0,0,0,.07,1.39,1.49,1.49,0,0,0,.69.9,1.54,1.54,0,0,0,1.15.15,1.49,1.49,0,0,0,.9-.69,1.78,1.78,0,0,0,.15-1.16Z"/><path class="cls-5" d="M96,68.15A4.25,4.25,0,0,0,97.9,70a5.54,5.54,0,0,0,1.31.47,8.81,8.81,0,0,0,.88.11h.32c.07,0,.37,0,0,0,.15,0,.11,0,0,0l.27.15a5.8,5.8,0,0,0,.8.37c.21.07.43.09.64.14a1.1,1.1,0,0,1,.29.09s-.25-.13,0,0a7.67,7.67,0,0,0,2.31,1.1,1.55,1.55,0,0,0,1.85-1,1.53,1.53,0,0,0-1-1.85,1.5,1.5,0,0,1-.29-.06s-.28-.09-.09,0-.11-.06-.13-.07l-.2-.11a9.77,9.77,0,0,0-.88-.53,5.12,5.12,0,0,0-1.3-.44l-.25-.07c.19.05.11.05,0,0l-.48-.26a4,4,0,0,0-1.56-.34c-.08,0-.24,0-.31,0,.08,0,.23,0,0,0a3,3,0,0,1-.52-.13c-.17-.06-.19-.1,0,0l-.2-.11c-.08,0-.16-.1-.24-.15s.17.17,0,0-.32-.35-.35-.34.17.25,0,0l-.15-.27a1.5,1.5,0,0,0-2-.54A1.53,1.53,0,0,0,96,68.15Z"/><path class="cls-5" d="M101.7,67.86a1,1,0,0,1-.29-.08l.35.16-.3-.19.3.23c-.32-.26-.6-.55-.93-.8a5.23,5.23,0,0,0-1.23-.61l-2.29-.94a1.52,1.52,0,0,0-1.16.16,1.5,1.5,0,0,0-.69.89,1.56,1.56,0,0,0,.15,1.16,1.82,1.82,0,0,0,.9.69c.84.34,1.68.67,2.51,1l-.36-.15a2.86,2.86,0,0,1,.66.37L99,69.53c.59.48,1.09,1.12,1.89,1.23a1.67,1.67,0,0,0,1.16-.16,1.5,1.5,0,0,0,.54-2,1.45,1.45,0,0,0-.9-.69Z"/><path class="cls-5" d="M86.89,68.54c1.21,2.47,3.87,4.31,6.16,5.69a8.74,8.74,0,0,0,4.29,1.35,15.88,15.88,0,0,1,2.29,0,2.85,2.85,0,0,1,.63.19.58.58,0,0,1,.27.19c-.09-.18-.1-.14,0,.1.19,1.23,1.73,1.28,2.5.66l3-2.4-2.56-1.06a6.79,6.79,0,0,1-.11,1.56,1.52,1.52,0,0,0,.87,1.77A1.47,1.47,0,0,0,106,76l1.68-3.73a1.54,1.54,0,0,0-.54-2,1.5,1.5,0,0,0-2,.53l-1.68,3.73,2.75,1.16a11,11,0,0,0,.21-2.36,1.52,1.52,0,0,0-2.56-1.06l-3,2.4,2.51.66a3.57,3.57,0,0,0-3-2.58c-1.52-.31-3.11.12-4.58-.42a14.64,14.64,0,0,1-3.52-2.2A8.79,8.79,0,0,1,89.48,67c-.84-1.73-3.43-.22-2.59,1.51Z"/><path class="cls-5" d="M89.6,64.78a1.5,1.5,0,0,0,0-3,1.5,1.5,0,0,0,0,3Z"/><path class="cls-5" d="M94.49,64.12l-.14-.06.36.16c-1.16-.5-2.29-1.09-3.43-1.63l-.36,2.74H91l-.4.05h.12l-.39-.06.24.07-.36-.15a1.78,1.78,0,0,1,.27.17l-.3-.23a5.51,5.51,0,0,0,.89.63,3.52,3.52,0,0,1,.68.39l-.3-.24c.41.33.8.69,1.24,1a8.18,8.18,0,0,0,1.48.74,1.5,1.5,0,0,0,1.15-.15,1.55,1.55,0,0,0,.69-.9,1.52,1.52,0,0,0-.15-1.16l-.24-.3a1.47,1.47,0,0,0-.66-.39l-.06,0,.36.15a6.2,6.2,0,0,1-1.39-.8l.31.24c-.35-.27-.66-.57-1-.82s-.62-.3-.9-.5l.3.23a5.31,5.31,0,0,0-.81-.6,2.87,2.87,0,0,0-.6-.23,2.46,2.46,0,0,0-1,0l-.36.15-.31.23a1.51,1.51,0,0,0-.41.86,1.48,1.48,0,0,0,.1.78,1.41,1.41,0,0,0,.62.72c1.29.62,2.58,1.3,3.92,1.83a1.45,1.45,0,0,0,1.15-.15,1.5,1.5,0,0,0,.54-2,1.7,1.7,0,0,0-.89-.69Z"/><path class="cls-5" d="M95.26,64.35h-.19l.4.05a1.38,1.38,0,0,1-.27-.08l.36.16L95,64.19a4.17,4.17,0,0,0-.58-.24,4.6,4.6,0,0,0-.73-.11l.4,0a.61.61,0,0,1-.18,0l.36.16c-.27-.13-.52-.31-.8-.43a8.58,8.58,0,0,0-1.18-.48,1.5,1.5,0,1,0-.8,2.89l.58.22L91.71,66a7.14,7.14,0,0,1,.73.37l.32.18a2.9,2.9,0,0,0,1.06.26l-.4,0a1.31,1.31,0,0,1,.34.09l-.36-.15a3.91,3.91,0,0,0,1.86.61,1.63,1.63,0,0,0,1.07-.44,1.51,1.51,0,0,0,.43-1.06,1.49,1.49,0,0,0-1.5-1.5Z"/><path class="cls-5" d="M89,62.32a.75.75,0,0,0,0-1.5.75.75,0,0,0,0,1.5Z"/><path class="cls-5" d="M88.87,60.91a.38.38,0,0,0,0-.75.38.38,0,0,0,0,.75Z"/><path class="cls-5" d="M109.08,71.09a.38.38,0,0,0,0-.75.38.38,0,0,0,0,.75Z"/><path class="cls-5" d="M109,71.51a.38.38,0,0,0,0-.75.38.38,0,0,0,0,.75Z"/><path class="cls-5" d="M88.71,60.18l0-.31a.15.15,0,0,0-.29,0,11.39,11.39,0,0,1-1.67,2.88c-.11.16.15.31.26.15a11.73,11.73,0,0,0,1.7-3l-.3,0,0,.31c0,.19.32.19.3,0Z"/><path class="cls-5" d="M89.31,60.51l.14,0,0,0h0l.06,0a2,2,0,0,1,.25.14,1.47,1.47,0,0,0,.57.22.16.16,0,0,0,.15-.15.15.15,0,0,0-.15-.15h-.05l-.06,0-.07,0s0,0,0,0h0l-.24-.13a1.64,1.64,0,0,0-.52-.24.18.18,0,0,0-.19.11.15.15,0,0,0,.11.18Z"/><path class="cls-5" d="M98.52,65.15l.12,0,.15,0,.13,0,.11,0,.24.14,0,0h0s0,0,0,0l.11.1a.17.17,0,0,0,.21,0,.17.17,0,0,0,0-.22,1.89,1.89,0,0,0-1.15-.53.15.15,0,0,0-.15.15.15.15,0,0,0,.15.15Z"/><path class="cls-5" d="M102.06,66.8a1,1,0,0,0,.64.41,4.4,4.4,0,0,1,.77.27.17.17,0,0,0,.21,0,.16.16,0,0,0-.05-.21,5.34,5.34,0,0,0-.76-.28.83.83,0,0,1-.55-.29.16.16,0,0,0-.21-.06.16.16,0,0,0,0,.21Z"/><path class="cls-5" d="M109.67,70.28a.51.51,0,0,1-.37-.13,1.23,1.23,0,0,0-.4-.19.15.15,0,0,0-.14.25,2.83,2.83,0,0,0,.37.32l.21.13.12.06.1,0s0,0,0,0,0,0,0,0a.36.36,0,0,1,0,.11.67.67,0,0,1-.09.21,3.13,3.13,0,0,1-.29.42.16.16,0,0,0,0,.24.26.26,0,0,0,.32,0,1.14,1.14,0,0,0,.16-.31l.15-.37a3.65,3.65,0,0,0,.14-.35c0-.14-.08-.21-.18-.27l-.36-.18-.33-.17-.18-.09a.2.2,0,0,1-.08,0s0,0,0,.05c.09-.17-.17-.33-.26-.15s.24.41.43.51l.36.18.18.09.1.06.08,0,0-.08-.05.09,0,.13-.1.25-.1.26a.34.34,0,0,0-.06.12v0h0l0,.24a4.46,4.46,0,0,0,.35-.5.86.86,0,0,0,.13-.58.32.32,0,0,0-.19-.19l-.26-.14A2.51,2.51,0,0,1,109,70l-.15.25a1.68,1.68,0,0,1,.42.22.76.76,0,0,0,.51.1.15.15,0,0,0,.11-.18.16.16,0,0,0-.19-.11Z"/><path class="cls-5" d="M103.75,67.61a.15.15,0,0,0,0-.3.15.15,0,0,0,0,.3Z"/><path class="cls-5" d="M102.49,67a.15.15,0,0,0,0-.3.15.15,0,0,0,0,.3Z"/><path class="cls-5" d="M91.69,84.77a17.35,17.35,0,0,0,3.13,1.51c.18.06.26-.23.08-.29a16.6,16.6,0,0,1-3.06-1.48c-.16-.1-.31.16-.15.26Z"/><path class="cls-5" d="M112.88,76.57a10.87,10.87,0,0,1-1.61,3.93l-2,3.76-.94,1.83a6.59,6.59,0,0,1-1.09,1.75A14.29,14.29,0,0,0,105,90.36c-.1.16.16.31.26.15a8.13,8.13,0,0,1,1.28-1.58,12.85,12.85,0,0,0,1.27-1.17,9.9,9.9,0,0,0,1-1.77l1.07-2.06,2-3.89a9.16,9.16,0,0,0,1.34-3.47c0-.19-.28-.19-.3,0Z"/><path class="cls-5" d="M110.3,76.48l-1.53,6.11a10,10,0,0,1-1.12,2.84,5.68,5.68,0,0,0-.75,2.38c0,.19.28.18.3,0a5.63,5.63,0,0,1,.42-1.72c.2-.41.48-.78.7-1.18a10.54,10.54,0,0,0,.79-2.46l1.48-5.89c0-.18-.25-.26-.29-.08Z"/><path class="cls-5" d="M105.47,90c.43-1.12.87-2.25,1.27-3.39.07-.18-.22-.26-.29-.08-.4,1.14-.84,2.27-1.27,3.39-.07.18.22.26.29.08Z"/><path class="cls-5" d="M106.64,86.63a1.77,1.77,0,0,0,.42-1c0-.14-.22-.21-.28-.07a6.75,6.75,0,0,0-.5,1.43c0,.19.25.27.29.08a5.92,5.92,0,0,1,.47-1.36l-.28-.08a1.51,1.51,0,0,1-.33.84.15.15,0,1,0,.21.21Z"/><path class="cls-5" d="M107.13,86.11c.3-.89.67-1.75,1-2.61l1-2.62c.08-.18-.22-.26-.29-.08l-1,2.62c-.35.86-.72,1.72-1,2.61-.06.18.23.26.29.08Z"/><path class="cls-5" d="M113.52,76.31c.14-.39.1-.19,0-.1s0,0,.07-.06a3.08,3.08,0,0,0-.3.33,7.25,7.25,0,0,0-.75.91,3.09,3.09,0,0,0-.42,1c0,.14-.09.27-.12.41s.17-.31,0-.1l.14-.17c-.2.19-.06.11.42-.22h.8l-.07,0,.66.38,0-.05.38.66a1.2,1.2,0,0,1-.13-.51l0,.17c0-.06,0-.11,0-.17a2.72,2.72,0,0,1,0-.28c0-.08,0-.16,0-.23,0-.36,0,.2,0,0s.09-.41.16-.61a1.5,1.5,0,0,0-1-1.84,1.52,1.52,0,0,0-1.84,1q-.61,1.69-1.11,3.42l2.74-.35.1.21v.79c0-.11,0-.1,0,0a.48.48,0,0,1-.16.26l-2.35-1.82A5.07,5.07,0,0,0,110,81a5.84,5.84,0,0,1-.18.69.64.64,0,0,1-.06.18c.1-.22.11-.25,0-.1s-.29.43,0,.1l2.36,1.81a5.59,5.59,0,0,0,.5-1.44,1.54,1.54,0,0,0-1-1.85,1.53,1.53,0,0,0-1.84,1,4.05,4.05,0,0,1-.12.5c0,.07,0,.14-.07.22s.15-.33,0,0a1.51,1.51,0,0,0,.38,1.93,1.48,1.48,0,0,0,2-.11,4.75,4.75,0,0,0,.94-1.91c.06-.25.11-.5.18-.74l.06-.18s.09-.26,0,0,0,0,0,0a1.37,1.37,0,0,1,.13-.2,1.51,1.51,0,0,0-.39-1.94,1.48,1.48,0,0,0-2,.12,2,2,0,0,0-.38,2.35,1.52,1.52,0,0,0,2.74-.36q.51-1.72,1.11-3.42l-2.89-.8a5.44,5.44,0,0,0-.15,2.83,1.82,1.82,0,0,0,1.27,1.52,1.86,1.86,0,0,0,2-.92,3.47,3.47,0,0,0,.43-1.05s0-.11,0-.16.14-.21,0,0c0,0,0-.1.08-.15s.19-.27,0-.06,0,0,.06,0l.15-.16c.1-.11.21-.21.31-.33a3.8,3.8,0,0,0,.76-1.27,1.51,1.51,0,0,0-1-1.84,1.55,1.55,0,0,0-1.85,1Z"/><path class="cls-5" d="M111.25,81.94a1.73,1.73,0,0,0-.24.1l-.23.1c-.13.08-.24.18-.36.27l0,0-.21.2.3-.23-.2.11a1.65,1.65,0,0,0-.48.35l-.15.18a1.54,1.54,0,0,1-.19.17l.3-.23-.1.07a1.06,1.06,0,0,0-.42.39A1,1,0,0,0,109,84a1.22,1.22,0,0,0,0,.6,1.09,1.09,0,0,0,.18.55l.23.31a1.54,1.54,0,0,0,.67.38l.39.06a1.45,1.45,0,0,0,.76-.21c.15-.1.29-.21.44-.33l.13-.12A2,2,0,0,1,112,85l-.31.23a1.63,1.63,0,0,1,.19-.09l.09,0,0,0a4.19,4.19,0,0,0,.33-.26c.09-.07.16-.17.26-.24l-.31.24a.27.27,0,0,1,.1-.06l-.36.15.07,0a1.26,1.26,0,0,0,.51-.27,1.31,1.31,0,0,0,.39-.42A1.82,1.82,0,0,0,113.1,83l-.15-.36a1.61,1.61,0,0,0-.54-.53l-.36-.16a1.55,1.55,0,0,0-.8,0Z"/><path class="cls-5" d="M115,83.35c.63-.34,1.28-.67,1.9-1s1.07-.81,1.66-1.12l.23-.11c.2-.09-.22.09,0,0l.46-.18c.4-.16.79-.33,1.16-.52a11.3,11.3,0,0,0,1.72-1.08,1.72,1.72,0,0,0,.69-.9,1.57,1.57,0,0,0-.16-1.16,1.5,1.5,0,0,0-2-.53,11,11,0,0,1-1.65,1l-.46.22-.23.1c.13,0,.15-.06,0,0a13.14,13.14,0,0,0-1.22.52c-.58.3-1.06.75-1.61,1.08s-1.3.72-2,1.07a1.5,1.5,0,0,0-.54,2,1.53,1.53,0,0,0,2.05.54Z"/><path class="cls-5" d="M107.46,84.46a3,3,0,0,1-.4.87l.65.38a5.19,5.19,0,0,1,.37-.65l-.7-.19a2.42,2.42,0,0,1-.26,1.12c-.15.36-.3.72-.42,1.1s-.21.76-.31,1.14a.83.83,0,0,1-.28.39l-.47.44.53.53.23-.24a.38.38,0,0,0-.53-.53l-.23.24c-.34.34.18.86.53.53a3.57,3.57,0,0,0,.86-.92,3.08,3.08,0,0,0,.18-.66c.05-.21.11-.43.18-.64a7,7,0,0,0,.74-2.5.38.38,0,0,0-.7-.19,5.19,5.19,0,0,0-.37.65.38.38,0,0,0,.65.38,3.55,3.55,0,0,0,.47-1,.37.37,0,0,0-.72-.2Z"/><path class="cls-5" d="M107.42,88.67A6.91,6.91,0,0,1,109.5,87l-.38-.64a9.8,9.8,0,0,0-1.89,1.75.38.38,0,0,0,.46.59c1.23-.67,2.38-1.45,3.57-2.2a27.79,27.79,0,0,1,3.62-1.81c.44-.19.06-.84-.38-.64a26.52,26.52,0,0,0-3.62,1.8c-1.19.75-2.34,1.53-3.57,2.2l.45.59A9.33,9.33,0,0,1,109.5,87a.37.37,0,0,0-.38-.64,7.43,7.43,0,0,0-2.23,1.79c-.3.37.22.91.53.53Z"/><path class="cls-5" d="M106.91,89.09a.38.38,0,0,0,0-.75.38.38,0,0,0,0,.75Z"/><path class="cls-5" d="M106.62,89.28a.38.38,0,0,0,0-.75.38.38,0,0,0,0,.75Z"/><path class="cls-5" d="M124.11,79a15.15,15.15,0,0,1,2-1.09.37.37,0,0,0,.18-.42.39.39,0,0,0-.37-.27l-.86-.05c-.3,0-.73-.12-.94.16a7,7,0,0,0-.45.74l-.44.77a.36.36,0,0,0,0,.41.35.35,0,0,0,.39.14,4.71,4.71,0,0,0,.94-.57l1-.64a.37.37,0,0,0,.13-.51.39.39,0,0,0-.51-.14l-.91.61-.44.3-.21.14-.08,0s-.12,0-.07,0l.42.55.44-.75.21-.36.11-.18,0-.08,0-.06s0,0,0,0l-.16.09c-.06,0-.06,0,0,0h.28l.37,0,.74,0-.19-.7a14,14,0,0,0-2,1.09.37.37,0,1,0,.38.64Z"/><path class="cls-5" d="M96.83,99.2a3.13,3.13,0,0,1,.55-.54l-.61.47a3.12,3.12,0,0,1,.49-.31,3,3,0,0,0,1.07-4.1A3.72,3.72,0,0,0,97,93.4c-.4-.2-.81-.33-1.23-.5l.72.31a3.86,3.86,0,0,1-.65-.39l.61.47a10.85,10.85,0,0,1-.86-.8,5,5,0,0,0-1-.74,10.71,10.71,0,0,0-1.22-.49l.71.31a18.43,18.43,0,0,1-1.73-1.08,5.64,5.64,0,0,0-1.52-.64,6.45,6.45,0,0,1-.87-.2l.72.3-.15-.08.61.47a.43.43,0,0,1-.11-.12l-.61,4.72.26-.19A3.23,3.23,0,0,0,92,93a3.06,3.06,0,0,0-.3-2.31,3,3,0,0,0-1.79-1.38,3,3,0,0,0-2.31.3l-.26.19a3,3,0,0,0-.61,4.71,3.69,3.69,0,0,0,1.89,1.06,7,7,0,0,1,.93.22l-.71-.3a7.43,7.43,0,0,1,1.29.79,8.16,8.16,0,0,0,2,1l-.71-.3a2.09,2.09,0,0,1,.29.16l-.61-.47c.46.39.85.82,1.33,1.19a4.86,4.86,0,0,0,.85.57c.42.21.86.35,1.29.52l-.72-.3a1.16,1.16,0,0,1,.24.14l-.61-.47.06.06-.47-.61.05.07,1.08-4.11A5.25,5.25,0,0,0,92.59,95a2.16,2.16,0,0,0-.62,1,2.22,2.22,0,0,0-.26,1.16,3,3,0,0,0,3,3,2.88,2.88,0,0,0,2.12-.88Z"/><path class="cls-5" d="M96.11,98.88h0l.71-.31h0l.3-.24.31-.23,0,0h0l.47-.61,0,0h0l.31-.72h0v0a2.87,2.87,0,0,0,0-1.59,3,3,0,0,0-.77-1.33A2.94,2.94,0,0,0,96.24,93a3.1,3.1,0,0,0-1.6,0h0l.8-.11a.24.24,0,0,1-.12,0l.8.11a.23.23,0,0,1-.11,0l.72.3-.09,0,.61.47,0,0L93,97.85l.3.32a2.22,2.22,0,0,0,1,.62,2.17,2.17,0,0,0,1.15.26,2.22,2.22,0,0,0,1.16-.26,2.25,2.25,0,0,0,1-.62l.47-.61a3,3,0,0,0,.41-1.51l-.11-.8a2.94,2.94,0,0,0-.77-1.32l-.29-.32a2.34,2.34,0,0,0-1-.62,3.1,3.1,0,0,0-3.28.62l-.47.61a3.08,3.08,0,0,0-.41,1.51l.11.8A2.94,2.94,0,0,0,93,97.85s0,0,0,0h0l.6.47h0l0,0h0l.71.31h.12l.79.1h.11l.4-.06.41,0-3.69-3.69s0,0,0,0l.3-.72a.08.08,0,0,1,0,0l.47-.61,0,0,.6-.47,0,0,.71-.3h0a2.27,2.27,0,0,0-1,.53,2.33,2.33,0,0,0-.78.84,2.27,2.27,0,0,0-.35,1.12,2.33,2.33,0,0,0,0,1.2l.3.71a3.1,3.1,0,0,0,1.08,1.08l.72.3a3.06,3.06,0,0,0,1.59,0Z"/><path class="cls-5" d="M92.42,97.54a4.34,4.34,0,0,0,0,.51,6,6,0,0,0,.12,1,3.08,3.08,0,0,0,.79,1.39,3,3,0,0,0,1.37.8,3.22,3.22,0,0,0,1.66,0,3,3,0,0,0,2.23-2.91v-.78a3.38,3.38,0,0,0-.88-2.12,2.22,2.22,0,0,0-1-.62,2.26,2.26,0,0,0-1.15-.26l-.8.11a2.94,2.94,0,0,0-1.32.77l-.47.61a3,3,0,0,0-.41,1.51v.78l.87-2.12h0l.6-.46h0l.71-.3h0l.8-.1h0l.8.1h0l.72.3,0,0,.61.47h0l.46.6a0,0,0,0,0,0,0l.31.72,0,0,.11.8c0-.12,0-.24,0-.36a2.41,2.41,0,0,1,0-.38,2.3,2.3,0,0,0-.26-1.16,2.25,2.25,0,0,0-.62-1,2.16,2.16,0,0,0-1-.62,2.22,2.22,0,0,0-1.16-.26l-.8.1a3,3,0,0,0-1.32.78l-.47.6a3,3,0,0,0-.41,1.52Z"/><path class="cls-5" d="M93.1,100.3v0l-.1-.8a.61.61,0,0,1,0,.19l.11-.8a.6.6,0,0,1-.06.19l.31-.71-.06.11a3.37,3.37,0,0,0-.31,2.31,2.39,2.39,0,0,0,.54,1,2.25,2.25,0,0,0,.84.78l.72.3a3.06,3.06,0,0,0,1.59,0l.72-.3a3.1,3.1,0,0,0,1.08-1.08l0-.07a7.43,7.43,0,0,0,.33-.77.37.37,0,0,0,0-.14,8.09,8.09,0,0,0,.12-.86v-.14a8.09,8.09,0,0,0-.12-.86,3.36,3.36,0,0,0-1.37-1.8,2.38,2.38,0,0,0-1.12-.35,2.33,2.33,0,0,0-1.2,0l-.71.3A3.1,3.1,0,0,0,93.4,98l-.3.72a3.06,3.06,0,0,0,0,1.59Z"/><path class="cls-5" d="M100.49,95v0a3.15,3.15,0,0,0,0-.43l0,0-.07-.18c0-.05,0-.13-.08-.19v0s0,0,0,0l-.24-.3h0l-.31-.25,0,0a1.73,1.73,0,0,0-1.16-.16,1.26,1.26,0,0,0-.51.27,1.18,1.18,0,0,0-.38.42l-.15.36a1.36,1.36,0,0,0,0,.8l.15.36a1.61,1.61,0,0,0,.53.54l0,0-.3-.23a.12.12,0,0,1,0,.05l-.23-.31,0,.06-.15-.36a.13.13,0,0,1,0,.06l-.05-.4V95a1.15,1.15,0,0,0,.13.58,1.08,1.08,0,0,0,.31.48,1.14,1.14,0,0,0,.48.31,1.06,1.06,0,0,0,.58.13l.4,0a1.49,1.49,0,0,0,.66-.39l.24-.3a1.57,1.57,0,0,0,.2-.76Z"/><path class="cls-5" d="M95.72,102.57a1.87,1.87,0,0,0-.21,1.11,1.83,1.83,0,0,0,.37.87,3.72,3.72,0,0,0,.84.74,3.55,3.55,0,0,0,.53.32c.3.14.59.22.89.34l-.36-.15.14.07-.31-.23a.12.12,0,0,1,0,0l-.23-.31v0l-.15-.36a.14.14,0,0,1,0,.07,1.43,1.43,0,0,0,.87,1,1.27,1.27,0,0,0,.58.13,1.48,1.48,0,0,0,.76-.21,1.85,1.85,0,0,0,.59-.59,1.82,1.82,0,0,0,.17-.44c0-.25.07-.51.1-.77s.07-.59.09-.89c0-.59.07-1.18.06-1.76a1.5,1.5,0,0,0-1.5-1.5,1.52,1.52,0,0,0-1.5,1.5,20.08,20.08,0,0,1-.18,2.9l.05-.4a1.2,1.2,0,0,1,0,.2l.15-.36,0,0,.53-.53,0,0,2.21.9a1.8,1.8,0,0,0-.45-.78,1.68,1.68,0,0,0-.46-.33c-.28-.13-.56-.21-.84-.32l.36.15a3.59,3.59,0,0,1-.79-.49l.3.23a1,1,0,0,1-.21-.2l.23.3a.59.59,0,0,1,0-.08l.15.36,0-.08.06.4a.11.11,0,0,1,0-.08l-.06.4v0l-.15.36,0,0a1.59,1.59,0,0,0,.15-1.15,1.5,1.5,0,0,0-1.84-1.05,1.46,1.46,0,0,0-.9.69Z"/><path class="cls-5" d="M99,106.26a1.5,1.5,0,0,0,0-3,1.5,1.5,0,0,0,0,3Z"/><path class="cls-5" d="M99.66,105.27v1.32a1.7,1.7,0,0,1,0,.39l0-.2,0,.11.08-.18a.13.13,0,0,1,0,.06l.12-.15,0,0,.16-.12,0,0,.18-.08-.09,0,.2,0h-.07l.2,0-.13,0,.18.08-.62-.28a4,4,0,0,1-.54-.29l.15.12a.57.57,0,0,1-.11-.11.75.75,0,0,0-1.06,0,.76.76,0,0,0,0,1.06,3.07,3.07,0,0,0,1,.61c.2.09.41.2.62.27a1,1,0,0,0,1-.22,1.21,1.21,0,0,0,.32-.79c0-.16,0-.33,0-.49v-1.17a.77.77,0,0,0-.75-.75.76.76,0,0,0-.75.75Z"/><path class="cls-5" d="M98.28,107a.75.75,0,0,0,0-1.5.75.75,0,0,0,0,1.5Z"/><path class="cls-5" d="M101.12,106.94a1.34,1.34,0,0,0-.17.81c0,.15,0,.3.07.45v0s0,.08,0,.11a.74.74,0,0,1,0,.21l.48-.37q-.47-.16-.93-.3a.38.38,0,0,0-.2.73,8.37,8.37,0,0,1,.93.3.34.34,0,0,0,.32-.07.38.38,0,0,0,.15-.29,2.13,2.13,0,0,0,0-.44l0-.18,0-.09v0s0,0,0,0,0-.11,0-.16,0,0,0-.07a.27.27,0,0,0,0-.09c0,.06,0,.07,0,0v0s0-.06,0-.09v0s0,0,0,0a.36.36,0,0,0,0-.09.37.37,0,0,0-.13-.51.38.38,0,0,0-.51.14Z"/><path class="cls-5" d="M100.74,108.73c.13.38.6.44.89.63l0,0s0,0,0,0l0,0h0s0,0,0,0l0,0v0s0,0,0,0v0a.16.16,0,0,0,.19.11.15.15,0,0,0,.1-.19c-.12-.38-.59-.43-.88-.63l0,0s0,0,0,0l0-.05s0,0,0,0l0,0,0,0s0,0,0,0v0a.14.14,0,0,0-.18-.1.15.15,0,0,0-.11.18Z"/><path class="cls-5" d="M102,109v-.93a.15.15,0,0,0-.3,0V109a.15.15,0,0,0,.15.15A.15.15,0,0,0,102,109Z"/><path class="cls-5" d="M126.17,78.05a2,2,0,0,0,.59-.24,1,1,0,0,1,.52-.2.15.15,0,0,0,.15-.15.16.16,0,0,0-.15-.15,1.15,1.15,0,0,0-.62.21,1.69,1.69,0,0,1-.57.24.15.15,0,0,0-.1.18.14.14,0,0,0,.18.11Z"/><path class="cls-5" d="M127.11,77.27s0,0,0,0h-.4l-.16-.05,0,.3a.81.81,0,0,1,.22,0h.07l.11,0a.16.16,0,0,0,.19-.11.15.15,0,0,0-.11-.18,1.11,1.11,0,0,0-.48-.05.15.15,0,0,0-.14.13.14.14,0,0,0,.1.16,1.55,1.55,0,0,0,.74.06s.07,0,.09-.07a.11.11,0,0,0,0-.11.15.15,0,0,0-.06-.09.25.25,0,0,0-.12,0Z"/><path class="cls-5" d="M105.59,90h.13l-.13-.23a.55.55,0,0,1-.18.13l-.23.14a2.08,2.08,0,0,0-.41.37l.24.19a2.14,2.14,0,0,1,.25-.41,1.51,1.51,0,0,0,.22-.44,6.41,6.41,0,0,1,.46-.95c.1-.16-.16-.32-.25-.15a5.74,5.74,0,0,0-.48,1A1.56,1.56,0,0,1,105,90a2.42,2.42,0,0,0-.25.4.16.16,0,0,0,0,.2.15.15,0,0,0,.2,0,1.49,1.49,0,0,1,.41-.38,1.31,1.31,0,0,0,.44-.33.14.14,0,0,0-.12-.22h-.13a.15.15,0,1,0,0,.3Z"/><path class="cls-5" d="M103,110,85,100l7-13.13L103,93Z"/><path class="cls-5" d="M88,97l11,3"/><path class="cls-5" d="M103,152,85,139l3-17,15,9Z"/><path class="cls-5" d="M111,70l-7,22,24-15Z"/><path class="cls-3" d="M103,92,73.5,74.5,88,59l23,11Q107,81,103,92Z"/></g></svg>
