<svg xmlns="http://www.w3.org/2000/svg" width="190" height="180" viewBox="0 0 190 180"><defs><style>.cls-1{fill:#cce5a5;stroke-width:4px;}.cls-1,.cls-4{stroke:#fff;}.cls-1,.cls-4,.cls-5{stroke-miterlimit:10;}.cls-2{fill:#dbeac1;}.cls-3{fill:#ecc3f4;}.cls-4{fill:#dc8eef;}.cls-5{fill:none;stroke:#d689e8;}.cls-6{fill:#e4923c;}.cls-7{fill:#f2eae4;}.cls-8{fill:#fff;}</style></defs><title>muffin</title><g id="Overskrift"><ellipse class="cls-1" cx="95" cy="90" rx="92" ry="84"/><path class="cls-2" d="M30.25,90c5.16-1,2.25-16.48,18-29.32C66,46.18,90.6,49,93.34,42.72,95.83,37,78.53,27.16,58.23,31.51,42.68,34.84,30.49,45.38,24.74,54.37,12.9,72.89,24.39,91.22,30.25,90Z"/><path class="cls-3" d="M70.56,141.52c-1.24-1.72-.73-1.75-4.67-15.83-4.72-16.86-7.3-23.4-5.31-24.71,1.32-.86,3.39,1.33,7.22,3.47,7.88,4.39,15.38,4.18,25,3.9,9.35-.27,18.12-.52,26.73-6.07,3.69-2.37,5.87-4.77,7.43-3.9,2.27,1.27.29,7.89-1.7,20.81-2.64,17.17-1,17.47-3,20.81C113.93,154.09,80.47,155.22,70.56,141.52Z"/><line class="cls-4" x1="62.71" y1="90.58" x2="77.71" y2="75.25"/><line class="cls-5" x1="70.99" y1="142.18" x2="63.55" y2="102.06"/><line class="cls-5" x1="73.95" y1="144.77" x2="66.31" y2="103.37"/><line class="cls-5" x1="77.23" y1="147.12" x2="69.49" y2="105.53"/><line class="cls-5" x1="80.47" y1="148.84" x2="72.68" y2="107.27"/><line class="cls-5" x1="82.77" y1="149.94" x2="76.41" y2="108.11"/><line class="cls-5" x1="85.32" y1="150.16" x2="78.95" y2="108.33"/><line class="cls-5" x1="87.23" y1="150.25" x2="82.14" y2="108.24"/><line class="cls-5" x1="89.77" y1="151.12" x2="84.68" y2="109.11"/><line class="cls-5" x1="92.32" y1="151.12" x2="87.23" y2="109.11"/><line class="cls-5" x1="94.88" y1="151.04" x2="89.79" y2="109.03"/><line class="cls-5" x1="96.5" y1="150.88" x2="92.41" y2="108.75"/><line class="cls-5" x1="121.07" y1="141.16" x2="124.27" y2="98.96"/><line class="cls-5" x1="118.95" y1="142.68" x2="122.15" y2="100.48"/><line class="cls-5" x1="117.04" y1="144.85" x2="119.56" y2="102.06"/><line class="cls-5" x1="114.5" y1="146.37" x2="117.86" y2="103.15"/><line class="cls-5" x1="112.47" y1="147.47" x2="115.01" y2="104.43"/><line class="cls-5" x1="109.95" y1="148.52" x2="112.48" y2="105.48"/><line class="cls-5" x1="102.94" y1="150.11" x2="102.94" y2="107.78"/><line class="cls-5" x1="107.4" y1="149.6" x2="109.94" y2="106.56"/><line class="cls-5" x1="105.49" y1="150.08" x2="106.62" y2="107.27"/><line class="cls-5" x1="97.82" y1="151.18" x2="96.18" y2="108.88"/><line class="cls-5" x1="99.76" y1="150.98" x2="99.76" y2="108.65"/><ellipse class="cls-6" cx="93.89" cy="100.76" rx="33.84" ry="11.16"/><path class="cls-7" d="M77.45,102.17c-3.59-1.2-11.22-3.76-11.24-7.37s7.25-6.41,8.06-6.72c4.89-1.88,10-1.71,10-1.51s-12.47,3.68-15.06-.44c-1.2-1.89-.31-5.41,1.69-7.37,4.15-4.06,10.88.69,14.85-3.25C88,73.23,88.51,68.92,87,67.27c-2-2.16-7.11.6-7.85-.86-.48-.94,1.43-3.34,3.82-4.77,6.2-3.74,14.32-.21,19.3,2,4.37,1.9,9.81,4.26,10,7.8s-4.77,5.73-4,7.37,6.34-1.12,10.61,1.74c2.8,1.87,4,5.5,4,8.23.08,5.54-4.54,9.37-6.58,11.06C103.05,110.76,82.77,104,77.45,102.17Z"/><path class="cls-8" d="M118.65,83.75a1.46,1.46,0,0,0-.21-.16c-.36-.79-1.87-.86-2,.18a2.83,2.83,0,0,0,0,.29h0c-.35,3.66-1.48,7.55-4.76,9.51h0c-1.17.2-.91,2.23.28,2.13l.31,0a8.41,8.41,0,0,0,1.67-.37,6.38,6.38,0,0,0,5.17-3.8C120.07,89.24,120.6,85.65,118.65,83.75Z"/><path class="cls-8" d="M107.4,68.28c-1.28-2.1-3.47-3-5.72-3.71a6.54,6.54,0,0,0-2.24-.6L99,63.85a1,1,0,0,0-.87.16l-.19,0c-1.11.21-.91,1.78,0,2.09a8.56,8.56,0,0,1,4.39,3.57,9.19,9.19,0,0,1,1.09,2.58,8.52,8.52,0,0,1,.28,1.78,13,13,0,0,1-.44,1.33.78.78,0,0,0,0,.14,2.08,2.08,0,0,1-.13.3c-.45,1.08.74,2.23,1.67,1.32C107.09,74.84,109.44,71.62,107.4,68.28Z"/></g></svg>
