<svg xmlns="http://www.w3.org/2000/svg" width="190" height="180" viewBox="0 0 190 180"><defs><style>.cls-1{fill:#cce5a5;stroke:#fff;stroke-miterlimit:10;stroke-width:4px;}.cls-2{fill:#dbeac1;}.cls-3{fill:#fee7a9;}.cls-4{fill:#ffefc0;}.cls-5{fill:#ffdfa9;}.cls-6{fill:#fcd392;}</style></defs><title>ost</title><g id="Overskrift"><ellipse class="cls-1" cx="95" cy="90" rx="92" ry="84"/><path class="cls-2" d="M30.92,87.45c5.17-1,2.26-16.48,18-29.32C66.7,43.59,91.28,46.42,94,40.13c2.5-5.75-14.8-15.56-35.11-11.21C43.36,32.25,31.16,42.79,25.42,51.78,13.58,70.3,25.07,88.63,30.92,87.45Z"/><path class="cls-3" d="M94.57,57.64,63.09,113l86.48-45.68L63.09,113a4.37,4.37,0,0,0,.51,3.66c.93,1.15,2.3,1,2.91,2.07.38.66.47,1.78-.77,3.84,0,0-.4,2.2,2,4.69,4.2,4.42,25.46-5.43,43.88-13.61,23.62-10.49,32.18-13.73,36.49-19.19a24,24,0,0,0,2.18-3.63c1.3-2.66,2.2-4.48,1.71-6.46-.45-1.8-1.58-1.8-1.8-3.47-.27-2,1.18-3.12,1.81-4.88s.62-4.39-2.41-8.7a51.86,51.86,0,0,0-12.91-8.13C118.55,51.24,100.69,55.78,94.57,57.64Z"/><path class="cls-4" d="M63.09,113,94.4,56.42l20.7-1.67a54.1,54.1,0,0,1,21.56,4.43,50.66,50.66,0,0,1,12.91,8.13Z"/><ellipse class="cls-5" cx="105.82" cy="67.86" rx="4.53" ry="4.31" transform="translate(-8.41 15.37) rotate(-7.99)"/><ellipse class="cls-5" cx="138.97" cy="66.31" rx="1.3" ry="2.46" transform="translate(-7.87 19.96) rotate(-7.99)"/><ellipse class="cls-5" cx="94.74" cy="86.81" rx="3.89" ry="1.85" transform="translate(-11.15 14.02) rotate(-7.99)"/><ellipse class="cls-5" cx="75.45" cy="103.18" rx="1.94" ry="0.62" transform="translate(-13.61 11.49) rotate(-7.99)"/><ellipse class="cls-5" cx="122.41" cy="74.23" rx="1.94" ry="1.85" transform="translate(-9.13 17.74) rotate(-7.99)"/><ellipse class="cls-5" cx="97.22" cy="57.89" rx="2.59" ry="0.62" transform="translate(-7.1 14.08) rotate(-7.99)"/><ellipse class="cls-5" cx="78.96" cy="90.89" rx="0.65" ry="1.23" transform="translate(-11.87 11.86) rotate(-7.99)"/><ellipse class="cls-6" cx="113.82" cy="101.52" rx="3.13" ry="5.09" transform="translate(-27.41 159.11) rotate(-63.92)"/><ellipse class="cls-6" cx="90.68" cy="109.12" rx="0.65" ry="2.46" transform="translate(-14.29 13.67) rotate(-7.99)"/><ellipse class="cls-6" cx="74.89" cy="122.52" rx="3.89" ry="2.46" transform="translate(-16.31 11.6) rotate(-7.99)"/><ellipse class="cls-6" cx="143.88" cy="87.36" rx="3.24" ry="3.08" transform="translate(-10.75 20.85) rotate(-7.99)"/><ellipse class="cls-6" cx="131.48" cy="101.53" rx="0.65" ry="1.85" transform="translate(-12.84 19.27) rotate(-7.99)"/><ellipse class="cls-6" cx="131.39" cy="82.28" rx="0.65" ry="2.46" transform="translate(-10.16 19.07) rotate(-7.99)"/></g></svg>
