<svg xmlns="http://www.w3.org/2000/svg" width="190" height="180" viewBox="0 0 190 180"><defs><style>.cls-1{fill:#f4eca2;stroke:#fff;stroke-width:4px;}.cls-1,.cls-3{stroke-miterlimit:10;}.cls-2{fill:#f7f2da;}.cls-3{fill:none;stroke:#020002;}</style></defs><title>piskeris</title><g id="Overskrift"><ellipse class="cls-1" cx="95" cy="90" rx="92" ry="84"/><path class="cls-2" d="M38.92,82.45c5.17-1,2.26-16.48,18-29.32C74.7,38.59,99.28,41.42,102,35.13c2.5-5.75-14.8-15.56-35.11-11.21C51.36,27.25,39.16,37.79,33.42,46.78,21.58,65.3,33.07,83.63,38.92,82.45Z"/><path class="cls-3" d="M105.8,90.52c-3.79-.88-3-7-1.82-15.94,1.59-12.18,2.39-18.28,8.85-23.92,5.71-5,16.58-10.34,24.84-8.16,8.82,2.33,9.74,12,6.88,18.65-1.84,4.32-6.64,8.14-16.18,15.61C116.07,86.4,109.66,91.42,105.8,90.52Z"/><line class="cls-3" x1="137.38" y1="42.44" x2="105.33" y2="90.67"/><path class="cls-3" d="M137.79,42.68a26.75,26.75,0,0,1,.06,12.2c-4.32,19.63-28,33.68-32.11,36"/><path class="cls-3" d="M136.91,42.45a47.75,47.75,0,0,0-14.6,7.92,39.15,39.15,0,0,0-9.88,12.5,51.07,51.07,0,0,0-6.05,27.82"/><path class="cls-3" d="M86.29,129.2c-3.71,5.09-10.22,10.93-13.09,10.36s-2-7.51,1.13-13.23c2.87-5.21,6.82-7.93,11.51-12,14-12.31,19.35-23.93,20-23.76s-10,10.76-14.17,25.45C90.4,120.35,90.05,124,86.29,129.2Z"/><ellipse class="cls-3" cx="79.51" cy="129.85" rx="4.54" ry="1.69" transform="translate(-72.04 115.21) rotate(-53)"/></g></svg>
