<svg xmlns="http://www.w3.org/2000/svg" width="540" height="680" viewBox="0 0 540 680"><defs><style>.cls-1{fill:#24893e;}.cls-2{fill:#7c92e5;}.cls-3{fill:#eee1ef;}.cls-4{fill:#47413d;}.cls-5{fill:#edbe9a;}.cls-10,.cls-13,.cls-6{fill:none;}.cls-6{stroke:#3ea838;stroke-width:6px;}.cls-13,.cls-14,.cls-6{stroke-miterlimit:10;}.cls-7{fill:#f2f4f2;}.cls-8{fill:#f2a7e0;}.cls-9{fill:#09030a;}.cls-11{fill:#dd437a;}.cls-12{fill:#ba2b76;}.cls-13,.cls-14{stroke:#020002;}.cls-14{fill:#231b18;}.cls-15{fill:#dd1d4b;}.cls-16{fill:#605e5d;}</style></defs><title>rosa_glad</title><g id="Overskrift"><path class="cls-1" d="M232.82,663.58c-.55,9.36,1.08,10.72-.83,12.76-4.42,4.7-19.19,3.91-22.34-3-1.79-3.94.22-9.82,4.14-11.64s8.47,1.27,9.93-.38c2.05-2.32-6.24-9.18-3.75-12.93,1.45-2.19,5.76-2.1,6.23-2.08a9.77,9.77,0,0,1,6.08,2.45C235,651.52,233.32,654.88,232.82,663.58Z"/><path class="cls-1" d="M282,664c.55,9.36-1.08,10.72.83,12.76,4.42,4.7,19.19,3.91,22.33-3,1.79-3.94-.22-9.82-4.13-11.64s-8.47,1.27-9.93-.38c-2.05-2.32,6.24-9.18,3.75-12.93-1.45-2.19-5.76-2.1-6.23-2.08a9.77,9.77,0,0,0-6.08,2.45C279.77,651.9,281.44,655.26,282,664Z"/><path class="cls-2" d="M354.79,530.81c3.82,13.4,24.84,87.19-8,113.5-11.23,9-19.54,5.05-87,5-61.47,0-68.87,3.21-80-5-35.36-26.11-18-101.5-15-113.5,9.82-39.73,43-118.68,95-118.5C319.79,412.52,351.14,518,354.79,530.81Z"/><rect class="cls-3" x="212.79" y="50.31" width="89" height="106"/><ellipse class="cls-3" cx="223.29" cy="36.31" rx="19.5" ry="23"/><ellipse class="cls-3" cx="295.29" cy="36.31" rx="19.5" ry="23"/><ellipse class="cls-3" cx="257.29" cy="35.81" rx="28.5" ry="35.5"/><path class="cls-3" d="M224.72,111.94l1.22,43.17"/><path class="cls-3" d="M238.42,135.57c0,13.19.37,22.41.37,17.74"/><path class="cls-3" d="M258.22,155.09l1-39C258.08,125.66,256.49,145.57,258.22,155.09Z"/><path class="cls-3" d="M285.63,115.26v41"/><path class="cls-4" d="M270.92,136.52v17.2c0,.18,0,2.5,0,2.5s0-2.48,0-2.5v-17.2c0-.19,0-2.5,0-2.5s0,2.48,0,2.5Z"/><path class="cls-3" d="M222.75,122.05l1.17,30.76"/><path class="cls-4" d="M222.74,124.46l1.17,30.76c0,.33,0-.41,0-.25,0-.5,0-1,0-1.49,0-1,0-2.06,0-3.08l-1.17-30.76c0-.33,0,.41,0,.25,0,.49,0,1,0,1.49,0,1,0,2.05,0,3.08Z"/><path class="cls-5" d="M380.58,241.84c-19.57-40.63-63.39-79-120.75-79.38q-3.51,0-7,.16c4.22,3.82,6.88,8,6.6,12.12-.47,6.77-8.62,9.61-20.38,12.84,3.39.11,7.33.22,11.92.33,24.68.63,37,.94,42.74.89,16.61-.13,20-.77,27.61.89a72.44,72.44,0,0,1,29.39,14.2c13.91,11.09,35.28,36.94,27.6,56.78-10.1,26.14-66.23,21.1-73.91,20.41C291.92,280,271.7,277.81,265.23,266c-2.94-5.36-.73-8.49-5.79-19.26-.94-2-3.64-7.75-4.9-7.36-2.63.8,3.56,27.3,1.75,27.81-1.12.31-5.08-9.28-8.24-17.62a25.26,25.26,0,0,1-.43,10.26c-.77,2.9-2.63,7.42-4.72,7.36-4.26-.12-5.76-19-8.84-18.94-2.41.07-.54,11.57-7.13,19.52-5.46,6.59-15.12,7.47-34.44,9.24-15.22,1.39-12.84-.85-22.05.82-5.52,1-12.72,2.94-20.17-.61a20.24,20.24,0,0,1-2-1.07c-3.51,17.78-3.7,34.13-3.81,44.22-.22,19.57-.49,43.69,13.39,67.09,11.88,20,28.52,30.09,37.09,36.65a129.83,129.83,0,0,0,64.9,17.35C334,441.46,394.12,379,394.12,302A141.22,141.22,0,0,0,380.58,241.84Z"/><path class="cls-4" d="M148.26,276.15a20.24,20.24,0,0,0,2,1.07c7.45,3.55,14.65,1.6,20.17.61,9.21-1.67,6.83.57,22.05-.82,19.32-1.77,29-2.65,34.44-9.24,6.59-7.95,4.72-19.45,7.13-19.52,3.08-.09,4.58,18.82,8.84,18.94,2.09.06,3.95-4.46,4.72-7.36a25.26,25.26,0,0,0,.43-10.26c3.16,8.34,7.12,17.93,8.24,17.62,1.81-.51-4.38-27-1.75-27.81,1.26-.39,4,5.35,4.9,7.36,5.06,10.77,2.85,13.9,5.79,19.26,6.47,11.81,26.69,14,39.18,15.08,7.68.69,63.81,5.73,73.91-20.41,7.68-19.84-13.69-45.69-27.6-56.78a72.44,72.44,0,0,0-29.39-14.2c-7.56-1.66-11-1-27.61-.89-5.71,0-18.06-.26-42.74-.89-4.59-.11-8.53-.22-11.92-.33-17.48,4.8-42.95,10.49-63.11,31.34C159.9,235.52,152.09,256.7,148.26,276.15Z"/><path class="cls-4" d="M241.58,145.69C200.64,137.52,148.26,155,120,183.76c-10.78,11-17.33,26.86-22.54,41C79.82,272.59,76.2,325.45,76.44,376q.11,18.83,1.06,37.64c.12,2.41,1.16,20.3,7.88,22.1,4.05,1.07,11.77-3.26,11.81-3.28,3.44-.24,8.64-.57,15-.82,56-2.14,85.56,7.13,88.21,0,.81-2.18-1.44-4.48-5.44-7.53-8.57-6.56-25.21-16.62-37.09-36.65-13.88-23.4-13.61-47.52-13.39-67.09.11-10.09.3-26.44,3.81-44.22,3.83-19.45,11.64-40.63,27.69-57.23,11.69-12.09,26.54-20,42.35-25.35,12.22-4.1,30.42-5.1,39.62-14.66,8-8.26,9.93-19.84-.13-27.25-4.12-3-11.35-3.24-14.32-7.43-3.23-4.56-1.42-14.28-1.95-19.53"/><path class="cls-4" d="M360.76,387.18c13.88-23.4,13.61-47.52,13.39-67.09-.11-10.09-.3-26.44-3.81-44.22-3.83-19.46-11.64-40.63-27.69-57.24C322.49,197.79,297,192.1,279.54,187.3c-11.76-3.24-19.91-6.07-20.38-12.85-.28-4.12,2.38-8.29,6.6-12.11,6.74-6.1,17.44-11.33,26.48-14.07,51.12-15.52,102.7,31.77,106.33,35.18,0,0,51.6,48.6,42.53,229.91-.12,2.4-1.15,20.3-7.88,22.09-4.05,1.08-11.77-3.26-11.81-3.27-3.44-.25-8.64-.58-15-.82-56-2.14-85.56,7.13-88.21,0-.81-2.18,1.44-4.48,5.44-7.53C332.24,417.27,348.88,407.2,360.76,387.18Z"/><ellipse class="cls-4" cx="266.92" cy="174.33" rx="33.47" ry="24.95"/><ellipse class="cls-6" cx="192.2" cy="316.81" rx="44.41" ry="45.5"/><ellipse class="cls-6" cx="321.39" cy="316.81" rx="44.41" ry="45.5"/><path class="cls-6" d="M236.61,316.81a21.57,21.57,0,0,1,18.84-15.17c9.46-.6,18.39,5.6,21.53,15.17-3.14-9.57-12.07-15.77-21.53-15.17A21.57,21.57,0,0,0,236.61,316.81Z"/><path d="M327.61,337.2a24.34,24.34,0,0,1-7.76,1.42c-2.13,0-13.07.18-17.42-6.16-4.81-7-1-21.2,7.14-24.61s18-1.5,25.19,4.74a34.12,34.12,0,0,1,8.46,11.5C340.44,328.55,335.56,334.42,327.61,337.2Z"/><ellipse class="cls-7" cx="313.04" cy="325.94" rx="4.76" ry="5.88" transform="translate(-112.95 476.8) rotate(-65.66)"/><ellipse class="cls-7" cx="317.31" cy="313.64" rx="2.37" ry="3" transform="translate(-117.25 212.58) rotate(-31.57)"/><path d="M186.4,336.51a24.34,24.34,0,0,0,7.76,1.42c2.13,0,13.07.19,17.42-6.16,4.81-7,1-21.19-7.15-24.61s-18-1.49-25.18,4.74a34.22,34.22,0,0,0-8.46,11.5C173.57,327.86,178.45,333.74,186.4,336.51Z"/><ellipse class="cls-7" cx="200.97" cy="325.25" rx="5.88" ry="4.76" transform="translate(-116.19 111.75) rotate(-24.34)"/><ellipse class="cls-7" cx="196.7" cy="312.95" rx="3" ry="2.37" transform="translate(-172.92 316.67) rotate(-58.43)"/><ellipse class="cls-8" cx="350.29" cy="368.31" rx="14.5" ry="8"/><ellipse class="cls-8" cx="164.29" cy="370.31" rx="14.5" ry="8"/><path class="cls-9" d="M343.42,330.28c1.85.93,3.34-1.84,4-3.09a25.32,25.32,0,0,0,2.4-5.89,5.23,5.23,0,0,0,0-1.25v-.89a1.46,1.46,0,0,1,0-.36,25.32,25.32,0,0,1-2.4,5.89c-.7,1.25-2.19,4-4,3.09a7.51,7.51,0,0,1,0,1.25v.88a1.48,1.48,0,0,0,0,.37Z"/><path class="cls-9" d="M342.93,336.1a8.37,8.37,0,0,0,7.92-6.28,5.81,5.81,0,0,0,0-1.25c0-.3,0-.59,0-.89a2.2,2.2,0,0,1,0-.36,8.37,8.37,0,0,1-7.92,6.28s0,2.5,0,2.5Z"/><path class="cls-9" d="M161.07,322.88a25.11,25.11,0,0,0,11.39,11.95,7.58,7.58,0,0,1,0-1.25c0-.14.1-1.19,0-1.25a25.11,25.11,0,0,1-11.39-11.95,2.07,2.07,0,0,1,0,.36v.89a3.74,3.74,0,0,0,0,1.25Z"/><path class="cls-9" d="M157.92,326.78A31.11,31.11,0,0,0,175,340.06c-.22-.07.25-2.42,0-2.5a31.11,31.11,0,0,1-17.07-13.28c.13.21,0,1,0,1.25s-.14,1,0,1.25Z"/><path class="cls-9" d="M167.18,331.77s0-5,0-5,0,5,0,5Z"/><path class="cls-9" d="M167.18,331.77s0-5,0-5,0,5,0,5Z"/><path class="cls-9" d="M164.7,330.84s0-5,0-5,0,5,0,5Z"/><path class="cls-9" d="M164.7,330.84s0-5,0-5,0,5,0,5Z"/><path class="cls-10" d="M285.59,132.46q-.29,10.09.14,20.19"/><path class="cls-10" d="M252.56,133.5a77.15,77.15,0,0,0,.47,18.16"/><path class="cls-11" d="M282.79,355.81c2.62,2.25-5.64,44.49-24,44.5s-27.68-42.16-25-44.5c2.06-1.79,10.72,11.68,25,11.5C272.71,367.13,280.84,354.13,282.79,355.81Z"/><ellipse class="cls-12" cx="258.79" cy="387.31" rx="12" ry="9"/><path class="cls-3" d="M340.67,496.4s0-5,0-5,0,5,0,5Z"/><path class="cls-3" d="M420.7,479.81s0-5,0-5,0,5,0,5Z"/><path class="cls-2" d="M338.29,490.81c3.08-8,70,24.67,100,1a46.22,46.22,0,0,0,16-24c.91-4.19.62-10.85,0-24-.74-15.91-1.51-20.44.06-22.93.38-.6,1.35-.48,1.44-.57,4.78-4.75,12.09-4.19,15.5-3.5,1.87,10.52,5.08,33.26.5,53.5-3.61,16-8.08,23.41-18.5,33.5-29.85,28.93-98,5.76-109,2h0S336.8,494.67,338.29,490.81Z"/><path class="cls-2" d="M178.67,490.66c-3.07-8-70,24.68-100,1a46.22,46.22,0,0,1-16-24c-.91-4.18-.62-10.84,0-24,.75-15.91,1.51-20.44-.06-22.92-.38-.61-1.35-.49-1.44-.58-4.78-4.74-12.09-4.18-15.5-3.5-1.87,10.52-5.07,33.26-.5,53.5,3.61,16,8.09,23.41,18.5,33.5,29.86,28.93,98,5.76,109,2h0S180.16,494.52,178.67,490.66Z"/><path class="cls-13" d="M490,335.11c-3.57-1.31-2.81-10.36-1.71-23.6,1.5-18,2.25-27.06,8.32-35.4C502,268.73,512.23,260.79,520,264c8.3,3.45,9.16,17.7,6.48,27.6-1.74,6.39-6.26,12.05-15.23,23.11C499.68,329,493.65,336.43,490,335.11Z"/><line class="cls-13" x1="519.73" y1="263.94" x2="489.58" y2="335.32"/><path class="cls-13" d="M520.11,264.28a61.85,61.85,0,0,1,.06,18.07c-4.07,29-26.39,49.85-30.21,53.32"/><path class="cls-13" d="M519.29,263.94a43.66,43.66,0,0,0-13.74,11.74c-1.94,2.49-5.64,7.73-9.29,18.5a113,113,0,0,0-5.69,41.18"/><path class="cls-13" d="M471.67,392.36c-3.49,7.54-9.62,16.17-12.32,15.33s-1.89-11.11,1.07-19.58c2.69-7.72,6.42-11.73,10.82-17.84,13.15-18.21,18.21-35.41,18.78-35.16S480.58,351,476.7,372.78C475.54,379.26,475.2,384.72,471.67,392.36Z"/><ellipse class="cls-13" cx="465.29" cy="393.32" rx="6.01" ry="1.78" transform="translate(-78.8 667.48) rotate(-66.95)"/><ellipse class="cls-5" cx="462.79" cy="402.81" rx="24.5" ry="15" transform="translate(15.93 823.22) rotate(-84.29)"/><line class="cls-10" x1="26.08" y1="281.93" x2="29.71" y2="299.56"/><path class="cls-13" d="M58.5,392.37c2.56,7.9,3.92,18.4,1.36,19.61s-8.93-6.87-12.5-15.1c-3.26-7.5-3.25-13-4.16-20.45-2.71-22.29-10.67-38.37-10.08-38.57S37,356,48.9,374.57C52.45,380.12,55.91,384.36,58.5,392.37Z"/><path class="cls-14" d="M40.66,321.1c-1.77,9.43-8.24,23.44-15.53,23.32-6.08-.1-10.12-10-16.52-25.67-5.87-14.35-8.8-21.53-5.56-26.89C8.18,283.4,24.68,281.4,33,288.25c4.84,4,6.06,10.28,7.34,16.85A41.2,41.2,0,0,1,40.66,321.1Z"/><ellipse class="cls-5" cx="54.29" cy="410.95" rx="24.5" ry="15" transform="translate(-360.02 424.07) rotate(-84.29)"/><path class="cls-15" d="M223.79,437.31c2.55-.51,10.36,1.15,16,3h0s-19.26,28.1-13,42c7.63,16.94,55.83,18.67,64,3,7-13.5-15.07-41.73-9-46,1.54-1.08,4.45-.32,12-3,2.58-.91,2.54-1.11,3-1,4.79,1.1,2.22,20.13,6,58h0c.51,15.84,2.81,27.56,7,49,7.87,40.2,14.9,48.77,9,56-7.93,9.72-24.39-1.19-64-1-39.89.19-56.42,11.42-64,2-6.07-7.56,2.41-17.45,13-60,5.23-21,8.06-32.1,10-48C216.93,465.55,216.43,438.78,223.79,437.31Z"/><path class="cls-15" d="M306.18,528.57c8-.73,15.4,3,23.29,3.16a30.45,30.45,0,0,0,11.71-2.08c3.51-1.38,6.75-3.37,10.4-4.38a17.11,17.11,0,0,0,0-2.5,23.46,23.46,0,0,1,0-2.5c-3.65,1-6.89,3-10.4,4.38a30.23,30.23,0,0,1-11.71,2.08c-7.89-.18-15.34-3.89-23.29-3.16-.18,0,.12,5,0,5Z"/><path class="cls-15" d="M204.09,533.77l-21.51,0c-5.77,0-12.33.5-17.25-3.1a11.08,11.08,0,0,1,0,2.5c0,.35-.25,2.3,0,2.5,4.92,3.6,11.48,3.09,17.25,3.1l21.51,0s0-5,0-5Z"/><path class="cls-15" d="M202,538.22a22.92,22.92,0,0,0,6.91-.48s0-.84,0-.73v-1.77c0-.18,0-2.5,0-2.5h-1.29s0,5,0,5H209v-5a22.92,22.92,0,0,1-6.91.48s0,2.31,0,2.5,0,2.49,0,2.5Z"/><path class="cls-16" d="M122,237c2.44,1.08,6.82-12.73,23.92-28.51,17.82-16.44,33.15-20,32.16-23.11-1.11-3.5-22.32-4.47-37.63,7C121.19,206.85,118.66,235.51,122,237Z"/></g></svg>
