<svg xmlns="http://www.w3.org/2000/svg" width="370" height="690" viewBox="0 0 370 690"><defs><style>.cls-1{fill:#7c92e5;}.cls-2{fill:#edbe9a;}.cls-3{fill:#24893e;}.cls-4{fill:#eee1ef;}.cls-5{fill:#47413d;}.cls-10,.cls-6{fill:none;}.cls-6{stroke:#3ea838;stroke-miterlimit:10;stroke-width:6px;}.cls-7{fill:#f2f4f2;}.cls-8{fill:#f2a7e0;}.cls-9{fill:#09030a;}.cls-11{fill:#dd437a;}.cls-12{fill:#ba2b76;}.cls-13{fill:#dd1d4b;}.cls-14{fill:#605e5d;}.cls-15{fill:#98eaea;}</style></defs><title>rosa_sur</title><g id="Overskrift"><path class="cls-1" d="M296.59,516.41c14.47,23.22,14.15,48.88,14,54-.5,17.56-5.87,30.33-2,46,4.9,19.8,6,22,6,22,1.94,3.84,4,6.67,3,10-1.29,4.56-7.6,8.22-12,7-5.88-1.63-7.83-11.87-9-20-6-41.68,3.17-67.47-3-92-3.15-12.55-11.65-30.13-37-48-7.37-10.46-8-13.93-7-15C252.93,476.94,281,491.3,296.59,516.41Z"/><ellipse class="cls-2" cx="317.37" cy="665.7" rx="12.43" ry="21.58" transform="translate(-246.17 189.99) rotate(-24.34)"/><path class="cls-1" d="M68.58,516.63c-14.46,23.22-14.15,48.88-14,54,.51,17.56,5.87,30.33,2,46-4.89,19.81-6,22-6,22-1.93,3.84-3.94,6.67-3,10,1.29,4.56,7.6,8.22,12,7,5.89-1.63,7.84-11.87,9-20,6-41.68-3.16-67.47,3-92,3.15-12.55,11.66-30.13,37-48,7.37-10.46,8-13.92,7-15C112.24,477.16,84.23,491.52,68.58,516.63Z"/><ellipse class="cls-2" cx="47.68" cy="661" rx="21.58" ry="12.43" transform="translate(-526.04 329.27) rotate(-55.84)"/><path class="cls-3" d="M156.7,667.24c-.54,9.37,1.09,10.73-.82,12.77-4.42,4.7-19.2,3.9-22.34-3-1.79-3.94.22-9.81,4.14-11.63s8.47,1.27,9.92-.38c2.06-2.32-6.23-9.19-3.75-12.94,1.45-2.19,5.77-2.09,6.24-2.08a9.84,9.84,0,0,1,6.08,2.45C158.89,655.18,157.21,658.55,156.7,667.24Z"/><path class="cls-3" d="M205.84,667.62c.55,9.37-1.09,10.73.83,12.77,4.42,4.7,19.19,3.9,22.33-3,1.79-3.94-.22-9.81-4.14-11.63s-8.46,1.27-9.92-.38c-2.05-2.32,6.23-9.18,3.75-12.94-1.45-2.19-5.76-2.09-6.23-2.07a9.77,9.77,0,0,0-6.09,2.44C203.66,655.56,205.33,658.93,205.84,667.62Z"/><path class="cls-1" d="M278.68,534.48c3.82,13.4,24.84,87.19-8,113.5-11.23,9-19.55,5-87,5-61.47-.05-68.88,3.21-80-5-35.36-26.11-18-101.51-15-113.5,9.82-39.73,43-118.69,95-118.5C243.67,416.19,275,521.65,278.68,534.48Z"/><rect class="cls-4" x="136.68" y="53.98" width="89" height="106"/><ellipse class="cls-4" cx="147.18" cy="39.98" rx="19.5" ry="23"/><ellipse class="cls-4" cx="219.18" cy="39.98" rx="19.5" ry="23"/><ellipse class="cls-4" cx="181.18" cy="39.48" rx="28.5" ry="35.5"/><path class="cls-4" d="M148.6,115.61l1.23,43.17"/><path class="cls-4" d="M162.3,139.24c0,13.19.38,22.4.38,17.74"/><path class="cls-4" d="M182.11,158.75l1-39C182,129.33,180.37,149.23,182.11,158.75Z"/><path class="cls-4" d="M209.52,118.93v41"/><path class="cls-5" d="M194.81,140.19v17.19c0,.19,0,2.5,0,2.5s0-2.47,0-2.5V140.19c0-.19,0-2.5,0-2.5s0,2.47,0,2.5Z"/><path class="cls-4" d="M146.63,125.71l1.17,30.77"/><path class="cls-5" d="M146.63,128.12l1.17,30.77c0,.32,0-.41,0-.25,0-.5,0-1,0-1.5,0-1,0-2,0-3.07l-1.17-30.77c0-.32,0,.41,0,.26,0,.49,0,1,0,1.49,0,1,0,2,0,3.07Z"/><path class="cls-2" d="M304.47,245.51c-19.58-40.63-63.39-79-120.75-79.38-2.35,0-4.68,0-7,.16,4.21,3.82,6.88,8,6.6,12.11-.47,6.78-8.62,9.61-20.39,12.84,3.4.11,7.34.23,11.92.34,24.69.62,37,.93,42.75.89,16.61-.14,20-.77,27.61.89a72.27,72.27,0,0,1,29.38,14.19c13.91,11.1,35.28,36.94,27.61,56.79-10.1,26.13-66.23,21.1-73.91,20.41-12.5-1.12-32.71-3.27-39.19-15.09-2.93-5.35-.73-8.48-5.78-19.26-.94-2-3.64-7.74-4.9-7.36-2.63.81,3.56,27.31,1.74,27.82-1.11.31-5.08-9.28-8.23-17.63a25.43,25.43,0,0,1-.43,10.26c-.77,2.91-2.63,7.42-4.72,7.37-4.26-.12-5.77-19-8.85-18.94-2.4.07-.53,11.57-7.12,19.52-5.46,6.58-15.12,7.47-34.44,9.23-15.23,1.4-12.85-.84-22,.82-5.52,1-12.73,2.95-20.18-.6a21.17,21.17,0,0,1-2-1.07c-3.51,17.78-3.7,34.12-3.81,44.22-.22,19.57-.49,43.69,13.39,67.09,11.87,20,28.52,30.09,37.09,36.65a129.83,129.83,0,0,0,64.9,17.35c74.16,0,134.28-62.46,134.28-139.5A141.37,141.37,0,0,0,304.47,245.51Z"/><path class="cls-5" d="M72.15,279.82a21.17,21.17,0,0,0,2,1.07c7.45,3.55,14.66,1.6,20.18.6,9.2-1.66,6.82.58,22-.82,19.32-1.76,29-2.65,34.44-9.23,6.59-7.95,4.72-19.45,7.12-19.52,3.08-.1,4.59,18.82,8.85,18.94,2.09.05,4-4.46,4.72-7.37a25.43,25.43,0,0,0,.43-10.26c3.15,8.35,7.12,17.94,8.23,17.63,1.82-.51-4.37-27-1.74-27.82,1.26-.38,4,5.36,4.9,7.36,5,10.78,2.85,13.91,5.78,19.26,6.48,11.82,26.69,14,39.19,15.09,7.68.69,63.81,5.72,73.91-20.41,7.67-19.85-13.7-45.69-27.61-56.79a72.27,72.27,0,0,0-29.38-14.19c-7.56-1.66-11-1-27.61-.89-5.72,0-18.06-.27-42.75-.89-4.58-.11-8.52-.23-11.92-.34-17.48,4.81-42.94,10.5-63.1,31.34C83.79,239.19,76,260.36,72.15,279.82Z"/><path class="cls-5" d="M165.46,149.35c-40.94-8.17-93.31,9.34-121.57,38.08-10.78,11-17.32,26.85-22.53,41C3.71,276.25.08,329.12.33,379.66q.09,18.84,1.06,37.65c.12,2.41,1.15,20.3,7.88,22.09,4.05,1.08,11.77-3.26,11.81-3.27,3.44-.25,8.64-.58,15-.82,56-2.14,85.55,7.13,88.21,0,.81-2.18-1.44-4.48-5.44-7.53-8.57-6.56-25.22-16.63-37.09-36.65C67.85,367.73,68.12,343.61,68.34,324c.11-10.1.3-26.44,3.81-44.22,3.83-19.46,11.64-40.63,27.69-57.24,11.68-12.08,26.54-20,42.34-25.34,12.23-4.11,30.43-5.11,39.63-14.66,7.95-8.26,9.93-19.84-.13-27.25-4.12-3-11.36-3.24-14.32-7.43-3.23-4.57-1.42-14.28-2-19.53"/><path class="cls-5" d="M284.65,390.85c13.88-23.4,13.61-47.52,13.39-67.1-.11-10.09-.31-26.43-3.81-44.21-3.84-19.46-11.64-40.64-27.69-57.24-20.16-20.84-45.63-26.54-63.11-31.34-11.77-3.23-19.91-6.06-20.38-12.84-.28-4.13,2.38-8.29,6.6-12.11,6.73-6.11,17.44-11.33,26.48-14.07,51.12-15.52,102.7,31.76,106.32,35.18,0,0,51.6,48.6,42.53,229.91-.12,2.4-1.15,20.3-7.87,22.09-4.05,1.08-11.78-3.26-11.82-3.27-3.43-.25-8.63-.58-15-.82-56-2.14-85.56,7.13-88.21,0-.81-2.19,1.44-4.48,5.43-7.54C256.13,420.94,272.77,410.87,284.65,390.85Z"/><ellipse class="cls-5" cx="190.81" cy="177.99" rx="33.47" ry="24.95"/><ellipse class="cls-6" cx="116.09" cy="320.48" rx="44.41" ry="45.5"/><ellipse class="cls-6" cx="245.27" cy="320.48" rx="44.41" ry="45.5"/><path class="cls-6" d="M160.49,320.48a21.57,21.57,0,0,1,18.84-15.17c9.47-.61,18.4,5.6,21.53,15.17-3.13-9.57-12.06-15.78-21.53-15.17A21.57,21.57,0,0,0,160.49,320.48Z"/><path d="M251.5,340.86a24.85,24.85,0,0,1-7.76,1.43c-2.13,0-13.08.18-17.42-6.17-4.82-7-1-21.19,7.14-24.61s18-1.49,25.19,4.74a34.14,34.14,0,0,1,8.46,11.51C264.33,332.21,259.45,338.09,251.5,340.86Z"/><ellipse class="cls-7" cx="236.92" cy="329.6" rx="4.76" ry="5.88" transform="translate(-161.03 409.61) rotate(-65.66)"/><ellipse class="cls-7" cx="241.2" cy="317.31" rx="2.37" ry="3" transform="matrix(0.85, -0.52, 0.52, 0.85, -130.44, 173.27)"/><path d="M110.28,340.18a24.73,24.73,0,0,0,7.77,1.42c2.13,0,13.07.18,17.42-6.16,4.81-7,1-21.2-7.15-24.61s-18-1.5-25.18,4.74a33.89,33.89,0,0,0-8.46,11.5C97.45,331.52,102.34,337.4,110.28,340.18Z"/><ellipse class="cls-7" cx="124.86" cy="328.92" rx="5.88" ry="4.76" transform="translate(-124.47 80.7) rotate(-24.34)"/><ellipse class="cls-7" cx="120.59" cy="316.62" rx="3" ry="2.37" transform="translate(-212.3 253.57) rotate(-58.43)"/><ellipse class="cls-8" cx="274.18" cy="371.98" rx="14.5" ry="8"/><ellipse class="cls-8" cx="88.18" cy="373.98" rx="14.5" ry="8"/><path class="cls-9" d="M267.31,334c1.85.93,3.33-1.84,4-3.09a26.1,26.1,0,0,0,2.4-5.9,5.79,5.79,0,0,0,0-1.25v-.88a1.16,1.16,0,0,1,0-.37,26.1,26.1,0,0,1-2.4,5.9c-.71,1.25-2.19,4-4,3.09a7.51,7.51,0,0,1,0,1.25v.88a1.48,1.48,0,0,0,0,.37Z"/><path class="cls-9" d="M266.82,339.77a8.37,8.37,0,0,0,7.92-6.29,5.79,5.79,0,0,0,0-1.25v-.88a2.29,2.29,0,0,1,0-.37,8.37,8.37,0,0,1-7.92,6.29s0,2.5,0,2.5Z"/><path class="cls-9" d="M85,326.54a25,25,0,0,0,11.39,11.95,7.51,7.51,0,0,1,0-1.25c0-.13.11-1.19,0-1.25A25,25,0,0,1,85,324a2.16,2.16,0,0,1,0,.37c0,.29,0,.59,0,.88a3.49,3.49,0,0,0,0,1.25Z"/><path class="cls-9" d="M81.81,330.44a31,31,0,0,0,17.07,13.28c-.22-.07.25-2.42,0-2.5a31,31,0,0,1-17.07-13.28c.13.21,0,1,0,1.25s-.15,1,0,1.25Z"/><path class="cls-9" d="M91.06,335.44s0-5,0-5,0,5,0,5Z"/><path class="cls-9" d="M91.06,335.44s0-5,0-5,0,5,0,5Z"/><path class="cls-9" d="M88.58,334.51s0-5,0-5,0,5,0,5Z"/><path class="cls-9" d="M88.58,334.51s0-5,0-5,0,5,0,5Z"/><path class="cls-10" d="M209.47,136.12q-.27,10.09.14,20.2"/><path class="cls-10" d="M176.44,137.17a77.72,77.72,0,0,0,.48,18.16"/><path class="cls-11" d="M162.85,419c-2.64-2.23,5.35-44.52,23.7-44.65s28,42,25.3,44.33c-2,1.8-10.8-11.61-25.08-11.34C172.86,407.59,164.81,420.64,162.85,419Z"/><ellipse class="cls-12" cx="187.59" cy="396.41" rx="12" ry="9"/><path class="cls-4" d="M264.56,500.07s0-5,0-5,0,5,0,5Z"/><path class="cls-4" d="M344.59,483.48s0-5,0-5,0,5,0,5Z"/><path class="cls-13" d="M147.68,441c2.55-.52,10.36,1.15,16,3h0s-19.26,28.1-13,42c7.63,16.93,55.83,18.66,64,3,7-13.5-15.07-41.73-9-46,1.54-1.09,4.44-.33,12-3,2.58-.92,2.54-1.11,3-1,4.79,1.09,2.21,20.12,6,58h0c.51,15.84,2.8,27.55,7,49,7.87,40.19,14.9,48.77,9,56-7.93,9.72-24.39-1.19-64-1-39.9.19-56.43,11.42-64,2-6.07-7.56,2.41-17.45,13-60,5.23-21,8.06-32.11,10-48C140.82,469.22,140.32,442.45,147.68,441Z"/><path class="cls-13" d="M230.07,532.24c8-.74,15.4,3,23.29,3.16a30.46,30.46,0,0,0,11.71-2.09c3.51-1.38,6.74-3.37,10.4-4.37a17.15,17.15,0,0,0,0-2.5,21.1,21.1,0,0,1,0-2.5c-3.66,1-6.9,3-10.4,4.37a30.27,30.27,0,0,1-11.71,2.09c-7.89-.18-15.34-3.9-23.29-3.16-.19,0,.12,5,0,5Z"/><path class="cls-13" d="M128,537.43l-21.5,0c-5.77,0-12.34.51-17.25-3.09a11.08,11.08,0,0,1,0,2.5c0,.34-.26,2.3,0,2.5,4.91,3.6,11.48,3.08,17.25,3.09l21.5,0s0-5,0-5Z"/><path class="cls-13" d="M125.93,541.88a22.29,22.29,0,0,0,6.91-.48s0-.83,0-.73c0-.59,0-1.18,0-1.77,0-.18,0-2.5,0-2.5h-1.29s-.05,5,0,5h1.29v-5a22.29,22.29,0,0,1-6.91.48s0,2.32,0,2.5,0,2.5,0,2.5Z"/><path class="cls-14" d="M45.89,240.66c2.43,1.09,6.82-12.72,23.92-28.51,17.81-16.43,33.14-20,32.16-23.1-1.11-3.51-22.32-4.48-37.63,7C45.07,210.52,42.55,239.17,45.89,240.66Z"/><ellipse class="cls-15" cx="255.09" cy="340.41" rx="7.5" ry="5"/><ellipse class="cls-15" cx="109.09" cy="341.41" rx="7.5" ry="5"/></g></svg>
