<svg xmlns="http://www.w3.org/2000/svg" xmlns:xlink="http://www.w3.org/1999/xlink" width="1920" height="1080" viewBox="0 0 1920 1080"><defs><style>.cls-1{fill:url(#Ikke-navngivet_forløb_29);}.cls-2{fill:#a67c52;}.cls-3{fill:#8c6239;}.cls-4{fill:#966640;}.cls-5{fill:none;}.cls-6{fill:#69a89f;}.cls-7{fill:#aec1bf;}.cls-8{fill:#76b7ac;}</style><radialGradient id="Ikke-navngivet_forløb_29" cx="339.67" cy="277.32" fx="2218.0191408698497" fy="-556.7557563894284" r="2055.21" gradientUnits="userSpaceOnUse"><stop offset="0.15" stop-color="#def8ff"/><stop offset="0.34" stop-color="#bbf0ff" stop-opacity="0.76"/><stop offset="0.66" stop-color="#7fe3ff" stop-opacity="0.36"/><stop offset="0.89" stop-color="#59dbff" stop-opacity="0.1"/><stop offset="1" stop-color="#4ad8ff" stop-opacity="0"/></radialGradient></defs><title>spilskaerm_mellemgrund</title><g id="Overskrift"><rect class="cls-1" x="0.5" y="4.5" width="1919" height="1079"/><path class="cls-2" d="M1919,5V1083H1V5H1919m1-1H0V1084H1920V4Z"/><rect class="cls-3" x="158" y="1037" width="1796" height="46" rx="12"/><path class="cls-4" d="M158,1038,319.1,916l1603.9.85V1038Z"/><circle class="cls-5" cx="1739.41" cy="866.63" r="18.5"/><path class="cls-6" d="M1399,630.64V536.86h48.78l14.74-18,21.55-14.42,20.42-6h292.64l26.09,8.41,15.88,10.82,17,19.24,7.94,15.63,4.54,21.64v19.24l-3.41,18,3.41,6V660.7l-4.54,7.21h-65.79L1796,695.57,1832.31,924l54.45,39.68v46.89l-4.54,4.81H1404.7l-5.68-4.81v-50.5l94.07-14,101-14.91,47.64-6c7.85,1.24,20.49,1.93,27.22-6,4.77-5.63,3.57-12.07,4-32,.13-6.13.61,9.41,2.82-43.78.13-3.13.9-19.87,2.27-40.88,1.16-17.82,2.79-34,4.54-48.09,1.92-12.91,4.14-27,4.54-42.08q.55-21.64,1.13-43.28c-14.6-3.44-67.37-15.14-73.73,0-.75,1.78-.92,4.11,0,7.21v24l-4.53,4.81-65.79,3.6-1.13,38.48h9.07c23.4-.11,31.83-.94,54.44-1.21,16.85-.19,12.64.26,22.69,0,12.81-.33,20.6-1.09,31.76,1.21a83.75,83.75,0,0,1,9.07,2.4q-.57,12.63-1.13,25.25l-1.14,16.83q-1.69,9.62-3.4,19.24-1.77,9.07-3.53,18.14l-6,15q-5,14-10,28l-15,27-10,18-10,11-116.74,17.52a86,86,0,0,1-20.42-12,91.18,91.18,0,0,1-20.42-22.85L1424,865.09q-7.95-20.43-15.88-40.87L1399,783.34q-1.12-15-2.26-30.06l5.67-7.22,59,1.21h62.38q-.57-20.44-1.13-40.88l-62.39,1.2-7.94-4.81c.44-10.74.25-19.39,0-25.25-.68-16.08-2-15.65-1.13-22.84.71-6,2.17-10.89,0-16.84a20.93,20.93,0,0,0-4.54-7.21Z"/><ellipse class="cls-7" cx="1752.78" cy="869.29" rx="46.5" ry="49.3"/><path class="cls-6" d="M1780,873.09c-2,12.86-12.52,26.46-27.22,26.46s-25.24-13.6-27.22-26.46c-3.08-20,14.47-36.46,18.14-34.86,1.19.51,1.17,5.15,1.14,14.42,0,12.13-1.09,17.19,2.27,21.65.55.73,2.67,3.54,5.67,3.6,3.81.08,6.51-4.31,6.8-4.81,1.84-3.07,1.63-8.9,1.14-20.44,0-.58-.13-2.91,0-6,.22-5.35.33-8,1.13-8.41C1764.62,836.89,1783.13,852.61,1780,873.09Z"/><ellipse class="cls-7" cx="1532.52" cy="574.68" rx="12.48" ry="13.23"/><ellipse class="cls-7" cx="1611.36" cy="574.68" rx="12.48" ry="13.23"/><ellipse class="cls-7" cx="1572.06" cy="574.68" rx="12.48" ry="13.23"/><rect class="cls-7" x="1501.17" y="617.18" width="348.22" height="26.45" rx="11"/><ellipse class="cls-7" cx="1752.78" cy="766.08" rx="12.48" ry="13.23"/><path class="cls-8" d="M1762.82,524.66c.4,3.77,35.91-7.74,55.55,12.79,14.19,14.84,11.48,37.38,14,37.1,2.81-.31,8-27.73-6.1-44.31a35.69,35.69,0,0,0-13.61-9.62C1789.16,510.11,1762.48,521.37,1762.82,524.66Z"/><path class="cls-8" d="M1445.89,852.67c2.09-1.44-15.16-19.72-22.14-53.29-4.72-22.67-2.07-39.39-4.34-39.58s-6.4,14.94-5.87,30.59a78.84,78.84,0,0,0,3.76,21.48C1425.24,836.61,1443.78,854.11,1445.89,852.67Z"/></g></svg>
