<svg xmlns="http://www.w3.org/2000/svg" width="1920" height="1080" viewBox="0 0 1920 1080"><defs><style>.cls-1{fill:#69a89f;}.cls-2{fill:#aec1bf;}.cls-3{fill:#76b7ac;}</style></defs><title>spilskaerm_forgrund</title><g id="Overskrift"><path class="cls-1" d="M1392,587.64V493.86h48.78l14.74-18,21.55-14.42,20.42-6h292.64l26.09,8.41,15.88,10.82,17,19.24,7.94,15.63,4.54,21.64v19.24l-3.41,18,3.41,6V617.7l-4.54,7.21h-65.79L1789,652.57,1825.31,881l54.45,39.68v46.89l-4.54,4.81H1397.7l-5.68-4.81v-50.5l94.07-14,101-14.91,47.64-6c7.85,1.24,20.49,1.93,27.22-6,4.77-5.63,3.57-12.07,4-32,.13-6.13.61,9.41,2.82-43.78.13-3.13.9-19.87,2.27-40.88,1.16-17.82,2.79-34,4.54-48.09,1.92-12.91,4.14-27,4.54-42.08q.55-21.64,1.13-43.28c-14.6-3.44-67.37-15.14-73.73,0-.75,1.78-.92,4.11,0,7.21v24l-4.53,4.81-65.79,3.6-1.13,38.48h9.07c23.4-.11,31.83-.94,54.44-1.21,16.85-.19,12.64.26,22.69,0,12.81-.33,20.6-1.09,31.76,1.21a83.75,83.75,0,0,1,9.07,2.4q-.57,12.63-1.13,25.25l-1.14,16.83q-1.69,9.62-3.4,19.24-1.77,9.07-3.53,18.14l-6,15q-5,14-10,28l-15,27-10,18-10,11-116.74,17.52a86,86,0,0,1-20.42-12,91.18,91.18,0,0,1-20.42-22.85L1417,822.09q-7.95-20.43-15.88-40.87L1392,740.34q-1.12-15-2.26-30.06l5.67-7.22,59,1.21h62.38q-.57-20.44-1.13-40.88l-62.39,1.2-7.94-4.81c.44-10.74.25-19.39,0-25.25-.68-16.08-2-15.65-1.13-22.84.71-6,2.17-10.89,0-16.84a20.93,20.93,0,0,0-4.54-7.21Z"/><ellipse class="cls-2" cx="1745.78" cy="826.29" rx="46.5" ry="49.3"/><path class="cls-1" d="M1773,830.09c-2,12.86-12.52,26.46-27.22,26.46s-25.24-13.6-27.22-26.46c-3.08-20,14.47-36.46,18.14-34.86,1.19.51,1.17,5.15,1.14,14.42,0,12.13-1.09,17.19,2.27,21.65.55.73,2.67,3.54,5.67,3.6,3.81.08,6.51-4.31,6.8-4.81,1.84-3.07,1.63-8.9,1.14-20.44,0-.58-.13-2.91,0-6,.22-5.35.33-8,1.13-8.41C1757.62,793.89,1776.13,809.61,1773,830.09Z"/><ellipse class="cls-2" cx="1525.52" cy="531.68" rx="12.48" ry="13.23"/><ellipse class="cls-2" cx="1604.36" cy="531.68" rx="12.48" ry="13.23"/><ellipse class="cls-2" cx="1565.06" cy="531.68" rx="12.48" ry="13.23"/><rect class="cls-2" x="1494.17" y="574.18" width="348.22" height="26.45" rx="11"/><ellipse class="cls-2" cx="1745.78" cy="723.08" rx="12.48" ry="13.23"/><path class="cls-3" d="M1755.82,481.66c.4,3.77,35.91-7.74,55.55,12.79,14.19,14.84,11.48,37.38,14,37.1,2.81-.31,8-27.73-6.1-44.31a35.69,35.69,0,0,0-13.61-9.62C1782.16,467.11,1755.48,478.37,1755.82,481.66Z"/><path class="cls-3" d="M1438.89,809.67c2.09-1.44-15.16-19.72-22.14-53.29-4.72-22.67-2.07-39.39-4.34-39.58s-6.4,14.94-5.87,30.59a78.84,78.84,0,0,0,3.76,21.48C1418.24,793.61,1436.78,811.11,1438.89,809.67Z"/></g></svg>
