<svg xmlns="http://www.w3.org/2000/svg" xmlns:xlink="http://www.w3.org/1999/xlink" width="590" height="370" viewBox="0 0 590 370"><defs><style>.cls-1{isolation:isolate;}.cls-2{opacity:0.75;mix-blend-mode:multiply;}.cls-3{fill:#ff7bac;}.cls-4{fill:none;stroke:#fff;stroke-miterlimit:10;stroke-width:4px;}.cls-5{fill:#f7f5f6;}.cls-6{fill:#f2b6cd;}</style></defs><title>spil_igen</title><g class="cls-1"><g id="Overskrift"><image class="cls-2" width="509" height="137" transform="translate(78.72 230.14)" xlink:href="spil_igen1.png"/><rect class="cls-3" x="88.78" y="240.99" width="474" height="102" rx="51"/><rect class="cls-4" x="88.78" y="240.99" width="474" height="102" rx="51"/><path class="cls-5" d="M264.21,299.8A7.6,7.6,0,0,1,263,304a8.1,8.1,0,0,1-3.53,2.92A13.23,13.23,0,0,1,254,308a12.38,12.38,0,0,1-6.29-1.44,8.42,8.42,0,0,1-2.86-2.77,6.31,6.31,0,0,1-1.1-3.37,2.29,2.29,0,0,1,2.34-2.3,2,2,0,0,1,1.4.53,4.14,4.14,0,0,1,1,1.56,10.62,10.62,0,0,0,1.07,2.06,4.31,4.31,0,0,0,1.6,1.36,5.94,5.94,0,0,0,2.73.54,6.15,6.15,0,0,0,3.77-1.08,3.24,3.24,0,0,0,1.45-2.7,2.84,2.84,0,0,0-.78-2.08,5.11,5.11,0,0,0-2-1.23,33.48,33.48,0,0,0-3.32-.89,24.87,24.87,0,0,1-4.65-1.52,7.57,7.57,0,0,1-3-2.38,6.15,6.15,0,0,1-1.1-3.73,6.43,6.43,0,0,1,1.16-3.78,7.38,7.38,0,0,1,3.36-2.54,13.81,13.81,0,0,1,5.17-.89,12.81,12.81,0,0,1,4.1.59,8.43,8.43,0,0,1,2.88,1.57,6.56,6.56,0,0,1,1.67,2,4.79,4.79,0,0,1,.53,2.09,2.44,2.44,0,0,1-.66,1.68,2.11,2.11,0,0,1-1.65.75,1.89,1.89,0,0,1-1.36-.45,6,6,0,0,1-1-1.47,6.58,6.58,0,0,0-1.69-2.27,4.88,4.88,0,0,0-3.16-.82,5.47,5.47,0,0,0-3.26.89,2.56,2.56,0,0,0-1.24,2.13,2.16,2.16,0,0,0,.42,1.34,3.51,3.51,0,0,0,1.16,1,7.64,7.64,0,0,0,1.49.63c.51.15,1.34.37,2.5.67a39.8,39.8,0,0,1,3.95,1.12,11.84,11.84,0,0,1,3,1.5,6.11,6.11,0,0,1,1.94,2.22A7.19,7.19,0,0,1,264.21,299.8Z"/><path class="cls-5" d="M278.64,297.49h-4.78v7.3a3.42,3.42,0,0,1-.74,2.37,2.4,2.4,0,0,1-1.86.81,2.44,2.44,0,0,1-1.9-.8,3.41,3.41,0,0,1-.72-2.35V285a3.23,3.23,0,0,1,.79-2.46,3.62,3.62,0,0,1,2.51-.74h6.7a17.27,17.27,0,0,1,4.57.46,6.77,6.77,0,0,1,2.74,1.46,6.56,6.56,0,0,1,1.74,2.49,8.82,8.82,0,0,1,.6,3.33,7.34,7.34,0,0,1-2.42,6C284.25,296.82,281.84,297.49,278.64,297.49Zm-1.26-11.81h-3.52v7.88h3.52a10.36,10.36,0,0,0,3.08-.39,3.56,3.56,0,0,0,1.89-1.27,3.78,3.78,0,0,0,.65-2.3,3.9,3.9,0,0,0-1-2.78Q280.88,285.68,277.38,285.68Z"/><path class="cls-5" d="M292.86,304.79v-20.3a3.44,3.44,0,0,1,.72-2.38,2.45,2.45,0,0,1,1.87-.79,2.47,2.47,0,0,1,1.9.78,3.4,3.4,0,0,1,.73,2.39v20.3a3.42,3.42,0,0,1-.73,2.39,2.62,2.62,0,0,1-3.76,0A3.46,3.46,0,0,1,292.86,304.79Z"/><path class="cls-5" d="M309,284.49v18.75h10.59a2.79,2.79,0,0,1,1.94.62,2,2,0,0,1,.68,1.54,2,2,0,0,1-.67,1.54,2.89,2.89,0,0,1-1.95.59H307a2.74,2.74,0,0,1-3.2-3.2V284.49a3.44,3.44,0,0,1,.72-2.38,2.4,2.4,0,0,1,1.87-.79,2.51,2.51,0,0,1,1.91.78A3.45,3.45,0,0,1,309,284.49Z"/><path class="cls-5" d="M334.87,304.79v-20.3a3.39,3.39,0,0,1,.73-2.38,2.42,2.42,0,0,1,1.86-.79,2.51,2.51,0,0,1,1.91.78,3.45,3.45,0,0,1,.73,2.39v20.3a3.47,3.47,0,0,1-.73,2.39,2.48,2.48,0,0,1-1.91.79,2.43,2.43,0,0,1-1.86-.8A3.46,3.46,0,0,1,334.87,304.79Z"/><path class="cls-5" d="M369.47,297.05V302a5.58,5.58,0,0,1-.19,1.58,2.51,2.51,0,0,1-.72,1.06,6.2,6.2,0,0,1-1.32.91,20.81,20.81,0,0,1-4.5,1.85A18.09,18.09,0,0,1,358,308a15.33,15.33,0,0,1-5.42-.91,11.43,11.43,0,0,1-4.17-2.66,11.69,11.69,0,0,1-2.64-4.22,15.61,15.61,0,0,1-.92-5.53,16.41,16.41,0,0,1,.89-5.51,11.34,11.34,0,0,1,2.64-4.23,11.62,11.62,0,0,1,4.24-2.67,16.35,16.35,0,0,1,5.66-.92,13.81,13.81,0,0,1,4.6.7,9.88,9.88,0,0,1,3.25,1.75A7.53,7.53,0,0,1,368,286a4.43,4.43,0,0,1,.64,2.09,2.25,2.25,0,0,1-.73,1.68,2.46,2.46,0,0,1-1.75.69,2.43,2.43,0,0,1-1.95-1,19.92,19.92,0,0,0-1.64-2.28,5.24,5.24,0,0,0-1.8-1.31,6.89,6.89,0,0,0-2.89-.52,8,8,0,0,0-3.23.62,6.72,6.72,0,0,0-2.44,1.81,8.25,8.25,0,0,0-1.55,2.91,13.06,13.06,0,0,0-.53,3.82q0,4.53,2.08,7a7.23,7.23,0,0,0,5.81,2.45,11.69,11.69,0,0,0,3.4-.48,16.59,16.59,0,0,0,3.23-1.35v-4.18h-4.05a4.45,4.45,0,0,1-2.2-.44,1.6,1.6,0,0,1-.75-1.5,1.82,1.82,0,0,1,.63-1.42A2.4,2.4,0,0,1,360,294h5.93a7.48,7.48,0,0,1,1.84.19,2.07,2.07,0,0,1,1.22.86A3.51,3.51,0,0,1,369.47,297.05Z"/><path class="cls-5" d="M391.42,285.79H379.66v6.32h10.83a2.59,2.59,0,0,1,1.79.54,1.83,1.83,0,0,1,.58,1.42,1.88,1.88,0,0,1-.58,1.43,2.49,2.49,0,0,1-1.79.55H379.66v7.33h12.17a2.64,2.64,0,0,1,1.85.57,2,2,0,0,1,.63,1.52,1.92,1.92,0,0,1-.63,1.49,2.64,2.64,0,0,1-1.85.57H377.64a2.74,2.74,0,0,1-3.2-3.2V285a4.26,4.26,0,0,1,.34-1.84,2,2,0,0,1,1-1,4.36,4.36,0,0,1,1.82-.33h13.78a2.74,2.74,0,0,1,1.86.55,2.08,2.08,0,0,1,0,2.92A2.69,2.69,0,0,1,391.42,285.79Z"/><path class="cls-5" d="M405.26,284.45l10,15.19V284.31a3.35,3.35,0,0,1,.65-2.24,2.14,2.14,0,0,1,1.73-.75,2.21,2.21,0,0,1,1.77.75,3.29,3.29,0,0,1,.65,2.24v20.27c0,2.26-.93,3.39-2.81,3.39a3.78,3.78,0,0,1-1.26-.2,3.34,3.34,0,0,1-1.06-.64,6.5,6.5,0,0,1-.91-1c-.28-.39-.57-.8-.85-1.21l-9.79-15V305a3.23,3.23,0,0,1-.68,2.23,2.44,2.44,0,0,1-3.54,0,3.34,3.34,0,0,1-.66-2.23V285.1a5.65,5.65,0,0,1,.28-2,2.9,2.9,0,0,1,1.1-1.29,3.08,3.08,0,0,1,1.67-.5,2.73,2.73,0,0,1,2.09.85,5.9,5.9,0,0,1,.77,1Z"/><path class="cls-6" d="M505.28,261.49c-.48,2,9.73,3,18,12,12,13.12,8.71,31,11,31,2.73.05,12.44-25.13,0-38C524.53,256.4,505.93,258.85,505.28,261.49Z"/></g></g></svg>
