<svg xmlns="http://www.w3.org/2000/svg" xmlns:xlink="http://www.w3.org/1999/xlink" width="590" height="370" viewBox="0 0 590 370"><defs><style>.cls-1{isolation:isolate;}.cls-2{opacity:0.75;mix-blend-mode:multiply;}.cls-3{fill:#ff7bac;}.cls-4{fill:none;stroke:#fff;stroke-miterlimit:10;stroke-width:4px;}.cls-5{fill:#f7f5f6;}.cls-6{fill:#f2b6cd;}</style></defs><title>startknap</title><g class="cls-1"><g id="Overskrift"><image class="cls-2" width="508" height="136" transform="translate(78.82 230.78)" xlink:href="startknap1.png"/><rect class="cls-3" x="88.82" y="240.78" width="474" height="102" rx="51"/><rect class="cls-4" x="88.82" y="240.78" width="474" height="102" rx="51"/><path class="cls-5" d="M217.32,299.58a7.58,7.58,0,0,1-1.2,4.2,8,8,0,0,1-3.52,2.92,13.31,13.31,0,0,1-5.51,1.05,12.38,12.38,0,0,1-6.29-1.44,8.42,8.42,0,0,1-2.86-2.77,6.26,6.26,0,0,1-1.09-3.36,2.27,2.27,0,0,1,2.33-2.31,2,2,0,0,1,1.4.53,4.19,4.19,0,0,1,1,1.57,10,10,0,0,0,1.06,2,4.37,4.37,0,0,0,1.61,1.37,6,6,0,0,0,2.72.53,6.13,6.13,0,0,0,3.77-1.08,3.24,3.24,0,0,0,1.45-2.7,2.85,2.85,0,0,0-.78-2.08,5,5,0,0,0-2-1.22c-.83-.28-1.93-.58-3.31-.9a23.7,23.7,0,0,1-4.65-1.52,7.49,7.49,0,0,1-3-2.37,6.12,6.12,0,0,1-1.1-3.74,6.36,6.36,0,0,1,1.16-3.78,7.3,7.3,0,0,1,3.35-2.54,13.82,13.82,0,0,1,5.17-.88,12.94,12.94,0,0,1,4.11.58,8.83,8.83,0,0,1,2.87,1.57,6.48,6.48,0,0,1,1.67,2.05,4.72,4.72,0,0,1,.53,2.09,2.48,2.48,0,0,1-.66,1.68,2.12,2.12,0,0,1-1.64.74,1.94,1.94,0,0,1-1.37-.44,6.29,6.29,0,0,1-1-1.47,6.83,6.83,0,0,0-1.68-2.28,5,5,0,0,0-3.17-.82,5.49,5.49,0,0,0-3.26.89,2.58,2.58,0,0,0-1.24,2.14,2.15,2.15,0,0,0,.42,1.33,3.51,3.51,0,0,0,1.16,1,7.72,7.72,0,0,0,1.5.63c.5.16,1.33.38,2.49.67a38.93,38.93,0,0,1,3.95,1.13,11.9,11.9,0,0,1,3,1.49,6.24,6.24,0,0,1,1.93,2.22A7.19,7.19,0,0,1,217.32,299.58Z"/><path class="cls-5" d="M238.49,285.85h-5.7v18.72a3.44,3.44,0,0,1-.72,2.4,2.42,2.42,0,0,1-1.86.78,2.45,2.45,0,0,1-1.89-.79,3.39,3.39,0,0,1-.73-2.39V285.85h-5.7a2.87,2.87,0,0,1-2-.59,2,2,0,0,1-.65-1.55,2,2,0,0,1,.67-1.59,3,3,0,0,1,2-.58h16.6a2.91,2.91,0,0,1,2,.6,2,2,0,0,1,.66,1.57,2,2,0,0,1-.67,1.55A3,3,0,0,1,238.49,285.85Z"/><path class="cls-5" d="M258.47,304.4l-1.23-3.24H246.77l-1.23,3.31a11.49,11.49,0,0,1-1.23,2.61,2,2,0,0,1-1.67.67,2.44,2.44,0,0,1-1.74-.72,2.18,2.18,0,0,1-.76-1.63,3.55,3.55,0,0,1,.18-1.09c.11-.38.31-.9.58-1.57L247.49,286c.19-.48.41-1.06.67-1.73a8.71,8.71,0,0,1,.85-1.68,3.32,3.32,0,0,1,1.18-1.08,3.53,3.53,0,0,1,1.8-.41,3.63,3.63,0,0,1,1.82.41,3.42,3.42,0,0,1,1.17,1.06,7.28,7.28,0,0,1,.76,1.4c.21.5.47,1.16.78,2l6.74,16.63a8.6,8.6,0,0,1,.79,2.76,2.29,2.29,0,0,1-.75,1.65,2.48,2.48,0,0,1-1.8.74,2.33,2.33,0,0,1-1.06-.22,2.13,2.13,0,0,1-.74-.59,6.35,6.35,0,0,1-.64-1.16Zm-10.33-7.16h7.7L252,286.61Z"/><path class="cls-5" d="M274.89,296.29h-1.83v8.28a3.45,3.45,0,0,1-.72,2.41,2.7,2.7,0,0,1-3.81,0,3.59,3.59,0,0,1-.69-2.38V284.74a2.75,2.75,0,0,1,3.2-3.2h8.49a25.76,25.76,0,0,1,3,.15,7.75,7.75,0,0,1,2.25.61,6.52,6.52,0,0,1,2.14,1.46,6.35,6.35,0,0,1,1.42,2.21,7.34,7.34,0,0,1,.48,2.66,6.42,6.42,0,0,1-1.62,4.6,9.36,9.36,0,0,1-4.94,2.45,9.43,9.43,0,0,1,2.66,2.18,23.21,23.21,0,0,1,3.8,6,5.8,5.8,0,0,1,.56,1.8,1.81,1.81,0,0,1-.33,1,2.17,2.17,0,0,1-.88.79,2.75,2.75,0,0,1-1.31.29,2.5,2.5,0,0,1-1.47-.41,3.82,3.82,0,0,1-1-1q-.43-.63-1.17-1.86L281,301a19.3,19.3,0,0,0-2-2.92,5.07,5.07,0,0,0-1.81-1.37A6.25,6.25,0,0,0,274.89,296.29Zm3-10.83h-4.82v7.09h4.68a12.87,12.87,0,0,0,3.16-.33,3.65,3.65,0,0,0,2-1.1,3.21,3.21,0,0,0,.68-2.16,3.23,3.23,0,0,0-2.06-3.11A10.78,10.78,0,0,0,277.88,285.46Z"/><path class="cls-5" d="M308.71,285.85H303v18.72a3.44,3.44,0,0,1-.72,2.4,2.64,2.64,0,0,1-3.76,0,3.43,3.43,0,0,1-.73-2.39V285.85h-5.69a2.92,2.92,0,0,1-2-.59,2.19,2.19,0,0,1,0-3.14,3,3,0,0,1,2-.58h16.59a2.94,2.94,0,0,1,2,.6,2,2,0,0,1,.65,1.57,2,2,0,0,1-.66,1.55A3,3,0,0,1,308.71,285.85Z"/><path class="cls-5" d="M343.06,299.58a7.58,7.58,0,0,1-1.2,4.2,8,8,0,0,1-3.53,2.92,13.26,13.26,0,0,1-5.5,1.05,12.38,12.38,0,0,1-6.29-1.44,8.24,8.24,0,0,1-2.86-2.77,6.28,6.28,0,0,1-1.1-3.36,2.29,2.29,0,0,1,2.34-2.31,2,2,0,0,1,1.4.53,4.18,4.18,0,0,1,1,1.57,10.51,10.51,0,0,0,1.07,2,4.33,4.33,0,0,0,1.6,1.37,6.08,6.08,0,0,0,2.73.53,6.15,6.15,0,0,0,3.77-1.08,3.24,3.24,0,0,0,1.45-2.7,2.85,2.85,0,0,0-.78-2.08,5.09,5.09,0,0,0-2-1.22c-.83-.28-1.93-.58-3.32-.9a24.15,24.15,0,0,1-4.65-1.52,7.56,7.56,0,0,1-3-2.37,6.18,6.18,0,0,1-1.1-3.74,6.43,6.43,0,0,1,1.16-3.78,7.38,7.38,0,0,1,3.36-2.54,13.82,13.82,0,0,1,5.17-.88,12.83,12.83,0,0,1,4.1.58,8.78,8.78,0,0,1,2.88,1.57,6.48,6.48,0,0,1,1.67,2.05,4.72,4.72,0,0,1,.53,2.09,2.48,2.48,0,0,1-.66,1.68,2.13,2.13,0,0,1-1.65.74,1.92,1.92,0,0,1-1.36-.44,6,6,0,0,1-1-1.47,6.72,6.72,0,0,0-1.69-2.28,5,5,0,0,0-3.16-.82,5.47,5.47,0,0,0-3.26.89,2.58,2.58,0,0,0-1.24,2.14,2.15,2.15,0,0,0,.42,1.33,3.51,3.51,0,0,0,1.16,1,7.64,7.64,0,0,0,1.49.63c.51.16,1.34.38,2.5.67a39.7,39.7,0,0,1,3.95,1.13,11.83,11.83,0,0,1,3,1.49,6.27,6.27,0,0,1,1.94,2.22A7.19,7.19,0,0,1,343.06,299.58Z"/><path class="cls-5" d="M357.49,297.28h-4.78v7.29A3.44,3.44,0,0,1,352,307a2.61,2.61,0,0,1-3.76,0,3.38,3.38,0,0,1-.72-2.34V284.74a3.26,3.26,0,0,1,.79-2.46,3.62,3.62,0,0,1,2.51-.74h6.7a17.7,17.7,0,0,1,4.57.46,6.77,6.77,0,0,1,2.74,1.46,6.52,6.52,0,0,1,1.74,2.5,8.73,8.73,0,0,1,.6,3.32,7.38,7.38,0,0,1-2.42,6Q362.29,297.28,357.49,297.28Zm-1.26-11.82h-3.52v7.88h3.52a10.4,10.4,0,0,0,3.08-.39,3.55,3.55,0,0,0,1.89-1.26,3.83,3.83,0,0,0,.65-2.31,3.88,3.88,0,0,0-1-2.77C360.1,285.85,358.56,285.46,356.23,285.46Z"/><path class="cls-5" d="M371.71,304.57v-20.3a3.39,3.39,0,0,1,.72-2.37,2.4,2.4,0,0,1,1.87-.79,2.47,2.47,0,0,1,1.9.78,3.36,3.36,0,0,1,.73,2.38v20.3a3.39,3.39,0,0,1-.73,2.39,2.45,2.45,0,0,1-1.9.79,2.39,2.39,0,0,1-1.86-.8A3.44,3.44,0,0,1,371.71,304.57Z"/><path class="cls-5" d="M387.88,284.27V303h10.59a2.79,2.79,0,0,1,1.94.61,2,2,0,0,1,.68,1.55,2,2,0,0,1-.67,1.54,2.89,2.89,0,0,1-1.95.58H385.86a2.73,2.73,0,0,1-3.2-3.2V284.27a3.39,3.39,0,0,1,.72-2.37,2.37,2.37,0,0,1,1.87-.79,2.47,2.47,0,0,1,1.9.78A3.36,3.36,0,0,1,387.88,284.27Z"/><path class="cls-5" d="M409.63,284.27V303h10.58a2.79,2.79,0,0,1,1.94.61,2,2,0,0,1,.68,1.55,2,2,0,0,1-.67,1.54,2.86,2.86,0,0,1-2,.58h-12.6a3.38,3.38,0,0,1-2.46-.75,3.43,3.43,0,0,1-.74-2.45V284.27a3.44,3.44,0,0,1,.71-2.37,2.38,2.38,0,0,1,1.87-.79,2.49,2.49,0,0,1,1.91.78A3.36,3.36,0,0,1,409.63,284.27Z"/><path class="cls-5" d="M443.24,285.57H431.48v6.33h10.83a2.61,2.61,0,0,1,1.78.53,1.84,1.84,0,0,1,.59,1.42,1.87,1.87,0,0,1-.58,1.43,2.53,2.53,0,0,1-1.79.56H431.48v7.33h12.16a2.69,2.69,0,0,1,1.86.57,2,2,0,0,1,.62,1.52,1.92,1.92,0,0,1-.62,1.48,2.69,2.69,0,0,1-1.86.57H429.46a3.38,3.38,0,0,1-2.46-.75,3.43,3.43,0,0,1-.74-2.45V284.74a4.34,4.34,0,0,1,.33-1.83,2,2,0,0,1,1.05-1,4.32,4.32,0,0,1,1.82-.33h13.78a2.66,2.66,0,0,1,1.85.56,1.85,1.85,0,0,1,.61,1.45,1.88,1.88,0,0,1-.61,1.47A2.66,2.66,0,0,1,443.24,285.57Z"/><path class="cls-5" d="M467,285.85h-5.69v18.72a3.44,3.44,0,0,1-.72,2.4,2.42,2.42,0,0,1-1.87.78,2.45,2.45,0,0,1-1.89-.79,3.43,3.43,0,0,1-.73-2.39V285.85h-5.69a2.92,2.92,0,0,1-2-.59,2.19,2.19,0,0,1,0-3.14,3,3,0,0,1,2-.58H467a2.92,2.92,0,0,1,2,.6,2,2,0,0,1,.66,1.57,2,2,0,0,1-.67,1.55A3,3,0,0,1,467,285.85Z"/><path class="cls-6" d="M505.32,261.28c-.49,2,9.72,3,18,12,12,13.11,8.71,31,11,31,2.73,0,12.44-25.14,0-38C524.57,256.19,506,258.64,505.32,261.28Z"/></g></g></svg>
