<svg xmlns="http://www.w3.org/2000/svg" width="190" height="180" viewBox="0 0 190 180"><defs><style>.cls-1{fill:#f4eca2;stroke:#fff;stroke-miterlimit:10;stroke-width:4px;}.cls-2{fill:#f7f2da;}.cls-3{fill:#f9f4cf;}.cls-4{fill:#e5462c;}.cls-5{fill:#f9f9f7;}.cls-6{fill:#f45e4e;}</style></defs><title>svamp</title><g id="Overskrift"><ellipse class="cls-1" cx="95" cy="90" rx="92" ry="84"/><path class="cls-2" d="M38.92,82.45c5.17-1,2.26-16.48,18-29.32C74.7,38.59,99.28,41.42,102,35.13c2.5-5.75-14.8-15.56-35.11-11.21C51.36,27.25,39.16,37.79,33.42,46.78,21.58,65.3,33.07,83.63,38.92,82.45Z"/><path class="cls-3" d="M94.24,145A7.59,7.59,0,0,1,89,142.53a8.66,8.66,0,0,1-2.2-5.83,91.09,91.09,0,0,0,1.66-15.6,90.69,90.69,0,0,0-1.66-19.27A8.94,8.94,0,0,1,89,96a7.13,7.13,0,0,1,5.29-2.43c4.11,0,7.48,3.72,7.48,8.26a74,74,0,0,0-1.66,10.09,77.66,77.66,0,0,0,1.66,24.78c.06.39.58,4-1.66,6.42C98.12,145.26,95.5,145.05,94.24,145Z"/><path class="cls-4" d="M136.65,91.73C140.08,80.66,117.85,54,93.4,55,69.7,56,49.6,82.85,53.49,93.57c2.83,7.81,18.6,7.61,39.91,7.34C115.24,100.63,134,100.4,136.65,91.73Z"/><path class="cls-5" d="M85.09,70.63c-.57,1.91-2.45,5.07-5,4.59-1.9-.37-3.74-2.56-3.33-4.59.32-1.57,2.17-2.13,4.16-2.75,1.31-.41,3.37-1.06,4.16,0C85.67,68.66,85.28,70,85.09,70.63Z"/><path class="cls-5" d="M85.09,92.65a4.75,4.75,0,0,1-1.71,3.71,3.91,3.91,0,0,1-2.45.88,4.39,4.39,0,0,1-4.16-4.59C76.77,90.12,85.09,90.12,85.09,92.65Z"/><path class="cls-5" d="M101.72,57.78c0,.47,2.22.77,3.33.92.45.06,4.87.65,5,0s-2.38-1.84-5-1.84C103.44,56.86,101.71,57.37,101.72,57.78Z"/><path class="cls-5" d="M61.44,82.75c-.12,2.14,1,4.59,2.23,4.75,2.36.28,5.93-7.17,4.42-9.17-.77-1-2.8-.55-3.9,0A5.28,5.28,0,0,0,61.44,82.75Z"/><path class="cls-5" d="M111.7,92.65A3.27,3.27,0,0,0,110,89.9c-.68-.43-1.6-.66-4.16,0-2.75.71-5.82,1.48-5.82,2.75,0,1.52,2.6,2.75,5.82,2.75C108.2,95.4,111.46,94.48,111.7,92.65Z"/><path class="cls-5" d="M125.1,77.58c-.45,1.91-2.27,3.52-3.48,3.1-1.44-.5-2.23-4-.86-5.8.72-1,2.25-1.76,3.39-1S125.36,76.51,125.1,77.58Z"/><path class="cls-5" d="M108.37,74.3c0,1.43-2.36,2.37-3.32,2.75-.61.25-3.92,1.57-5,0a3.33,3.33,0,0,1,0-2.75,4.48,4.48,0,0,1,4.16-2.75C106.1,71.54,108.37,72.81,108.37,74.3Z"/><path class="cls-6" d="M85.9,58.49c-5.29,1.13-8.61,6.89-8.1,7.62.21.29,1-.31,6.65-2.6,1.35-.53,2-.8,2.22-.86,4.74-1.33,8.5,1.49,8.94.64.33-.64-1.54-2.86-3.79-4A9,9,0,0,0,85.9,58.49Z"/><path class="cls-5" d="M136.65,86.23a4,4,0,0,1,0,1.83c-.82,2.57-6.35,3.58-7.63,1.56a3.49,3.49,0,0,1,0-2.75c.87-3,4.19-5.34,6-4.31C136.24,83.28,136.56,85.6,136.65,86.23Z"/></g></svg>
