<svg xmlns="http://www.w3.org/2000/svg" xmlns:xlink="http://www.w3.org/1999/xlink" width="1920" height="1080" viewBox="0 0 1920 1080"><defs><style>.cls-1{fill:url(#Ikke-navngivet_forløb_29);}.cls-2{fill:#a67c52;}.cls-3{fill:#966640;}.cls-4{fill:#8c6239;}.cls-5{fill:#7c92e5;}.cls-6{fill:#edbe9a;}.cls-7{fill:#24893e;}.cls-8{fill:#eee1ef;}.cls-9{fill:#47413d;}.cls-10,.cls-14{fill:none;}.cls-10{stroke:#3ea838;stroke-width:6px;}.cls-10,.cls-26,.cls-27{stroke-miterlimit:10;}.cls-11{fill:#f2f4f2;}.cls-12{fill:#f2a7e0;}.cls-13{fill:#09030a;}.cls-15{fill:#dd437a;}.cls-16{fill:#ba2b76;}.cls-17{fill:#dd1d4b;}.cls-18{fill:#605e5d;}.cls-19{fill:#98eaea;}.cls-20{fill:#cc376d;}.cls-21{fill:#7c471b;}.cls-22{fill:#cae23d;}.cls-23{fill:#efdb9e;}.cls-24{fill:#ddc992;}.cls-25{fill:#d18235;}.cls-26,.cls-27{fill:#ff7bac;stroke:#fff;}.cls-26{stroke-width:3px;}</style><radialGradient id="Ikke-navngivet_forløb_29" cx="339.67" cy="272.32" fx="2218.0191408698497" fy="-561.7557563894284" r="2055.21" gradientUnits="userSpaceOnUse"><stop offset="0.15" stop-color="#def8ff"/><stop offset="0.34" stop-color="#bbf0ff" stop-opacity="0.76"/><stop offset="0.66" stop-color="#7fe3ff" stop-opacity="0.36"/><stop offset="0.89" stop-color="#59dbff" stop-opacity="0.1"/><stop offset="1" stop-color="#4ad8ff" stop-opacity="0"/></radialGradient></defs><title>taberskaerm</title><g id="Overskrift"><rect class="cls-1" x="0.5" y="-0.5" width="1919" height="1079"/><path class="cls-2" d="M1919,0V1078H1V0H1919m1-1H0V1079H1920V-1Z"/><path class="cls-3" d="M586,1038,707.94,916l1214.06.85V1038Z"/><rect class="cls-4" x="582" y="1036" width="1346" height="46" rx="12"/><path class="cls-5" d="M391.05,909.5c14.46,23.22,14.14,48.88,14,54-.51,17.56-5.88,30.33-2,46,4.89,19.8,6,22,6,22,1.93,3.84,3.94,6.67,3,10-1.3,4.56-7.61,8.22-12,7-5.89-1.63-7.84-11.87-9-20-6-41.68,3.16-67.47-3-92-3.16-12.55-11.66-30.13-37-48-7.37-10.46-8-13.93-7-15C347.38,870,375.4,884.39,391.05,909.5Z"/><ellipse class="cls-6" cx="411.82" cy="1058.79" rx="12.43" ry="21.58" transform="translate(-399.8 263.86) rotate(-24.34)"/><path class="cls-5" d="M163,909.72c-14.46,23.22-14.14,48.88-14,54,.51,17.56,5.88,30.33,2,46-4.89,19.81-6,22-6,22-1.93,3.84-3.94,6.67-3,10,1.29,4.56,7.61,8.22,12,7,5.89-1.63,7.84-11.87,9-20,6-41.68-3.16-67.47,3-92,3.16-12.55,11.66-30.13,37-48,7.37-10.46,8-13.92,7-15C206.7,870.25,178.68,884.61,163,909.72Z"/><ellipse class="cls-6" cx="142.13" cy="1054.09" rx="21.58" ry="12.43" transform="translate(-809.89 579.78) rotate(-55.84)"/><path class="cls-7" d="M251.16,1060.33c-.55,9.37,1.08,10.73-.83,12.76-4.42,4.71-19.19,3.91-22.34-3-1.79-3.94.22-9.81,4.14-11.64s8.47,1.28,9.93-.37c2.05-2.32-6.24-9.19-3.75-12.94,1.45-2.19,5.76-2.09,6.23-2.08a9.77,9.77,0,0,1,6.08,2.45C253.34,1048.27,251.66,1051.63,251.16,1060.33Z"/><path class="cls-7" d="M300.29,1060.71c.55,9.37-1.08,10.73.83,12.77,4.42,4.7,19.19,3.9,22.33-3,1.79-3.94-.22-9.81-4.13-11.63s-8.47,1.27-9.93-.38c-2.05-2.32,6.24-9.19,3.75-12.94-1.45-2.19-5.76-2.09-6.23-2.08a9.84,9.84,0,0,0-6.08,2.45C298.11,1048.65,299.78,1052,300.29,1060.71Z"/><path class="cls-5" d="M373.13,927.57c3.82,13.4,24.84,87.19-8,113.5-11.23,9-19.54,5-87,5-61.47-.06-68.87,3.21-80-5-35.36-26.11-18-101.51-15-113.5,9.82-39.73,43-118.69,95-118.5C338.13,809.27,369.48,914.74,373.13,927.57Z"/><rect class="cls-8" x="231.13" y="447.07" width="89" height="106"/><path class="cls-8" d="M241.63,410.07c10.77,0,19.5,10.29,19.5,23s-8.73,23-19.5,23-19.5-10.3-19.5-23,8.73-23,19.5-23"/><path class="cls-8" d="M313.63,410.07c10.77,0,19.5,10.29,19.5,23s-8.73,23-19.5,23-19.5-10.3-19.5-23,8.73-23,19.5-23"/><path class="cls-8" d="M275.63,397.07c15.74,0,28.5,15.89,28.5,35.5s-12.76,35.5-28.5,35.5-28.5-15.9-28.5-35.5,12.76-35.5,28.5-35.5"/><path class="cls-8" d="M243.06,508.7l1.22,43.16"/><path class="cls-8" d="M256.76,532.33c0,13.19.37,22.4.37,17.74"/><path class="cls-8" d="M276.56,551.84l1-39C276.42,522.42,274.83,542.32,276.56,551.84Z"/><path class="cls-9" d="M289.26,533.28v17.19c0,.19,0,2.5,0,2.5s0-2.47,0-2.5V533.28c0-.19,0-2.5,0-2.5s0,2.47,0,2.5Z"/><path class="cls-8" d="M241.09,518.8l1.17,30.77"/><path class="cls-9" d="M241.08,521.21,242.25,552c0,.32,0-.41,0-.25,0-.5,0-1,0-1.5,0-1,0-2.05,0-3.07l-1.17-30.77c0-.32,0,.41,0,.25,0,.5,0,1,0,1.5,0,1,0,2.05,0,3.07Z"/><path class="cls-6" d="M398.92,638.6c-19.57-40.63-63.39-79-120.75-79.38-2.34,0-4.67,0-7,.16,4.22,3.82,6.88,8,6.6,12.11-.47,6.78-8.62,9.61-20.38,12.84,3.39.11,7.33.22,11.92.34,24.68.62,37,.93,42.74.89,16.61-.14,20.05-.77,27.61.88a72.44,72.44,0,0,1,29.39,14.2c13.91,11.1,35.28,36.94,27.6,56.79-10.1,26.13-66.23,21.1-73.91,20.41-12.49-1.12-32.71-3.27-39.18-15.09-2.94-5.35-.73-8.48-5.79-19.26-.94-2-3.64-7.74-4.9-7.36-2.63.81,3.56,27.31,1.75,27.82-1.12.31-5.08-9.28-8.24-17.63a25.26,25.26,0,0,1-.43,10.26c-.77,2.9-2.63,7.42-4.72,7.37-4.26-.12-5.76-19-8.84-18.94-2.41.07-.54,11.57-7.13,19.52-5.46,6.58-15.12,7.47-34.44,9.23-15.22,1.4-12.84-.84-22.05.82-5.52,1-12.72,2.95-20.17-.6a20.24,20.24,0,0,1-2-1.07c-3.51,17.78-3.7,34.12-3.81,44.22-.22,19.57-.49,43.69,13.39,67.09,11.88,20,28.52,30.09,37.09,36.64a129.73,129.73,0,0,0,64.9,17.36c74.17,0,134.29-62.46,134.29-139.5A141.18,141.18,0,0,0,398.92,638.6Z"/><path class="cls-9" d="M166.6,672.91a20.24,20.24,0,0,0,2,1.07c7.45,3.55,14.65,1.6,20.17.6,9.21-1.66,6.83.58,22.05-.82,19.32-1.76,29-2.65,34.44-9.23,6.59-7.95,4.72-19.45,7.13-19.52,3.08-.1,4.58,18.82,8.84,18.94,2.09,0,3.95-4.47,4.72-7.37a25.26,25.26,0,0,0,.43-10.26c3.16,8.35,7.12,17.94,8.24,17.63,1.81-.51-4.38-27-1.75-27.82,1.26-.38,4,5.36,4.9,7.36,5.06,10.78,2.85,13.91,5.79,19.26,6.47,11.82,26.69,14,39.18,15.09,7.68.69,63.81,5.72,73.91-20.41,7.68-19.85-13.69-45.69-27.6-56.79a72.44,72.44,0,0,0-29.39-14.2c-7.56-1.65-11-1-27.61-.88-5.71,0-18.06-.27-42.74-.89-4.59-.12-8.53-.23-11.92-.34-17.48,4.81-42.95,10.5-63.11,31.34C178.24,632.28,170.43,653.45,166.6,672.91Z"/><path class="cls-9" d="M259.92,542.44c-40.94-8.17-93.32,9.34-121.57,38.08-10.78,11-17.33,26.85-22.54,41-17.65,47.85-21.27,100.72-21,151.26q.1,18.84,1.06,37.65c.12,2.4,1.16,20.3,7.88,22.09,4,1.08,11.77-3.26,11.81-3.27,3.44-.25,8.64-.58,15-.82,56-2.14,85.56,7.13,88.21,0,.81-2.18-1.44-4.48-5.44-7.54-8.57-6.55-25.21-16.62-37.09-36.64-13.88-23.4-13.61-47.52-13.39-67.09.11-10.1.3-26.44,3.81-44.22,3.83-19.46,11.64-40.63,27.69-57.24,11.69-12.08,26.54-20,42.35-25.34,12.22-4.11,30.42-5.11,39.62-14.66,8-8.26,9.93-19.85-.13-27.25-4.12-3-11.35-3.25-14.32-7.43-3.23-4.57-1.42-14.28-1.95-19.54"/><path class="cls-9" d="M379.1,783.93c13.88-23.39,13.61-47.51,13.39-67.09-.11-10.09-.3-26.43-3.81-44.21C384.85,653.17,377,632,361,615.39c-20.16-20.84-45.63-26.54-63.11-31.34C286.12,580.82,278,578,277.5,571.21c-.28-4.13,2.38-8.29,6.6-12.11,6.74-6.11,17.44-11.33,26.48-14.07,51.12-15.52,102.7,31.76,106.33,35.18,0,0,51.6,48.6,42.53,229.91-.12,2.4-1.15,20.3-7.88,22.09-4.05,1.08-11.77-3.26-11.81-3.28-3.44-.24-8.64-.57-15-.81-56-2.14-85.56,7.12-88.21,0-.81-2.19,1.44-4.48,5.44-7.54C350.58,814,367.22,804,379.1,783.93Z"/><ellipse class="cls-9" cx="285.26" cy="571.08" rx="33.47" ry="24.95"/><ellipse class="cls-10" cx="210.54" cy="713.57" rx="44.41" ry="45.5"/><ellipse class="cls-10" cx="339.73" cy="713.57" rx="44.41" ry="45.5"/><path class="cls-10" d="M255,713.57a21.57,21.57,0,0,1,18.84-15.17c9.46-.61,18.39,5.6,21.53,15.17-3.14-9.57-12.07-15.78-21.53-15.17A21.57,21.57,0,0,0,255,713.57Z"/><path d="M346,734a24.76,24.76,0,0,1-7.76,1.43c-2.13,0-13.07.18-17.42-6.17-4.81-7-1-21.19,7.15-24.61s18-1.49,25.18,4.74a34.22,34.22,0,0,1,8.46,11.5C358.78,725.3,353.9,731.18,346,734Z"/><ellipse class="cls-11" cx="331.38" cy="722.69" rx="4.76" ry="5.88" transform="translate(-463.66 726.74) rotate(-65.66)"/><ellipse class="cls-11" cx="335.65" cy="710.4" rx="2.37" ry="3" transform="translate(-322.28 280.92) rotate(-31.57)"/><path d="M204.74,733.26a24.76,24.76,0,0,0,7.76,1.43c2.13,0,13.07.18,17.42-6.17,4.81-7,1-21.19-7.14-24.61s-18-1.49-25.19,4.74a34.14,34.14,0,0,0-8.46,11.51C191.91,724.61,196.79,730.49,204.74,733.26Z"/><ellipse class="cls-11" cx="219.31" cy="722" rx="5.88" ry="4.76" transform="matrix(0.91, -0.41, 0.41, 0.91, -278.1, 154.58)"/><ellipse class="cls-11" cx="215.04" cy="709.71" rx="3" ry="2.37" transform="translate(-502.2 521.3) rotate(-58.43)"/><ellipse class="cls-12" cx="368.63" cy="765.07" rx="14.5" ry="8"/><ellipse class="cls-12" cx="182.63" cy="767.07" rx="14.5" ry="8"/><path class="cls-13" d="M361.76,727c1.85.94,3.34-1.83,4-3.08a25.21,25.21,0,0,0,2.4-5.9,5.22,5.22,0,0,0,0-1.25v-.88a1.54,1.54,0,0,1,0-.37,25.21,25.21,0,0,1-2.4,5.9c-.7,1.25-2.19,4-4,3.08a7.51,7.51,0,0,1,0,1.25v.89a1.39,1.39,0,0,0,0,.36Z"/><path class="cls-13" d="M361.27,732.85a8.35,8.35,0,0,0,7.92-6.28,5.78,5.78,0,0,0,0-1.25c0-.29,0-.59,0-.88a2.29,2.29,0,0,1,0-.37,8.35,8.35,0,0,1-7.92,6.28s0,2.5,0,2.5Z"/><path class="cls-13" d="M179.41,719.63a25,25,0,0,0,11.39,12,7.59,7.59,0,0,1,0-1.25c0-.14.1-1.19,0-1.25a25,25,0,0,1-11.39-12,2.19,2.19,0,0,1,0,.37v.88a3.74,3.74,0,0,0,0,1.25Z"/><path class="cls-13" d="M176.26,723.53a31,31,0,0,0,17.07,13.28c-.22-.07.25-2.42,0-2.5A31,31,0,0,1,176.26,721c.13.21,0,1,0,1.25s-.14,1,0,1.25Z"/><path class="cls-13" d="M185.52,728.53s0-5,0-5,0,5,0,5Z"/><path class="cls-13" d="M185.52,728.53s0-5,0-5,0,5,0,5Z"/><path class="cls-13" d="M183,727.6s0-5,0-5,0,5,0,5Z"/><path class="cls-13" d="M183,727.6s0-5,0-5,0,5,0,5Z"/><path class="cls-14" d="M303.93,529.21q-.29,10.1.14,20.19"/><path class="cls-14" d="M270.9,530.26a77.18,77.18,0,0,0,.47,18.16"/><path class="cls-15" d="M257.3,812.06c-2.63-2.23,5.35-44.53,23.7-44.66s28,42,25.3,44.34c-2.05,1.8-10.8-11.62-25.08-11.34C267.31,800.68,259.27,813.73,257.3,812.06Z"/><ellipse class="cls-16" cx="282.05" cy="789.5" rx="12" ry="9"/><path class="cls-8" d="M359,893.16s0-5,0-5,0,5,0,5Z"/><path class="cls-8" d="M439,876.57s0-5,0-5,0,5,0,5Z"/><path class="cls-17" d="M242.13,834.07c2.55-.52,10.36,1.15,16,3h0s-19.26,28.1-13,42c7.63,16.93,55.83,18.66,64,3,7-13.5-15.07-41.73-9-46,1.54-1.09,4.45-.33,12-3,2.58-.92,2.54-1.11,3-1,4.79,1.09,2.22,20.12,6,58h0c.51,15.84,2.81,27.55,7,49,7.87,40.19,14.9,48.77,9,56-7.93,9.72-24.39-1.2-64-1-39.89.19-56.42,11.42-64,2-6.07-7.56,2.41-17.45,13-60,5.23-21,8.06-32.11,10-48C235.27,862.31,234.77,835.54,242.13,834.07Z"/><path class="cls-17" d="M324.52,925.33c8-.74,15.4,3,23.29,3.15a30.26,30.26,0,0,0,11.71-2.08C363,925,366.27,923,369.92,922a17.15,17.15,0,0,0,0-2.5,23.47,23.47,0,0,1,0-2.5c-3.65,1-6.89,3-10.4,4.37a30,30,0,0,1-11.71,2.08c-7.89-.17-15.34-3.89-23.29-3.15-.18,0,.12,5,0,5Z"/><path class="cls-17" d="M222.43,930.52l-21.51,0c-5.77,0-12.33.51-17.25-3.09a11.08,11.08,0,0,1,0,2.5c0,.34-.25,2.29,0,2.5,4.92,3.6,11.48,3.08,17.25,3.09l21.51,0s0-5,0-5Z"/><path class="cls-17" d="M220.38,935a22.29,22.29,0,0,0,6.91-.48s0-.84,0-.73V932c0-.18,0-2.5,0-2.5H226s-.05,5,0,5h1.29v-5a22.29,22.29,0,0,1-6.91.48s0,2.32,0,2.5,0,2.5,0,2.5Z"/><path class="cls-18" d="M140.34,633.75c2.44,1.09,6.82-12.72,23.93-28.51,17.81-16.43,33.14-20,32.15-23.1-1.11-3.51-22.32-4.48-37.63,7C139.53,603.61,137,632.26,140.34,633.75Z"/><ellipse class="cls-19" cx="349.55" cy="733.5" rx="7.5" ry="5"/><ellipse class="cls-19" cx="203.55" cy="734.5" rx="7.5" ry="5"/><path class="cls-20" d="M1373.33,965.14c0,28.18-130,51-290.33,51-18,0-31.57-.23-37.43-.42-112.61-3.54-252.69-27.68-252.91-50.6-.22-23.87,151.28-51,290.34-51C1243.35,914.12,1373.33,937,1373.33,965.14Z"/><path class="cls-21" d="M930.77,782c.9-1.51,1.79-3,2.68-4.54"/><path class="cls-22" d="M1311.7,942.92c-27.68,13.8-112.19,52.17-233.06,51.16-118.56-1-200.6-39.26-228.2-53.43L846.78,732.8l-1.2-68.42c42.54,14.4,125.49,37.63,234.68,37.52,108.29-.12,190.59-23.15,233.06-37.52Z"/><ellipse class="cls-23" cx="1079.45" cy="664.95" rx="233.87" ry="36.95"/><path class="cls-24" d="M845.58,665.52c-4.63,1-1.37,14.51,0,31.83,1.35,17.07,1.46,29.68,1.62,47.75.17,19-.66,23.8,0,43.2.61,18,1,29.43,3.24,29.56,3.23.19,9.73-23.35,12.94-45.47,4.75-32.71,1.37-41.21,2.92-57.87.25-2.69.76-7.59,3.56-8.07,3.89-.68,12.55,7.16,14.56,15.91,2.58,11.18-7.79,15.8-6.47,29.56.78,8.09,5.28,16.06,8.09,15.92,2.46-.12,3.68-6.41,4.86-12.51a50.14,50.14,0,0,0,0-20.46c-.82-3.71-1.07-2.8-1.62-5.69-1.77-9.33,2.13-12.13,3.24-25,.47-5.53,0-7.43,1.61-8,4.09-1.29,9,11.22,22.66,14.78,17.83,4.66,34.73-9.93,45.32-4.54,5.07,2.58,5.66,8.19,6.47,15.91A38.73,38.73,0,0,1,967,738.28c-6.93,21.34,3.76,69.27,11.33,69.35,4.21,0,9.39-14.64,9.71-27.29.29-10.84-3.15-14.69-4.85-34.1-1.19-13.55,0-16.76,1.62-19.33,5.21-8.44,18.83-17.28,30.75-15.92,17.63,2,16.64,24.71,34,27.29,16.92,2.52,30.27-20.48,46.93-17,8.06,1.65,12.56,8.48,13,9.09,3.71,5.82,0,9.29,3.24,18.19,1,2.66,3.66,10,8.09,10.23,3.86.18,8.79-5.08,9.71-10.23,1.16-6.5-4.64-9.68-1.62-14.78,1.19-2,4-4.81,6.48-4.55,7.16.77,3.26,27.27,11.32,28.43,3.73.53,9.08-4.48,11.33-9.1,4.53-9.26-4.64-14.35-1.61-22.74,2.83-7.87,15.1-15,25.89-14.78,18.64.41,29.16,22.76,30.75,26.15,9.37,19.91-1.33,30.15-3.24,56.85-2,28.23,6.83,60.63,17.81,61.39,9.2.64,24.49-20.66,25.89-42.07,1.43-21.78-12.67-26.41-14.56-58-.67-11.15.38-22.24,6.47-34.1,4.18-8.14,14.88-24.75,24.28-23.88,12.42,1.15,13,31.91,21,31.83,4.12,0,9-8.27,8.09-15.91-1-8.69-8.73-10.19-9.71-17.06-.92-6.46,2.52-14.58,9.48-16.14a15.59,15.59,0,0,1,9.94,1.36c4,2.17,4.09,5.78,4.86,5.69,1-.12-.55-5.68,0-13.64.25-3.72.86-6.67,0-6.83-.67-.11-1.53,1.53-3.24,3.42-2.76,3-5.89,4.75-9.71,6.82a70,70,0,0,1-14.57,5.68c-3,.86-2.17.48-14.56,3.41-6.09,1.44-6.88,1.68-9.71,2.28-5.2,1.09-9.24,1.71-13,2.27-11.41,1.71-17.11,2.56-24.28,3.41-25.13,3-35,2.37-68,5.68-6.74.68-7.18.79-11.33,1.14-18,1.52-31.4.62-40.47,1.14-14.43.82-27.42.54-53.4,0,0,0-33.09-.7-69.6-3.41-1.18-.09-18.87-1.47-37.22-3.41-4.58-.49-9.1-1.06-9.71-1.14-9.83-1.25-17.42-2.52-22.66-3.41-1.64-.28-3.81-.65-6.48-1.14-4.76-.87-7.86-1.44-11.33-2.27-3.1-.75-4.88-1.32-8.09-2.27-9.15-2.74-13.51-3.48-16.18-4.55C853.49,673.72,849.45,664.69,845.58,665.52Z"/><ellipse class="cls-25" cx="910.32" cy="807.63" rx="8.09" ry="5.68"/><ellipse class="cls-25" cx="1012.28" cy="884.94" rx="6.47" ry="11.37"/><ellipse class="cls-25" cx="1117.48" cy="837.19" rx="11.33" ry="7.96"/><ellipse class="cls-25" cx="1298.75" cy="789.44" rx="3.24" ry="5.68"/><ellipse class="cls-25" cx="930.55" cy="817.29" rx="5.66" ry="3.98"/><ellipse class="cls-25" cx="1085.11" cy="767.84" rx="4.86" ry="3.41"/><ellipse class="cls-25" cx="1106.15" cy="775.8" rx="6.47" ry="4.55"/><ellipse class="cls-25" cx="1123.15" cy="851.4" rx="5.66" ry="3.98"/><path class="cls-26" d="M496.4,269.93h22.68a60.74,60.74,0,0,1,15.17,1.64,27.85,27.85,0,0,1,11.49,6.15q13.41,11.49,13.42,34.92a68.32,68.32,0,0,1-1.35,14.12,41.94,41.94,0,0,1-4.16,11.52,36.11,36.11,0,0,1-7.21,9.17,29.65,29.65,0,0,1-7.56,5,33.81,33.81,0,0,1-8.82,2.63,66.67,66.67,0,0,1-10.63.77H496.75q-4.74,0-7.14-1.44a6.66,6.66,0,0,1-3.14-4,25.68,25.68,0,0,1-.73-6.77v-63q0-5.62,2.52-8.14T496.4,269.93Zm6.74,13.77V342h13.18q4.33,0,6.8-.24a20.76,20.76,0,0,0,5.1-1.17,13.67,13.67,0,0,0,4.57-2.64q8.73-7.38,8.73-25.43,0-12.7-3.84-19t-9.46-8.06a46.79,46.79,0,0,0-13.6-1.72Z"/><path class="cls-26" d="M631.05,283.34h-39.2v21.1H628c2.65,0,4.63.59,5.94,1.79a6.06,6.06,0,0,1,2,4.71,6.31,6.31,0,0,1-1.94,4.78q-1.93,1.84-6,1.84h-36.1V342H632.4q4.1,0,6.18,1.9a6.53,6.53,0,0,1,2.08,5.07,6.39,6.39,0,0,1-2.08,4.95q-2.08,1.9-6.18,1.91H585.11q-5.68,0-8.17-2.52t-2.49-8.15V280.59a14.5,14.5,0,0,1,1.11-6.12,6.92,6.92,0,0,1,3.49-3.46,14.68,14.68,0,0,1,6.06-1.08h45.94q4.16,0,6.18,1.84a6.23,6.23,0,0,1,2,4.84,6.29,6.29,0,0,1-2,4.89Q635.2,283.35,631.05,283.34Z"/><path class="cls-26" d="M719.76,330a25.29,25.29,0,0,1-4,14A26.64,26.64,0,0,1,704,353.77a43.93,43.93,0,0,1-18.34,3.52q-12.72,0-21-4.8a28.11,28.11,0,0,1-9.52-9.23A21,21,0,0,1,651.5,332a7.62,7.62,0,0,1,7.79-7.68,6.62,6.62,0,0,1,4.66,1.76,13.84,13.84,0,0,1,3.25,5.21,35.16,35.16,0,0,0,3.55,6.86,14.37,14.37,0,0,0,5.36,4.54,19.81,19.81,0,0,0,9.08,1.79q7.74,0,12.57-3.61a10.84,10.84,0,0,0,4.83-9A9.52,9.52,0,0,0,700,325a16.87,16.87,0,0,0-6.74-4.08q-4.14-1.39-11-3a81.55,81.55,0,0,1-15.49-5.07,25,25,0,0,1-9.91-7.91,20.54,20.54,0,0,1-3.66-12.45,21.37,21.37,0,0,1,3.87-12.6,24.4,24.4,0,0,1,11.19-8.47,45.86,45.86,0,0,1,17.23-3,42.87,42.87,0,0,1,13.68,2,29,29,0,0,1,9.58,5.22,21.67,21.67,0,0,1,5.56,6.83,15.6,15.6,0,0,1,1.76,7,8.21,8.21,0,0,1-2.2,5.59,7,7,0,0,1-5.47,2.49,6.3,6.3,0,0,1-4.55-1.49,20.44,20.44,0,0,1-3.36-4.89,22.32,22.32,0,0,0-5.63-7.59q-3.28-2.73-10.55-2.72-6.74,0-10.87,2.95t-4.13,7.12a7.22,7.22,0,0,0,1.41,4.46,11.9,11.9,0,0,0,3.87,3.22,26.09,26.09,0,0,0,5,2.11q2.52.76,8.32,2.23A128.85,128.85,0,0,1,701,306.67a39.37,39.37,0,0,1,10,5,20.46,20.46,0,0,1,6.45,7.41A23.77,23.77,0,0,1,719.76,330Z"/><path class="cls-26" d="M747.24,279.89l19.46,57.6,19.51-58q1.51-4.58,2.28-6.36A8.46,8.46,0,0,1,791,269.9a7.38,7.38,0,0,1,4.81-1.44,8,8,0,0,1,4.13,1.12,8.21,8.21,0,0,1,3,2.95,7.33,7.33,0,0,1,1.08,3.72,12.52,12.52,0,0,1-.35,2.79,27.39,27.39,0,0,1-.88,2.93c-.35,1-.7,1.94-1.06,3l-20.8,56.13q-1.11,3.22-2.22,6.12a26.39,26.39,0,0,1-2.58,5.1,11.45,11.45,0,0,1-3.9,3.6,11.66,11.66,0,0,1-5.94,1.41,11.87,11.87,0,0,1-5.95-1.38,11.33,11.33,0,0,1-3.93-3.63,27.35,27.35,0,0,1-2.61-5.13q-1.11-2.86-2.22-6.09L731.13,285.4c-.35-1-.71-2-1.09-3a22.72,22.72,0,0,1-.93-3.17,13.1,13.1,0,0,1-.38-2.87,7.65,7.65,0,0,1,2.4-5.45,8.07,8.07,0,0,1,6-2.46q4.46,0,6.3,2.73A36.08,36.08,0,0,1,747.24,279.89Z"/><path class="cls-26" d="M861.85,335.2H831l-5.27,12.13a25.46,25.46,0,0,1-4.42,7.32,8.27,8.27,0,0,1-6.36,2.64,7.82,7.82,0,0,1-5.51-1.9,5.93,5.93,0,0,1-2-4.49,14.86,14.86,0,0,1,.26-3,10.27,10.27,0,0,1,.59-2c.21-.49.69-1.51,1.43-3.07l28.77-62.52c1.64-3.48,2.81-5.78,3.49-6.92a6.69,6.69,0,0,1,3-2.61,14.35,14.35,0,0,1,5.8-.9h62.17q4.09,0,6.12,1.84a6.23,6.23,0,0,1,2,4.84,5.83,5.83,0,0,1-2,4.65c-1.33,1.16-3.38,1.73-6.15,1.73H878.61v21.45h31.23q4,0,5.95,1.81a6.26,6.26,0,0,1,2,4.81,6.06,6.06,0,0,1-2,4.75q-2,1.76-5.92,1.75H878.61v25.2h35.45q4.22,0,6.3,1.64a5.64,5.64,0,0,1,2.08,4.69,6.22,6.22,0,0,1-2.08,4.92q-2.08,1.82-6.3,1.82H872.28q-5.44,0-7.94-2.44c-1.66-1.62-2.49-4.2-2.49-7.76Zm-25.19-13.83h25.19v-39h-8.32Z"/><path class="cls-26" d="M959.29,319.09H953.2v27.59c0,3.64-.8,6.31-2.4,8a8.18,8.18,0,0,1-6.27,2.58,8,8,0,0,1-6.45-2.7q-2.28-2.68-2.28-7.91V280.59q0-5.62,2.52-8.14t8.14-2.52h28.3a86.53,86.53,0,0,1,10,.49,25.36,25.36,0,0,1,7.5,2,21.71,21.71,0,0,1,11.87,12.21,24.67,24.67,0,0,1,1.61,8.88q0,9.61-5.42,15.35T983.9,317a31.75,31.75,0,0,1,8.85,7.26,74.19,74.19,0,0,1,7.53,10.23,75.16,75.16,0,0,1,5.16,9.78q1.84,4.37,1.84,6a6.18,6.18,0,0,1-1.08,3.37,7.63,7.63,0,0,1-3,2.63,9.28,9.28,0,0,1-4.34,1,8.44,8.44,0,0,1-4.92-1.38,13.21,13.21,0,0,1-3.43-3.48c-1-1.41-2.25-3.48-3.89-6.21l-7-11.61a63.25,63.25,0,0,0-6.71-9.72,16.49,16.49,0,0,0-6-4.57A20.66,20.66,0,0,0,959.29,319.09Zm10-36.1h-16v23.62h15.59a43.25,43.25,0,0,0,10.54-1.09,12.39,12.39,0,0,0,6.54-3.69,10.63,10.63,0,0,0,2.25-7.18,10.86,10.86,0,0,0-6.85-10.37Q978.21,283,969.25,283Z"/><path class="cls-26" d="M1045.6,319.09h-6.09v27.59c0,3.64-.8,6.31-2.4,8a8.2,8.2,0,0,1-6.27,2.58,8,8,0,0,1-6.45-2.7q-2.28-2.68-2.28-7.91V280.59q0-5.62,2.51-8.14t8.15-2.52h28.3a86.53,86.53,0,0,1,10,.49,25.36,25.36,0,0,1,7.5,2,21.71,21.71,0,0,1,11.87,12.21,24.67,24.67,0,0,1,1.61,8.88q0,9.61-5.42,15.35T1070.21,317a31.75,31.75,0,0,1,8.85,7.26,74.19,74.19,0,0,1,7.53,10.23,76.23,76.23,0,0,1,5.15,9.78q1.85,4.37,1.85,6a6.18,6.18,0,0,1-1.08,3.37,7.63,7.63,0,0,1-3,2.63,9.28,9.28,0,0,1-4.34,1,8.44,8.44,0,0,1-4.92-1.38,13.21,13.21,0,0,1-3.43-3.48c-1-1.41-2.25-3.48-3.9-6.21l-7-11.61a64,64,0,0,0-6.71-9.72,16.49,16.49,0,0,0-6-4.57A20.66,20.66,0,0,0,1045.6,319.09Zm10-36.1h-16v23.62h15.58a43.28,43.28,0,0,0,10.55-1.09,12.32,12.32,0,0,0,6.53-3.69,10.58,10.58,0,0,0,2.26-7.18,10.85,10.85,0,0,0-6.86-10.37Q1064.53,283,1055.56,283Z"/><path class="cls-26" d="M1165.13,283.34h-39.2v21.1H1162c2.65,0,4.64.59,5.94,1.79a6.06,6.06,0,0,1,2,4.71,6.31,6.31,0,0,1-1.94,4.78q-1.93,1.84-6,1.84h-36.1V342h40.55c2.73,0,4.8.63,6.18,1.9a6.53,6.53,0,0,1,2.08,5.07,6.39,6.39,0,0,1-2.08,4.95c-1.38,1.27-3.45,1.91-6.18,1.91H1119.2q-5.68,0-8.18-2.52t-2.49-8.15V280.59a14.5,14.5,0,0,1,1.11-6.12,7,7,0,0,1,3.49-3.46,14.69,14.69,0,0,1,6.07-1.08h45.93q4.17,0,6.18,1.84a6.24,6.24,0,0,1,2,4.84,6.3,6.3,0,0,1-2,4.89Q1169.3,283.35,1165.13,283.34Z"/><path class="cls-27" d="M490.89,459h-9.25a4.64,4.64,0,0,1-3.21-1,3.23,3.23,0,0,1-1.1-2.53,3.31,3.31,0,0,1,1.07-2.56,4.62,4.62,0,0,1,3.24-1h9.25a4.62,4.62,0,0,1,3.24,1,3.59,3.59,0,0,1,0,5.09A4.64,4.64,0,0,1,490.89,459Z"/><path class="cls-27" d="M537.27,467.19v-.79a19.85,19.85,0,0,1-3.18,3,11.82,11.82,0,0,1-3.4,1.76,12.74,12.74,0,0,1-4,.6,11.78,11.78,0,0,1-5.32-1.22,12.56,12.56,0,0,1-4.24-3.47,15.9,15.9,0,0,1-2.71-5.3,22.82,22.82,0,0,1-.92-6.59q0-7.5,3.66-11.69a12.18,12.18,0,0,1,9.64-4.19,12.94,12.94,0,0,1,5.83,1.18,16.24,16.24,0,0,1,4.63,3.65V432.32a6,6,0,0,1,1-3.72,3.35,3.35,0,0,1,2.8-1.26,3.49,3.49,0,0,1,2.8,1.16,5.17,5.17,0,0,1,1,3.41v35.28a4.94,4.94,0,0,1-1.05,3.43,3.57,3.57,0,0,1-2.73,1.14,3.5,3.5,0,0,1-2.71-1.19A4.89,4.89,0,0,1,537.27,467.19Zm-15.73-11.75a13.74,13.74,0,0,0,1,5.54,7.71,7.71,0,0,0,2.77,3.44,6.85,6.85,0,0,0,3.84,1.16,7.1,7.1,0,0,0,3.85-1.1,7.55,7.55,0,0,0,2.78-3.37,13.49,13.49,0,0,0,1-5.67,13.12,13.12,0,0,0-1-5.49,8.21,8.21,0,0,0-2.81-3.52,6.73,6.73,0,0,0-3.88-1.22,6.55,6.55,0,0,0-3.93,1.25,8,8,0,0,0-2.68,3.57A14.36,14.36,0,0,0,521.54,455.44Z"/><path class="cls-27" d="M573.63,467.25v-1a17.82,17.82,0,0,1-3,3,11.07,11.07,0,0,1-3.46,1.83,14,14,0,0,1-4.27.6,11,11,0,0,1-5.2-1.2,8.77,8.77,0,0,1-3.56-3.31q-1.5-2.55-1.5-7.33V444a5.16,5.16,0,0,1,1.09-3.59,3.7,3.7,0,0,1,2.87-1.18,3.81,3.81,0,0,1,2.93,1.2,5.09,5.09,0,0,1,1.11,3.57v12.81a19.89,19.89,0,0,0,.47,4.67,5.59,5.59,0,0,0,1.68,3,4.83,4.83,0,0,0,3.3,1.07,6.71,6.71,0,0,0,3.81-1.2,7.05,7.05,0,0,0,2.61-3.14q.68-1.69.67-7.44V444a5.09,5.09,0,0,1,1.11-3.57,3.79,3.79,0,0,1,2.9-1.2,3.68,3.68,0,0,1,2.87,1.18,5.16,5.16,0,0,1,1.09,3.59v23.18a5,5,0,0,1-1,3.43,3.7,3.7,0,0,1-5.39-.05A4.8,4.8,0,0,1,573.63,467.25Z"/><path class="cls-27" d="M603.45,439.94h1.91v-2.4a15.24,15.24,0,0,1,.95-6,6.06,6.06,0,0,1,3.22-3.23,15.74,15.74,0,0,1,6.23-1c4.67,0,7,1.15,7,3.43a2.72,2.72,0,0,1-.73,1.91,2.32,2.32,0,0,1-1.73.79,12.07,12.07,0,0,1-1.61-.18,12.62,12.62,0,0,0-1.94-.17c-1.44,0-2.37.42-2.78,1.27a8.65,8.65,0,0,0-.61,3.65v1.9h2q4.57,0,4.57,2.76c0,1.3-.41,2.13-1.22,2.49a8.67,8.67,0,0,1-3.35.52h-2v21.18a5.22,5.22,0,0,1-1.13,3.62,3.77,3.77,0,0,1-2.92,1.25,3.65,3.65,0,0,1-2.82-1.25,5.17,5.17,0,0,1-1.13-3.62V445.71h-2.2a4.21,4.21,0,0,1-2.75-.8,2.6,2.6,0,0,1-1-2.1Q599.44,439.94,603.45,439.94Z"/><path class="cls-27" d="M628.85,435.52a4.18,4.18,0,0,1-2.85-1,4,4,0,0,1,0-5.7,4.08,4.08,0,0,1,2.82-1.09,4.21,4.21,0,0,1,2.76,1,3.56,3.56,0,0,1,1.2,2.9,3.68,3.68,0,0,1-1.17,2.89A4.07,4.07,0,0,1,628.85,435.52Zm4,8.26v23.11a5.17,5.17,0,0,1-1.14,3.64,3.8,3.8,0,0,1-2.9,1.23,3.6,3.6,0,0,1-2.86-1.26,5.34,5.34,0,0,1-1.1-3.61V444a5.14,5.14,0,0,1,1.1-3.57,3.69,3.69,0,0,1,2.86-1.2,3.85,3.85,0,0,1,2.9,1.2A4.65,4.65,0,0,1,632.81,443.78Z"/><path class="cls-27" d="M661,468.1l-7.06-11.61-4.33,4.11V467a4.88,4.88,0,0,1-1.22,3.56,3.8,3.8,0,0,1-2.8,1.25,3.61,3.61,0,0,1-2.9-1.23,5.47,5.47,0,0,1-1-3.64v-34.1a6.78,6.78,0,0,1,1-4.05,3.43,3.43,0,0,1,2.93-1.4,3.66,3.66,0,0,1,2.93,1.26,5.58,5.58,0,0,1,1.09,3.72v19.4l9-9.43a21.08,21.08,0,0,1,2.55-2.41,3.81,3.81,0,0,1,4.63.31,3.18,3.18,0,0,1,1,2.39q0,1.76-3.25,4.69l-4.25,3.89,8.21,12.89c.6,1,1,1.69,1.3,2.19a3.07,3.07,0,0,1,.4,1.42,4.19,4.19,0,0,1-1,3,3.62,3.62,0,0,1-2.74,1.1,3.09,3.09,0,0,1-2.26-.79A19.52,19.52,0,0,1,661,468.1Z"/><path class="cls-27" d="M694.51,435.52a4.19,4.19,0,0,1-2.86-1,4,4,0,0,1,0-5.7,4.09,4.09,0,0,1,2.83-1.09,4.21,4.21,0,0,1,2.75,1,3.56,3.56,0,0,1,1.2,2.9,3.68,3.68,0,0,1-1.17,2.89A4.07,4.07,0,0,1,694.51,435.52Zm4,8.26v23.11a5.17,5.17,0,0,1-1.14,3.64,3.79,3.79,0,0,1-2.9,1.23,3.63,3.63,0,0,1-2.86-1.26,5.34,5.34,0,0,1-1.1-3.61V444a5.14,5.14,0,0,1,1.1-3.57,3.71,3.71,0,0,1,2.86-1.2,3.83,3.83,0,0,1,2.9,1.2A4.65,4.65,0,0,1,698.46,443.78Z"/><path class="cls-27" d="M726.65,468.1l-7.06-11.61-4.34,4.11V467a4.88,4.88,0,0,1-1.22,3.56,3.8,3.8,0,0,1-2.79,1.25,3.61,3.61,0,0,1-2.9-1.23,5.42,5.42,0,0,1-1.06-3.64v-34.1a6.71,6.71,0,0,1,1-4.05,3.42,3.42,0,0,1,2.93-1.4,3.68,3.68,0,0,1,2.93,1.26,5.58,5.58,0,0,1,1.08,3.72v19.4l9-9.43a22.71,22.71,0,0,1,2.55-2.41,3.52,3.52,0,0,1,2.14-.64,3.47,3.47,0,0,1,2.49.95,3.16,3.16,0,0,1,1,2.39c0,1.17-1.09,2.73-3.25,4.69l-4.25,3.89,8.2,12.89c.61,1,1,1.69,1.3,2.19a3,3,0,0,1,.4,1.42,4.19,4.19,0,0,1-1,3,3.61,3.61,0,0,1-2.74,1.1,3,3,0,0,1-2.25-.79A18.82,18.82,0,0,1,726.65,468.1Z"/><path class="cls-27" d="M761,468.1,754,456.49l-4.34,4.11V467a4.88,4.88,0,0,1-1.21,3.56,3.8,3.8,0,0,1-2.8,1.25,3.61,3.61,0,0,1-2.9-1.23,5.47,5.47,0,0,1-1.05-3.64v-34.1a6.78,6.78,0,0,1,1-4.05,3.42,3.42,0,0,1,2.93-1.4,3.66,3.66,0,0,1,2.93,1.26,5.58,5.58,0,0,1,1.08,3.72v19.4l9-9.43a21.08,21.08,0,0,1,2.55-2.41,3.81,3.81,0,0,1,4.63.31,3.18,3.18,0,0,1,1,2.39q0,1.76-3.25,4.69l-4.25,3.89,8.21,12.89c.6,1,1,1.69,1.3,2.19a3,3,0,0,1,.39,1.42,4.15,4.15,0,0,1-1,3,3.59,3.59,0,0,1-2.73,1.1,3.09,3.09,0,0,1-2.26-.79A19.52,19.52,0,0,1,761,468.1Z"/><path class="cls-27" d="M795.55,457.46H779.91a10.56,10.56,0,0,0,1.1,4.81,7.37,7.37,0,0,0,6.75,4.19,9.72,9.72,0,0,0,2.62-.34,8.67,8.67,0,0,0,2.3-1.06,18.21,18.21,0,0,0,2.05-1.53c.63-.55,1.44-1.29,2.43-2.23a2.64,2.64,0,0,1,1.76-.53,2.88,2.88,0,0,1,2,.68,2.4,2.4,0,0,1,.77,1.9,5.24,5.24,0,0,1-.85,2.53,10,10,0,0,1-2.57,2.79,14.7,14.7,0,0,1-4.3,2.21,18.75,18.75,0,0,1-6,.88q-7.69,0-12-4.4t-4.28-11.92a20,20,0,0,1,1.06-6.58,14.48,14.48,0,0,1,3.08-5.2,13.25,13.25,0,0,1,5-3.32,17.89,17.89,0,0,1,6.56-1.16,15.56,15.56,0,0,1,8,2,13,13,0,0,1,5,5.11,13.37,13.37,0,0,1,1.67,6.39c0,2-.57,3.31-1.72,3.91A10.91,10.91,0,0,1,795.55,457.46Zm-15.64-4.54h14.5c-.2-2.73-.93-4.78-2.21-6.14a6.62,6.62,0,0,0-5.06-2,6.38,6.38,0,0,0-4.9,2.06A10.25,10.25,0,0,0,779.91,452.92Z"/><path class="cls-27" d="M849.63,461.3a9.26,9.26,0,0,1-6.37,9.24,21.33,21.33,0,0,1-7.66,1.22,18.65,18.65,0,0,1-7.38-1.32,10.71,10.71,0,0,1-4.54-3.3,6.61,6.61,0,0,1-1.47-4,3.07,3.07,0,0,1,.94-2.25,3.21,3.21,0,0,1,2.37-.94,2.79,2.79,0,0,1,1.94.62,6.7,6.7,0,0,1,1.29,1.72,7.65,7.65,0,0,0,7.61,4.25,6.69,6.69,0,0,0,3.94-1.07,3,3,0,0,0,1.54-2.44,3.33,3.33,0,0,0-1.59-3.08,20.15,20.15,0,0,0-5.26-1.85,43.39,43.39,0,0,1-6.73-2.15,11,11,0,0,1-4.14-3,6.8,6.8,0,0,1-1.56-4.54,8,8,0,0,1,1.44-4.54,9.87,9.87,0,0,1,4.23-3.42,16.25,16.25,0,0,1,6.76-1.27,22.17,22.17,0,0,1,5.58.64,14.07,14.07,0,0,1,4.13,1.73,8.57,8.57,0,0,1,2.52,2.4,4.75,4.75,0,0,1,.86,2.58,3,3,0,0,1-.92,2.26,3.69,3.69,0,0,1-2.62.88,3.23,3.23,0,0,1-2.1-.71,14.48,14.48,0,0,1-2-2.11,7.15,7.15,0,0,0-2.13-1.87,6.74,6.74,0,0,0-3.34-.7,6.52,6.52,0,0,0-3.61.92,2.69,2.69,0,0,0-1.43,2.3,2.47,2.47,0,0,0,1,2.06,8.74,8.74,0,0,0,2.84,1.34q1.8.53,4.93,1.29a25.94,25.94,0,0,1,6.07,2.16,10.1,10.1,0,0,1,3.58,3A6.57,6.57,0,0,1,849.63,461.3Z"/><path class="cls-27" d="M876.62,467.25a25.1,25.1,0,0,1-5.61,3.38,15.76,15.76,0,0,1-6.08,1.13,11.57,11.57,0,0,1-5.41-1.22,9,9,0,0,1-3.59-3.29,8.57,8.57,0,0,1-1.26-4.52,8.1,8.1,0,0,1,2.08-5.59,10.44,10.44,0,0,1,5.72-3.11c.5-.11,1.76-.38,3.78-.79s3.73-.78,5.17-1.13,3-.75,4.67-1.24a8.35,8.35,0,0,0-1.27-4.64c-.76-1-2.31-1.48-4.68-1.48a9.66,9.66,0,0,0-4.58.85,7.34,7.34,0,0,0-2.64,2.54c-.73,1.14-1.25,1.88-1.55,2.25a2.55,2.55,0,0,1-2,.54,3.4,3.4,0,0,1-2.33-.87,2.81,2.81,0,0,1-1-2.21,6.81,6.81,0,0,1,1.49-4.1,10.7,10.7,0,0,1,4.66-3.28,21,21,0,0,1,7.88-1.29,22.29,22.29,0,0,1,8.29,1.24,7.73,7.73,0,0,1,4.27,3.95,17.17,17.17,0,0,1,1.24,7.14c0,1.88,0,3.47,0,4.78s0,2.76,0,4.36a16,16,0,0,0,.75,4.71,14.77,14.77,0,0,1,.75,3.15,3,3,0,0,1-1.16,2.24,3.9,3.9,0,0,1-2.62,1,3.54,3.54,0,0,1-2.43-1.16A17.32,17.32,0,0,1,876.62,467.25Zm-.53-11.58A40.4,40.4,0,0,1,871,457q-3.36.72-4.65,1a6.3,6.3,0,0,0-2.46,1.32,3.38,3.38,0,0,0-1.17,2.74,4.05,4.05,0,0,0,1.38,3.09,5.09,5.09,0,0,0,3.6,1.27,9.31,9.31,0,0,0,4.38-1,6.91,6.91,0,0,0,3-2.68q1.08-1.82,1.08-6Z"/><path class="cls-27" d="M918.66,456.08v10.64a5.48,5.48,0,0,1-1.14,3.78,3.9,3.9,0,0,1-3,1.26,3.79,3.79,0,0,1-3-1.26,5.52,5.52,0,0,1-1.12-3.78V454a39.8,39.8,0,0,0-.21-4.68,5.12,5.12,0,0,0-1.11-2.74,3.56,3.56,0,0,0-2.87-1.07q-3.93,0-5.17,2.69a19,19,0,0,0-1.25,7.74v10.81a5.52,5.52,0,0,1-1.13,3.76,3.77,3.77,0,0,1-3,1.28,3.83,3.83,0,0,1-3-1.28,5.38,5.38,0,0,1-1.16-3.76V443.84a5,5,0,0,1,1-3.43,3.47,3.47,0,0,1,2.74-1.17,3.71,3.71,0,0,1,2.74,1.1,4.1,4.1,0,0,1,1.1,3v.76a13.83,13.83,0,0,1,4.45-3.66,11.75,11.75,0,0,1,5.27-1.17,10.59,10.59,0,0,1,5.19,1.2,9.44,9.44,0,0,1,3.57,3.63,13.87,13.87,0,0,1,4.34-3.65,11.06,11.06,0,0,1,5.12-1.18,11.68,11.68,0,0,1,5.66,1.29,8.2,8.2,0,0,1,3.54,3.69,16.76,16.76,0,0,1,1,6.82v15.62a5.48,5.48,0,0,1-1.14,3.78,3.9,3.9,0,0,1-3,1.26,3.83,3.83,0,0,1-3-1.28,5.38,5.38,0,0,1-1.16-3.76V453.27a32,32,0,0,0-.22-4.13,4.77,4.77,0,0,0-1.19-2.61,3.78,3.78,0,0,0-2.93-1,5.34,5.34,0,0,0-3,.94,6.22,6.22,0,0,0-2.21,2.52C919,450.28,918.66,452.67,918.66,456.08Z"/><path class="cls-27" d="M945.14,466.89V432.21a5.43,5.43,0,0,1,1.07-3.64,3.64,3.64,0,0,1,2.89-1.23,3.79,3.79,0,0,1,2.93,1.22,5.26,5.26,0,0,1,1.11,3.65v34.68a5.2,5.2,0,0,1-1.13,3.65,3.79,3.79,0,0,1-2.91,1.22,3.62,3.62,0,0,1-2.86-1.26A5.34,5.34,0,0,1,945.14,466.89Z"/><path class="cls-27" d="M983.73,457.46H968.08a10.69,10.69,0,0,0,1.1,4.81,7.37,7.37,0,0,0,6.75,4.19,9.85,9.85,0,0,0,2.63-.34,8.81,8.81,0,0,0,2.3-1.06,19.17,19.17,0,0,0,2-1.53c.62-.55,1.43-1.29,2.43-2.23a2.62,2.62,0,0,1,1.76-.53,2.89,2.89,0,0,1,2,.68,2.39,2.39,0,0,1,.76,1.9,5.14,5.14,0,0,1-.85,2.53,10.13,10.13,0,0,1-2.56,2.79,14.76,14.76,0,0,1-4.31,2.21,18.73,18.73,0,0,1-6,.88q-7.71,0-12-4.4t-4.28-11.92a20,20,0,0,1,1.05-6.58,14.63,14.63,0,0,1,3.08-5.2,13.41,13.41,0,0,1,5-3.32,17.89,17.89,0,0,1,6.56-1.16,15.51,15.51,0,0,1,8,2,13,13,0,0,1,5,5.11,13.49,13.49,0,0,1,1.67,6.39c0,2-.58,3.31-1.73,3.91A10.83,10.83,0,0,1,983.73,457.46Zm-15.65-4.54h14.5a9.71,9.71,0,0,0-2.21-6.14,6.6,6.6,0,0,0-5-2,6.4,6.4,0,0,0-4.91,2.06A10.31,10.31,0,0,0,968.08,452.92Z"/><path class="cls-27" d="M997.5,439.94h.88v-4.8c0-1.29,0-2.3.1-3a4.56,4.56,0,0,1,.57-1.89,3.59,3.59,0,0,1,1.35-1.33,3.82,3.82,0,0,1,2-.51,3.94,3.94,0,0,1,2.75,1.14,3.34,3.34,0,0,1,1,1.86,16.55,16.55,0,0,1,.22,3.12v5.45h2.93a3.75,3.75,0,0,1,2.6.81,2.65,2.65,0,0,1,.89,2.06,2.32,2.32,0,0,1-1.28,2.26,8.22,8.22,0,0,1-3.64.64h-1.5v14.71a25.89,25.89,0,0,0,.13,2.89,3,3,0,0,0,.71,1.64,2.4,2.4,0,0,0,1.86.63,10.42,10.42,0,0,0,1.9-.25,9.61,9.61,0,0,1,1.88-.25,2.44,2.44,0,0,1,1.74.77,2.61,2.61,0,0,1,.78,1.92,3.22,3.22,0,0,1-2.11,3,14.18,14.18,0,0,1-6.07,1,10.46,10.46,0,0,1-5.68-1.26A5.83,5.83,0,0,1,999,467a23.68,23.68,0,0,1-.6-5.95V445.71h-1.06a3.81,3.81,0,0,1-2.64-.82,2.68,2.68,0,0,1-.9-2.08,2.55,2.55,0,0,1,1-2.06A4.16,4.16,0,0,1,997.5,439.94Z"/><path class="cls-27" d="M1040.56,443.66v1a14,14,0,0,1,4.62-4.09,12.27,12.27,0,0,1,5.75-1.3,11.49,11.49,0,0,1,5.66,1.38,8.69,8.69,0,0,1,3.72,3.89,9.08,9.08,0,0,1,1,3.17,31.88,31.88,0,0,1,.24,4.33v14.88a5.32,5.32,0,0,1-1.1,3.64,3.64,3.64,0,0,1-2.86,1.23,3.7,3.7,0,0,1-2.9-1.26,5.29,5.29,0,0,1-1.11-3.61V453.56a13.38,13.38,0,0,0-1.1-6.05q-1.1-2.08-4.38-2.09a6.52,6.52,0,0,0-3.9,1.27,7.28,7.28,0,0,0-2.57,3.51,25,25,0,0,0-.59,6.68v10a5.2,5.2,0,0,1-1.13,3.65,3.79,3.79,0,0,1-2.91,1.22,3.62,3.62,0,0,1-2.84-1.26,5.24,5.24,0,0,1-1.12-3.61V443.78a5,5,0,0,1,1-3.41,3.41,3.41,0,0,1,2.72-1.13,3.63,3.63,0,0,1,1.91.5,3.59,3.59,0,0,1,1.36,1.49A5.29,5.29,0,0,1,1040.56,443.66Z"/><path class="cls-27" d="M1099.48,455.5a19,19,0,0,1-1.11,6.59,14.7,14.7,0,0,1-3.23,5.19,14.16,14.16,0,0,1-5,3.32,17.83,17.83,0,0,1-6.59,1.16,17.31,17.31,0,0,1-6.53-1.17,14.43,14.43,0,0,1-8.25-8.51,20.27,20.27,0,0,1,0-13.23,14.46,14.46,0,0,1,3.19-5.16,14.18,14.18,0,0,1,5-3.29,19.05,19.05,0,0,1,13.12,0,14.15,14.15,0,0,1,5.07,3.34,14.34,14.34,0,0,1,3.21,5.16A19,19,0,0,1,1099.48,455.5Zm-8,0q0-4.89-2.15-7.62a7,7,0,0,0-5.79-2.72,7.17,7.17,0,0,0-4.13,1.21,7.69,7.69,0,0,0-2.75,3.59,16.29,16.29,0,0,0,0,11,7.93,7.93,0,0,0,2.73,3.59,7.06,7.06,0,0,0,4.17,1.24,7,7,0,0,0,5.79-2.74C1090.73,461.25,1091.45,458.72,1091.45,455.5Z"/><path class="cls-27" d="M1125.7,468.1l-7.06-11.61-4.34,4.11V467a4.88,4.88,0,0,1-1.21,3.56,3.82,3.82,0,0,1-2.8,1.25,3.61,3.61,0,0,1-2.9-1.23,5.47,5.47,0,0,1-1.06-3.64v-34.1a6.78,6.78,0,0,1,1-4.05,3.42,3.42,0,0,1,2.93-1.4,3.66,3.66,0,0,1,2.93,1.26,5.58,5.58,0,0,1,1.08,3.72v19.4l9-9.43a21.08,21.08,0,0,1,2.55-2.41,3.79,3.79,0,0,1,4.62.31,3.16,3.16,0,0,1,1,2.39q0,1.76-3.25,4.69l-4.25,3.89,8.2,12.89c.61,1,1,1.69,1.31,2.19a3,3,0,0,1,.39,1.42,4.15,4.15,0,0,1-1,3,3.59,3.59,0,0,1-2.74,1.1,3.08,3.08,0,0,1-2.25-.79A19.52,19.52,0,0,1,1125.7,468.1Z"/><path class="cls-27" d="M1162.55,443.72v1a15.85,15.85,0,0,1,4.69-4.09,11.47,11.47,0,0,1,5.51-1.3,12.76,12.76,0,0,1,6.8,1.9,13.12,13.12,0,0,1,4.9,5.57,19.31,19.31,0,0,1,1.81,8.67,21.24,21.24,0,0,1-1,6.78,15.41,15.41,0,0,1-2.86,5.19,12.5,12.5,0,0,1-4.29,3.22,12.73,12.73,0,0,1-5.32,1.13,11.14,11.14,0,0,1-5.76-1.38,16.53,16.53,0,0,1-4.44-4v12c0,3.52-1.27,5.27-3.83,5.27-1.51,0-2.5-.45-3-1.36a8.56,8.56,0,0,1-.73-4V443.78a5,5,0,0,1,1-3.41,3.43,3.43,0,0,1,2.73-1.13,3.59,3.59,0,0,1,2.77,1.16A4.73,4.73,0,0,1,1162.55,443.72Zm15.68,11.63a13.69,13.69,0,0,0-1-5.43,7.93,7.93,0,0,0-2.68-3.49,6.41,6.41,0,0,0-3.79-1.22,7.1,7.1,0,0,0-5.58,2.61c-1.52,1.74-2.27,4.3-2.27,7.68,0,3.18.75,5.66,2.25,7.42a7.07,7.07,0,0,0,5.6,2.66,6.43,6.43,0,0,0,3.69-1.16,8,8,0,0,0,2.72-3.47A13.69,13.69,0,0,0,1178.23,455.35Z"/><path class="cls-27" d="M1222.61,455.5a19,19,0,0,1-1.11,6.59,14.68,14.68,0,0,1-3.22,5.19,14.33,14.33,0,0,1-5,3.32,17.83,17.83,0,0,1-6.59,1.16,17.36,17.36,0,0,1-6.54-1.17,14.45,14.45,0,0,1-8.24-8.51,18.73,18.73,0,0,1-1.1-6.58,19.13,19.13,0,0,1,1.11-6.65,14.6,14.6,0,0,1,3.19-5.16,14.18,14.18,0,0,1,5-3.29,19.08,19.08,0,0,1,13.13,0,14.13,14.13,0,0,1,8.27,8.5A18.79,18.79,0,0,1,1222.61,455.5Zm-8,0q0-4.89-2.16-7.62a7,7,0,0,0-5.78-2.72,7.14,7.14,0,0,0-4.13,1.21,7.7,7.7,0,0,0-2.76,3.59,14.7,14.7,0,0,0-1,5.54,14.42,14.42,0,0,0,1,5.48,7.84,7.84,0,0,0,2.72,3.59,7.07,7.07,0,0,0,4.18,1.24,7,7,0,0,0,5.78-2.74C1213.87,461.25,1214.59,458.72,1214.59,455.5Z"/><path class="cls-27" d="M1233,435.52a4.19,4.19,0,0,1-2.86-1,4,4,0,0,1,0-5.7,4.09,4.09,0,0,1,2.83-1.09,4.21,4.21,0,0,1,2.75,1,3.56,3.56,0,0,1,1.2,2.9,3.68,3.68,0,0,1-1.17,2.89A4.07,4.07,0,0,1,1233,435.52Zm4,8.26v23.11a5.17,5.17,0,0,1-1.14,3.64,3.79,3.79,0,0,1-2.9,1.23,3.62,3.62,0,0,1-2.86-1.26,5.34,5.34,0,0,1-1.1-3.61V444a5.14,5.14,0,0,1,1.1-3.57,3.7,3.7,0,0,1,2.86-1.2,3.83,3.83,0,0,1,2.9,1.2A4.65,4.65,0,0,1,1236.91,443.78Z"/><path class="cls-27" d="M1252.44,443.66v1a13.9,13.9,0,0,1,4.61-4.09,12.29,12.29,0,0,1,5.76-1.3,11.45,11.45,0,0,1,5.65,1.38,8.69,8.69,0,0,1,3.72,3.89,9.3,9.3,0,0,1,1,3.17,32.1,32.1,0,0,1,.23,4.33v14.88a5.27,5.27,0,0,1-1.1,3.64,3.64,3.64,0,0,1-2.85,1.23,3.69,3.69,0,0,1-2.9-1.26,5.29,5.29,0,0,1-1.12-3.61V453.56a13.4,13.4,0,0,0-1.09-6.05q-1.11-2.08-4.38-2.09a6.48,6.48,0,0,0-3.9,1.27,7.36,7.36,0,0,0-2.58,3.51,25.11,25.11,0,0,0-.58,6.68v10a5.2,5.2,0,0,1-1.13,3.65,3.81,3.81,0,0,1-2.92,1.22,3.62,3.62,0,0,1-2.84-1.26,5.29,5.29,0,0,1-1.11-3.61V443.78a5,5,0,0,1,1-3.41,3.45,3.45,0,0,1,2.73-1.13,3.6,3.6,0,0,1,1.9.5,3.53,3.53,0,0,1,1.36,1.49A5.16,5.16,0,0,1,1252.44,443.66Z"/><path class="cls-27" d="M1281.85,439.94h.88v-4.8c0-1.29,0-2.3.1-3a4.56,4.56,0,0,1,.57-1.89,3.74,3.74,0,0,1,1.35-1.33,3.85,3.85,0,0,1,2-.51,4,4,0,0,1,2.76,1.14,3.4,3.4,0,0,1,1,1.86,16.55,16.55,0,0,1,.22,3.12v5.45h2.93a3.72,3.72,0,0,1,2.59.81,2.62,2.62,0,0,1,.89,2.06,2.31,2.31,0,0,1-1.27,2.26,8.29,8.29,0,0,1-3.65.64h-1.49v14.71a23.65,23.65,0,0,0,.13,2.89,3,3,0,0,0,.7,1.64,2.4,2.4,0,0,0,1.86.63,10.51,10.51,0,0,0,1.91-.25,9.53,9.53,0,0,1,1.87-.25,2.44,2.44,0,0,1,1.75.77,2.64,2.64,0,0,1,.77,1.92,3.2,3.2,0,0,1-2.11,3,14.1,14.1,0,0,1-6.06,1,10.44,10.44,0,0,1-5.68-1.26,5.84,5.84,0,0,1-2.54-3.49,23.68,23.68,0,0,1-.6-5.95V445.71h-1a3.78,3.78,0,0,1-2.64-.82,2.66,2.66,0,0,1-.91-2.08,2.58,2.58,0,0,1,.95-2.06A4.18,4.18,0,0,1,1281.85,439.94Z"/><path class="cls-27" d="M1308.07,471.82a5,5,0,0,1-3.34-1.19,4.1,4.1,0,0,1-1.4-3.33,4.05,4.05,0,0,1,1.37-3.1,4.68,4.68,0,0,1,3.26-1.26,4.46,4.46,0,0,1,2.54.76,5,5,0,0,1,1.79,2.24,9.13,9.13,0,0,1,.65,3.65,12.28,12.28,0,0,1-1.23,5.43,12.11,12.11,0,0,1-3,4,5.29,5.29,0,0,1-3.21,1.48,2,2,0,0,1-2-2,2.2,2.2,0,0,1,1.2-1.94Q1308.08,474.69,1308.07,471.82Z"/><path class="cls-27" d="M1362.18,461.3a9.26,9.26,0,0,1-6.37,9.24,21.33,21.33,0,0,1-7.66,1.22,18.65,18.65,0,0,1-7.38-1.32,10.71,10.71,0,0,1-4.54-3.3,6.61,6.61,0,0,1-1.47-4,3,3,0,0,1,.94-2.25,3.19,3.19,0,0,1,2.37-.94,2.79,2.79,0,0,1,1.94.62,6.68,6.68,0,0,1,1.28,1.72,7.67,7.67,0,0,0,7.62,4.25,6.69,6.69,0,0,0,3.94-1.07,3,3,0,0,0,1.54-2.44,3.32,3.32,0,0,0-1.6-3.08,19.91,19.91,0,0,0-5.25-1.85,43.39,43.39,0,0,1-6.73-2.15,11,11,0,0,1-4.14-3,6.8,6.8,0,0,1-1.56-4.54,8,8,0,0,1,1.44-4.54,9.87,9.87,0,0,1,4.23-3.42,16.25,16.25,0,0,1,6.76-1.27,22.17,22.17,0,0,1,5.58.64,14.07,14.07,0,0,1,4.13,1.73,8.57,8.57,0,0,1,2.52,2.4,4.75,4.75,0,0,1,.86,2.58,3,3,0,0,1-.92,2.26,3.69,3.69,0,0,1-2.62.88,3.23,3.23,0,0,1-2.1-.71,14.48,14.48,0,0,1-2-2.11,7.15,7.15,0,0,0-2.13-1.87,6.77,6.77,0,0,0-3.34-.7,6.52,6.52,0,0,0-3.61.92,2.67,2.67,0,0,0-1.43,2.3,2.47,2.47,0,0,0,1,2.06,8.64,8.64,0,0,0,2.84,1.34q1.78.53,4.92,1.29a26,26,0,0,1,6.08,2.16,10.1,10.1,0,0,1,3.58,3A6.57,6.57,0,0,1,1362.18,461.3Z"/><path class="cls-27" d="M1389.17,467.25a25.1,25.1,0,0,1-5.61,3.38,15.76,15.76,0,0,1-6.08,1.13,11.54,11.54,0,0,1-5.41-1.22,9,9,0,0,1-3.59-3.29,8.57,8.57,0,0,1-1.26-4.52,8.1,8.1,0,0,1,2.08-5.59A10.44,10.44,0,0,1,1375,454c.5-.11,1.76-.38,3.77-.79s3.74-.78,5.18-1.13,3-.75,4.67-1.24a8.26,8.26,0,0,0-1.28-4.64q-1.12-1.49-4.67-1.48a9.66,9.66,0,0,0-4.58.85,7.34,7.34,0,0,0-2.64,2.54c-.73,1.14-1.25,1.88-1.55,2.25a2.58,2.58,0,0,1-2,.54,3.39,3.39,0,0,1-2.33-.87,2.81,2.81,0,0,1-1-2.21,6.81,6.81,0,0,1,1.49-4.1,10.7,10.7,0,0,1,4.66-3.28,21,21,0,0,1,7.88-1.29,22.29,22.29,0,0,1,8.29,1.24,7.77,7.77,0,0,1,4.27,3.95,17.17,17.17,0,0,1,1.24,7.14c0,1.88,0,3.47,0,4.78s0,2.76,0,4.36a16,16,0,0,0,.75,4.71,14.77,14.77,0,0,1,.75,3.15,3,3,0,0,1-1.16,2.24,3.9,3.9,0,0,1-2.62,1,3.58,3.58,0,0,1-2.44-1.16A16.94,16.94,0,0,1,1389.17,467.25Zm-.53-11.58a40.4,40.4,0,0,1-5.11,1.37q-3.36.72-4.65,1a6.3,6.3,0,0,0-2.46,1.32,3.38,3.38,0,0,0-1.17,2.74,4.05,4.05,0,0,0,1.38,3.09,5.08,5.08,0,0,0,3.6,1.27,9.31,9.31,0,0,0,4.38-1,6.83,6.83,0,0,0,2.94-2.68q1.1-1.82,1.09-6Zm-7.21-30.55a6.07,6.07,0,0,1,0,12.13,5.93,5.93,0,0,1-3-.82,6.24,6.24,0,0,1-2.19-2.2,6.07,6.07,0,0,1,5.24-9.11Zm0,3.07a2.91,2.91,0,0,0-3,3,2.8,2.8,0,0,0,.87,2.1,2.94,2.94,0,0,0,2.12.83,3.11,3.11,0,0,0,1.51-.38,2.73,2.73,0,0,0,1.08-1.05,2.86,2.86,0,0,0,.4-1.5,3.18,3.18,0,0,0-.23-1.18,3,3,0,0,0-.62-1,2.78,2.78,0,0,0-1-.61A3,3,0,0,0,1381.43,428.19Z"/><path class="cls-27" d="M1441.52,467.19v-.79a19.85,19.85,0,0,1-3.18,3,12,12,0,0,1-3.4,1.76,12.76,12.76,0,0,1-4,.6,11.77,11.77,0,0,1-5.31-1.22,12.46,12.46,0,0,1-4.24-3.47,15.9,15.9,0,0,1-2.71-5.3,22.82,22.82,0,0,1-.92-6.59q0-7.5,3.66-11.69a12.17,12.17,0,0,1,9.64-4.19,12.94,12.94,0,0,1,5.83,1.18,16.24,16.24,0,0,1,4.63,3.65V432.32a6,6,0,0,1,1-3.72,3.35,3.35,0,0,1,2.8-1.26,3.49,3.49,0,0,1,2.8,1.16,5.17,5.17,0,0,1,1,3.41v35.28a4.89,4.89,0,0,1-1.06,3.43,3.53,3.53,0,0,1-2.72,1.14,3.5,3.5,0,0,1-2.71-1.19A4.89,4.89,0,0,1,1441.52,467.19Zm-15.73-11.75a13.57,13.57,0,0,0,1,5.54,7.64,7.64,0,0,0,2.77,3.44,6.84,6.84,0,0,0,3.83,1.16,7.14,7.14,0,0,0,3.86-1.1,7.55,7.55,0,0,0,2.78-3.37,13.64,13.64,0,0,0,1-5.67,13.28,13.28,0,0,0-1-5.49,8.21,8.21,0,0,0-2.81-3.52,6.73,6.73,0,0,0-3.88-1.22,6.55,6.55,0,0,0-3.93,1.25,8,8,0,0,0-2.68,3.57A14.16,14.16,0,0,0,1425.79,455.44Z"/><path class="cls-27" d="M1461.15,435.52a4.21,4.21,0,0,1-2.86-1,4,4,0,0,1,0-5.7,4.09,4.09,0,0,1,2.83-1.09,4.21,4.21,0,0,1,2.75,1,3.56,3.56,0,0,1,1.2,2.9,3.68,3.68,0,0,1-1.17,2.89A4.07,4.07,0,0,1,1461.15,435.52Zm3.95,8.26v23.11a5.17,5.17,0,0,1-1.14,3.64,3.79,3.79,0,0,1-2.9,1.23,3.63,3.63,0,0,1-2.86-1.26,5.33,5.33,0,0,1-1.09-3.61V444a5.14,5.14,0,0,1,1.09-3.57,3.71,3.71,0,0,1,2.86-1.2,3.83,3.83,0,0,1,2.9,1.2A4.65,4.65,0,0,1,1465.1,443.78Z"/><path class="cls-27" d="M1480.63,443.66v1a14,14,0,0,1,4.62-4.09,12.24,12.24,0,0,1,5.75-1.3,11.49,11.49,0,0,1,5.66,1.38,8.69,8.69,0,0,1,3.72,3.89,9.29,9.29,0,0,1,1,3.17,31.88,31.88,0,0,1,.24,4.33v14.88a5.32,5.32,0,0,1-1.1,3.64,4,4,0,0,1-5.76,0,5.29,5.29,0,0,1-1.11-3.61V453.56a13.38,13.38,0,0,0-1.1-6.05q-1.1-2.08-4.38-2.09a6.48,6.48,0,0,0-3.9,1.27,7.36,7.36,0,0,0-2.58,3.51,25.11,25.11,0,0,0-.58,6.68v10a5.2,5.2,0,0,1-1.13,3.65,3.79,3.79,0,0,1-2.91,1.22,3.64,3.64,0,0,1-2.85-1.26,5.29,5.29,0,0,1-1.11-3.61V443.78a5,5,0,0,1,1-3.41,3.41,3.41,0,0,1,2.72-1.13,3.66,3.66,0,0,1,1.91.5,3.59,3.59,0,0,1,1.36,1.49A5.29,5.29,0,0,1,1480.63,443.66Z"/><path class="cls-27" d="M500.3,540.1l-7.06-11.61-4.34,4.11V539a4.88,4.88,0,0,1-1.21,3.56,3.82,3.82,0,0,1-2.8,1.25,3.61,3.61,0,0,1-2.9-1.23,5.47,5.47,0,0,1-1.06-3.64v-34.1a6.78,6.78,0,0,1,1-4.05,3.42,3.42,0,0,1,2.93-1.4,3.66,3.66,0,0,1,2.93,1.26,5.58,5.58,0,0,1,1.08,3.72v19.4l9-9.43a21.08,21.08,0,0,1,2.55-2.41,3.79,3.79,0,0,1,4.62.31,3.16,3.16,0,0,1,1,2.39q0,1.75-3.25,4.69l-4.25,3.89,8.2,12.89c.61,1,1,1.69,1.31,2.19a3,3,0,0,1,.39,1.42,4.15,4.15,0,0,1-1,3,3.59,3.59,0,0,1-2.74,1.1,3.07,3.07,0,0,1-2.25-.79A19.52,19.52,0,0,1,500.3,540.1Z"/><path class="cls-27" d="M532.7,539.25a24.66,24.66,0,0,1-5.61,3.38,15.72,15.72,0,0,1-6.08,1.13,11.5,11.5,0,0,1-5.4-1.22,8.88,8.88,0,0,1-3.59-3.29,8.57,8.57,0,0,1-1.26-4.52,8.06,8.06,0,0,1,2.08-5.59,10.41,10.41,0,0,1,5.71-3.11c.51-.11,1.77-.38,3.78-.79s3.74-.78,5.17-1.13,3-.75,4.67-1.24a8.27,8.27,0,0,0-1.27-4.64q-1.12-1.49-4.67-1.48a9.73,9.73,0,0,0-4.59.85,7.5,7.5,0,0,0-2.64,2.54c-.73,1.14-1.25,1.88-1.55,2.25a2.55,2.55,0,0,1-2,.54,3.42,3.42,0,0,1-2.33-.87,2.81,2.81,0,0,1-1-2.21,6.76,6.76,0,0,1,1.5-4.1,10.64,10.64,0,0,1,4.66-3.28,21,21,0,0,1,7.88-1.29,22.33,22.33,0,0,1,8.29,1.24,7.75,7.75,0,0,1,4.26,4,17.16,17.16,0,0,1,1.25,7.14c0,1.88,0,3.47,0,4.78s0,2.76,0,4.36a16.35,16.35,0,0,0,.74,4.71,14.77,14.77,0,0,1,.75,3.15,2.93,2.93,0,0,1-1.16,2.24,3.88,3.88,0,0,1-2.62,1,3.54,3.54,0,0,1-2.43-1.16A17.32,17.32,0,0,1,532.7,539.25Zm-.53-11.58a39.93,39.93,0,0,1-5.11,1.37c-2.23.48-3.78.83-4.64,1.05a6.3,6.3,0,0,0-2.46,1.32,3.38,3.38,0,0,0-1.17,2.74,4,4,0,0,0,1.37,3.09,5.1,5.1,0,0,0,3.61,1.27,9.31,9.31,0,0,0,4.38-1,6.94,6.94,0,0,0,2.94-2.68q1.08-1.81,1.08-6Z"/><path class="cls-27" d="M576.76,517.1v23.23a24.25,24.25,0,0,1-.85,6.86,10.9,10.9,0,0,1-2.72,4.74,11.38,11.38,0,0,1-4.91,2.78,26.47,26.47,0,0,1-7.54.91,21.91,21.91,0,0,1-7.38-1.15,12.83,12.83,0,0,1-5-3,5.43,5.43,0,0,1-1.76-3.77,3.1,3.1,0,0,1,1-2.38,3.42,3.42,0,0,1,2.41-.93,3.93,3.93,0,0,1,3.07,1.56l1.34,1.59a7.34,7.34,0,0,0,1.52,1.38,6,6,0,0,0,2,.85,12,12,0,0,0,2.69.28,10.84,10.84,0,0,0,4.82-.87,4.93,4.93,0,0,0,2.4-2.41,9.81,9.81,0,0,0,.81-3.33c.08-1.18.14-3.08.17-5.7a13.16,13.16,0,0,1-4.26,3.93A11.63,11.63,0,0,1,558.8,543a12.11,12.11,0,0,1-7-2.06,13.12,13.12,0,0,1-4.62-5.74,21.19,21.19,0,0,1-1.61-8.52,20.37,20.37,0,0,1,1-6.51,13.78,13.78,0,0,1,2.8-4.89,11.91,11.91,0,0,1,4.19-3,13.06,13.06,0,0,1,5.22-1,12.5,12.5,0,0,1,5.88,1.3,14.24,14.24,0,0,1,4.63,4.09V515.6a4.68,4.68,0,0,1,1-3.22,3.38,3.38,0,0,1,2.64-1.14,3.1,3.1,0,0,1,3.07,1.51A9.83,9.83,0,0,1,576.76,517.1Zm-23.17,10.13q0,4.88,2.12,7.36a6.9,6.9,0,0,0,5.5,2.49A7.17,7.17,0,0,0,565,536a7.86,7.86,0,0,0,2.89-3.22,11.32,11.32,0,0,0,1.11-5.23c0-3.27-.72-5.8-2.15-7.62a6.88,6.88,0,0,0-5.67-2.73,6.63,6.63,0,0,0-5.49,2.61Q553.59,522.43,553.59,527.23Z"/><path class="cls-27" d="M605.68,529.46H590a10.55,10.55,0,0,0,1.09,4.81,7.4,7.4,0,0,0,6.76,4.19,9.78,9.78,0,0,0,2.62-.34,8.67,8.67,0,0,0,2.3-1.06,19.17,19.17,0,0,0,2.05-1.53c.62-.55,1.43-1.29,2.43-2.23a2.64,2.64,0,0,1,1.76-.53,2.89,2.89,0,0,1,2,.68,2.39,2.39,0,0,1,.76,1.9,5.14,5.14,0,0,1-.85,2.53,10,10,0,0,1-2.56,2.79,14.63,14.63,0,0,1-4.31,2.21,18.69,18.69,0,0,1-6,.88q-7.71,0-12-4.4t-4.28-11.92a19.74,19.74,0,0,1,1.06-6.58,14.46,14.46,0,0,1,3.07-5.2,13.41,13.41,0,0,1,5-3.32,18,18,0,0,1,6.57-1.16,15.56,15.56,0,0,1,8,2,13,13,0,0,1,5,5.11,13.49,13.49,0,0,1,1.67,6.39c0,2-.57,3.31-1.73,3.91A10.83,10.83,0,0,1,605.68,529.46ZM590,524.92h14.5a9.82,9.82,0,0,0-2.21-6.14,6.62,6.62,0,0,0-5.06-2,6.4,6.4,0,0,0-4.91,2.06A10.25,10.25,0,0,0,590,524.92Z"/><path class="cls-27" d="M641.39,503.91v12.22a18.78,18.78,0,0,1,4.6-3.59,12.26,12.26,0,0,1,5.8-1.24,12.83,12.83,0,0,1,7,1.89,12.43,12.43,0,0,1,4.66,5.48,20.19,20.19,0,0,1,1.65,8.51,22.62,22.62,0,0,1-.92,6.66,15.74,15.74,0,0,1-2.68,5.26,12.12,12.12,0,0,1-4.26,3.44,12.48,12.48,0,0,1-5.52,1.22,13.43,13.43,0,0,1-3.48-.44,10.22,10.22,0,0,1-2.77-1.16,12.15,12.15,0,0,1-1.94-1.48q-.81-.76-2.13-2.28v.79a4.83,4.83,0,0,1-1.08,3.41,3.62,3.62,0,0,1-2.76,1.16,3.44,3.44,0,0,1-2.71-1.16,5.07,5.07,0,0,1-1-3.41V504.27a5.81,5.81,0,0,1,1-3.68,3.27,3.27,0,0,1,2.73-1.25,3.52,3.52,0,0,1,2.85,1.19A5.14,5.14,0,0,1,641.39,503.91Zm.38,23.76c0,3.19.73,5.63,2.19,7.34a7.14,7.14,0,0,0,5.72,2.57,6.56,6.56,0,0,0,5.2-2.63c1.46-1.74,2.19-4.25,2.19-7.51a14.84,14.84,0,0,0-.91-5.45,8,8,0,0,0-2.58-3.53,6.34,6.34,0,0,0-3.9-1.25,7,7,0,0,0-4.07,1.25,8.25,8.25,0,0,0-2.81,3.6A14.12,14.12,0,0,0,641.77,527.67Z"/><path class="cls-27" d="M670.72,538.89V504.21a5.43,5.43,0,0,1,1.07-3.64,3.61,3.61,0,0,1,2.88-1.23,3.79,3.79,0,0,1,2.93,1.22,5.21,5.21,0,0,1,1.12,3.65v34.68a5.2,5.2,0,0,1-1.13,3.65,3.8,3.8,0,0,1-2.92,1.22,3.6,3.6,0,0,1-2.85-1.26A5.28,5.28,0,0,1,670.72,538.89Z"/><path class="cls-27" d="M709.3,529.46H693.66a10.56,10.56,0,0,0,1.1,4.81,7.37,7.37,0,0,0,6.75,4.19,9.72,9.72,0,0,0,2.62-.34,8.67,8.67,0,0,0,2.3-1.06,18.21,18.21,0,0,0,2.05-1.53c.63-.55,1.44-1.29,2.43-2.23a2.64,2.64,0,0,1,1.76-.53,2.88,2.88,0,0,1,2,.68,2.4,2.4,0,0,1,.77,1.9,5.24,5.24,0,0,1-.85,2.53,10,10,0,0,1-2.57,2.79,14.7,14.7,0,0,1-4.3,2.21,18.75,18.75,0,0,1-6,.88q-7.69,0-12-4.4t-4.28-11.92a20,20,0,0,1,1.06-6.58,14.48,14.48,0,0,1,3.08-5.2,13.25,13.25,0,0,1,5-3.32,17.89,17.89,0,0,1,6.56-1.16,15.56,15.56,0,0,1,8,2,13,13,0,0,1,5,5.11,13.37,13.37,0,0,1,1.67,6.39c0,2-.57,3.31-1.72,3.91A10.91,10.91,0,0,1,709.3,529.46Zm-15.64-4.54h14.5c-.2-2.73-.93-4.78-2.21-6.14a6.62,6.62,0,0,0-5.06-2,6.38,6.38,0,0,0-4.9,2.06A10.25,10.25,0,0,0,693.66,524.92Z"/><path class="cls-27" d="M726.79,516.22l6.48,18.16,7-19a11.29,11.29,0,0,1,1.61-3.24,3,3,0,0,1,2.4-1,3.64,3.64,0,0,1,2.6,1,3.23,3.23,0,0,1,1.07,2.38,5.13,5.13,0,0,1-.19,1.23,13.6,13.6,0,0,1-.44,1.32l-.58,1.4-7.67,19c-.22.55-.49,1.25-.84,2.08a10.88,10.88,0,0,1-1.14,2.16,4.57,4.57,0,0,1-1.55,1.39,4.69,4.69,0,0,1-2.24.5,4.3,4.3,0,0,1-2.71-.78,5.26,5.26,0,0,1-1.5-1.7c-.32-.61-.86-1.83-1.62-3.65l-7.62-18.83-.54-1.41a12.57,12.57,0,0,1-.47-1.43,5,5,0,0,1-.19-1.26,3.1,3.1,0,0,1,.5-1.63,3.86,3.86,0,0,1,1.37-1.32,3.74,3.74,0,0,1,1.91-.51,3,3,0,0,1,2.74,1.14A17.75,17.75,0,0,1,726.79,516.22Z"/><path class="cls-27" d="M772.7,507.52a4.22,4.22,0,0,1-2.86-1,4,4,0,0,1,0-5.7,4.1,4.1,0,0,1,2.83-1.09,4.23,4.23,0,0,1,2.76,1,3.56,3.56,0,0,1,1.2,2.9,3.65,3.65,0,0,1-1.18,2.89A4,4,0,0,1,772.7,507.52Zm4,8.26v23.11a5.13,5.13,0,0,1-1.15,3.64,3.77,3.77,0,0,1-2.9,1.23,3.6,3.6,0,0,1-2.85-1.26,5.28,5.28,0,0,1-1.1-3.61V516a5.09,5.09,0,0,1,1.1-3.57,3.68,3.68,0,0,1,2.85-1.2,3.82,3.82,0,0,1,2.9,1.2A4.61,4.61,0,0,1,776.66,515.78Z"/><path class="cls-27" d="M804.84,540.1l-7.06-11.61-4.34,4.11V539a4.88,4.88,0,0,1-1.21,3.56,3.82,3.82,0,0,1-2.8,1.25,3.61,3.61,0,0,1-2.9-1.23,5.47,5.47,0,0,1-1.06-3.64v-34.1a6.78,6.78,0,0,1,1-4.05,3.42,3.42,0,0,1,2.93-1.4,3.66,3.66,0,0,1,2.93,1.26,5.58,5.58,0,0,1,1.08,3.72v19.4l9-9.43a21.08,21.08,0,0,1,2.55-2.41,3.81,3.81,0,0,1,4.63.31,3.18,3.18,0,0,1,1,2.39q0,1.75-3.25,4.69l-4.25,3.89,8.2,12.89c.61,1,1,1.69,1.31,2.19a3,3,0,0,1,.39,1.42,4.15,4.15,0,0,1-1,3,3.59,3.59,0,0,1-2.74,1.1A3.08,3.08,0,0,1,807,543,19.52,19.52,0,0,1,804.84,540.1Z"/><path class="cls-27" d="M839.23,540.1l-7.06-11.61-4.33,4.11V539a4.88,4.88,0,0,1-1.22,3.56,3.8,3.8,0,0,1-2.8,1.25,3.63,3.63,0,0,1-2.9-1.23,5.47,5.47,0,0,1-1-3.64v-34.1a6.78,6.78,0,0,1,1-4.05,3.43,3.43,0,0,1,2.93-1.4,3.66,3.66,0,0,1,2.93,1.26,5.53,5.53,0,0,1,1.09,3.72v19.4l9-9.43a21.86,21.86,0,0,1,2.55-2.41,3.52,3.52,0,0,1,2.14-.64,3.47,3.47,0,0,1,2.49,1,3.19,3.19,0,0,1,1,2.39q0,1.75-3.26,4.69l-4.24,3.89,8.2,12.89c.6,1,1,1.69,1.3,2.19a3,3,0,0,1,.4,1.42,4.19,4.19,0,0,1-1,3,3.62,3.62,0,0,1-2.74,1.1,3.09,3.09,0,0,1-2.26-.79A20.28,20.28,0,0,1,839.23,540.1Z"/><path class="cls-27" d="M873.75,529.46H858.1a10.69,10.69,0,0,0,1.1,4.81,7.37,7.37,0,0,0,6.75,4.19,9.85,9.85,0,0,0,2.63-.34,8.81,8.81,0,0,0,2.3-1.06,19.17,19.17,0,0,0,2-1.53c.62-.55,1.43-1.29,2.43-2.23a2.62,2.62,0,0,1,1.76-.53,2.89,2.89,0,0,1,2,.68,2.39,2.39,0,0,1,.76,1.9,5.14,5.14,0,0,1-.85,2.53,10.13,10.13,0,0,1-2.56,2.79,14.76,14.76,0,0,1-4.31,2.21,18.73,18.73,0,0,1-6,.88q-7.71,0-12-4.4t-4.28-11.92a20,20,0,0,1,1.05-6.58,14.63,14.63,0,0,1,3.08-5.2,13.41,13.41,0,0,1,5-3.32,17.89,17.89,0,0,1,6.56-1.16,15.51,15.51,0,0,1,8,2,13,13,0,0,1,5,5.11,13.49,13.49,0,0,1,1.67,6.39c0,2-.58,3.31-1.73,3.91A10.83,10.83,0,0,1,873.75,529.46Zm-15.65-4.54h14.5a9.71,9.71,0,0,0-2.21-6.14,6.6,6.6,0,0,0-5-2,6.4,6.4,0,0,0-4.91,2.06A10.31,10.31,0,0,0,858.1,524.92Z"/><path class="cls-27" d="M901.43,511.94h1.91v-2.4a15.24,15.24,0,0,1,.95-6,6.06,6.06,0,0,1,3.22-3.23,15.7,15.7,0,0,1,6.23-1c4.66,0,7,1.15,7,3.43a2.76,2.76,0,0,1-.73,1.91,2.32,2.32,0,0,1-1.73.79,11.91,11.91,0,0,1-1.61-.18,12.72,12.72,0,0,0-1.94-.17c-1.44,0-2.37.42-2.78,1.27a8.63,8.63,0,0,0-.62,3.65v1.9h2c3,0,4.57.92,4.57,2.76,0,1.3-.41,2.13-1.22,2.49a8.67,8.67,0,0,1-3.35.52h-2v21.18a5.21,5.21,0,0,1-1.12,3.62,3.78,3.78,0,0,1-2.92,1.25,3.68,3.68,0,0,1-2.83-1.25,5.21,5.21,0,0,1-1.12-3.62V517.71h-2.2a4.26,4.26,0,0,1-2.76-.8,2.62,2.62,0,0,1-1-2.1Q897.42,511.95,901.43,511.94Z"/><path class="cls-27" d="M955.66,511.18a17.2,17.2,0,0,1,8.16,1.79,13.49,13.49,0,0,1,5.46,5.56A12.28,12.28,0,0,1,971,524.6c0,3.2-1.77,4.8-5.33,4.8H949a12,12,0,0,0,1,4.84,7.23,7.23,0,0,0,2.67,3,7.5,7.5,0,0,0,4.07,1.06,10.4,10.4,0,0,0,4.22-.9,7.7,7.7,0,0,0,3.05-2.15,13.09,13.09,0,0,1,2.21-2.33,2.9,2.9,0,0,1,1.68-.54c1.8,0,2.7,1.05,2.7,3.16a5,5,0,0,1-.73,2,10.28,10.28,0,0,1-2.36,2.77,13.89,13.89,0,0,1-4.29,2.39,18.36,18.36,0,0,1-6.3,1,24.05,24.05,0,0,1-5.3-.53,13,13,0,0,1-4.08-1.63,13.33,13.33,0,0,1-3.22-2.88,20.21,20.21,0,0,1-13.18,5q-5.1,0-7.93-2.57a8.21,8.21,0,0,1-2.82-6.34q0-7.23,9.17-9.11,10.36-2.09,11.83-2.81v-.35a7.27,7.27,0,0,0-1.08-4.49q-1.1-1.33-4.92-1.34a8.23,8.23,0,0,0-4.34.89,7.39,7.39,0,0,0-2.43,2.72,16.94,16.94,0,0,1-1.58,2.47,3,3,0,0,1-2.26.63,3.14,3.14,0,0,1-2.33-.87,3.08,3.08,0,0,1-.86-2.3,7.5,7.5,0,0,1,1.53-4.5,10.51,10.51,0,0,1,4.66-3.35,20.37,20.37,0,0,1,7.61-1.26,21.65,21.65,0,0,1,6.31.76,10.63,10.63,0,0,1,4.38,2.7,16.58,16.58,0,0,1,4.5-2.64A14.29,14.29,0,0,1,955.66,511.18Zm-14.21,18.69v-2.14q-1.44.45-5.65,1.39a20.1,20.1,0,0,0-5.77,2,3.46,3.46,0,0,0-1.56,3.14,4.06,4.06,0,0,0,1.39,3.09,5.42,5.42,0,0,0,3.8,1.27,8.19,8.19,0,0,0,4.07-1,6.59,6.59,0,0,0,2.75-2.68,6,6,0,0,0,.82-2.17A20,20,0,0,0,941.45,529.87Zm7.56-5h14.38a9.61,9.61,0,0,0-2.13-6.05,6.43,6.43,0,0,0-5-2A6.56,6.56,0,0,0,951,519.1a8.32,8.32,0,0,0-2,5.56Z"/><path class="cls-27" d="M985.6,532.21v6.68a5.15,5.15,0,0,1-1.14,3.65,3.81,3.81,0,0,1-2.9,1.22,3.66,3.66,0,0,1-2.84-1.23,5.22,5.22,0,0,1-1.12-3.64V516.63q0-5.39,3.9-5.39a3.24,3.24,0,0,1,2.87,1.26,6.92,6.92,0,0,1,1,3.72,14,14,0,0,1,2.94-3.72,6.09,6.09,0,0,1,4-1.26,10.29,10.29,0,0,1,4.89,1.26,3.75,3.75,0,0,1,2.38,3.34,3.37,3.37,0,0,1-3.2,3.37,10.07,10.07,0,0,1-2.12-.54,9.66,9.66,0,0,0-3-.55,4.35,4.35,0,0,0-2.88.93,5.86,5.86,0,0,0-1.72,2.74,18.77,18.77,0,0,0-.85,4.32Q985.6,528.62,985.6,532.21Z"/><path class="cls-27" d="M1024.3,539.19v-.79a19.85,19.85,0,0,1-3.18,3,11.9,11.9,0,0,1-3.39,1.76,12.85,12.85,0,0,1-4,.6,11.78,11.78,0,0,1-5.32-1.22,12.43,12.43,0,0,1-4.23-3.47,15.54,15.54,0,0,1-2.71-5.3,22.48,22.48,0,0,1-.93-6.59q0-7.5,3.67-11.69a12.15,12.15,0,0,1,9.63-4.19,12.94,12.94,0,0,1,5.83,1.18,16.1,16.1,0,0,1,4.63,3.65V504.32a6,6,0,0,1,1-3.72,3.35,3.35,0,0,1,2.8-1.26,3.47,3.47,0,0,1,2.8,1.16,5.17,5.17,0,0,1,1,3.41v35.28a4.94,4.94,0,0,1-1,3.43,3.55,3.55,0,0,1-2.73,1.14,3.5,3.5,0,0,1-2.71-1.19A4.89,4.89,0,0,1,1024.3,539.19Zm-15.73-11.75a13.74,13.74,0,0,0,1,5.54,7.71,7.71,0,0,0,2.77,3.44,6.85,6.85,0,0,0,3.84,1.16,7.1,7.1,0,0,0,3.85-1.1,7.55,7.55,0,0,0,2.78-3.37,13.49,13.49,0,0,0,1-5.67,13.12,13.12,0,0,0-1-5.49,8.21,8.21,0,0,0-2.81-3.52,6.71,6.71,0,0,0-3.88-1.22,6.57,6.57,0,0,0-3.93,1.25,8,8,0,0,0-2.68,3.57A14.36,14.36,0,0,0,1008.57,527.44Z"/><path class="cls-27" d="M1043.93,507.52a4.18,4.18,0,0,1-2.85-1,4,4,0,0,1,0-5.7,4.12,4.12,0,0,1,2.83-1.09,4.23,4.23,0,0,1,2.76,1,3.56,3.56,0,0,1,1.2,2.9,3.65,3.65,0,0,1-1.18,2.89A4,4,0,0,1,1043.93,507.52Zm4,8.26v23.11a5.13,5.13,0,0,1-1.15,3.64,3.77,3.77,0,0,1-2.9,1.23,3.6,3.6,0,0,1-2.85-1.26,5.28,5.28,0,0,1-1.1-3.61V516a5.09,5.09,0,0,1,1.1-3.57,3.68,3.68,0,0,1,2.85-1.2,3.82,3.82,0,0,1,2.9,1.2A4.61,4.61,0,0,1,1047.89,515.78Z"/><path class="cls-27" d="M1085.56,517.1v23.23a24.25,24.25,0,0,1-.85,6.86,10.9,10.9,0,0,1-2.72,4.74,11.38,11.38,0,0,1-4.91,2.78,26.52,26.52,0,0,1-7.54.91,22,22,0,0,1-7.39-1.15,13,13,0,0,1-5-3,5.45,5.45,0,0,1-1.75-3.77,3.1,3.1,0,0,1,1-2.38,3.42,3.42,0,0,1,2.41-.93,3.93,3.93,0,0,1,3.07,1.56l1.33,1.59a7.65,7.65,0,0,0,1.53,1.38,6,6,0,0,0,2,.85,12.11,12.11,0,0,0,2.7.28,10.84,10.84,0,0,0,4.82-.87,4.93,4.93,0,0,0,2.4-2.41,9.81,9.81,0,0,0,.81-3.33c.08-1.18.13-3.08.17-5.7a13.16,13.16,0,0,1-4.26,3.93,11.63,11.63,0,0,1-5.76,1.35,12.11,12.11,0,0,1-7-2.06,13.05,13.05,0,0,1-4.62-5.74,21.19,21.19,0,0,1-1.61-8.52,20.37,20.37,0,0,1,1-6.51,13.78,13.78,0,0,1,2.8-4.89,11.91,11.91,0,0,1,4.19-3,13,13,0,0,1,5.21-1,12.51,12.51,0,0,1,5.89,1.3,14.24,14.24,0,0,1,4.63,4.09V515.6a4.63,4.63,0,0,1,1-3.22,3.37,3.37,0,0,1,2.63-1.14c1.55,0,2.57.5,3.08,1.51A9.83,9.83,0,0,1,1085.56,517.1Zm-23.17,10.13q0,4.88,2.12,7.36a6.9,6.9,0,0,0,5.5,2.49,7.2,7.2,0,0,0,3.76-1.07,7.93,7.93,0,0,0,2.89-3.22,11.32,11.32,0,0,0,1.11-5.23c0-3.27-.72-5.8-2.15-7.62a6.88,6.88,0,0,0-5.67-2.73,6.66,6.66,0,0,0-5.5,2.61Q1062.4,522.43,1062.39,527.23Z"/><path class="cls-27" d="M1101,503.91v12.22a18.78,18.78,0,0,1,4.6-3.59,12.26,12.26,0,0,1,5.8-1.24,12.83,12.83,0,0,1,7,1.89,12.43,12.43,0,0,1,4.66,5.48,20.19,20.19,0,0,1,1.65,8.51,23,23,0,0,1-.92,6.66,15.93,15.93,0,0,1-2.68,5.26,12.12,12.12,0,0,1-4.26,3.44,12.49,12.49,0,0,1-5.53,1.22,13.41,13.41,0,0,1-3.47-.44,10.22,10.22,0,0,1-2.77-1.16,12.15,12.15,0,0,1-1.94-1.48q-.81-.76-2.13-2.28v.79a4.83,4.83,0,0,1-1.08,3.41,3.63,3.63,0,0,1-2.76,1.16,3.44,3.44,0,0,1-2.71-1.16,5.07,5.07,0,0,1-1-3.41V504.27a5.87,5.87,0,0,1,1-3.68,3.31,3.31,0,0,1,2.74-1.25,3.53,3.53,0,0,1,2.85,1.19A5.14,5.14,0,0,1,1101,503.91Zm.38,23.76c0,3.19.73,5.63,2.18,7.34a7.18,7.18,0,0,0,5.73,2.57,6.57,6.57,0,0,0,5.2-2.63c1.46-1.74,2.19-4.25,2.19-7.51a14.84,14.84,0,0,0-.91-5.45,8,8,0,0,0-2.58-3.53,6.34,6.34,0,0,0-3.9-1.25,7,7,0,0,0-4.07,1.25,8.25,8.25,0,0,0-2.81,3.6A13.94,13.94,0,0,0,1101.41,527.67Z"/><path class="cls-27" d="M1151.36,539.25a24.66,24.66,0,0,1-5.61,3.38,15.69,15.69,0,0,1-6.08,1.13,11.5,11.5,0,0,1-5.4-1.22,9,9,0,0,1-3.59-3.29,8.57,8.57,0,0,1-1.26-4.52,8.06,8.06,0,0,1,2.08-5.59,10.45,10.45,0,0,1,5.71-3.11c.51-.11,1.77-.38,3.78-.79s3.74-.78,5.17-1.13,3-.75,4.68-1.24a8.34,8.34,0,0,0-1.28-4.64q-1.12-1.49-4.67-1.48a9.73,9.73,0,0,0-4.59.85,7.39,7.39,0,0,0-2.63,2.54c-.74,1.14-1.25,1.88-1.56,2.25a2.54,2.54,0,0,1-1.94.54,3.39,3.39,0,0,1-2.33-.87,2.78,2.78,0,0,1-1-2.21,6.75,6.75,0,0,1,1.49-4.1,10.7,10.7,0,0,1,4.66-3.28,21,21,0,0,1,7.88-1.29,22.33,22.33,0,0,1,8.29,1.24,7.75,7.75,0,0,1,4.26,4,17.16,17.16,0,0,1,1.25,7.14c0,1.88,0,3.47,0,4.78s0,2.76,0,4.36a16,16,0,0,0,.75,4.71,15.17,15.17,0,0,1,.74,3.15,3,3,0,0,1-1.15,2.24,3.92,3.92,0,0,1-2.63,1,3.54,3.54,0,0,1-2.43-1.16A17.32,17.32,0,0,1,1151.36,539.25Zm-.52-11.58a40.64,40.64,0,0,1-5.12,1.37c-2.23.48-3.78.83-4.64,1.05a6.3,6.3,0,0,0-2.46,1.32,3.38,3.38,0,0,0-1.17,2.74,4.08,4.08,0,0,0,1.37,3.09,5.1,5.1,0,0,0,3.61,1.27,9.31,9.31,0,0,0,4.38-1,6.83,6.83,0,0,0,2.94-2.68c.72-1.21,1.09-3.2,1.09-6Z"/><path class="cls-27" d="M1195.43,517.1v23.23a24.62,24.62,0,0,1-.85,6.86,11,11,0,0,1-2.73,4.74,11.33,11.33,0,0,1-4.91,2.78,26.47,26.47,0,0,1-7.54.91,22,22,0,0,1-7.38-1.15,12.83,12.83,0,0,1-5-3,5.47,5.47,0,0,1-1.76-3.77,3.07,3.07,0,0,1,1-2.38,3.38,3.38,0,0,1,2.4-.93,3.91,3.91,0,0,1,3.07,1.56l1.34,1.59a7.6,7.6,0,0,0,1.52,1.38,6.13,6.13,0,0,0,2,.85,12,12,0,0,0,2.69.28,10.84,10.84,0,0,0,4.82-.87,4.85,4.85,0,0,0,2.4-2.41,9.81,9.81,0,0,0,.81-3.33q.12-1.77.18-5.7a13.19,13.19,0,0,1-4.27,3.93,11.61,11.61,0,0,1-5.75,1.35,12.12,12.12,0,0,1-7-2.06,13,13,0,0,1-4.61-5.74,21,21,0,0,1-1.62-8.52,20.09,20.09,0,0,1,1-6.51,13.61,13.61,0,0,1,2.79-4.89,11.91,11.91,0,0,1,4.19-3,13.1,13.1,0,0,1,5.22-1,12.54,12.54,0,0,1,5.89,1.3,14.35,14.35,0,0,1,4.63,4.09V515.6a4.68,4.68,0,0,1,1-3.22,3.38,3.38,0,0,1,2.64-1.14c1.54,0,2.57.5,3.07,1.51A9.82,9.82,0,0,1,1195.43,517.1Zm-23.18,10.13q0,4.88,2.13,7.36a6.86,6.86,0,0,0,5.49,2.49,7.17,7.17,0,0,0,3.76-1.07,7.79,7.79,0,0,0,2.89-3.22,11.32,11.32,0,0,0,1.11-5.23c0-3.27-.71-5.8-2.15-7.62a6.88,6.88,0,0,0-5.67-2.73,6.64,6.64,0,0,0-5.49,2.61Q1172.25,522.43,1172.25,527.23Z"/><path class="cls-27" d="M1204,511.94h.88v-4.8c0-1.29,0-2.3.1-3a4.56,4.56,0,0,1,.57-1.89,3.74,3.74,0,0,1,1.35-1.33,3.85,3.85,0,0,1,2-.51,4,4,0,0,1,2.76,1.14,3.4,3.4,0,0,1,1,1.86,17.45,17.45,0,0,1,.22,3.12v5.45h2.93a3.74,3.74,0,0,1,2.59.81,2.62,2.62,0,0,1,.89,2.06,2.31,2.31,0,0,1-1.27,2.26,8.29,8.29,0,0,1-3.65.64h-1.49v14.71a23.65,23.65,0,0,0,.13,2.89,3,3,0,0,0,.7,1.64,2.4,2.4,0,0,0,1.86.63,10.51,10.51,0,0,0,1.91-.25,9.53,9.53,0,0,1,1.87-.25,2.44,2.44,0,0,1,1.75.77,2.64,2.64,0,0,1,.77,1.92,3.2,3.2,0,0,1-2.11,3,14.1,14.1,0,0,1-6.06,1,10.5,10.5,0,0,1-5.69-1.26,5.87,5.87,0,0,1-2.53-3.49,23.68,23.68,0,0,1-.6-6V517.71h-1a3.78,3.78,0,0,1-2.64-.82,2.66,2.66,0,0,1-.91-2.08,2.58,2.58,0,0,1,1-2.06A4.18,4.18,0,0,1,1204,511.94Z"/></g></svg>
