<svg xmlns="http://www.w3.org/2000/svg" width="90" height="90" viewBox="0 0 90 90"><defs><style>.cls-1{fill:#ff7bac;}</style></defs><title>tal_til_tid</title><g id="Overskrift"><path class="cls-1" d="M21.6,64.47V31.15q-9.3,7.14-12.53,7.14a3.68,3.68,0,0,1-2.72-1.23,3.93,3.93,0,0,1-1.19-2.84,3.2,3.2,0,0,1,1.17-2.74,24.94,24.94,0,0,1,4.14-2.27,30.8,30.8,0,0,0,7.08-4.4,30.33,30.33,0,0,0,4.71-5.16q2.05-2.87,2.67-3.52a3.22,3.22,0,0,1,2.35-.66A3.73,3.73,0,0,1,30.39,17a6.56,6.56,0,0,1,1.17,4.13V63q0,7.37-5,7.37A4.59,4.59,0,0,1,23,68.9,6.41,6.41,0,0,1,21.6,64.47Z"/><path class="cls-1" d="M71.26,64.84V58H52.87a7.56,7.56,0,0,1-5.22-1.58,5.47,5.47,0,0,1-1.73-4.28,4.11,4.11,0,0,1,.25-1.41,7.13,7.13,0,0,1,.77-1.5c.34-.53.7-1,1.06-1.52l1.36-1.8L68.77,20a29.52,29.52,0,0,1,3.13-3.72,4.15,4.15,0,0,1,2.95-1.15q5.57,0,5.56,6.37V49.82H82a11.17,11.17,0,0,1,4.52.77c1.14.52,1.7,1.64,1.7,3.37a3.51,3.51,0,0,1-1.39,3.1,7.38,7.38,0,0,1-4.17,1H80.41v6.81A6.06,6.06,0,0,1,79.17,69a4.66,4.66,0,0,1-6.65,0A6.07,6.07,0,0,1,71.26,64.84Zm-15.75-15H71.26V28.55Z"/></g></svg>
