<svg xmlns="http://www.w3.org/2000/svg" width="60" height="60" viewBox="0 0 60 60"><defs><style>.cls-1{fill:#fff;}</style></defs><title>tal_til_energibar_hvide</title><g id="Overskrift"><path class="cls-1" d="M23.7,17.1H12.56l-1.33,7.6a13.12,13.12,0,0,1,6.14-1.78,10.5,10.5,0,0,1,4.2.84,10.7,10.7,0,0,1,5.76,5.86A11.39,11.39,0,0,1,28.17,34a12.75,12.75,0,0,1-1.52,6.19,11.29,11.29,0,0,1-4.4,4.43,13.13,13.13,0,0,1-6.62,1.64,13.31,13.31,0,0,1-6.81-1.55,9.62,9.62,0,0,1-3.7-3.55A7.51,7.51,0,0,1,4,37.66a2.57,2.57,0,0,1,.76-1.74A2.53,2.53,0,0,1,6.7,35.1a3.13,3.13,0,0,1,2.93,2.28,7.94,7.94,0,0,0,2.53,3.24,5.89,5.89,0,0,0,3.57,1.16,5.47,5.47,0,0,0,3.16-.93A6.1,6.1,0,0,0,21,38.27a9.06,9.06,0,0,0,.74-3.73,8.51,8.51,0,0,0-.8-3.84,5.47,5.47,0,0,0-2.13-2.38,5.73,5.73,0,0,0-3-.79,6.31,6.31,0,0,0-2.88.49,26.54,26.54,0,0,0-2.5,1.73A4.91,4.91,0,0,1,7.76,31a2.91,2.91,0,0,1-2-.83,2.52,2.52,0,0,1-.89-1.89c0-.08.08-.61.26-1.59l2-11.23a5.43,5.43,0,0,1,1.22-2.93,4,4,0,0,1,2.91-.91H23.55c2.44,0,3.66.92,3.66,2.78a2.45,2.45,0,0,1-.89,2A4,4,0,0,1,23.7,17.1Z"/><path class="cls-1" d="M56.25,28.82a40.44,40.44,0,0,1-.47,6.61,15.47,15.47,0,0,1-1.73,5,11.58,11.58,0,0,1-4.13,4.26,11.22,11.22,0,0,1-12-.51,12.32,12.32,0,0,1-4.25-5.58,20.65,20.65,0,0,1-1.07-4.3,35.29,35.29,0,0,1-.34-5.1,50.76,50.76,0,0,1,.37-6.37A21.55,21.55,0,0,1,33.8,18a10.49,10.49,0,0,1,10.31-6.91,11.78,11.78,0,0,1,4.38.78A9.94,9.94,0,0,1,52,14.14a13.19,13.19,0,0,1,2.52,3.74Q56.26,21.74,56.25,28.82Zm-6.42-.47a38.42,38.42,0,0,0-.52-7,8.61,8.61,0,0,0-1.73-4.12,4.25,4.25,0,0,0-3.38-1.4,4.34,4.34,0,0,0-4.3,3.12q-1.2,3.12-1.2,9.61a41.79,41.79,0,0,0,.51,7.22A9,9,0,0,0,41,40,4.52,4.52,0,0,0,47.62,40a9.25,9.25,0,0,0,1.72-4.28A44.68,44.68,0,0,0,49.83,28.35Z"/></g></svg>
