<svg xmlns="http://www.w3.org/2000/svg" width="270" height="300" viewBox="0 0 270 300"><defs><style>.cls-1{fill:#ff7bac;stroke:#fff;stroke-miterlimit:10;stroke-width:4px;}.cls-2{fill:#fff;}</style></defs><title>timer</title><g id="Overskrift"><path class="cls-1" d="M226.18,61.19a10.24,10.24,0,0,0-1.9,1.09L213.84,71,211,73.18l-1.9,2.17L204.34,71l-9.5-4.36-14.25-5.45L174.89,59l-6.65-2.18-7.59-1.09H155L154,42.66V36.12h32.29V4.52H82.76V37.21h32.29V54.65l-12.34,2.18L93.21,59,82.76,62.28,72.31,67.73,60,74.26l-12.34-12-5.7-1.09H37.17l-5.7,4.36-12.35,12-.95,3.27v5.45L21,89.52,26.72,95l4.75,4.36-5.7,8.72-5.7,9.8-5.7,9.81-2.85,9.81-3.8,8.72-1.9,10.89-1,10.9v12l1,9.8,2.85,14.17,5.7,17.44,12.35,21.79L35.27,253l10.45,10.9L60,273.68l14.25,8.72,12.35,5.45,14.25,4.36,12.34,2.18,14.25,1.09h25.65l7.6-2.18,10.44-2.18,13.3-4.36,9.5-4.36L204.34,277l16.14-10.9,13.3-12,9.5-12,5.7-8.72,4.75-9.8,5.7-13.08,3.8-13.08,1.9-13.07V170.16l-.95-12-.95-7.63-1.9-7.62-3.8-10.9-2.85-6.54-3.8-5.45-5.7-10.89-6.65-8.72,5.7-6.54,6.65-6.54,1-3.27V79.71L249,75.35l-6.65-6.53-5.7-5.45a8.79,8.79,0,0,0-10.45-2.18Z"/><ellipse class="cls-2" cx="135" cy="173.43" rx="106.38" ry="96.98"/></g></svg>
